G04 #@! TF.FileFunction,Copper,L1,Top,Signal*
%FSLAX46Y46*%
G04 Gerber Fmt 4.6, Leading zero omitted, Abs format (unit mm)*
G04 Created by KiCad (PCBNEW 4.0.5+dfsg1-4) date Fri Oct 27 15:57:28 2017*
%MOMM*%
%LPD*%
G01*
G04 APERTURE LIST*
%ADD10C,0.100000*%
%ADD11C,1.000760*%
%ADD12R,1.600000X1.600000*%
%ADD13O,1.600000X1.600000*%
%ADD14C,2.300000*%
%ADD15C,2.000000*%
%ADD16R,2.499360X2.499360*%
%ADD17C,2.499360*%
%ADD18C,5.000000*%
%ADD19C,1.699260*%
%ADD20R,1.699260X1.699260*%
%ADD21C,1.300000*%
%ADD22C,1.998980*%
%ADD23R,1.727200X2.032000*%
%ADD24O,1.727200X2.032000*%
%ADD25R,2.032000X2.032000*%
%ADD26O,2.032000X2.032000*%
%ADD27R,1.900000X2.000000*%
%ADD28C,1.900000*%
%ADD29C,1.397000*%
%ADD30R,1.397000X1.397000*%
%ADD31R,1.727200X1.727200*%
%ADD32O,1.727200X1.727200*%
%ADD33O,1.998980X3.197860*%
%ADD34O,3.197860X1.998980*%
%ADD35C,0.254000*%
G04 APERTURE END LIST*
D10*
D11*
X95250000Y-31750000D03*
X93980000Y-33020000D03*
X93980000Y-30480000D03*
D12*
X72390000Y-29210000D03*
D13*
X72390000Y-31750000D03*
X72390000Y-34290000D03*
X72390000Y-36830000D03*
X72390000Y-39370000D03*
X72390000Y-41910000D03*
X72390000Y-44450000D03*
X80010000Y-44450000D03*
X80010000Y-41910000D03*
X80010000Y-39370000D03*
X80010000Y-36830000D03*
X80010000Y-34290000D03*
X80010000Y-31750000D03*
X80010000Y-29210000D03*
D14*
X101800000Y-54650000D03*
D15*
X109300000Y-67150000D03*
D14*
X99300000Y-57150000D03*
X106800000Y-57150000D03*
X114300000Y-57150000D03*
X111800000Y-54650000D03*
D15*
X104300000Y-67150000D03*
D14*
X81480000Y-54650000D03*
D15*
X88980000Y-67150000D03*
D14*
X78980000Y-57150000D03*
X86480000Y-57150000D03*
X93980000Y-57150000D03*
X91480000Y-54650000D03*
D15*
X83980000Y-67150000D03*
D16*
X139700000Y-39370000D03*
D17*
X139700000Y-24130000D03*
X132080000Y-24130000D03*
X132080000Y-39370000D03*
D18*
X73660000Y-66040000D03*
X165100000Y-66040000D03*
X165100000Y-24130000D03*
D19*
X90172540Y-48260520D03*
D20*
X90172540Y-38100520D03*
D14*
X122120000Y-54650000D03*
D15*
X129620000Y-67150000D03*
D14*
X119620000Y-57150000D03*
X127120000Y-57150000D03*
X134620000Y-57150000D03*
X132120000Y-54650000D03*
D15*
X124620000Y-67150000D03*
D11*
X90170000Y-31750000D03*
X88900000Y-33020000D03*
X88900000Y-30480000D03*
D12*
X93980000Y-38100000D03*
D13*
X93980000Y-40640000D03*
X93980000Y-43180000D03*
X101600000Y-43180000D03*
X101600000Y-40640000D03*
X101600000Y-38100000D03*
D21*
X80010000Y-25400000D03*
X77510000Y-25400000D03*
D22*
X76200000Y-48260000D03*
X86360000Y-48260000D03*
X93980000Y-48260000D03*
X104140000Y-48260000D03*
X83820000Y-39370000D03*
X83820000Y-29210000D03*
X109220000Y-44450000D03*
X109220000Y-34290000D03*
X105410000Y-34290000D03*
X105410000Y-44450000D03*
X107950000Y-48260000D03*
X118110000Y-48260000D03*
X132080000Y-48260000D03*
X121920000Y-48260000D03*
X72390000Y-48260000D03*
X72390000Y-58420000D03*
D23*
X83820000Y-62230000D03*
D24*
X86360000Y-62230000D03*
X88900000Y-62230000D03*
D25*
X105410000Y-62230000D03*
D26*
X107950000Y-62230000D03*
D23*
X124460000Y-62230000D03*
D24*
X127000000Y-62230000D03*
X129540000Y-62230000D03*
D12*
X119380000Y-22860000D03*
D13*
X119380000Y-25400000D03*
X119380000Y-27940000D03*
X119380000Y-30480000D03*
X119380000Y-33020000D03*
X119380000Y-35560000D03*
X119380000Y-38100000D03*
X119380000Y-40640000D03*
X127000000Y-40640000D03*
X127000000Y-38100000D03*
X127000000Y-35560000D03*
X127000000Y-33020000D03*
X127000000Y-30480000D03*
X127000000Y-27940000D03*
X127000000Y-25400000D03*
X127000000Y-22860000D03*
D21*
X124460000Y-44450000D03*
X121960000Y-44450000D03*
D18*
X73660000Y-24130000D03*
D27*
X111760000Y-24130000D03*
D28*
X109220000Y-24130000D03*
D22*
X99060000Y-30480000D03*
X109220000Y-30480000D03*
D29*
X91440000Y-24190960D03*
X93980000Y-24069040D03*
X88900000Y-24069040D03*
X96520000Y-24190960D03*
X86360000Y-24190960D03*
X99060000Y-24069040D03*
D30*
X83820000Y-24069040D03*
D29*
X101600000Y-24190960D03*
D31*
X144780000Y-22860000D03*
D32*
X147320000Y-22860000D03*
X144780000Y-25400000D03*
X147320000Y-25400000D03*
X144780000Y-27940000D03*
X147320000Y-27940000D03*
X144780000Y-30480000D03*
X147320000Y-30480000D03*
X144780000Y-33020000D03*
X147320000Y-33020000D03*
X144780000Y-35560000D03*
X147320000Y-35560000D03*
X144780000Y-38100000D03*
X147320000Y-38100000D03*
X144780000Y-40640000D03*
X147320000Y-40640000D03*
X144780000Y-43180000D03*
X147320000Y-43180000D03*
X144780000Y-45720000D03*
X147320000Y-45720000D03*
X144780000Y-48260000D03*
X147320000Y-48260000D03*
X144780000Y-50800000D03*
X147320000Y-50800000D03*
X144780000Y-53340000D03*
X147320000Y-53340000D03*
D30*
X135890000Y-44450000D03*
X138430000Y-44450000D03*
X135890000Y-46990000D03*
X138430000Y-46990000D03*
X135890000Y-49530000D03*
X138430000Y-49530000D03*
D33*
X148564600Y-60772040D03*
D34*
X143510000Y-64770000D03*
D33*
X138455400Y-60772040D03*
X161264600Y-60772040D03*
D34*
X156210000Y-64770000D03*
D33*
X151155400Y-60772040D03*
D29*
X165039040Y-53340000D03*
X165160960Y-50800000D03*
X165039040Y-48260000D03*
X165160960Y-45720000D03*
X165039040Y-43180000D03*
D30*
X165160960Y-55880000D03*
D29*
X165160960Y-40640000D03*
X165160960Y-34290000D03*
X165039040Y-31750000D03*
D30*
X165039040Y-36830000D03*
D29*
X165160960Y-29210000D03*
D30*
X115570000Y-30480000D03*
X113030000Y-30480000D03*
X115570000Y-33020000D03*
X113030000Y-33020000D03*
X115570000Y-35560000D03*
X113030000Y-35560000D03*
D35*
X72390000Y-29210000D02*
X74295000Y-27305000D01*
X93980000Y-22860000D02*
X93980000Y-24069040D01*
X93345000Y-22225000D02*
X93980000Y-22860000D01*
X79375000Y-22225000D02*
X93345000Y-22225000D01*
X78740000Y-22860000D02*
X79375000Y-22225000D01*
X78740000Y-26670000D02*
X78740000Y-22860000D01*
X78105000Y-27305000D02*
X78740000Y-26670000D01*
X74295000Y-27305000D02*
X78105000Y-27305000D01*
X147320000Y-33020000D02*
X146050000Y-31750000D01*
X139700000Y-31750000D02*
X134620000Y-36830000D01*
X140970000Y-31750000D02*
X139700000Y-31750000D01*
X146050000Y-31750000D02*
X140970000Y-31750000D01*
X147320000Y-38100000D02*
X146050000Y-36830000D01*
X134620000Y-36830000D02*
X132080000Y-39370000D01*
X146050000Y-36830000D02*
X134620000Y-36830000D01*
X105410000Y-34290000D02*
X92710000Y-34290000D01*
X92710000Y-34290000D02*
X90170000Y-31750000D01*
X99060000Y-24069040D02*
X99060000Y-24130000D01*
X99060000Y-24130000D02*
X102870000Y-27940000D01*
X102870000Y-27940000D02*
X110490000Y-27940000D01*
X110490000Y-27940000D02*
X113030000Y-30480000D01*
X135890000Y-44450000D02*
X133985000Y-46355000D01*
X109855000Y-46355000D02*
X107950000Y-48260000D01*
X133985000Y-46355000D02*
X109855000Y-46355000D01*
X107950000Y-48260000D02*
X106045000Y-46355000D01*
X81915000Y-46355000D02*
X80010000Y-44450000D01*
X106045000Y-46355000D02*
X81915000Y-46355000D01*
X72390000Y-48260000D02*
X74930000Y-50800000D01*
X134620000Y-50800000D02*
X135890000Y-49530000D01*
X74930000Y-50800000D02*
X134620000Y-50800000D01*
X72390000Y-48260000D02*
X74930000Y-45720000D01*
X74930000Y-44450000D02*
X72390000Y-41910000D01*
X74930000Y-45720000D02*
X74930000Y-44450000D01*
X165160960Y-50800000D02*
X160080960Y-45720000D01*
X160080960Y-45720000D02*
X147320000Y-45720000D01*
X147320000Y-45720000D02*
X156210000Y-54610000D01*
X156210000Y-54610000D02*
X156210000Y-64770000D01*
G36*
X168148000Y-34163000D02*
X166240571Y-34163000D01*
X166240647Y-34076216D01*
X166076649Y-33679311D01*
X165773246Y-33375378D01*
X165376628Y-33210687D01*
X164947176Y-33210313D01*
X164550271Y-33374311D01*
X164246338Y-33677714D01*
X164081647Y-34074332D01*
X164081570Y-34163000D01*
X148266743Y-34163000D01*
X148602688Y-33794947D01*
X148774958Y-33379026D01*
X148653817Y-33147000D01*
X147447000Y-33147000D01*
X147447000Y-33167000D01*
X147193000Y-33167000D01*
X147193000Y-33147000D01*
X147173000Y-33147000D01*
X147173000Y-32893000D01*
X147193000Y-32893000D01*
X147193000Y-32873000D01*
X147447000Y-32873000D01*
X147447000Y-32893000D01*
X148653817Y-32893000D01*
X148774958Y-32660974D01*
X148602688Y-32245053D01*
X148345957Y-31963784D01*
X163959353Y-31963784D01*
X164123351Y-32360689D01*
X164426754Y-32664622D01*
X164823372Y-32829313D01*
X165252824Y-32829687D01*
X165649729Y-32665689D01*
X165953662Y-32362286D01*
X166118353Y-31965668D01*
X166118727Y-31536216D01*
X165954729Y-31139311D01*
X165651326Y-30835378D01*
X165254708Y-30670687D01*
X164825256Y-30670313D01*
X164428351Y-30834311D01*
X164124418Y-31137714D01*
X163959727Y-31534332D01*
X163959353Y-31963784D01*
X148345957Y-31963784D01*
X148208490Y-31813179D01*
X147818338Y-31630324D01*
X147820671Y-31629860D01*
X148224448Y-31360065D01*
X148494243Y-30956288D01*
X148588983Y-30480000D01*
X148522186Y-30144188D01*
X164406377Y-30144188D01*
X164468031Y-30379800D01*
X164968440Y-30555927D01*
X165498159Y-30527148D01*
X165853889Y-30379800D01*
X165915543Y-30144188D01*
X165160960Y-29389605D01*
X164406377Y-30144188D01*
X148522186Y-30144188D01*
X148494243Y-30003712D01*
X148224448Y-29599935D01*
X147820671Y-29330140D01*
X147818338Y-29329676D01*
X148208490Y-29146821D01*
X148326547Y-29017480D01*
X163815033Y-29017480D01*
X163843812Y-29547199D01*
X163991160Y-29902929D01*
X164226772Y-29964583D01*
X164981355Y-29210000D01*
X165340565Y-29210000D01*
X166095148Y-29964583D01*
X166330760Y-29902929D01*
X166506887Y-29402520D01*
X166478108Y-28872801D01*
X166330760Y-28517071D01*
X166095148Y-28455417D01*
X165340565Y-29210000D01*
X164981355Y-29210000D01*
X164226772Y-28455417D01*
X163991160Y-28517071D01*
X163815033Y-29017480D01*
X148326547Y-29017480D01*
X148602688Y-28714947D01*
X148774958Y-28299026D01*
X148762838Y-28275812D01*
X164406377Y-28275812D01*
X165160960Y-29030395D01*
X165915543Y-28275812D01*
X165853889Y-28040200D01*
X165353480Y-27864073D01*
X164823761Y-27892852D01*
X164468031Y-28040200D01*
X164406377Y-28275812D01*
X148762838Y-28275812D01*
X148653817Y-28067000D01*
X147447000Y-28067000D01*
X147447000Y-28087000D01*
X147193000Y-28087000D01*
X147193000Y-28067000D01*
X147173000Y-28067000D01*
X147173000Y-27813000D01*
X147193000Y-27813000D01*
X147193000Y-27793000D01*
X147447000Y-27793000D01*
X147447000Y-27813000D01*
X148653817Y-27813000D01*
X148774958Y-27580974D01*
X148602688Y-27165053D01*
X148208490Y-26733179D01*
X147818338Y-26550324D01*
X147820671Y-26549860D01*
X148224448Y-26280065D01*
X148494243Y-25876288D01*
X148588983Y-25400000D01*
X148494243Y-24923712D01*
X148345133Y-24700552D01*
X162218501Y-24700552D01*
X162656183Y-25759823D01*
X163465914Y-26570969D01*
X164524420Y-27010499D01*
X165670552Y-27011499D01*
X166729823Y-26573817D01*
X167540969Y-25764086D01*
X167980499Y-24705580D01*
X167981499Y-23559448D01*
X167543817Y-22500177D01*
X166734086Y-21689031D01*
X165675580Y-21249501D01*
X164529448Y-21248501D01*
X163470177Y-21686183D01*
X162659031Y-22495914D01*
X162219501Y-23554420D01*
X162218501Y-24700552D01*
X148345133Y-24700552D01*
X148224448Y-24519935D01*
X147820671Y-24250140D01*
X147344383Y-24155400D01*
X147295617Y-24155400D01*
X146819329Y-24250140D01*
X146415552Y-24519935D01*
X146145757Y-24923712D01*
X146051017Y-25400000D01*
X146145757Y-25876288D01*
X146415552Y-26280065D01*
X146819329Y-26549860D01*
X146821662Y-26550324D01*
X146431510Y-26733179D01*
X146037312Y-27165053D01*
X145929159Y-27426172D01*
X145684448Y-27059935D01*
X145280671Y-26790140D01*
X144804383Y-26695400D01*
X144755617Y-26695400D01*
X144279329Y-26790140D01*
X143875552Y-27059935D01*
X143605757Y-27463712D01*
X143511017Y-27940000D01*
X143605757Y-28416288D01*
X143875552Y-28820065D01*
X144279329Y-29089860D01*
X144755617Y-29184600D01*
X144804383Y-29184600D01*
X145280671Y-29089860D01*
X145684448Y-28820065D01*
X145929159Y-28453828D01*
X146037312Y-28714947D01*
X146431510Y-29146821D01*
X146821662Y-29329676D01*
X146819329Y-29330140D01*
X146415552Y-29599935D01*
X146145757Y-30003712D01*
X146051017Y-30480000D01*
X146145757Y-30956288D01*
X146415552Y-31360065D01*
X146819329Y-31629860D01*
X146821662Y-31630324D01*
X146431510Y-31813179D01*
X146037312Y-32245053D01*
X145929159Y-32506172D01*
X145684448Y-32139935D01*
X145280671Y-31870140D01*
X144804383Y-31775400D01*
X144755617Y-31775400D01*
X144279329Y-31870140D01*
X143875552Y-32139935D01*
X143605757Y-32543712D01*
X143511017Y-33020000D01*
X143605757Y-33496288D01*
X143875552Y-33900065D01*
X144269062Y-34163000D01*
X142240000Y-34163000D01*
X142190590Y-34173006D01*
X142148965Y-34201447D01*
X142121685Y-34243841D01*
X142113000Y-34290000D01*
X142113000Y-50673000D01*
X135465420Y-50673000D01*
X135521456Y-50616964D01*
X136588500Y-50616964D01*
X136729690Y-50590397D01*
X136859365Y-50506954D01*
X136946359Y-50379634D01*
X136976964Y-50228500D01*
X136976964Y-48831500D01*
X137343036Y-48831500D01*
X137343036Y-50228500D01*
X137369603Y-50369690D01*
X137453046Y-50499365D01*
X137580366Y-50586359D01*
X137731500Y-50616964D01*
X139128500Y-50616964D01*
X139269690Y-50590397D01*
X139399365Y-50506954D01*
X139486359Y-50379634D01*
X139516964Y-50228500D01*
X139516964Y-48831500D01*
X139490397Y-48690310D01*
X139406954Y-48560635D01*
X139279634Y-48473641D01*
X139128500Y-48443036D01*
X137731500Y-48443036D01*
X137590310Y-48469603D01*
X137460635Y-48553046D01*
X137373641Y-48680366D01*
X137343036Y-48831500D01*
X136976964Y-48831500D01*
X136950397Y-48690310D01*
X136866954Y-48560635D01*
X136739634Y-48473641D01*
X136588500Y-48443036D01*
X135191500Y-48443036D01*
X135050310Y-48469603D01*
X134920635Y-48553046D01*
X134833641Y-48680366D01*
X134803036Y-48831500D01*
X134803036Y-49898544D01*
X134409580Y-50292000D01*
X75140421Y-50292000D01*
X74260584Y-49412163D01*
X75227443Y-49412163D01*
X75326042Y-49678965D01*
X75935582Y-49905401D01*
X76585377Y-49881341D01*
X77073958Y-49678965D01*
X77172557Y-49412163D01*
X76200000Y-48439605D01*
X75227443Y-49412163D01*
X74260584Y-49412163D01*
X73656987Y-48808567D01*
X73770249Y-48535801D01*
X73770721Y-47995582D01*
X74554599Y-47995582D01*
X74578659Y-48645377D01*
X74781035Y-49133958D01*
X75047837Y-49232557D01*
X76020395Y-48260000D01*
X76379605Y-48260000D01*
X77352163Y-49232557D01*
X77618965Y-49133958D01*
X77842067Y-48533392D01*
X84979271Y-48533392D01*
X85188995Y-49040963D01*
X85576994Y-49429640D01*
X86084199Y-49640249D01*
X86633392Y-49640729D01*
X87140963Y-49431005D01*
X87529640Y-49043006D01*
X87740249Y-48535801D01*
X87740276Y-48504233D01*
X88941697Y-48504233D01*
X89128655Y-48956705D01*
X89474534Y-49303189D01*
X89926679Y-49490935D01*
X90416253Y-49491363D01*
X90868725Y-49304405D01*
X91215209Y-48958526D01*
X91391739Y-48533392D01*
X92599271Y-48533392D01*
X92808995Y-49040963D01*
X93196994Y-49429640D01*
X93704199Y-49640249D01*
X94253392Y-49640729D01*
X94760963Y-49431005D01*
X95149640Y-49043006D01*
X95360249Y-48535801D01*
X95360251Y-48533392D01*
X102759271Y-48533392D01*
X102968995Y-49040963D01*
X103356994Y-49429640D01*
X103864199Y-49640249D01*
X104413392Y-49640729D01*
X104920963Y-49431005D01*
X105309640Y-49043006D01*
X105520249Y-48535801D01*
X105520729Y-47986608D01*
X105311005Y-47479037D01*
X104923006Y-47090360D01*
X104415801Y-46879751D01*
X103866608Y-46879271D01*
X103359037Y-47088995D01*
X102970360Y-47476994D01*
X102759751Y-47984199D01*
X102759271Y-48533392D01*
X95360251Y-48533392D01*
X95360729Y-47986608D01*
X95151005Y-47479037D01*
X94763006Y-47090360D01*
X94255801Y-46879751D01*
X93706608Y-46879271D01*
X93199037Y-47088995D01*
X92810360Y-47476994D01*
X92599751Y-47984199D01*
X92599271Y-48533392D01*
X91391739Y-48533392D01*
X91402955Y-48506381D01*
X91403383Y-48016807D01*
X91216425Y-47564335D01*
X90870546Y-47217851D01*
X90418401Y-47030105D01*
X89928827Y-47029677D01*
X89476355Y-47216635D01*
X89129871Y-47562514D01*
X88942125Y-48014659D01*
X88941697Y-48504233D01*
X87740276Y-48504233D01*
X87740729Y-47986608D01*
X87531005Y-47479037D01*
X87143006Y-47090360D01*
X86635801Y-46879751D01*
X86086608Y-46879271D01*
X85579037Y-47088995D01*
X85190360Y-47476994D01*
X84979751Y-47984199D01*
X84979271Y-48533392D01*
X77842067Y-48533392D01*
X77845401Y-48524418D01*
X77821341Y-47874623D01*
X77618965Y-47386042D01*
X77352163Y-47287443D01*
X76379605Y-48260000D01*
X76020395Y-48260000D01*
X75047837Y-47287443D01*
X74781035Y-47386042D01*
X74554599Y-47995582D01*
X73770721Y-47995582D01*
X73770729Y-47986608D01*
X73657017Y-47711404D01*
X74260584Y-47107837D01*
X75227443Y-47107837D01*
X76200000Y-48080395D01*
X77172557Y-47107837D01*
X77073958Y-46841035D01*
X76464418Y-46614599D01*
X75814623Y-46638659D01*
X75326042Y-46841035D01*
X75227443Y-47107837D01*
X74260584Y-47107837D01*
X75289210Y-46079211D01*
X75386381Y-45933784D01*
X75399331Y-45914403D01*
X75438000Y-45720000D01*
X75438000Y-44450000D01*
X78805863Y-44450000D01*
X78895761Y-44901949D01*
X79151770Y-45285093D01*
X79534914Y-45541102D01*
X79986863Y-45631000D01*
X80033137Y-45631000D01*
X80399672Y-45558092D01*
X81555790Y-46714210D01*
X81720597Y-46824331D01*
X81915000Y-46863000D01*
X105834580Y-46863000D01*
X106683013Y-47711433D01*
X106569751Y-47984199D01*
X106569271Y-48533392D01*
X106778995Y-49040963D01*
X107166994Y-49429640D01*
X107674199Y-49640249D01*
X108223392Y-49640729D01*
X108730963Y-49431005D01*
X109119640Y-49043006D01*
X109330249Y-48535801D01*
X109330251Y-48533392D01*
X116729271Y-48533392D01*
X116938995Y-49040963D01*
X117326994Y-49429640D01*
X117834199Y-49640249D01*
X118383392Y-49640729D01*
X118890963Y-49431005D01*
X119279640Y-49043006D01*
X119490249Y-48535801D01*
X119490251Y-48533392D01*
X120539271Y-48533392D01*
X120748995Y-49040963D01*
X121136994Y-49429640D01*
X121644199Y-49640249D01*
X122193392Y-49640729D01*
X122700963Y-49431005D01*
X122719837Y-49412163D01*
X131107443Y-49412163D01*
X131206042Y-49678965D01*
X131815582Y-49905401D01*
X132465377Y-49881341D01*
X132953958Y-49678965D01*
X133052557Y-49412163D01*
X132080000Y-48439605D01*
X131107443Y-49412163D01*
X122719837Y-49412163D01*
X123089640Y-49043006D01*
X123300249Y-48535801D01*
X123300721Y-47995582D01*
X130434599Y-47995582D01*
X130458659Y-48645377D01*
X130661035Y-49133958D01*
X130927837Y-49232557D01*
X131900395Y-48260000D01*
X132259605Y-48260000D01*
X133232163Y-49232557D01*
X133498965Y-49133958D01*
X133725401Y-48524418D01*
X133701341Y-47874623D01*
X133498965Y-47386042D01*
X133232163Y-47287443D01*
X132259605Y-48260000D01*
X131900395Y-48260000D01*
X130927837Y-47287443D01*
X130661035Y-47386042D01*
X130434599Y-47995582D01*
X123300721Y-47995582D01*
X123300729Y-47986608D01*
X123091005Y-47479037D01*
X122703006Y-47090360D01*
X122195801Y-46879751D01*
X121646608Y-46879271D01*
X121139037Y-47088995D01*
X120750360Y-47476994D01*
X120539751Y-47984199D01*
X120539271Y-48533392D01*
X119490251Y-48533392D01*
X119490729Y-47986608D01*
X119281005Y-47479037D01*
X118893006Y-47090360D01*
X118385801Y-46879751D01*
X117836608Y-46879271D01*
X117329037Y-47088995D01*
X116940360Y-47476994D01*
X116729751Y-47984199D01*
X116729271Y-48533392D01*
X109330251Y-48533392D01*
X109330729Y-47986608D01*
X109217017Y-47711403D01*
X110065420Y-46863000D01*
X131197925Y-46863000D01*
X131107443Y-47107837D01*
X132080000Y-48080395D01*
X133052557Y-47107837D01*
X132962075Y-46863000D01*
X133985000Y-46863000D01*
X134179403Y-46824331D01*
X134344210Y-46714210D01*
X134812207Y-46246213D01*
X134803036Y-46291500D01*
X134803036Y-47688500D01*
X134829603Y-47829690D01*
X134913046Y-47959365D01*
X135040366Y-48046359D01*
X135191500Y-48076964D01*
X136588500Y-48076964D01*
X136729690Y-48050397D01*
X136859365Y-47966954D01*
X136946359Y-47839634D01*
X136976964Y-47688500D01*
X136976964Y-46291500D01*
X137343036Y-46291500D01*
X137343036Y-47688500D01*
X137369603Y-47829690D01*
X137453046Y-47959365D01*
X137580366Y-48046359D01*
X137731500Y-48076964D01*
X139128500Y-48076964D01*
X139269690Y-48050397D01*
X139399365Y-47966954D01*
X139486359Y-47839634D01*
X139516964Y-47688500D01*
X139516964Y-46291500D01*
X139490397Y-46150310D01*
X139406954Y-46020635D01*
X139279634Y-45933641D01*
X139128500Y-45903036D01*
X137731500Y-45903036D01*
X137590310Y-45929603D01*
X137460635Y-46013046D01*
X137373641Y-46140366D01*
X137343036Y-46291500D01*
X136976964Y-46291500D01*
X136950397Y-46150310D01*
X136866954Y-46020635D01*
X136739634Y-45933641D01*
X136588500Y-45903036D01*
X135191500Y-45903036D01*
X135147013Y-45911407D01*
X135521456Y-45536964D01*
X136588500Y-45536964D01*
X136729690Y-45510397D01*
X136859365Y-45426954D01*
X136946359Y-45299634D01*
X136976964Y-45148500D01*
X136976964Y-43751500D01*
X137343036Y-43751500D01*
X137343036Y-45148500D01*
X137369603Y-45289690D01*
X137453046Y-45419365D01*
X137580366Y-45506359D01*
X137731500Y-45536964D01*
X139128500Y-45536964D01*
X139269690Y-45510397D01*
X139399365Y-45426954D01*
X139486359Y-45299634D01*
X139516964Y-45148500D01*
X139516964Y-43751500D01*
X139490397Y-43610310D01*
X139406954Y-43480635D01*
X139279634Y-43393641D01*
X139128500Y-43363036D01*
X137731500Y-43363036D01*
X137590310Y-43389603D01*
X137460635Y-43473046D01*
X137373641Y-43600366D01*
X137343036Y-43751500D01*
X136976964Y-43751500D01*
X136950397Y-43610310D01*
X136866954Y-43480635D01*
X136739634Y-43393641D01*
X136588500Y-43363036D01*
X135191500Y-43363036D01*
X135050310Y-43389603D01*
X134920635Y-43473046D01*
X134833641Y-43600366D01*
X134803036Y-43751500D01*
X134803036Y-44818544D01*
X133774580Y-45847000D01*
X110102075Y-45847000D01*
X110192557Y-45602163D01*
X109220000Y-44629605D01*
X108247443Y-45602163D01*
X108346042Y-45868965D01*
X108955582Y-46095401D01*
X109413120Y-46078460D01*
X108498567Y-46993013D01*
X108225801Y-46879751D01*
X107676608Y-46879271D01*
X107401403Y-46992983D01*
X106404210Y-45995790D01*
X106241021Y-45886750D01*
X106283958Y-45868965D01*
X106382557Y-45602163D01*
X105410000Y-44629605D01*
X104437443Y-45602163D01*
X104527925Y-45847000D01*
X82125420Y-45847000D01*
X81133552Y-44855132D01*
X81214137Y-44450000D01*
X81124239Y-43998051D01*
X80868230Y-43614907D01*
X80485086Y-43358898D01*
X80033137Y-43269000D01*
X79986863Y-43269000D01*
X79534914Y-43358898D01*
X79151770Y-43614907D01*
X78895761Y-43998051D01*
X78805863Y-44450000D01*
X75438000Y-44450000D01*
X75399331Y-44255597D01*
X75309110Y-44120572D01*
X75289210Y-44090789D01*
X74378421Y-43180000D01*
X92775863Y-43180000D01*
X92865761Y-43631949D01*
X93121770Y-44015093D01*
X93504914Y-44271102D01*
X93956863Y-44361000D01*
X94003137Y-44361000D01*
X94455086Y-44271102D01*
X94838230Y-44015093D01*
X95094239Y-43631949D01*
X95184137Y-43180000D01*
X100395863Y-43180000D01*
X100485761Y-43631949D01*
X100741770Y-44015093D01*
X101124914Y-44271102D01*
X101576863Y-44361000D01*
X101623137Y-44361000D01*
X102075086Y-44271102D01*
X102203075Y-44185582D01*
X103764599Y-44185582D01*
X103788659Y-44835377D01*
X103991035Y-45323958D01*
X104257837Y-45422557D01*
X105230395Y-44450000D01*
X105589605Y-44450000D01*
X106562163Y-45422557D01*
X106828965Y-45323958D01*
X107055401Y-44714418D01*
X107035820Y-44185582D01*
X107574599Y-44185582D01*
X107598659Y-44835377D01*
X107801035Y-45323958D01*
X108067837Y-45422557D01*
X109040395Y-44450000D01*
X109399605Y-44450000D01*
X110372163Y-45422557D01*
X110638965Y-45323958D01*
X110865401Y-44714418D01*
X110863171Y-44654179D01*
X120928822Y-44654179D01*
X121085451Y-45033251D01*
X121375223Y-45323529D01*
X121754022Y-45480820D01*
X122164179Y-45481178D01*
X122484036Y-45349016D01*
X123740590Y-45349016D01*
X123796271Y-45579611D01*
X124279078Y-45747622D01*
X124789428Y-45718083D01*
X125123729Y-45579611D01*
X125179410Y-45349016D01*
X124460000Y-44629605D01*
X123740590Y-45349016D01*
X122484036Y-45349016D01*
X122543251Y-45324549D01*
X122833529Y-45034777D01*
X122990820Y-44655978D01*
X122991157Y-44269078D01*
X123162378Y-44269078D01*
X123191917Y-44779428D01*
X123330389Y-45113729D01*
X123560984Y-45169410D01*
X124280395Y-44450000D01*
X124639605Y-44450000D01*
X125359016Y-45169410D01*
X125589611Y-45113729D01*
X125757622Y-44630922D01*
X125728083Y-44120572D01*
X125589611Y-43786271D01*
X125359016Y-43730590D01*
X124639605Y-44450000D01*
X124280395Y-44450000D01*
X123560984Y-43730590D01*
X123330389Y-43786271D01*
X123162378Y-44269078D01*
X122991157Y-44269078D01*
X122991178Y-44245821D01*
X122834549Y-43866749D01*
X122544777Y-43576471D01*
X122483398Y-43550984D01*
X123740590Y-43550984D01*
X124460000Y-44270395D01*
X125179410Y-43550984D01*
X125123729Y-43320389D01*
X124640922Y-43152378D01*
X124130572Y-43181917D01*
X123796271Y-43320389D01*
X123740590Y-43550984D01*
X122483398Y-43550984D01*
X122165978Y-43419180D01*
X121755821Y-43418822D01*
X121376749Y-43575451D01*
X121086471Y-43865223D01*
X120929180Y-44244022D01*
X120928822Y-44654179D01*
X110863171Y-44654179D01*
X110841341Y-44064623D01*
X110638965Y-43576042D01*
X110372163Y-43477443D01*
X109399605Y-44450000D01*
X109040395Y-44450000D01*
X108067837Y-43477443D01*
X107801035Y-43576042D01*
X107574599Y-44185582D01*
X107035820Y-44185582D01*
X107031341Y-44064623D01*
X106828965Y-43576042D01*
X106562163Y-43477443D01*
X105589605Y-44450000D01*
X105230395Y-44450000D01*
X104257837Y-43477443D01*
X103991035Y-43576042D01*
X103764599Y-44185582D01*
X102203075Y-44185582D01*
X102458230Y-44015093D01*
X102714239Y-43631949D01*
X102780697Y-43297837D01*
X104437443Y-43297837D01*
X105410000Y-44270395D01*
X106382557Y-43297837D01*
X108247443Y-43297837D01*
X109220000Y-44270395D01*
X110192557Y-43297837D01*
X110093958Y-43031035D01*
X109484418Y-42804599D01*
X108834623Y-42828659D01*
X108346042Y-43031035D01*
X108247443Y-43297837D01*
X106382557Y-43297837D01*
X106283958Y-43031035D01*
X105674418Y-42804599D01*
X105024623Y-42828659D01*
X104536042Y-43031035D01*
X104437443Y-43297837D01*
X102780697Y-43297837D01*
X102804137Y-43180000D01*
X102714239Y-42728051D01*
X102458230Y-42344907D01*
X102075086Y-42088898D01*
X101623137Y-41999000D01*
X101576863Y-41999000D01*
X101124914Y-42088898D01*
X100741770Y-42344907D01*
X100485761Y-42728051D01*
X100395863Y-43180000D01*
X95184137Y-43180000D01*
X95094239Y-42728051D01*
X94838230Y-42344907D01*
X94455086Y-42088898D01*
X94003137Y-41999000D01*
X93956863Y-41999000D01*
X93504914Y-42088898D01*
X93121770Y-42344907D01*
X92865761Y-42728051D01*
X92775863Y-43180000D01*
X74378421Y-43180000D01*
X73513552Y-42315131D01*
X73594137Y-41910000D01*
X78805863Y-41910000D01*
X78895761Y-42361949D01*
X79151770Y-42745093D01*
X79534914Y-43001102D01*
X79986863Y-43091000D01*
X80033137Y-43091000D01*
X80485086Y-43001102D01*
X80868230Y-42745093D01*
X81124239Y-42361949D01*
X81214137Y-41910000D01*
X81124239Y-41458051D01*
X80868230Y-41074907D01*
X80485086Y-40818898D01*
X80033137Y-40729000D01*
X79986863Y-40729000D01*
X79534914Y-40818898D01*
X79151770Y-41074907D01*
X78895761Y-41458051D01*
X78805863Y-41910000D01*
X73594137Y-41910000D01*
X73504239Y-41458051D01*
X73248230Y-41074907D01*
X72865086Y-40818898D01*
X72413137Y-40729000D01*
X72366863Y-40729000D01*
X71914914Y-40818898D01*
X71531770Y-41074907D01*
X71275761Y-41458051D01*
X71185863Y-41910000D01*
X71275761Y-42361949D01*
X71531770Y-42745093D01*
X71914914Y-43001102D01*
X72366863Y-43091000D01*
X72413137Y-43091000D01*
X72779672Y-43018092D01*
X74422000Y-44660421D01*
X74422000Y-45509579D01*
X72938567Y-46993013D01*
X72665801Y-46879751D01*
X72116608Y-46879271D01*
X71609037Y-47088995D01*
X71220360Y-47476994D01*
X71009751Y-47984199D01*
X71009271Y-48533392D01*
X71218995Y-49040963D01*
X71606994Y-49429640D01*
X72114199Y-49640249D01*
X72663392Y-49640729D01*
X72938596Y-49527017D01*
X74084579Y-50673000D01*
X70612000Y-50673000D01*
X70612000Y-44450000D01*
X71185863Y-44450000D01*
X71275761Y-44901949D01*
X71531770Y-45285093D01*
X71914914Y-45541102D01*
X72366863Y-45631000D01*
X72413137Y-45631000D01*
X72865086Y-45541102D01*
X73248230Y-45285093D01*
X73504239Y-44901949D01*
X73594137Y-44450000D01*
X73504239Y-43998051D01*
X73248230Y-43614907D01*
X72865086Y-43358898D01*
X72413137Y-43269000D01*
X72366863Y-43269000D01*
X71914914Y-43358898D01*
X71531770Y-43614907D01*
X71275761Y-43998051D01*
X71185863Y-44450000D01*
X70612000Y-44450000D01*
X70612000Y-39370000D01*
X71185863Y-39370000D01*
X71275761Y-39821949D01*
X71531770Y-40205093D01*
X71914914Y-40461102D01*
X72366863Y-40551000D01*
X72413137Y-40551000D01*
X72865086Y-40461102D01*
X73248230Y-40205093D01*
X73504239Y-39821949D01*
X73594137Y-39370000D01*
X78805863Y-39370000D01*
X78895761Y-39821949D01*
X79151770Y-40205093D01*
X79534914Y-40461102D01*
X79986863Y-40551000D01*
X80033137Y-40551000D01*
X80178110Y-40522163D01*
X82847443Y-40522163D01*
X82946042Y-40788965D01*
X83555582Y-41015401D01*
X84205377Y-40991341D01*
X84693958Y-40788965D01*
X84749009Y-40640000D01*
X92775863Y-40640000D01*
X92865761Y-41091949D01*
X93121770Y-41475093D01*
X93504914Y-41731102D01*
X93956863Y-41821000D01*
X94003137Y-41821000D01*
X94455086Y-41731102D01*
X94838230Y-41475093D01*
X95094239Y-41091949D01*
X95184137Y-40640000D01*
X100395863Y-40640000D01*
X100485761Y-41091949D01*
X100741770Y-41475093D01*
X101124914Y-41731102D01*
X101576863Y-41821000D01*
X101623137Y-41821000D01*
X102075086Y-41731102D01*
X102458230Y-41475093D01*
X102714239Y-41091949D01*
X102804137Y-40640000D01*
X118175863Y-40640000D01*
X118265761Y-41091949D01*
X118521770Y-41475093D01*
X118904914Y-41731102D01*
X119356863Y-41821000D01*
X119403137Y-41821000D01*
X119855086Y-41731102D01*
X120238230Y-41475093D01*
X120494239Y-41091949D01*
X120584137Y-40640000D01*
X120494239Y-40188051D01*
X120238230Y-39804907D01*
X119855086Y-39548898D01*
X119403137Y-39459000D01*
X119356863Y-39459000D01*
X118904914Y-39548898D01*
X118521770Y-39804907D01*
X118265761Y-40188051D01*
X118175863Y-40640000D01*
X102804137Y-40640000D01*
X102714239Y-40188051D01*
X102458230Y-39804907D01*
X102075086Y-39548898D01*
X101623137Y-39459000D01*
X101576863Y-39459000D01*
X101124914Y-39548898D01*
X100741770Y-39804907D01*
X100485761Y-40188051D01*
X100395863Y-40640000D01*
X95184137Y-40640000D01*
X95094239Y-40188051D01*
X94838230Y-39804907D01*
X94455086Y-39548898D01*
X94003137Y-39459000D01*
X93956863Y-39459000D01*
X93504914Y-39548898D01*
X93121770Y-39804907D01*
X92865761Y-40188051D01*
X92775863Y-40640000D01*
X84749009Y-40640000D01*
X84792557Y-40522163D01*
X83820000Y-39549605D01*
X82847443Y-40522163D01*
X80178110Y-40522163D01*
X80485086Y-40461102D01*
X80868230Y-40205093D01*
X81124239Y-39821949D01*
X81214137Y-39370000D01*
X81161542Y-39105582D01*
X82174599Y-39105582D01*
X82198659Y-39755377D01*
X82401035Y-40243958D01*
X82667837Y-40342557D01*
X83640395Y-39370000D01*
X83999605Y-39370000D01*
X84972163Y-40342557D01*
X85238965Y-40243958D01*
X85465401Y-39634418D01*
X85441341Y-38984623D01*
X85238965Y-38496042D01*
X84972163Y-38397443D01*
X83999605Y-39370000D01*
X83640395Y-39370000D01*
X82667837Y-38397443D01*
X82401035Y-38496042D01*
X82174599Y-39105582D01*
X81161542Y-39105582D01*
X81124239Y-38918051D01*
X80868230Y-38534907D01*
X80485086Y-38278898D01*
X80178111Y-38217837D01*
X82847443Y-38217837D01*
X83820000Y-39190395D01*
X84792557Y-38217837D01*
X84693958Y-37951035D01*
X84084418Y-37724599D01*
X83434623Y-37748659D01*
X82946042Y-37951035D01*
X82847443Y-38217837D01*
X80178111Y-38217837D01*
X80033137Y-38189000D01*
X79986863Y-38189000D01*
X79534914Y-38278898D01*
X79151770Y-38534907D01*
X78895761Y-38918051D01*
X78805863Y-39370000D01*
X73594137Y-39370000D01*
X73504239Y-38918051D01*
X73248230Y-38534907D01*
X72865086Y-38278898D01*
X72413137Y-38189000D01*
X72366863Y-38189000D01*
X71914914Y-38278898D01*
X71531770Y-38534907D01*
X71275761Y-38918051D01*
X71185863Y-39370000D01*
X70612000Y-39370000D01*
X70612000Y-36830000D01*
X71185863Y-36830000D01*
X71275761Y-37281949D01*
X71531770Y-37665093D01*
X71914914Y-37921102D01*
X72366863Y-38011000D01*
X72413137Y-38011000D01*
X72865086Y-37921102D01*
X73248230Y-37665093D01*
X73504239Y-37281949D01*
X73594137Y-36830000D01*
X78805863Y-36830000D01*
X78895761Y-37281949D01*
X79151770Y-37665093D01*
X79534914Y-37921102D01*
X79986863Y-38011000D01*
X80033137Y-38011000D01*
X80485086Y-37921102D01*
X80868230Y-37665093D01*
X81124239Y-37281949D01*
X81130417Y-37250890D01*
X88934446Y-37250890D01*
X88934446Y-38950150D01*
X88961013Y-39091340D01*
X89044456Y-39221015D01*
X89171776Y-39308009D01*
X89322910Y-39338614D01*
X91022170Y-39338614D01*
X91163360Y-39312047D01*
X91293035Y-39228604D01*
X91380029Y-39101284D01*
X91410634Y-38950150D01*
X91410634Y-37300000D01*
X92791536Y-37300000D01*
X92791536Y-38900000D01*
X92818103Y-39041190D01*
X92901546Y-39170865D01*
X93028866Y-39257859D01*
X93180000Y-39288464D01*
X94780000Y-39288464D01*
X94921190Y-39261897D01*
X95050865Y-39178454D01*
X95137859Y-39051134D01*
X95168464Y-38900000D01*
X95168464Y-38100000D01*
X100395863Y-38100000D01*
X100485761Y-38551949D01*
X100741770Y-38935093D01*
X101124914Y-39191102D01*
X101576863Y-39281000D01*
X101623137Y-39281000D01*
X102075086Y-39191102D01*
X102458230Y-38935093D01*
X102714239Y-38551949D01*
X102804137Y-38100000D01*
X118175863Y-38100000D01*
X118265761Y-38551949D01*
X118521770Y-38935093D01*
X118904914Y-39191102D01*
X119356863Y-39281000D01*
X119403137Y-39281000D01*
X119855086Y-39191102D01*
X120238230Y-38935093D01*
X120494239Y-38551949D01*
X120514709Y-38449039D01*
X125608096Y-38449039D01*
X125768959Y-38837423D01*
X126144866Y-39252389D01*
X126650959Y-39491914D01*
X126872998Y-39370630D01*
X126872998Y-39479660D01*
X126524914Y-39548898D01*
X126141770Y-39804907D01*
X125885761Y-40188051D01*
X125795863Y-40640000D01*
X125885761Y-41091949D01*
X126141770Y-41475093D01*
X126524914Y-41731102D01*
X126976863Y-41821000D01*
X127023137Y-41821000D01*
X127475086Y-41731102D01*
X127858230Y-41475093D01*
X128114239Y-41091949D01*
X128191587Y-40703089D01*
X130926517Y-40703089D01*
X131055725Y-40995859D01*
X131755883Y-41264071D01*
X132505384Y-41243928D01*
X133104275Y-40995859D01*
X133233483Y-40703089D01*
X132080000Y-39549605D01*
X130926517Y-40703089D01*
X128191587Y-40703089D01*
X128204137Y-40640000D01*
X128114239Y-40188051D01*
X127858230Y-39804907D01*
X127475086Y-39548898D01*
X127127002Y-39479660D01*
X127127002Y-39370630D01*
X127349041Y-39491914D01*
X127855134Y-39252389D01*
X128042202Y-39045883D01*
X130185929Y-39045883D01*
X130206072Y-39795384D01*
X130454141Y-40394275D01*
X130746911Y-40523483D01*
X131900395Y-39370000D01*
X132259605Y-39370000D01*
X133413089Y-40523483D01*
X133705859Y-40394275D01*
X133974071Y-39694117D01*
X133953928Y-38944616D01*
X133705859Y-38345725D01*
X133413089Y-38216517D01*
X132259605Y-39370000D01*
X131900395Y-39370000D01*
X130746911Y-38216517D01*
X130454141Y-38345725D01*
X130185929Y-39045883D01*
X128042202Y-39045883D01*
X128231041Y-38837423D01*
X128391904Y-38449039D01*
X128269915Y-38227000D01*
X127127000Y-38227000D01*
X127127000Y-38247000D01*
X126873000Y-38247000D01*
X126873000Y-38227000D01*
X125730085Y-38227000D01*
X125608096Y-38449039D01*
X120514709Y-38449039D01*
X120584137Y-38100000D01*
X120571589Y-38036911D01*
X130926517Y-38036911D01*
X132080000Y-39190395D01*
X133150074Y-38120320D01*
X138061856Y-38120320D01*
X138061856Y-40619680D01*
X138088423Y-40760870D01*
X138171866Y-40890545D01*
X138299186Y-40977539D01*
X138450320Y-41008144D01*
X140949680Y-41008144D01*
X141090870Y-40981577D01*
X141220545Y-40898134D01*
X141307539Y-40770814D01*
X141338144Y-40619680D01*
X141338144Y-38120320D01*
X141311577Y-37979130D01*
X141228134Y-37849455D01*
X141100814Y-37762461D01*
X140949680Y-37731856D01*
X138450320Y-37731856D01*
X138309130Y-37758423D01*
X138179455Y-37841866D01*
X138092461Y-37969186D01*
X138061856Y-38120320D01*
X133150074Y-38120320D01*
X133233483Y-38036911D01*
X133104275Y-37744141D01*
X132404117Y-37475929D01*
X131654616Y-37496072D01*
X131055725Y-37744141D01*
X130926517Y-38036911D01*
X120571589Y-38036911D01*
X120514710Y-37750961D01*
X125608096Y-37750961D01*
X125730085Y-37973000D01*
X126873000Y-37973000D01*
X126873000Y-37953000D01*
X127127000Y-37953000D01*
X127127000Y-37973000D01*
X128269915Y-37973000D01*
X128391904Y-37750961D01*
X128231041Y-37362577D01*
X127855134Y-36947611D01*
X127349041Y-36708086D01*
X127127002Y-36829370D01*
X127127002Y-36720340D01*
X127475086Y-36651102D01*
X127858230Y-36395093D01*
X128114239Y-36011949D01*
X128204137Y-35560000D01*
X128114239Y-35108051D01*
X127858230Y-34724907D01*
X127475086Y-34468898D01*
X127023137Y-34379000D01*
X126976863Y-34379000D01*
X126524914Y-34468898D01*
X126141770Y-34724907D01*
X125885761Y-35108051D01*
X125795863Y-35560000D01*
X125885761Y-36011949D01*
X126141770Y-36395093D01*
X126524914Y-36651102D01*
X126872998Y-36720340D01*
X126872998Y-36829370D01*
X126650959Y-36708086D01*
X126144866Y-36947611D01*
X125768959Y-37362577D01*
X125608096Y-37750961D01*
X120514710Y-37750961D01*
X120494239Y-37648051D01*
X120238230Y-37264907D01*
X119855086Y-37008898D01*
X119403137Y-36919000D01*
X119356863Y-36919000D01*
X118904914Y-37008898D01*
X118521770Y-37264907D01*
X118265761Y-37648051D01*
X118175863Y-38100000D01*
X102804137Y-38100000D01*
X102714239Y-37648051D01*
X102458230Y-37264907D01*
X102075086Y-37008898D01*
X101623137Y-36919000D01*
X101576863Y-36919000D01*
X101124914Y-37008898D01*
X100741770Y-37264907D01*
X100485761Y-37648051D01*
X100395863Y-38100000D01*
X95168464Y-38100000D01*
X95168464Y-37300000D01*
X95141897Y-37158810D01*
X95058454Y-37029135D01*
X94931134Y-36942141D01*
X94780000Y-36911536D01*
X93180000Y-36911536D01*
X93038810Y-36938103D01*
X92909135Y-37021546D01*
X92822141Y-37148866D01*
X92791536Y-37300000D01*
X91410634Y-37300000D01*
X91410634Y-37250890D01*
X91384067Y-37109700D01*
X91300624Y-36980025D01*
X91173304Y-36893031D01*
X91022170Y-36862426D01*
X89322910Y-36862426D01*
X89181720Y-36888993D01*
X89052045Y-36972436D01*
X88965051Y-37099756D01*
X88934446Y-37250890D01*
X81130417Y-37250890D01*
X81214137Y-36830000D01*
X81124239Y-36378051D01*
X80868230Y-35994907D01*
X80485086Y-35738898D01*
X80033137Y-35649000D01*
X79986863Y-35649000D01*
X79534914Y-35738898D01*
X79151770Y-35994907D01*
X78895761Y-36378051D01*
X78805863Y-36830000D01*
X73594137Y-36830000D01*
X73504239Y-36378051D01*
X73248230Y-35994907D01*
X72865086Y-35738898D01*
X72413137Y-35649000D01*
X72366863Y-35649000D01*
X71914914Y-35738898D01*
X71531770Y-35994907D01*
X71275761Y-36378051D01*
X71185863Y-36830000D01*
X70612000Y-36830000D01*
X70612000Y-34290000D01*
X71185863Y-34290000D01*
X71275761Y-34741949D01*
X71531770Y-35125093D01*
X71914914Y-35381102D01*
X72366863Y-35471000D01*
X72413137Y-35471000D01*
X72865086Y-35381102D01*
X73248230Y-35125093D01*
X73504239Y-34741949D01*
X73594137Y-34290000D01*
X78805863Y-34290000D01*
X78895761Y-34741949D01*
X79151770Y-35125093D01*
X79534914Y-35381102D01*
X79986863Y-35471000D01*
X80033137Y-35471000D01*
X80485086Y-35381102D01*
X80868230Y-35125093D01*
X81124239Y-34741949D01*
X81214137Y-34290000D01*
X81124239Y-33838051D01*
X80868230Y-33454907D01*
X80485086Y-33198898D01*
X80463218Y-33194548D01*
X88018468Y-33194548D01*
X88152367Y-33518609D01*
X88400087Y-33766762D01*
X88723914Y-33901226D01*
X89074548Y-33901532D01*
X89398609Y-33767633D01*
X89646762Y-33519913D01*
X89781226Y-33196086D01*
X89781532Y-32845452D01*
X89647633Y-32521391D01*
X89399913Y-32273238D01*
X89076086Y-32138774D01*
X88725452Y-32138468D01*
X88401391Y-32272367D01*
X88153238Y-32520087D01*
X88018774Y-32843914D01*
X88018468Y-33194548D01*
X80463218Y-33194548D01*
X80033137Y-33109000D01*
X79986863Y-33109000D01*
X79534914Y-33198898D01*
X79151770Y-33454907D01*
X78895761Y-33838051D01*
X78805863Y-34290000D01*
X73594137Y-34290000D01*
X73504239Y-33838051D01*
X73248230Y-33454907D01*
X72865086Y-33198898D01*
X72413137Y-33109000D01*
X72366863Y-33109000D01*
X71914914Y-33198898D01*
X71531770Y-33454907D01*
X71275761Y-33838051D01*
X71185863Y-34290000D01*
X70612000Y-34290000D01*
X70612000Y-31750000D01*
X71185863Y-31750000D01*
X71275761Y-32201949D01*
X71531770Y-32585093D01*
X71914914Y-32841102D01*
X72366863Y-32931000D01*
X72413137Y-32931000D01*
X72865086Y-32841102D01*
X73248230Y-32585093D01*
X73504239Y-32201949D01*
X73594137Y-31750000D01*
X73504239Y-31298051D01*
X73248230Y-30914907D01*
X72865086Y-30658898D01*
X72413137Y-30569000D01*
X72366863Y-30569000D01*
X71914914Y-30658898D01*
X71531770Y-30914907D01*
X71275761Y-31298051D01*
X71185863Y-31750000D01*
X70612000Y-31750000D01*
X70612000Y-24700552D01*
X70778501Y-24700552D01*
X71216183Y-25759823D01*
X72025914Y-26570969D01*
X73084420Y-27010499D01*
X73870395Y-27011185D01*
X72860044Y-28021536D01*
X71590000Y-28021536D01*
X71448810Y-28048103D01*
X71319135Y-28131546D01*
X71232141Y-28258866D01*
X71201536Y-28410000D01*
X71201536Y-30010000D01*
X71228103Y-30151190D01*
X71311546Y-30280865D01*
X71438866Y-30367859D01*
X71590000Y-30398464D01*
X73190000Y-30398464D01*
X73331190Y-30371897D01*
X73460865Y-30288454D01*
X73547859Y-30161134D01*
X73578464Y-30010000D01*
X73578464Y-29559039D01*
X78618096Y-29559039D01*
X78778959Y-29947423D01*
X79154866Y-30362389D01*
X79660959Y-30601914D01*
X79882998Y-30480630D01*
X79882998Y-30589660D01*
X79534914Y-30658898D01*
X79151770Y-30914907D01*
X78895761Y-31298051D01*
X78805863Y-31750000D01*
X78895761Y-32201949D01*
X79151770Y-32585093D01*
X79534914Y-32841102D01*
X79986863Y-32931000D01*
X80033137Y-32931000D01*
X80485086Y-32841102D01*
X80868230Y-32585093D01*
X81124239Y-32201949D01*
X81179417Y-31924548D01*
X89288468Y-31924548D01*
X89422367Y-32248609D01*
X89670087Y-32496762D01*
X89993914Y-32631226D01*
X90333102Y-32631522D01*
X92350789Y-34649210D01*
X92442316Y-34710366D01*
X92515597Y-34759331D01*
X92710000Y-34798000D01*
X104126209Y-34798000D01*
X104238995Y-35070963D01*
X104626994Y-35459640D01*
X105134199Y-35670249D01*
X105683392Y-35670729D01*
X106190963Y-35461005D01*
X106579640Y-35073006D01*
X106790249Y-34565801D01*
X106790251Y-34563392D01*
X107839271Y-34563392D01*
X108048995Y-35070963D01*
X108436994Y-35459640D01*
X108944199Y-35670249D01*
X109493392Y-35670729D01*
X110000963Y-35461005D01*
X110389640Y-35073006D01*
X110477464Y-34861500D01*
X111943036Y-34861500D01*
X111943036Y-36258500D01*
X111969603Y-36399690D01*
X112053046Y-36529365D01*
X112180366Y-36616359D01*
X112331500Y-36646964D01*
X113728500Y-36646964D01*
X113869690Y-36620397D01*
X113999365Y-36536954D01*
X114086359Y-36409634D01*
X114116964Y-36258500D01*
X114116964Y-34861500D01*
X114483036Y-34861500D01*
X114483036Y-36258500D01*
X114509603Y-36399690D01*
X114593046Y-36529365D01*
X114720366Y-36616359D01*
X114871500Y-36646964D01*
X116268500Y-36646964D01*
X116409690Y-36620397D01*
X116539365Y-36536954D01*
X116626359Y-36409634D01*
X116656964Y-36258500D01*
X116656964Y-35560000D01*
X118175863Y-35560000D01*
X118265761Y-36011949D01*
X118521770Y-36395093D01*
X118904914Y-36651102D01*
X119356863Y-36741000D01*
X119403137Y-36741000D01*
X119855086Y-36651102D01*
X120238230Y-36395093D01*
X120494239Y-36011949D01*
X120584137Y-35560000D01*
X120494239Y-35108051D01*
X120238230Y-34724907D01*
X119855086Y-34468898D01*
X119403137Y-34379000D01*
X119356863Y-34379000D01*
X118904914Y-34468898D01*
X118521770Y-34724907D01*
X118265761Y-35108051D01*
X118175863Y-35560000D01*
X116656964Y-35560000D01*
X116656964Y-34861500D01*
X116630397Y-34720310D01*
X116546954Y-34590635D01*
X116419634Y-34503641D01*
X116268500Y-34473036D01*
X114871500Y-34473036D01*
X114730310Y-34499603D01*
X114600635Y-34583046D01*
X114513641Y-34710366D01*
X114483036Y-34861500D01*
X114116964Y-34861500D01*
X114090397Y-34720310D01*
X114006954Y-34590635D01*
X113879634Y-34503641D01*
X113728500Y-34473036D01*
X112331500Y-34473036D01*
X112190310Y-34499603D01*
X112060635Y-34583046D01*
X111973641Y-34710366D01*
X111943036Y-34861500D01*
X110477464Y-34861500D01*
X110600249Y-34565801D01*
X110600729Y-34016608D01*
X110391005Y-33509037D01*
X110003006Y-33120360D01*
X109495801Y-32909751D01*
X108946608Y-32909271D01*
X108439037Y-33118995D01*
X108050360Y-33506994D01*
X107839751Y-34014199D01*
X107839271Y-34563392D01*
X106790251Y-34563392D01*
X106790729Y-34016608D01*
X106581005Y-33509037D01*
X106193006Y-33120360D01*
X105685801Y-32909751D01*
X105136608Y-32909271D01*
X104629037Y-33118995D01*
X104240360Y-33506994D01*
X104126168Y-33782000D01*
X94443838Y-33782000D01*
X94478609Y-33767633D01*
X94726762Y-33519913D01*
X94861226Y-33196086D01*
X94861532Y-32845452D01*
X94727633Y-32521391D01*
X94479913Y-32273238D01*
X94156086Y-32138774D01*
X93805452Y-32138468D01*
X93481391Y-32272367D01*
X93233238Y-32520087D01*
X93098774Y-32843914D01*
X93098468Y-33194548D01*
X93232367Y-33518609D01*
X93480087Y-33766762D01*
X93516784Y-33782000D01*
X92920421Y-33782000D01*
X91062969Y-31924548D01*
X94368468Y-31924548D01*
X94502367Y-32248609D01*
X94750087Y-32496762D01*
X95073914Y-32631226D01*
X95424548Y-32631532D01*
X95748609Y-32497633D01*
X95925049Y-32321500D01*
X111943036Y-32321500D01*
X111943036Y-33718500D01*
X111969603Y-33859690D01*
X112053046Y-33989365D01*
X112180366Y-34076359D01*
X112331500Y-34106964D01*
X113728500Y-34106964D01*
X113869690Y-34080397D01*
X113999365Y-33996954D01*
X114086359Y-33869634D01*
X114116964Y-33718500D01*
X114116964Y-32321500D01*
X114483036Y-32321500D01*
X114483036Y-33718500D01*
X114509603Y-33859690D01*
X114593046Y-33989365D01*
X114720366Y-34076359D01*
X114871500Y-34106964D01*
X116268500Y-34106964D01*
X116409690Y-34080397D01*
X116539365Y-33996954D01*
X116626359Y-33869634D01*
X116656964Y-33718500D01*
X116656964Y-33020000D01*
X118175863Y-33020000D01*
X118265761Y-33471949D01*
X118521770Y-33855093D01*
X118904914Y-34111102D01*
X119356863Y-34201000D01*
X119403137Y-34201000D01*
X119855086Y-34111102D01*
X120238230Y-33855093D01*
X120494239Y-33471949D01*
X120584137Y-33020000D01*
X125795863Y-33020000D01*
X125885761Y-33471949D01*
X126141770Y-33855093D01*
X126524914Y-34111102D01*
X126976863Y-34201000D01*
X127023137Y-34201000D01*
X127475086Y-34111102D01*
X127858230Y-33855093D01*
X128114239Y-33471949D01*
X128204137Y-33020000D01*
X128114239Y-32568051D01*
X127858230Y-32184907D01*
X127475086Y-31928898D01*
X127023137Y-31839000D01*
X126976863Y-31839000D01*
X126524914Y-31928898D01*
X126141770Y-32184907D01*
X125885761Y-32568051D01*
X125795863Y-33020000D01*
X120584137Y-33020000D01*
X120494239Y-32568051D01*
X120238230Y-32184907D01*
X119855086Y-31928898D01*
X119403137Y-31839000D01*
X119356863Y-31839000D01*
X118904914Y-31928898D01*
X118521770Y-32184907D01*
X118265761Y-32568051D01*
X118175863Y-33020000D01*
X116656964Y-33020000D01*
X116656964Y-32321500D01*
X116630397Y-32180310D01*
X116546954Y-32050635D01*
X116419634Y-31963641D01*
X116268500Y-31933036D01*
X114871500Y-31933036D01*
X114730310Y-31959603D01*
X114600635Y-32043046D01*
X114513641Y-32170366D01*
X114483036Y-32321500D01*
X114116964Y-32321500D01*
X114090397Y-32180310D01*
X114006954Y-32050635D01*
X113879634Y-31963641D01*
X113728500Y-31933036D01*
X112331500Y-31933036D01*
X112190310Y-31959603D01*
X112060635Y-32043046D01*
X111973641Y-32170366D01*
X111943036Y-32321500D01*
X95925049Y-32321500D01*
X95996762Y-32249913D01*
X96131226Y-31926086D01*
X96131532Y-31575452D01*
X95997633Y-31251391D01*
X95749913Y-31003238D01*
X95426086Y-30868774D01*
X95075452Y-30868468D01*
X94751391Y-31002367D01*
X94503238Y-31250087D01*
X94368774Y-31573914D01*
X94368468Y-31924548D01*
X91062969Y-31924548D01*
X91051238Y-31912817D01*
X91051532Y-31575452D01*
X90917633Y-31251391D01*
X90669913Y-31003238D01*
X90346086Y-30868774D01*
X89995452Y-30868468D01*
X89671391Y-31002367D01*
X89423238Y-31250087D01*
X89288774Y-31573914D01*
X89288468Y-31924548D01*
X81179417Y-31924548D01*
X81214137Y-31750000D01*
X81124239Y-31298051D01*
X80868230Y-30914907D01*
X80485086Y-30658898D01*
X80463218Y-30654548D01*
X88018468Y-30654548D01*
X88152367Y-30978609D01*
X88400087Y-31226762D01*
X88723914Y-31361226D01*
X89074548Y-31361532D01*
X89398609Y-31227633D01*
X89646762Y-30979913D01*
X89781226Y-30656086D01*
X89781227Y-30654548D01*
X93098468Y-30654548D01*
X93232367Y-30978609D01*
X93480087Y-31226762D01*
X93803914Y-31361226D01*
X94154548Y-31361532D01*
X94478609Y-31227633D01*
X94726762Y-30979913D01*
X94820821Y-30753392D01*
X97679271Y-30753392D01*
X97888995Y-31260963D01*
X98276994Y-31649640D01*
X98784199Y-31860249D01*
X99333392Y-31860729D01*
X99840963Y-31651005D01*
X100229640Y-31263006D01*
X100440249Y-30755801D01*
X100440251Y-30753392D01*
X107839271Y-30753392D01*
X108048995Y-31260963D01*
X108436994Y-31649640D01*
X108944199Y-31860249D01*
X109493392Y-31860729D01*
X110000963Y-31651005D01*
X110389640Y-31263006D01*
X110600249Y-30755801D01*
X110600729Y-30206608D01*
X110391005Y-29699037D01*
X110003006Y-29310360D01*
X109495801Y-29099751D01*
X108946608Y-29099271D01*
X108439037Y-29308995D01*
X108050360Y-29696994D01*
X107839751Y-30204199D01*
X107839271Y-30753392D01*
X100440251Y-30753392D01*
X100440729Y-30206608D01*
X100231005Y-29699037D01*
X99843006Y-29310360D01*
X99335801Y-29099751D01*
X98786608Y-29099271D01*
X98279037Y-29308995D01*
X97890360Y-29696994D01*
X97679751Y-30204199D01*
X97679271Y-30753392D01*
X94820821Y-30753392D01*
X94861226Y-30656086D01*
X94861532Y-30305452D01*
X94727633Y-29981391D01*
X94479913Y-29733238D01*
X94156086Y-29598774D01*
X93805452Y-29598468D01*
X93481391Y-29732367D01*
X93233238Y-29980087D01*
X93098774Y-30303914D01*
X93098468Y-30654548D01*
X89781227Y-30654548D01*
X89781532Y-30305452D01*
X89647633Y-29981391D01*
X89399913Y-29733238D01*
X89076086Y-29598774D01*
X88725452Y-29598468D01*
X88401391Y-29732367D01*
X88153238Y-29980087D01*
X88018774Y-30303914D01*
X88018468Y-30654548D01*
X80463218Y-30654548D01*
X80137002Y-30589660D01*
X80137002Y-30480630D01*
X80359041Y-30601914D01*
X80865134Y-30362389D01*
X81241041Y-29947423D01*
X81401904Y-29559039D01*
X81360344Y-29483392D01*
X82439271Y-29483392D01*
X82648995Y-29990963D01*
X83036994Y-30379640D01*
X83544199Y-30590249D01*
X84093392Y-30590729D01*
X84600963Y-30381005D01*
X84989640Y-29993006D01*
X85200249Y-29485801D01*
X85200729Y-28936608D01*
X84991005Y-28429037D01*
X84603006Y-28040360D01*
X84095801Y-27829751D01*
X83546608Y-27829271D01*
X83039037Y-28038995D01*
X82650360Y-28426994D01*
X82439751Y-28934199D01*
X82439271Y-29483392D01*
X81360344Y-29483392D01*
X81279915Y-29337000D01*
X80137000Y-29337000D01*
X80137000Y-29357000D01*
X79883000Y-29357000D01*
X79883000Y-29337000D01*
X78740085Y-29337000D01*
X78618096Y-29559039D01*
X73578464Y-29559039D01*
X73578464Y-28860961D01*
X78618096Y-28860961D01*
X78740085Y-29083000D01*
X79883000Y-29083000D01*
X79883000Y-27939371D01*
X80137000Y-27939371D01*
X80137000Y-29083000D01*
X81279915Y-29083000D01*
X81401904Y-28860961D01*
X81241041Y-28472577D01*
X80865134Y-28057611D01*
X80359041Y-27818086D01*
X80137000Y-27939371D01*
X79883000Y-27939371D01*
X79660959Y-27818086D01*
X79154866Y-28057611D01*
X78778959Y-28472577D01*
X78618096Y-28860961D01*
X73578464Y-28860961D01*
X73578464Y-28739956D01*
X74505420Y-27813000D01*
X78105000Y-27813000D01*
X78299403Y-27774331D01*
X78464210Y-27664210D01*
X79099211Y-27029210D01*
X79209331Y-26864403D01*
X79248000Y-26670000D01*
X79248000Y-26341608D01*
X79290590Y-26299018D01*
X79346271Y-26529611D01*
X79829078Y-26697622D01*
X80339428Y-26668083D01*
X80673729Y-26529611D01*
X80729410Y-26299016D01*
X80010000Y-25579605D01*
X79995858Y-25593748D01*
X79816252Y-25414142D01*
X79830395Y-25400000D01*
X80189605Y-25400000D01*
X80909016Y-26119410D01*
X81139611Y-26063729D01*
X81307622Y-25580922D01*
X81278083Y-25070572D01*
X81139611Y-24736271D01*
X80909016Y-24680590D01*
X80189605Y-25400000D01*
X79830395Y-25400000D01*
X79816252Y-25385858D01*
X79995858Y-25206252D01*
X80010000Y-25220395D01*
X80729410Y-24500984D01*
X80673729Y-24270389D01*
X80190922Y-24102378D01*
X79680572Y-24131917D01*
X79346271Y-24270389D01*
X79290590Y-24500982D01*
X79248000Y-24458392D01*
X79248000Y-23370540D01*
X82733036Y-23370540D01*
X82733036Y-24767540D01*
X82759603Y-24908730D01*
X82843046Y-25038405D01*
X82970366Y-25125399D01*
X83121500Y-25156004D01*
X84518500Y-25156004D01*
X84659690Y-25129437D01*
X84789365Y-25045994D01*
X84876359Y-24918674D01*
X84906964Y-24767540D01*
X84906964Y-24404744D01*
X85280313Y-24404744D01*
X85444311Y-24801649D01*
X85747714Y-25105582D01*
X86144332Y-25270273D01*
X86573784Y-25270647D01*
X86970689Y-25106649D01*
X87274622Y-24803246D01*
X87439313Y-24406628D01*
X87439420Y-24282824D01*
X87820313Y-24282824D01*
X87984311Y-24679729D01*
X88287714Y-24983662D01*
X88684332Y-25148353D01*
X89113784Y-25148727D01*
X89510689Y-24984729D01*
X89814622Y-24681326D01*
X89929469Y-24404744D01*
X90360313Y-24404744D01*
X90524311Y-24801649D01*
X90827714Y-25105582D01*
X91224332Y-25270273D01*
X91653784Y-25270647D01*
X92050689Y-25106649D01*
X92354622Y-24803246D01*
X92519313Y-24406628D01*
X92519687Y-23977176D01*
X92355689Y-23580271D01*
X92052286Y-23276338D01*
X91655668Y-23111647D01*
X91226216Y-23111273D01*
X90829311Y-23275271D01*
X90525378Y-23578674D01*
X90360687Y-23975292D01*
X90360313Y-24404744D01*
X89929469Y-24404744D01*
X89979313Y-24284708D01*
X89979687Y-23855256D01*
X89815689Y-23458351D01*
X89512286Y-23154418D01*
X89115668Y-22989727D01*
X88686216Y-22989353D01*
X88289311Y-23153351D01*
X87985378Y-23456754D01*
X87820687Y-23853372D01*
X87820313Y-24282824D01*
X87439420Y-24282824D01*
X87439687Y-23977176D01*
X87275689Y-23580271D01*
X86972286Y-23276338D01*
X86575668Y-23111647D01*
X86146216Y-23111273D01*
X85749311Y-23275271D01*
X85445378Y-23578674D01*
X85280687Y-23975292D01*
X85280313Y-24404744D01*
X84906964Y-24404744D01*
X84906964Y-23370540D01*
X84880397Y-23229350D01*
X84796954Y-23099675D01*
X84669634Y-23012681D01*
X84518500Y-22982076D01*
X83121500Y-22982076D01*
X82980310Y-23008643D01*
X82850635Y-23092086D01*
X82763641Y-23219406D01*
X82733036Y-23370540D01*
X79248000Y-23370540D01*
X79248000Y-23070420D01*
X79585421Y-22733000D01*
X93134580Y-22733000D01*
X93472000Y-23070421D01*
X93472000Y-23110921D01*
X93369311Y-23153351D01*
X93065378Y-23456754D01*
X92900687Y-23853372D01*
X92900313Y-24282824D01*
X93064311Y-24679729D01*
X93367714Y-24983662D01*
X93764332Y-25148353D01*
X94193784Y-25148727D01*
X94250849Y-25125148D01*
X95765417Y-25125148D01*
X95827071Y-25360760D01*
X96327480Y-25536887D01*
X96857199Y-25508108D01*
X97212929Y-25360760D01*
X97274583Y-25125148D01*
X96520000Y-24370565D01*
X95765417Y-25125148D01*
X94250849Y-25125148D01*
X94590689Y-24984729D01*
X94894622Y-24681326D01*
X95059313Y-24284708D01*
X95059562Y-23998440D01*
X95174073Y-23998440D01*
X95202852Y-24528159D01*
X95350200Y-24883889D01*
X95585812Y-24945543D01*
X96340395Y-24190960D01*
X96699605Y-24190960D01*
X97454188Y-24945543D01*
X97689800Y-24883889D01*
X97865927Y-24383480D01*
X97860459Y-24282824D01*
X97980313Y-24282824D01*
X98144311Y-24679729D01*
X98447714Y-24983662D01*
X98844332Y-25148353D01*
X99273784Y-25148727D01*
X99335009Y-25123429D01*
X102510790Y-28299210D01*
X102675597Y-28409331D01*
X102870000Y-28448000D01*
X110279580Y-28448000D01*
X111943036Y-30111457D01*
X111943036Y-31178500D01*
X111969603Y-31319690D01*
X112053046Y-31449365D01*
X112180366Y-31536359D01*
X112331500Y-31566964D01*
X113728500Y-31566964D01*
X113869690Y-31540397D01*
X113999365Y-31456954D01*
X114086359Y-31329634D01*
X114116964Y-31178500D01*
X114116964Y-29781500D01*
X114483036Y-29781500D01*
X114483036Y-31178500D01*
X114509603Y-31319690D01*
X114593046Y-31449365D01*
X114720366Y-31536359D01*
X114871500Y-31566964D01*
X116268500Y-31566964D01*
X116409690Y-31540397D01*
X116539365Y-31456954D01*
X116626359Y-31329634D01*
X116656964Y-31178500D01*
X116656964Y-30480000D01*
X118175863Y-30480000D01*
X118265761Y-30931949D01*
X118521770Y-31315093D01*
X118904914Y-31571102D01*
X119356863Y-31661000D01*
X119403137Y-31661000D01*
X119855086Y-31571102D01*
X120238230Y-31315093D01*
X120494239Y-30931949D01*
X120584137Y-30480000D01*
X125795863Y-30480000D01*
X125885761Y-30931949D01*
X126141770Y-31315093D01*
X126524914Y-31571102D01*
X126976863Y-31661000D01*
X127023137Y-31661000D01*
X127475086Y-31571102D01*
X127858230Y-31315093D01*
X128114239Y-30931949D01*
X128204137Y-30480000D01*
X143511017Y-30480000D01*
X143605757Y-30956288D01*
X143875552Y-31360065D01*
X144279329Y-31629860D01*
X144755617Y-31724600D01*
X144804383Y-31724600D01*
X145280671Y-31629860D01*
X145684448Y-31360065D01*
X145954243Y-30956288D01*
X146048983Y-30480000D01*
X145954243Y-30003712D01*
X145684448Y-29599935D01*
X145280671Y-29330140D01*
X144804383Y-29235400D01*
X144755617Y-29235400D01*
X144279329Y-29330140D01*
X143875552Y-29599935D01*
X143605757Y-30003712D01*
X143511017Y-30480000D01*
X128204137Y-30480000D01*
X128114239Y-30028051D01*
X127858230Y-29644907D01*
X127475086Y-29388898D01*
X127023137Y-29299000D01*
X126976863Y-29299000D01*
X126524914Y-29388898D01*
X126141770Y-29644907D01*
X125885761Y-30028051D01*
X125795863Y-30480000D01*
X120584137Y-30480000D01*
X120494239Y-30028051D01*
X120238230Y-29644907D01*
X119855086Y-29388898D01*
X119403137Y-29299000D01*
X119356863Y-29299000D01*
X118904914Y-29388898D01*
X118521770Y-29644907D01*
X118265761Y-30028051D01*
X118175863Y-30480000D01*
X116656964Y-30480000D01*
X116656964Y-29781500D01*
X116630397Y-29640310D01*
X116546954Y-29510635D01*
X116419634Y-29423641D01*
X116268500Y-29393036D01*
X114871500Y-29393036D01*
X114730310Y-29419603D01*
X114600635Y-29503046D01*
X114513641Y-29630366D01*
X114483036Y-29781500D01*
X114116964Y-29781500D01*
X114090397Y-29640310D01*
X114006954Y-29510635D01*
X113879634Y-29423641D01*
X113728500Y-29393036D01*
X112661457Y-29393036D01*
X111208421Y-27940000D01*
X118175863Y-27940000D01*
X118265761Y-28391949D01*
X118521770Y-28775093D01*
X118904914Y-29031102D01*
X119356863Y-29121000D01*
X119403137Y-29121000D01*
X119855086Y-29031102D01*
X120238230Y-28775093D01*
X120494239Y-28391949D01*
X120584137Y-27940000D01*
X125795863Y-27940000D01*
X125885761Y-28391949D01*
X126141770Y-28775093D01*
X126524914Y-29031102D01*
X126976863Y-29121000D01*
X127023137Y-29121000D01*
X127475086Y-29031102D01*
X127858230Y-28775093D01*
X128114239Y-28391949D01*
X128204137Y-27940000D01*
X128114239Y-27488051D01*
X127858230Y-27104907D01*
X127475086Y-26848898D01*
X127023137Y-26759000D01*
X126976863Y-26759000D01*
X126524914Y-26848898D01*
X126141770Y-27104907D01*
X125885761Y-27488051D01*
X125795863Y-27940000D01*
X120584137Y-27940000D01*
X120494239Y-27488051D01*
X120238230Y-27104907D01*
X119855086Y-26848898D01*
X119403137Y-26759000D01*
X119356863Y-26759000D01*
X118904914Y-26848898D01*
X118521770Y-27104907D01*
X118265761Y-27488051D01*
X118175863Y-27940000D01*
X111208421Y-27940000D01*
X110849210Y-27580790D01*
X110684403Y-27470669D01*
X110490000Y-27432000D01*
X103080420Y-27432000D01*
X100078817Y-24430397D01*
X100089469Y-24404744D01*
X100520313Y-24404744D01*
X100684311Y-24801649D01*
X100987714Y-25105582D01*
X101384332Y-25270273D01*
X101813784Y-25270647D01*
X101872587Y-25246350D01*
X108283255Y-25246350D01*
X108375792Y-25508019D01*
X108967398Y-25726188D01*
X109597461Y-25701352D01*
X110064208Y-25508019D01*
X110156745Y-25246350D01*
X109220000Y-24309605D01*
X108283255Y-25246350D01*
X101872587Y-25246350D01*
X102210689Y-25106649D01*
X102514622Y-24803246D01*
X102679313Y-24406628D01*
X102679687Y-23977176D01*
X102638460Y-23877398D01*
X107623812Y-23877398D01*
X107648648Y-24507461D01*
X107841981Y-24974208D01*
X108103650Y-25066745D01*
X109040395Y-24130000D01*
X109399605Y-24130000D01*
X110336350Y-25066745D01*
X110421536Y-25036620D01*
X110421536Y-25130000D01*
X110448103Y-25271190D01*
X110531546Y-25400865D01*
X110658866Y-25487859D01*
X110810000Y-25518464D01*
X112710000Y-25518464D01*
X112851190Y-25491897D01*
X112980865Y-25408454D01*
X112986641Y-25400000D01*
X118175863Y-25400000D01*
X118265761Y-25851949D01*
X118521770Y-26235093D01*
X118904914Y-26491102D01*
X119356863Y-26581000D01*
X119403137Y-26581000D01*
X119855086Y-26491102D01*
X120238230Y-26235093D01*
X120494239Y-25851949D01*
X120584137Y-25400000D01*
X120494239Y-24948051D01*
X120238230Y-24564907D01*
X119855086Y-24308898D01*
X119403137Y-24219000D01*
X119356863Y-24219000D01*
X118904914Y-24308898D01*
X118521770Y-24564907D01*
X118265761Y-24948051D01*
X118175863Y-25400000D01*
X112986641Y-25400000D01*
X113067859Y-25281134D01*
X113098464Y-25130000D01*
X113098464Y-23130000D01*
X113071897Y-22988810D01*
X112988454Y-22859135D01*
X112861134Y-22772141D01*
X112710000Y-22741536D01*
X110810000Y-22741536D01*
X110668810Y-22768103D01*
X110539135Y-22851546D01*
X110452141Y-22978866D01*
X110421536Y-23130000D01*
X110421536Y-23223380D01*
X110336350Y-23193255D01*
X109399605Y-24130000D01*
X109040395Y-24130000D01*
X108103650Y-23193255D01*
X107841981Y-23285792D01*
X107623812Y-23877398D01*
X102638460Y-23877398D01*
X102515689Y-23580271D01*
X102212286Y-23276338D01*
X101815668Y-23111647D01*
X101386216Y-23111273D01*
X100989311Y-23275271D01*
X100685378Y-23578674D01*
X100520687Y-23975292D01*
X100520313Y-24404744D01*
X100089469Y-24404744D01*
X100139313Y-24284708D01*
X100139687Y-23855256D01*
X99975689Y-23458351D01*
X99672286Y-23154418D01*
X99333281Y-23013650D01*
X108283255Y-23013650D01*
X109220000Y-23950395D01*
X110156745Y-23013650D01*
X110064208Y-22751981D01*
X109472602Y-22533812D01*
X108842539Y-22558648D01*
X108375792Y-22751981D01*
X108283255Y-23013650D01*
X99333281Y-23013650D01*
X99275668Y-22989727D01*
X98846216Y-22989353D01*
X98449311Y-23153351D01*
X98145378Y-23456754D01*
X97980687Y-23853372D01*
X97980313Y-24282824D01*
X97860459Y-24282824D01*
X97837148Y-23853761D01*
X97689800Y-23498031D01*
X97454188Y-23436377D01*
X96699605Y-24190960D01*
X96340395Y-24190960D01*
X95585812Y-23436377D01*
X95350200Y-23498031D01*
X95174073Y-23998440D01*
X95059562Y-23998440D01*
X95059687Y-23855256D01*
X94895689Y-23458351D01*
X94694462Y-23256772D01*
X95765417Y-23256772D01*
X96520000Y-24011355D01*
X97274583Y-23256772D01*
X97212929Y-23021160D01*
X96712520Y-22845033D01*
X96182801Y-22873812D01*
X95827071Y-23021160D01*
X95765417Y-23256772D01*
X94694462Y-23256772D01*
X94592286Y-23154418D01*
X94488000Y-23111114D01*
X94488000Y-22860000D01*
X94449331Y-22665597D01*
X94361275Y-22533812D01*
X94339211Y-22500790D01*
X93898421Y-22060000D01*
X118191536Y-22060000D01*
X118191536Y-23660000D01*
X118218103Y-23801190D01*
X118301546Y-23930865D01*
X118428866Y-24017859D01*
X118580000Y-24048464D01*
X120180000Y-24048464D01*
X120321190Y-24021897D01*
X120450865Y-23938454D01*
X120537859Y-23811134D01*
X120568464Y-23660000D01*
X120568464Y-23209039D01*
X125608096Y-23209039D01*
X125768959Y-23597423D01*
X126144866Y-24012389D01*
X126650959Y-24251914D01*
X126872998Y-24130630D01*
X126872998Y-24239660D01*
X126524914Y-24308898D01*
X126141770Y-24564907D01*
X125885761Y-24948051D01*
X125795863Y-25400000D01*
X125885761Y-25851949D01*
X126141770Y-26235093D01*
X126524914Y-26491102D01*
X126976863Y-26581000D01*
X127023137Y-26581000D01*
X127475086Y-26491102D01*
X127858230Y-26235093D01*
X128114239Y-25851949D01*
X128204137Y-25400000D01*
X128114239Y-24948051D01*
X127858230Y-24564907D01*
X127690659Y-24452939D01*
X130449037Y-24452939D01*
X130696771Y-25052499D01*
X131155088Y-25511617D01*
X131754215Y-25760396D01*
X132402939Y-25760963D01*
X133002499Y-25513229D01*
X133461617Y-25054912D01*
X133710396Y-24455785D01*
X133710398Y-24452939D01*
X138069037Y-24452939D01*
X138316771Y-25052499D01*
X138775088Y-25511617D01*
X139374215Y-25760396D01*
X140022939Y-25760963D01*
X140622499Y-25513229D01*
X140735925Y-25400000D01*
X143511017Y-25400000D01*
X143605757Y-25876288D01*
X143875552Y-26280065D01*
X144279329Y-26549860D01*
X144755617Y-26644600D01*
X144804383Y-26644600D01*
X145280671Y-26549860D01*
X145684448Y-26280065D01*
X145954243Y-25876288D01*
X146048983Y-25400000D01*
X145954243Y-24923712D01*
X145684448Y-24519935D01*
X145280671Y-24250140D01*
X144804383Y-24155400D01*
X144755617Y-24155400D01*
X144279329Y-24250140D01*
X143875552Y-24519935D01*
X143605757Y-24923712D01*
X143511017Y-25400000D01*
X140735925Y-25400000D01*
X141081617Y-25054912D01*
X141330396Y-24455785D01*
X141330963Y-23807061D01*
X141083229Y-23207501D01*
X140624912Y-22748383D01*
X140025785Y-22499604D01*
X139377061Y-22499037D01*
X138777501Y-22746771D01*
X138318383Y-23205088D01*
X138069604Y-23804215D01*
X138069037Y-24452939D01*
X133710398Y-24452939D01*
X133710963Y-23807061D01*
X133463229Y-23207501D01*
X133004912Y-22748383D01*
X132405785Y-22499604D01*
X131757061Y-22499037D01*
X131157501Y-22746771D01*
X130698383Y-23205088D01*
X130449604Y-23804215D01*
X130449037Y-24452939D01*
X127690659Y-24452939D01*
X127475086Y-24308898D01*
X127127002Y-24239660D01*
X127127002Y-24130630D01*
X127349041Y-24251914D01*
X127855134Y-24012389D01*
X128231041Y-23597423D01*
X128391904Y-23209039D01*
X128269915Y-22987000D01*
X127127000Y-22987000D01*
X127127000Y-23007000D01*
X126873000Y-23007000D01*
X126873000Y-22987000D01*
X125730085Y-22987000D01*
X125608096Y-23209039D01*
X120568464Y-23209039D01*
X120568464Y-22510961D01*
X125608096Y-22510961D01*
X125730085Y-22733000D01*
X126873000Y-22733000D01*
X126873000Y-21589371D01*
X127127000Y-21589371D01*
X127127000Y-22733000D01*
X128269915Y-22733000D01*
X128391904Y-22510961D01*
X128231041Y-22122577D01*
X128116741Y-21996400D01*
X143527936Y-21996400D01*
X143527936Y-23723600D01*
X143554503Y-23864790D01*
X143637946Y-23994465D01*
X143765266Y-24081459D01*
X143916400Y-24112064D01*
X145643600Y-24112064D01*
X145784790Y-24085497D01*
X145914465Y-24002054D01*
X146001459Y-23874734D01*
X146032064Y-23723600D01*
X146032064Y-22860000D01*
X146051017Y-22860000D01*
X146145757Y-23336288D01*
X146415552Y-23740065D01*
X146819329Y-24009860D01*
X147295617Y-24104600D01*
X147344383Y-24104600D01*
X147820671Y-24009860D01*
X148224448Y-23740065D01*
X148494243Y-23336288D01*
X148588983Y-22860000D01*
X148494243Y-22383712D01*
X148224448Y-21979935D01*
X147820671Y-21710140D01*
X147344383Y-21615400D01*
X147295617Y-21615400D01*
X146819329Y-21710140D01*
X146415552Y-21979935D01*
X146145757Y-22383712D01*
X146051017Y-22860000D01*
X146032064Y-22860000D01*
X146032064Y-21996400D01*
X146005497Y-21855210D01*
X145922054Y-21725535D01*
X145794734Y-21638541D01*
X145643600Y-21607936D01*
X143916400Y-21607936D01*
X143775210Y-21634503D01*
X143645535Y-21717946D01*
X143558541Y-21845266D01*
X143527936Y-21996400D01*
X128116741Y-21996400D01*
X127855134Y-21707611D01*
X127349041Y-21468086D01*
X127127000Y-21589371D01*
X126873000Y-21589371D01*
X126650959Y-21468086D01*
X126144866Y-21707611D01*
X125768959Y-22122577D01*
X125608096Y-22510961D01*
X120568464Y-22510961D01*
X120568464Y-22060000D01*
X120541897Y-21918810D01*
X120458454Y-21789135D01*
X120331134Y-21702141D01*
X120180000Y-21671536D01*
X118580000Y-21671536D01*
X118438810Y-21698103D01*
X118309135Y-21781546D01*
X118222141Y-21908866D01*
X118191536Y-22060000D01*
X93898421Y-22060000D01*
X93704210Y-21865790D01*
X93539403Y-21755669D01*
X93345000Y-21717000D01*
X79375000Y-21717000D01*
X79180597Y-21755669D01*
X79015790Y-21865789D01*
X78380790Y-22500790D01*
X78270669Y-22665597D01*
X78232000Y-22860000D01*
X78232000Y-24663934D01*
X78094777Y-24526471D01*
X77715978Y-24369180D01*
X77305821Y-24368822D01*
X76926749Y-24525451D01*
X76636471Y-24815223D01*
X76479180Y-25194022D01*
X76478822Y-25604179D01*
X76635451Y-25983251D01*
X76925223Y-26273529D01*
X77304022Y-26430820D01*
X77714179Y-26431178D01*
X78093251Y-26274549D01*
X78232000Y-26136042D01*
X78232000Y-26459579D01*
X77894580Y-26797000D01*
X74749679Y-26797000D01*
X75289823Y-26573817D01*
X76100969Y-25764086D01*
X76540499Y-24705580D01*
X76541499Y-23559448D01*
X76103817Y-22500177D01*
X75294086Y-21689031D01*
X74235580Y-21249501D01*
X73089448Y-21248501D01*
X72030177Y-21686183D01*
X71219031Y-22495914D01*
X70779501Y-23554420D01*
X70778501Y-24700552D01*
X70612000Y-24700552D01*
X70612000Y-21082000D01*
X168148000Y-21082000D01*
X168148000Y-34163000D01*
X168148000Y-34163000D01*
G37*
X168148000Y-34163000D02*
X166240571Y-34163000D01*
X166240647Y-34076216D01*
X166076649Y-33679311D01*
X165773246Y-33375378D01*
X165376628Y-33210687D01*
X164947176Y-33210313D01*
X164550271Y-33374311D01*
X164246338Y-33677714D01*
X164081647Y-34074332D01*
X164081570Y-34163000D01*
X148266743Y-34163000D01*
X148602688Y-33794947D01*
X148774958Y-33379026D01*
X148653817Y-33147000D01*
X147447000Y-33147000D01*
X147447000Y-33167000D01*
X147193000Y-33167000D01*
X147193000Y-33147000D01*
X147173000Y-33147000D01*
X147173000Y-32893000D01*
X147193000Y-32893000D01*
X147193000Y-32873000D01*
X147447000Y-32873000D01*
X147447000Y-32893000D01*
X148653817Y-32893000D01*
X148774958Y-32660974D01*
X148602688Y-32245053D01*
X148345957Y-31963784D01*
X163959353Y-31963784D01*
X164123351Y-32360689D01*
X164426754Y-32664622D01*
X164823372Y-32829313D01*
X165252824Y-32829687D01*
X165649729Y-32665689D01*
X165953662Y-32362286D01*
X166118353Y-31965668D01*
X166118727Y-31536216D01*
X165954729Y-31139311D01*
X165651326Y-30835378D01*
X165254708Y-30670687D01*
X164825256Y-30670313D01*
X164428351Y-30834311D01*
X164124418Y-31137714D01*
X163959727Y-31534332D01*
X163959353Y-31963784D01*
X148345957Y-31963784D01*
X148208490Y-31813179D01*
X147818338Y-31630324D01*
X147820671Y-31629860D01*
X148224448Y-31360065D01*
X148494243Y-30956288D01*
X148588983Y-30480000D01*
X148522186Y-30144188D01*
X164406377Y-30144188D01*
X164468031Y-30379800D01*
X164968440Y-30555927D01*
X165498159Y-30527148D01*
X165853889Y-30379800D01*
X165915543Y-30144188D01*
X165160960Y-29389605D01*
X164406377Y-30144188D01*
X148522186Y-30144188D01*
X148494243Y-30003712D01*
X148224448Y-29599935D01*
X147820671Y-29330140D01*
X147818338Y-29329676D01*
X148208490Y-29146821D01*
X148326547Y-29017480D01*
X163815033Y-29017480D01*
X163843812Y-29547199D01*
X163991160Y-29902929D01*
X164226772Y-29964583D01*
X164981355Y-29210000D01*
X165340565Y-29210000D01*
X166095148Y-29964583D01*
X166330760Y-29902929D01*
X166506887Y-29402520D01*
X166478108Y-28872801D01*
X166330760Y-28517071D01*
X166095148Y-28455417D01*
X165340565Y-29210000D01*
X164981355Y-29210000D01*
X164226772Y-28455417D01*
X163991160Y-28517071D01*
X163815033Y-29017480D01*
X148326547Y-29017480D01*
X148602688Y-28714947D01*
X148774958Y-28299026D01*
X148762838Y-28275812D01*
X164406377Y-28275812D01*
X165160960Y-29030395D01*
X165915543Y-28275812D01*
X165853889Y-28040200D01*
X165353480Y-27864073D01*
X164823761Y-27892852D01*
X164468031Y-28040200D01*
X164406377Y-28275812D01*
X148762838Y-28275812D01*
X148653817Y-28067000D01*
X147447000Y-28067000D01*
X147447000Y-28087000D01*
X147193000Y-28087000D01*
X147193000Y-28067000D01*
X147173000Y-28067000D01*
X147173000Y-27813000D01*
X147193000Y-27813000D01*
X147193000Y-27793000D01*
X147447000Y-27793000D01*
X147447000Y-27813000D01*
X148653817Y-27813000D01*
X148774958Y-27580974D01*
X148602688Y-27165053D01*
X148208490Y-26733179D01*
X147818338Y-26550324D01*
X147820671Y-26549860D01*
X148224448Y-26280065D01*
X148494243Y-25876288D01*
X148588983Y-25400000D01*
X148494243Y-24923712D01*
X148345133Y-24700552D01*
X162218501Y-24700552D01*
X162656183Y-25759823D01*
X163465914Y-26570969D01*
X164524420Y-27010499D01*
X165670552Y-27011499D01*
X166729823Y-26573817D01*
X167540969Y-25764086D01*
X167980499Y-24705580D01*
X167981499Y-23559448D01*
X167543817Y-22500177D01*
X166734086Y-21689031D01*
X165675580Y-21249501D01*
X164529448Y-21248501D01*
X163470177Y-21686183D01*
X162659031Y-22495914D01*
X162219501Y-23554420D01*
X162218501Y-24700552D01*
X148345133Y-24700552D01*
X148224448Y-24519935D01*
X147820671Y-24250140D01*
X147344383Y-24155400D01*
X147295617Y-24155400D01*
X146819329Y-24250140D01*
X146415552Y-24519935D01*
X146145757Y-24923712D01*
X146051017Y-25400000D01*
X146145757Y-25876288D01*
X146415552Y-26280065D01*
X146819329Y-26549860D01*
X146821662Y-26550324D01*
X146431510Y-26733179D01*
X146037312Y-27165053D01*
X145929159Y-27426172D01*
X145684448Y-27059935D01*
X145280671Y-26790140D01*
X144804383Y-26695400D01*
X144755617Y-26695400D01*
X144279329Y-26790140D01*
X143875552Y-27059935D01*
X143605757Y-27463712D01*
X143511017Y-27940000D01*
X143605757Y-28416288D01*
X143875552Y-28820065D01*
X144279329Y-29089860D01*
X144755617Y-29184600D01*
X144804383Y-29184600D01*
X145280671Y-29089860D01*
X145684448Y-28820065D01*
X145929159Y-28453828D01*
X146037312Y-28714947D01*
X146431510Y-29146821D01*
X146821662Y-29329676D01*
X146819329Y-29330140D01*
X146415552Y-29599935D01*
X146145757Y-30003712D01*
X146051017Y-30480000D01*
X146145757Y-30956288D01*
X146415552Y-31360065D01*
X146819329Y-31629860D01*
X146821662Y-31630324D01*
X146431510Y-31813179D01*
X146037312Y-32245053D01*
X145929159Y-32506172D01*
X145684448Y-32139935D01*
X145280671Y-31870140D01*
X144804383Y-31775400D01*
X144755617Y-31775400D01*
X144279329Y-31870140D01*
X143875552Y-32139935D01*
X143605757Y-32543712D01*
X143511017Y-33020000D01*
X143605757Y-33496288D01*
X143875552Y-33900065D01*
X144269062Y-34163000D01*
X142240000Y-34163000D01*
X142190590Y-34173006D01*
X142148965Y-34201447D01*
X142121685Y-34243841D01*
X142113000Y-34290000D01*
X142113000Y-50673000D01*
X135465420Y-50673000D01*
X135521456Y-50616964D01*
X136588500Y-50616964D01*
X136729690Y-50590397D01*
X136859365Y-50506954D01*
X136946359Y-50379634D01*
X136976964Y-50228500D01*
X136976964Y-48831500D01*
X137343036Y-48831500D01*
X137343036Y-50228500D01*
X137369603Y-50369690D01*
X137453046Y-50499365D01*
X137580366Y-50586359D01*
X137731500Y-50616964D01*
X139128500Y-50616964D01*
X139269690Y-50590397D01*
X139399365Y-50506954D01*
X139486359Y-50379634D01*
X139516964Y-50228500D01*
X139516964Y-48831500D01*
X139490397Y-48690310D01*
X139406954Y-48560635D01*
X139279634Y-48473641D01*
X139128500Y-48443036D01*
X137731500Y-48443036D01*
X137590310Y-48469603D01*
X137460635Y-48553046D01*
X137373641Y-48680366D01*
X137343036Y-48831500D01*
X136976964Y-48831500D01*
X136950397Y-48690310D01*
X136866954Y-48560635D01*
X136739634Y-48473641D01*
X136588500Y-48443036D01*
X135191500Y-48443036D01*
X135050310Y-48469603D01*
X134920635Y-48553046D01*
X134833641Y-48680366D01*
X134803036Y-48831500D01*
X134803036Y-49898544D01*
X134409580Y-50292000D01*
X75140421Y-50292000D01*
X74260584Y-49412163D01*
X75227443Y-49412163D01*
X75326042Y-49678965D01*
X75935582Y-49905401D01*
X76585377Y-49881341D01*
X77073958Y-49678965D01*
X77172557Y-49412163D01*
X76200000Y-48439605D01*
X75227443Y-49412163D01*
X74260584Y-49412163D01*
X73656987Y-48808567D01*
X73770249Y-48535801D01*
X73770721Y-47995582D01*
X74554599Y-47995582D01*
X74578659Y-48645377D01*
X74781035Y-49133958D01*
X75047837Y-49232557D01*
X76020395Y-48260000D01*
X76379605Y-48260000D01*
X77352163Y-49232557D01*
X77618965Y-49133958D01*
X77842067Y-48533392D01*
X84979271Y-48533392D01*
X85188995Y-49040963D01*
X85576994Y-49429640D01*
X86084199Y-49640249D01*
X86633392Y-49640729D01*
X87140963Y-49431005D01*
X87529640Y-49043006D01*
X87740249Y-48535801D01*
X87740276Y-48504233D01*
X88941697Y-48504233D01*
X89128655Y-48956705D01*
X89474534Y-49303189D01*
X89926679Y-49490935D01*
X90416253Y-49491363D01*
X90868725Y-49304405D01*
X91215209Y-48958526D01*
X91391739Y-48533392D01*
X92599271Y-48533392D01*
X92808995Y-49040963D01*
X93196994Y-49429640D01*
X93704199Y-49640249D01*
X94253392Y-49640729D01*
X94760963Y-49431005D01*
X95149640Y-49043006D01*
X95360249Y-48535801D01*
X95360251Y-48533392D01*
X102759271Y-48533392D01*
X102968995Y-49040963D01*
X103356994Y-49429640D01*
X103864199Y-49640249D01*
X104413392Y-49640729D01*
X104920963Y-49431005D01*
X105309640Y-49043006D01*
X105520249Y-48535801D01*
X105520729Y-47986608D01*
X105311005Y-47479037D01*
X104923006Y-47090360D01*
X104415801Y-46879751D01*
X103866608Y-46879271D01*
X103359037Y-47088995D01*
X102970360Y-47476994D01*
X102759751Y-47984199D01*
X102759271Y-48533392D01*
X95360251Y-48533392D01*
X95360729Y-47986608D01*
X95151005Y-47479037D01*
X94763006Y-47090360D01*
X94255801Y-46879751D01*
X93706608Y-46879271D01*
X93199037Y-47088995D01*
X92810360Y-47476994D01*
X92599751Y-47984199D01*
X92599271Y-48533392D01*
X91391739Y-48533392D01*
X91402955Y-48506381D01*
X91403383Y-48016807D01*
X91216425Y-47564335D01*
X90870546Y-47217851D01*
X90418401Y-47030105D01*
X89928827Y-47029677D01*
X89476355Y-47216635D01*
X89129871Y-47562514D01*
X88942125Y-48014659D01*
X88941697Y-48504233D01*
X87740276Y-48504233D01*
X87740729Y-47986608D01*
X87531005Y-47479037D01*
X87143006Y-47090360D01*
X86635801Y-46879751D01*
X86086608Y-46879271D01*
X85579037Y-47088995D01*
X85190360Y-47476994D01*
X84979751Y-47984199D01*
X84979271Y-48533392D01*
X77842067Y-48533392D01*
X77845401Y-48524418D01*
X77821341Y-47874623D01*
X77618965Y-47386042D01*
X77352163Y-47287443D01*
X76379605Y-48260000D01*
X76020395Y-48260000D01*
X75047837Y-47287443D01*
X74781035Y-47386042D01*
X74554599Y-47995582D01*
X73770721Y-47995582D01*
X73770729Y-47986608D01*
X73657017Y-47711404D01*
X74260584Y-47107837D01*
X75227443Y-47107837D01*
X76200000Y-48080395D01*
X77172557Y-47107837D01*
X77073958Y-46841035D01*
X76464418Y-46614599D01*
X75814623Y-46638659D01*
X75326042Y-46841035D01*
X75227443Y-47107837D01*
X74260584Y-47107837D01*
X75289210Y-46079211D01*
X75386381Y-45933784D01*
X75399331Y-45914403D01*
X75438000Y-45720000D01*
X75438000Y-44450000D01*
X78805863Y-44450000D01*
X78895761Y-44901949D01*
X79151770Y-45285093D01*
X79534914Y-45541102D01*
X79986863Y-45631000D01*
X80033137Y-45631000D01*
X80399672Y-45558092D01*
X81555790Y-46714210D01*
X81720597Y-46824331D01*
X81915000Y-46863000D01*
X105834580Y-46863000D01*
X106683013Y-47711433D01*
X106569751Y-47984199D01*
X106569271Y-48533392D01*
X106778995Y-49040963D01*
X107166994Y-49429640D01*
X107674199Y-49640249D01*
X108223392Y-49640729D01*
X108730963Y-49431005D01*
X109119640Y-49043006D01*
X109330249Y-48535801D01*
X109330251Y-48533392D01*
X116729271Y-48533392D01*
X116938995Y-49040963D01*
X117326994Y-49429640D01*
X117834199Y-49640249D01*
X118383392Y-49640729D01*
X118890963Y-49431005D01*
X119279640Y-49043006D01*
X119490249Y-48535801D01*
X119490251Y-48533392D01*
X120539271Y-48533392D01*
X120748995Y-49040963D01*
X121136994Y-49429640D01*
X121644199Y-49640249D01*
X122193392Y-49640729D01*
X122700963Y-49431005D01*
X122719837Y-49412163D01*
X131107443Y-49412163D01*
X131206042Y-49678965D01*
X131815582Y-49905401D01*
X132465377Y-49881341D01*
X132953958Y-49678965D01*
X133052557Y-49412163D01*
X132080000Y-48439605D01*
X131107443Y-49412163D01*
X122719837Y-49412163D01*
X123089640Y-49043006D01*
X123300249Y-48535801D01*
X123300721Y-47995582D01*
X130434599Y-47995582D01*
X130458659Y-48645377D01*
X130661035Y-49133958D01*
X130927837Y-49232557D01*
X131900395Y-48260000D01*
X132259605Y-48260000D01*
X133232163Y-49232557D01*
X133498965Y-49133958D01*
X133725401Y-48524418D01*
X133701341Y-47874623D01*
X133498965Y-47386042D01*
X133232163Y-47287443D01*
X132259605Y-48260000D01*
X131900395Y-48260000D01*
X130927837Y-47287443D01*
X130661035Y-47386042D01*
X130434599Y-47995582D01*
X123300721Y-47995582D01*
X123300729Y-47986608D01*
X123091005Y-47479037D01*
X122703006Y-47090360D01*
X122195801Y-46879751D01*
X121646608Y-46879271D01*
X121139037Y-47088995D01*
X120750360Y-47476994D01*
X120539751Y-47984199D01*
X120539271Y-48533392D01*
X119490251Y-48533392D01*
X119490729Y-47986608D01*
X119281005Y-47479037D01*
X118893006Y-47090360D01*
X118385801Y-46879751D01*
X117836608Y-46879271D01*
X117329037Y-47088995D01*
X116940360Y-47476994D01*
X116729751Y-47984199D01*
X116729271Y-48533392D01*
X109330251Y-48533392D01*
X109330729Y-47986608D01*
X109217017Y-47711403D01*
X110065420Y-46863000D01*
X131197925Y-46863000D01*
X131107443Y-47107837D01*
X132080000Y-48080395D01*
X133052557Y-47107837D01*
X132962075Y-46863000D01*
X133985000Y-46863000D01*
X134179403Y-46824331D01*
X134344210Y-46714210D01*
X134812207Y-46246213D01*
X134803036Y-46291500D01*
X134803036Y-47688500D01*
X134829603Y-47829690D01*
X134913046Y-47959365D01*
X135040366Y-48046359D01*
X135191500Y-48076964D01*
X136588500Y-48076964D01*
X136729690Y-48050397D01*
X136859365Y-47966954D01*
X136946359Y-47839634D01*
X136976964Y-47688500D01*
X136976964Y-46291500D01*
X137343036Y-46291500D01*
X137343036Y-47688500D01*
X137369603Y-47829690D01*
X137453046Y-47959365D01*
X137580366Y-48046359D01*
X137731500Y-48076964D01*
X139128500Y-48076964D01*
X139269690Y-48050397D01*
X139399365Y-47966954D01*
X139486359Y-47839634D01*
X139516964Y-47688500D01*
X139516964Y-46291500D01*
X139490397Y-46150310D01*
X139406954Y-46020635D01*
X139279634Y-45933641D01*
X139128500Y-45903036D01*
X137731500Y-45903036D01*
X137590310Y-45929603D01*
X137460635Y-46013046D01*
X137373641Y-46140366D01*
X137343036Y-46291500D01*
X136976964Y-46291500D01*
X136950397Y-46150310D01*
X136866954Y-46020635D01*
X136739634Y-45933641D01*
X136588500Y-45903036D01*
X135191500Y-45903036D01*
X135147013Y-45911407D01*
X135521456Y-45536964D01*
X136588500Y-45536964D01*
X136729690Y-45510397D01*
X136859365Y-45426954D01*
X136946359Y-45299634D01*
X136976964Y-45148500D01*
X136976964Y-43751500D01*
X137343036Y-43751500D01*
X137343036Y-45148500D01*
X137369603Y-45289690D01*
X137453046Y-45419365D01*
X137580366Y-45506359D01*
X137731500Y-45536964D01*
X139128500Y-45536964D01*
X139269690Y-45510397D01*
X139399365Y-45426954D01*
X139486359Y-45299634D01*
X139516964Y-45148500D01*
X139516964Y-43751500D01*
X139490397Y-43610310D01*
X139406954Y-43480635D01*
X139279634Y-43393641D01*
X139128500Y-43363036D01*
X137731500Y-43363036D01*
X137590310Y-43389603D01*
X137460635Y-43473046D01*
X137373641Y-43600366D01*
X137343036Y-43751500D01*
X136976964Y-43751500D01*
X136950397Y-43610310D01*
X136866954Y-43480635D01*
X136739634Y-43393641D01*
X136588500Y-43363036D01*
X135191500Y-43363036D01*
X135050310Y-43389603D01*
X134920635Y-43473046D01*
X134833641Y-43600366D01*
X134803036Y-43751500D01*
X134803036Y-44818544D01*
X133774580Y-45847000D01*
X110102075Y-45847000D01*
X110192557Y-45602163D01*
X109220000Y-44629605D01*
X108247443Y-45602163D01*
X108346042Y-45868965D01*
X108955582Y-46095401D01*
X109413120Y-46078460D01*
X108498567Y-46993013D01*
X108225801Y-46879751D01*
X107676608Y-46879271D01*
X107401403Y-46992983D01*
X106404210Y-45995790D01*
X106241021Y-45886750D01*
X106283958Y-45868965D01*
X106382557Y-45602163D01*
X105410000Y-44629605D01*
X104437443Y-45602163D01*
X104527925Y-45847000D01*
X82125420Y-45847000D01*
X81133552Y-44855132D01*
X81214137Y-44450000D01*
X81124239Y-43998051D01*
X80868230Y-43614907D01*
X80485086Y-43358898D01*
X80033137Y-43269000D01*
X79986863Y-43269000D01*
X79534914Y-43358898D01*
X79151770Y-43614907D01*
X78895761Y-43998051D01*
X78805863Y-44450000D01*
X75438000Y-44450000D01*
X75399331Y-44255597D01*
X75309110Y-44120572D01*
X75289210Y-44090789D01*
X74378421Y-43180000D01*
X92775863Y-43180000D01*
X92865761Y-43631949D01*
X93121770Y-44015093D01*
X93504914Y-44271102D01*
X93956863Y-44361000D01*
X94003137Y-44361000D01*
X94455086Y-44271102D01*
X94838230Y-44015093D01*
X95094239Y-43631949D01*
X95184137Y-43180000D01*
X100395863Y-43180000D01*
X100485761Y-43631949D01*
X100741770Y-44015093D01*
X101124914Y-44271102D01*
X101576863Y-44361000D01*
X101623137Y-44361000D01*
X102075086Y-44271102D01*
X102203075Y-44185582D01*
X103764599Y-44185582D01*
X103788659Y-44835377D01*
X103991035Y-45323958D01*
X104257837Y-45422557D01*
X105230395Y-44450000D01*
X105589605Y-44450000D01*
X106562163Y-45422557D01*
X106828965Y-45323958D01*
X107055401Y-44714418D01*
X107035820Y-44185582D01*
X107574599Y-44185582D01*
X107598659Y-44835377D01*
X107801035Y-45323958D01*
X108067837Y-45422557D01*
X109040395Y-44450000D01*
X109399605Y-44450000D01*
X110372163Y-45422557D01*
X110638965Y-45323958D01*
X110865401Y-44714418D01*
X110863171Y-44654179D01*
X120928822Y-44654179D01*
X121085451Y-45033251D01*
X121375223Y-45323529D01*
X121754022Y-45480820D01*
X122164179Y-45481178D01*
X122484036Y-45349016D01*
X123740590Y-45349016D01*
X123796271Y-45579611D01*
X124279078Y-45747622D01*
X124789428Y-45718083D01*
X125123729Y-45579611D01*
X125179410Y-45349016D01*
X124460000Y-44629605D01*
X123740590Y-45349016D01*
X122484036Y-45349016D01*
X122543251Y-45324549D01*
X122833529Y-45034777D01*
X122990820Y-44655978D01*
X122991157Y-44269078D01*
X123162378Y-44269078D01*
X123191917Y-44779428D01*
X123330389Y-45113729D01*
X123560984Y-45169410D01*
X124280395Y-44450000D01*
X124639605Y-44450000D01*
X125359016Y-45169410D01*
X125589611Y-45113729D01*
X125757622Y-44630922D01*
X125728083Y-44120572D01*
X125589611Y-43786271D01*
X125359016Y-43730590D01*
X124639605Y-44450000D01*
X124280395Y-44450000D01*
X123560984Y-43730590D01*
X123330389Y-43786271D01*
X123162378Y-44269078D01*
X122991157Y-44269078D01*
X122991178Y-44245821D01*
X122834549Y-43866749D01*
X122544777Y-43576471D01*
X122483398Y-43550984D01*
X123740590Y-43550984D01*
X124460000Y-44270395D01*
X125179410Y-43550984D01*
X125123729Y-43320389D01*
X124640922Y-43152378D01*
X124130572Y-43181917D01*
X123796271Y-43320389D01*
X123740590Y-43550984D01*
X122483398Y-43550984D01*
X122165978Y-43419180D01*
X121755821Y-43418822D01*
X121376749Y-43575451D01*
X121086471Y-43865223D01*
X120929180Y-44244022D01*
X120928822Y-44654179D01*
X110863171Y-44654179D01*
X110841341Y-44064623D01*
X110638965Y-43576042D01*
X110372163Y-43477443D01*
X109399605Y-44450000D01*
X109040395Y-44450000D01*
X108067837Y-43477443D01*
X107801035Y-43576042D01*
X107574599Y-44185582D01*
X107035820Y-44185582D01*
X107031341Y-44064623D01*
X106828965Y-43576042D01*
X106562163Y-43477443D01*
X105589605Y-44450000D01*
X105230395Y-44450000D01*
X104257837Y-43477443D01*
X103991035Y-43576042D01*
X103764599Y-44185582D01*
X102203075Y-44185582D01*
X102458230Y-44015093D01*
X102714239Y-43631949D01*
X102780697Y-43297837D01*
X104437443Y-43297837D01*
X105410000Y-44270395D01*
X106382557Y-43297837D01*
X108247443Y-43297837D01*
X109220000Y-44270395D01*
X110192557Y-43297837D01*
X110093958Y-43031035D01*
X109484418Y-42804599D01*
X108834623Y-42828659D01*
X108346042Y-43031035D01*
X108247443Y-43297837D01*
X106382557Y-43297837D01*
X106283958Y-43031035D01*
X105674418Y-42804599D01*
X105024623Y-42828659D01*
X104536042Y-43031035D01*
X104437443Y-43297837D01*
X102780697Y-43297837D01*
X102804137Y-43180000D01*
X102714239Y-42728051D01*
X102458230Y-42344907D01*
X102075086Y-42088898D01*
X101623137Y-41999000D01*
X101576863Y-41999000D01*
X101124914Y-42088898D01*
X100741770Y-42344907D01*
X100485761Y-42728051D01*
X100395863Y-43180000D01*
X95184137Y-43180000D01*
X95094239Y-42728051D01*
X94838230Y-42344907D01*
X94455086Y-42088898D01*
X94003137Y-41999000D01*
X93956863Y-41999000D01*
X93504914Y-42088898D01*
X93121770Y-42344907D01*
X92865761Y-42728051D01*
X92775863Y-43180000D01*
X74378421Y-43180000D01*
X73513552Y-42315131D01*
X73594137Y-41910000D01*
X78805863Y-41910000D01*
X78895761Y-42361949D01*
X79151770Y-42745093D01*
X79534914Y-43001102D01*
X79986863Y-43091000D01*
X80033137Y-43091000D01*
X80485086Y-43001102D01*
X80868230Y-42745093D01*
X81124239Y-42361949D01*
X81214137Y-41910000D01*
X81124239Y-41458051D01*
X80868230Y-41074907D01*
X80485086Y-40818898D01*
X80033137Y-40729000D01*
X79986863Y-40729000D01*
X79534914Y-40818898D01*
X79151770Y-41074907D01*
X78895761Y-41458051D01*
X78805863Y-41910000D01*
X73594137Y-41910000D01*
X73504239Y-41458051D01*
X73248230Y-41074907D01*
X72865086Y-40818898D01*
X72413137Y-40729000D01*
X72366863Y-40729000D01*
X71914914Y-40818898D01*
X71531770Y-41074907D01*
X71275761Y-41458051D01*
X71185863Y-41910000D01*
X71275761Y-42361949D01*
X71531770Y-42745093D01*
X71914914Y-43001102D01*
X72366863Y-43091000D01*
X72413137Y-43091000D01*
X72779672Y-43018092D01*
X74422000Y-44660421D01*
X74422000Y-45509579D01*
X72938567Y-46993013D01*
X72665801Y-46879751D01*
X72116608Y-46879271D01*
X71609037Y-47088995D01*
X71220360Y-47476994D01*
X71009751Y-47984199D01*
X71009271Y-48533392D01*
X71218995Y-49040963D01*
X71606994Y-49429640D01*
X72114199Y-49640249D01*
X72663392Y-49640729D01*
X72938596Y-49527017D01*
X74084579Y-50673000D01*
X70612000Y-50673000D01*
X70612000Y-44450000D01*
X71185863Y-44450000D01*
X71275761Y-44901949D01*
X71531770Y-45285093D01*
X71914914Y-45541102D01*
X72366863Y-45631000D01*
X72413137Y-45631000D01*
X72865086Y-45541102D01*
X73248230Y-45285093D01*
X73504239Y-44901949D01*
X73594137Y-44450000D01*
X73504239Y-43998051D01*
X73248230Y-43614907D01*
X72865086Y-43358898D01*
X72413137Y-43269000D01*
X72366863Y-43269000D01*
X71914914Y-43358898D01*
X71531770Y-43614907D01*
X71275761Y-43998051D01*
X71185863Y-44450000D01*
X70612000Y-44450000D01*
X70612000Y-39370000D01*
X71185863Y-39370000D01*
X71275761Y-39821949D01*
X71531770Y-40205093D01*
X71914914Y-40461102D01*
X72366863Y-40551000D01*
X72413137Y-40551000D01*
X72865086Y-40461102D01*
X73248230Y-40205093D01*
X73504239Y-39821949D01*
X73594137Y-39370000D01*
X78805863Y-39370000D01*
X78895761Y-39821949D01*
X79151770Y-40205093D01*
X79534914Y-40461102D01*
X79986863Y-40551000D01*
X80033137Y-40551000D01*
X80178110Y-40522163D01*
X82847443Y-40522163D01*
X82946042Y-40788965D01*
X83555582Y-41015401D01*
X84205377Y-40991341D01*
X84693958Y-40788965D01*
X84749009Y-40640000D01*
X92775863Y-40640000D01*
X92865761Y-41091949D01*
X93121770Y-41475093D01*
X93504914Y-41731102D01*
X93956863Y-41821000D01*
X94003137Y-41821000D01*
X94455086Y-41731102D01*
X94838230Y-41475093D01*
X95094239Y-41091949D01*
X95184137Y-40640000D01*
X100395863Y-40640000D01*
X100485761Y-41091949D01*
X100741770Y-41475093D01*
X101124914Y-41731102D01*
X101576863Y-41821000D01*
X101623137Y-41821000D01*
X102075086Y-41731102D01*
X102458230Y-41475093D01*
X102714239Y-41091949D01*
X102804137Y-40640000D01*
X118175863Y-40640000D01*
X118265761Y-41091949D01*
X118521770Y-41475093D01*
X118904914Y-41731102D01*
X119356863Y-41821000D01*
X119403137Y-41821000D01*
X119855086Y-41731102D01*
X120238230Y-41475093D01*
X120494239Y-41091949D01*
X120584137Y-40640000D01*
X120494239Y-40188051D01*
X120238230Y-39804907D01*
X119855086Y-39548898D01*
X119403137Y-39459000D01*
X119356863Y-39459000D01*
X118904914Y-39548898D01*
X118521770Y-39804907D01*
X118265761Y-40188051D01*
X118175863Y-40640000D01*
X102804137Y-40640000D01*
X102714239Y-40188051D01*
X102458230Y-39804907D01*
X102075086Y-39548898D01*
X101623137Y-39459000D01*
X101576863Y-39459000D01*
X101124914Y-39548898D01*
X100741770Y-39804907D01*
X100485761Y-40188051D01*
X100395863Y-40640000D01*
X95184137Y-40640000D01*
X95094239Y-40188051D01*
X94838230Y-39804907D01*
X94455086Y-39548898D01*
X94003137Y-39459000D01*
X93956863Y-39459000D01*
X93504914Y-39548898D01*
X93121770Y-39804907D01*
X92865761Y-40188051D01*
X92775863Y-40640000D01*
X84749009Y-40640000D01*
X84792557Y-40522163D01*
X83820000Y-39549605D01*
X82847443Y-40522163D01*
X80178110Y-40522163D01*
X80485086Y-40461102D01*
X80868230Y-40205093D01*
X81124239Y-39821949D01*
X81214137Y-39370000D01*
X81161542Y-39105582D01*
X82174599Y-39105582D01*
X82198659Y-39755377D01*
X82401035Y-40243958D01*
X82667837Y-40342557D01*
X83640395Y-39370000D01*
X83999605Y-39370000D01*
X84972163Y-40342557D01*
X85238965Y-40243958D01*
X85465401Y-39634418D01*
X85441341Y-38984623D01*
X85238965Y-38496042D01*
X84972163Y-38397443D01*
X83999605Y-39370000D01*
X83640395Y-39370000D01*
X82667837Y-38397443D01*
X82401035Y-38496042D01*
X82174599Y-39105582D01*
X81161542Y-39105582D01*
X81124239Y-38918051D01*
X80868230Y-38534907D01*
X80485086Y-38278898D01*
X80178111Y-38217837D01*
X82847443Y-38217837D01*
X83820000Y-39190395D01*
X84792557Y-38217837D01*
X84693958Y-37951035D01*
X84084418Y-37724599D01*
X83434623Y-37748659D01*
X82946042Y-37951035D01*
X82847443Y-38217837D01*
X80178111Y-38217837D01*
X80033137Y-38189000D01*
X79986863Y-38189000D01*
X79534914Y-38278898D01*
X79151770Y-38534907D01*
X78895761Y-38918051D01*
X78805863Y-39370000D01*
X73594137Y-39370000D01*
X73504239Y-38918051D01*
X73248230Y-38534907D01*
X72865086Y-38278898D01*
X72413137Y-38189000D01*
X72366863Y-38189000D01*
X71914914Y-38278898D01*
X71531770Y-38534907D01*
X71275761Y-38918051D01*
X71185863Y-39370000D01*
X70612000Y-39370000D01*
X70612000Y-36830000D01*
X71185863Y-36830000D01*
X71275761Y-37281949D01*
X71531770Y-37665093D01*
X71914914Y-37921102D01*
X72366863Y-38011000D01*
X72413137Y-38011000D01*
X72865086Y-37921102D01*
X73248230Y-37665093D01*
X73504239Y-37281949D01*
X73594137Y-36830000D01*
X78805863Y-36830000D01*
X78895761Y-37281949D01*
X79151770Y-37665093D01*
X79534914Y-37921102D01*
X79986863Y-38011000D01*
X80033137Y-38011000D01*
X80485086Y-37921102D01*
X80868230Y-37665093D01*
X81124239Y-37281949D01*
X81130417Y-37250890D01*
X88934446Y-37250890D01*
X88934446Y-38950150D01*
X88961013Y-39091340D01*
X89044456Y-39221015D01*
X89171776Y-39308009D01*
X89322910Y-39338614D01*
X91022170Y-39338614D01*
X91163360Y-39312047D01*
X91293035Y-39228604D01*
X91380029Y-39101284D01*
X91410634Y-38950150D01*
X91410634Y-37300000D01*
X92791536Y-37300000D01*
X92791536Y-38900000D01*
X92818103Y-39041190D01*
X92901546Y-39170865D01*
X93028866Y-39257859D01*
X93180000Y-39288464D01*
X94780000Y-39288464D01*
X94921190Y-39261897D01*
X95050865Y-39178454D01*
X95137859Y-39051134D01*
X95168464Y-38900000D01*
X95168464Y-38100000D01*
X100395863Y-38100000D01*
X100485761Y-38551949D01*
X100741770Y-38935093D01*
X101124914Y-39191102D01*
X101576863Y-39281000D01*
X101623137Y-39281000D01*
X102075086Y-39191102D01*
X102458230Y-38935093D01*
X102714239Y-38551949D01*
X102804137Y-38100000D01*
X118175863Y-38100000D01*
X118265761Y-38551949D01*
X118521770Y-38935093D01*
X118904914Y-39191102D01*
X119356863Y-39281000D01*
X119403137Y-39281000D01*
X119855086Y-39191102D01*
X120238230Y-38935093D01*
X120494239Y-38551949D01*
X120514709Y-38449039D01*
X125608096Y-38449039D01*
X125768959Y-38837423D01*
X126144866Y-39252389D01*
X126650959Y-39491914D01*
X126872998Y-39370630D01*
X126872998Y-39479660D01*
X126524914Y-39548898D01*
X126141770Y-39804907D01*
X125885761Y-40188051D01*
X125795863Y-40640000D01*
X125885761Y-41091949D01*
X126141770Y-41475093D01*
X126524914Y-41731102D01*
X126976863Y-41821000D01*
X127023137Y-41821000D01*
X127475086Y-41731102D01*
X127858230Y-41475093D01*
X128114239Y-41091949D01*
X128191587Y-40703089D01*
X130926517Y-40703089D01*
X131055725Y-40995859D01*
X131755883Y-41264071D01*
X132505384Y-41243928D01*
X133104275Y-40995859D01*
X133233483Y-40703089D01*
X132080000Y-39549605D01*
X130926517Y-40703089D01*
X128191587Y-40703089D01*
X128204137Y-40640000D01*
X128114239Y-40188051D01*
X127858230Y-39804907D01*
X127475086Y-39548898D01*
X127127002Y-39479660D01*
X127127002Y-39370630D01*
X127349041Y-39491914D01*
X127855134Y-39252389D01*
X128042202Y-39045883D01*
X130185929Y-39045883D01*
X130206072Y-39795384D01*
X130454141Y-40394275D01*
X130746911Y-40523483D01*
X131900395Y-39370000D01*
X132259605Y-39370000D01*
X133413089Y-40523483D01*
X133705859Y-40394275D01*
X133974071Y-39694117D01*
X133953928Y-38944616D01*
X133705859Y-38345725D01*
X133413089Y-38216517D01*
X132259605Y-39370000D01*
X131900395Y-39370000D01*
X130746911Y-38216517D01*
X130454141Y-38345725D01*
X130185929Y-39045883D01*
X128042202Y-39045883D01*
X128231041Y-38837423D01*
X128391904Y-38449039D01*
X128269915Y-38227000D01*
X127127000Y-38227000D01*
X127127000Y-38247000D01*
X126873000Y-38247000D01*
X126873000Y-38227000D01*
X125730085Y-38227000D01*
X125608096Y-38449039D01*
X120514709Y-38449039D01*
X120584137Y-38100000D01*
X120571589Y-38036911D01*
X130926517Y-38036911D01*
X132080000Y-39190395D01*
X133150074Y-38120320D01*
X138061856Y-38120320D01*
X138061856Y-40619680D01*
X138088423Y-40760870D01*
X138171866Y-40890545D01*
X138299186Y-40977539D01*
X138450320Y-41008144D01*
X140949680Y-41008144D01*
X141090870Y-40981577D01*
X141220545Y-40898134D01*
X141307539Y-40770814D01*
X141338144Y-40619680D01*
X141338144Y-38120320D01*
X141311577Y-37979130D01*
X141228134Y-37849455D01*
X141100814Y-37762461D01*
X140949680Y-37731856D01*
X138450320Y-37731856D01*
X138309130Y-37758423D01*
X138179455Y-37841866D01*
X138092461Y-37969186D01*
X138061856Y-38120320D01*
X133150074Y-38120320D01*
X133233483Y-38036911D01*
X133104275Y-37744141D01*
X132404117Y-37475929D01*
X131654616Y-37496072D01*
X131055725Y-37744141D01*
X130926517Y-38036911D01*
X120571589Y-38036911D01*
X120514710Y-37750961D01*
X125608096Y-37750961D01*
X125730085Y-37973000D01*
X126873000Y-37973000D01*
X126873000Y-37953000D01*
X127127000Y-37953000D01*
X127127000Y-37973000D01*
X128269915Y-37973000D01*
X128391904Y-37750961D01*
X128231041Y-37362577D01*
X127855134Y-36947611D01*
X127349041Y-36708086D01*
X127127002Y-36829370D01*
X127127002Y-36720340D01*
X127475086Y-36651102D01*
X127858230Y-36395093D01*
X128114239Y-36011949D01*
X128204137Y-35560000D01*
X128114239Y-35108051D01*
X127858230Y-34724907D01*
X127475086Y-34468898D01*
X127023137Y-34379000D01*
X126976863Y-34379000D01*
X126524914Y-34468898D01*
X126141770Y-34724907D01*
X125885761Y-35108051D01*
X125795863Y-35560000D01*
X125885761Y-36011949D01*
X126141770Y-36395093D01*
X126524914Y-36651102D01*
X126872998Y-36720340D01*
X126872998Y-36829370D01*
X126650959Y-36708086D01*
X126144866Y-36947611D01*
X125768959Y-37362577D01*
X125608096Y-37750961D01*
X120514710Y-37750961D01*
X120494239Y-37648051D01*
X120238230Y-37264907D01*
X119855086Y-37008898D01*
X119403137Y-36919000D01*
X119356863Y-36919000D01*
X118904914Y-37008898D01*
X118521770Y-37264907D01*
X118265761Y-37648051D01*
X118175863Y-38100000D01*
X102804137Y-38100000D01*
X102714239Y-37648051D01*
X102458230Y-37264907D01*
X102075086Y-37008898D01*
X101623137Y-36919000D01*
X101576863Y-36919000D01*
X101124914Y-37008898D01*
X100741770Y-37264907D01*
X100485761Y-37648051D01*
X100395863Y-38100000D01*
X95168464Y-38100000D01*
X95168464Y-37300000D01*
X95141897Y-37158810D01*
X95058454Y-37029135D01*
X94931134Y-36942141D01*
X94780000Y-36911536D01*
X93180000Y-36911536D01*
X93038810Y-36938103D01*
X92909135Y-37021546D01*
X92822141Y-37148866D01*
X92791536Y-37300000D01*
X91410634Y-37300000D01*
X91410634Y-37250890D01*
X91384067Y-37109700D01*
X91300624Y-36980025D01*
X91173304Y-36893031D01*
X91022170Y-36862426D01*
X89322910Y-36862426D01*
X89181720Y-36888993D01*
X89052045Y-36972436D01*
X88965051Y-37099756D01*
X88934446Y-37250890D01*
X81130417Y-37250890D01*
X81214137Y-36830000D01*
X81124239Y-36378051D01*
X80868230Y-35994907D01*
X80485086Y-35738898D01*
X80033137Y-35649000D01*
X79986863Y-35649000D01*
X79534914Y-35738898D01*
X79151770Y-35994907D01*
X78895761Y-36378051D01*
X78805863Y-36830000D01*
X73594137Y-36830000D01*
X73504239Y-36378051D01*
X73248230Y-35994907D01*
X72865086Y-35738898D01*
X72413137Y-35649000D01*
X72366863Y-35649000D01*
X71914914Y-35738898D01*
X71531770Y-35994907D01*
X71275761Y-36378051D01*
X71185863Y-36830000D01*
X70612000Y-36830000D01*
X70612000Y-34290000D01*
X71185863Y-34290000D01*
X71275761Y-34741949D01*
X71531770Y-35125093D01*
X71914914Y-35381102D01*
X72366863Y-35471000D01*
X72413137Y-35471000D01*
X72865086Y-35381102D01*
X73248230Y-35125093D01*
X73504239Y-34741949D01*
X73594137Y-34290000D01*
X78805863Y-34290000D01*
X78895761Y-34741949D01*
X79151770Y-35125093D01*
X79534914Y-35381102D01*
X79986863Y-35471000D01*
X80033137Y-35471000D01*
X80485086Y-35381102D01*
X80868230Y-35125093D01*
X81124239Y-34741949D01*
X81214137Y-34290000D01*
X81124239Y-33838051D01*
X80868230Y-33454907D01*
X80485086Y-33198898D01*
X80463218Y-33194548D01*
X88018468Y-33194548D01*
X88152367Y-33518609D01*
X88400087Y-33766762D01*
X88723914Y-33901226D01*
X89074548Y-33901532D01*
X89398609Y-33767633D01*
X89646762Y-33519913D01*
X89781226Y-33196086D01*
X89781532Y-32845452D01*
X89647633Y-32521391D01*
X89399913Y-32273238D01*
X89076086Y-32138774D01*
X88725452Y-32138468D01*
X88401391Y-32272367D01*
X88153238Y-32520087D01*
X88018774Y-32843914D01*
X88018468Y-33194548D01*
X80463218Y-33194548D01*
X80033137Y-33109000D01*
X79986863Y-33109000D01*
X79534914Y-33198898D01*
X79151770Y-33454907D01*
X78895761Y-33838051D01*
X78805863Y-34290000D01*
X73594137Y-34290000D01*
X73504239Y-33838051D01*
X73248230Y-33454907D01*
X72865086Y-33198898D01*
X72413137Y-33109000D01*
X72366863Y-33109000D01*
X71914914Y-33198898D01*
X71531770Y-33454907D01*
X71275761Y-33838051D01*
X71185863Y-34290000D01*
X70612000Y-34290000D01*
X70612000Y-31750000D01*
X71185863Y-31750000D01*
X71275761Y-32201949D01*
X71531770Y-32585093D01*
X71914914Y-32841102D01*
X72366863Y-32931000D01*
X72413137Y-32931000D01*
X72865086Y-32841102D01*
X73248230Y-32585093D01*
X73504239Y-32201949D01*
X73594137Y-31750000D01*
X73504239Y-31298051D01*
X73248230Y-30914907D01*
X72865086Y-30658898D01*
X72413137Y-30569000D01*
X72366863Y-30569000D01*
X71914914Y-30658898D01*
X71531770Y-30914907D01*
X71275761Y-31298051D01*
X71185863Y-31750000D01*
X70612000Y-31750000D01*
X70612000Y-24700552D01*
X70778501Y-24700552D01*
X71216183Y-25759823D01*
X72025914Y-26570969D01*
X73084420Y-27010499D01*
X73870395Y-27011185D01*
X72860044Y-28021536D01*
X71590000Y-28021536D01*
X71448810Y-28048103D01*
X71319135Y-28131546D01*
X71232141Y-28258866D01*
X71201536Y-28410000D01*
X71201536Y-30010000D01*
X71228103Y-30151190D01*
X71311546Y-30280865D01*
X71438866Y-30367859D01*
X71590000Y-30398464D01*
X73190000Y-30398464D01*
X73331190Y-30371897D01*
X73460865Y-30288454D01*
X73547859Y-30161134D01*
X73578464Y-30010000D01*
X73578464Y-29559039D01*
X78618096Y-29559039D01*
X78778959Y-29947423D01*
X79154866Y-30362389D01*
X79660959Y-30601914D01*
X79882998Y-30480630D01*
X79882998Y-30589660D01*
X79534914Y-30658898D01*
X79151770Y-30914907D01*
X78895761Y-31298051D01*
X78805863Y-31750000D01*
X78895761Y-32201949D01*
X79151770Y-32585093D01*
X79534914Y-32841102D01*
X79986863Y-32931000D01*
X80033137Y-32931000D01*
X80485086Y-32841102D01*
X80868230Y-32585093D01*
X81124239Y-32201949D01*
X81179417Y-31924548D01*
X89288468Y-31924548D01*
X89422367Y-32248609D01*
X89670087Y-32496762D01*
X89993914Y-32631226D01*
X90333102Y-32631522D01*
X92350789Y-34649210D01*
X92442316Y-34710366D01*
X92515597Y-34759331D01*
X92710000Y-34798000D01*
X104126209Y-34798000D01*
X104238995Y-35070963D01*
X104626994Y-35459640D01*
X105134199Y-35670249D01*
X105683392Y-35670729D01*
X106190963Y-35461005D01*
X106579640Y-35073006D01*
X106790249Y-34565801D01*
X106790251Y-34563392D01*
X107839271Y-34563392D01*
X108048995Y-35070963D01*
X108436994Y-35459640D01*
X108944199Y-35670249D01*
X109493392Y-35670729D01*
X110000963Y-35461005D01*
X110389640Y-35073006D01*
X110477464Y-34861500D01*
X111943036Y-34861500D01*
X111943036Y-36258500D01*
X111969603Y-36399690D01*
X112053046Y-36529365D01*
X112180366Y-36616359D01*
X112331500Y-36646964D01*
X113728500Y-36646964D01*
X113869690Y-36620397D01*
X113999365Y-36536954D01*
X114086359Y-36409634D01*
X114116964Y-36258500D01*
X114116964Y-34861500D01*
X114483036Y-34861500D01*
X114483036Y-36258500D01*
X114509603Y-36399690D01*
X114593046Y-36529365D01*
X114720366Y-36616359D01*
X114871500Y-36646964D01*
X116268500Y-36646964D01*
X116409690Y-36620397D01*
X116539365Y-36536954D01*
X116626359Y-36409634D01*
X116656964Y-36258500D01*
X116656964Y-35560000D01*
X118175863Y-35560000D01*
X118265761Y-36011949D01*
X118521770Y-36395093D01*
X118904914Y-36651102D01*
X119356863Y-36741000D01*
X119403137Y-36741000D01*
X119855086Y-36651102D01*
X120238230Y-36395093D01*
X120494239Y-36011949D01*
X120584137Y-35560000D01*
X120494239Y-35108051D01*
X120238230Y-34724907D01*
X119855086Y-34468898D01*
X119403137Y-34379000D01*
X119356863Y-34379000D01*
X118904914Y-34468898D01*
X118521770Y-34724907D01*
X118265761Y-35108051D01*
X118175863Y-35560000D01*
X116656964Y-35560000D01*
X116656964Y-34861500D01*
X116630397Y-34720310D01*
X116546954Y-34590635D01*
X116419634Y-34503641D01*
X116268500Y-34473036D01*
X114871500Y-34473036D01*
X114730310Y-34499603D01*
X114600635Y-34583046D01*
X114513641Y-34710366D01*
X114483036Y-34861500D01*
X114116964Y-34861500D01*
X114090397Y-34720310D01*
X114006954Y-34590635D01*
X113879634Y-34503641D01*
X113728500Y-34473036D01*
X112331500Y-34473036D01*
X112190310Y-34499603D01*
X112060635Y-34583046D01*
X111973641Y-34710366D01*
X111943036Y-34861500D01*
X110477464Y-34861500D01*
X110600249Y-34565801D01*
X110600729Y-34016608D01*
X110391005Y-33509037D01*
X110003006Y-33120360D01*
X109495801Y-32909751D01*
X108946608Y-32909271D01*
X108439037Y-33118995D01*
X108050360Y-33506994D01*
X107839751Y-34014199D01*
X107839271Y-34563392D01*
X106790251Y-34563392D01*
X106790729Y-34016608D01*
X106581005Y-33509037D01*
X106193006Y-33120360D01*
X105685801Y-32909751D01*
X105136608Y-32909271D01*
X104629037Y-33118995D01*
X104240360Y-33506994D01*
X104126168Y-33782000D01*
X94443838Y-33782000D01*
X94478609Y-33767633D01*
X94726762Y-33519913D01*
X94861226Y-33196086D01*
X94861532Y-32845452D01*
X94727633Y-32521391D01*
X94479913Y-32273238D01*
X94156086Y-32138774D01*
X93805452Y-32138468D01*
X93481391Y-32272367D01*
X93233238Y-32520087D01*
X93098774Y-32843914D01*
X93098468Y-33194548D01*
X93232367Y-33518609D01*
X93480087Y-33766762D01*
X93516784Y-33782000D01*
X92920421Y-33782000D01*
X91062969Y-31924548D01*
X94368468Y-31924548D01*
X94502367Y-32248609D01*
X94750087Y-32496762D01*
X95073914Y-32631226D01*
X95424548Y-32631532D01*
X95748609Y-32497633D01*
X95925049Y-32321500D01*
X111943036Y-32321500D01*
X111943036Y-33718500D01*
X111969603Y-33859690D01*
X112053046Y-33989365D01*
X112180366Y-34076359D01*
X112331500Y-34106964D01*
X113728500Y-34106964D01*
X113869690Y-34080397D01*
X113999365Y-33996954D01*
X114086359Y-33869634D01*
X114116964Y-33718500D01*
X114116964Y-32321500D01*
X114483036Y-32321500D01*
X114483036Y-33718500D01*
X114509603Y-33859690D01*
X114593046Y-33989365D01*
X114720366Y-34076359D01*
X114871500Y-34106964D01*
X116268500Y-34106964D01*
X116409690Y-34080397D01*
X116539365Y-33996954D01*
X116626359Y-33869634D01*
X116656964Y-33718500D01*
X116656964Y-33020000D01*
X118175863Y-33020000D01*
X118265761Y-33471949D01*
X118521770Y-33855093D01*
X118904914Y-34111102D01*
X119356863Y-34201000D01*
X119403137Y-34201000D01*
X119855086Y-34111102D01*
X120238230Y-33855093D01*
X120494239Y-33471949D01*
X120584137Y-33020000D01*
X125795863Y-33020000D01*
X125885761Y-33471949D01*
X126141770Y-33855093D01*
X126524914Y-34111102D01*
X126976863Y-34201000D01*
X127023137Y-34201000D01*
X127475086Y-34111102D01*
X127858230Y-33855093D01*
X128114239Y-33471949D01*
X128204137Y-33020000D01*
X128114239Y-32568051D01*
X127858230Y-32184907D01*
X127475086Y-31928898D01*
X127023137Y-31839000D01*
X126976863Y-31839000D01*
X126524914Y-31928898D01*
X126141770Y-32184907D01*
X125885761Y-32568051D01*
X125795863Y-33020000D01*
X120584137Y-33020000D01*
X120494239Y-32568051D01*
X120238230Y-32184907D01*
X119855086Y-31928898D01*
X119403137Y-31839000D01*
X119356863Y-31839000D01*
X118904914Y-31928898D01*
X118521770Y-32184907D01*
X118265761Y-32568051D01*
X118175863Y-33020000D01*
X116656964Y-33020000D01*
X116656964Y-32321500D01*
X116630397Y-32180310D01*
X116546954Y-32050635D01*
X116419634Y-31963641D01*
X116268500Y-31933036D01*
X114871500Y-31933036D01*
X114730310Y-31959603D01*
X114600635Y-32043046D01*
X114513641Y-32170366D01*
X114483036Y-32321500D01*
X114116964Y-32321500D01*
X114090397Y-32180310D01*
X114006954Y-32050635D01*
X113879634Y-31963641D01*
X113728500Y-31933036D01*
X112331500Y-31933036D01*
X112190310Y-31959603D01*
X112060635Y-32043046D01*
X111973641Y-32170366D01*
X111943036Y-32321500D01*
X95925049Y-32321500D01*
X95996762Y-32249913D01*
X96131226Y-31926086D01*
X96131532Y-31575452D01*
X95997633Y-31251391D01*
X95749913Y-31003238D01*
X95426086Y-30868774D01*
X95075452Y-30868468D01*
X94751391Y-31002367D01*
X94503238Y-31250087D01*
X94368774Y-31573914D01*
X94368468Y-31924548D01*
X91062969Y-31924548D01*
X91051238Y-31912817D01*
X91051532Y-31575452D01*
X90917633Y-31251391D01*
X90669913Y-31003238D01*
X90346086Y-30868774D01*
X89995452Y-30868468D01*
X89671391Y-31002367D01*
X89423238Y-31250087D01*
X89288774Y-31573914D01*
X89288468Y-31924548D01*
X81179417Y-31924548D01*
X81214137Y-31750000D01*
X81124239Y-31298051D01*
X80868230Y-30914907D01*
X80485086Y-30658898D01*
X80463218Y-30654548D01*
X88018468Y-30654548D01*
X88152367Y-30978609D01*
X88400087Y-31226762D01*
X88723914Y-31361226D01*
X89074548Y-31361532D01*
X89398609Y-31227633D01*
X89646762Y-30979913D01*
X89781226Y-30656086D01*
X89781227Y-30654548D01*
X93098468Y-30654548D01*
X93232367Y-30978609D01*
X93480087Y-31226762D01*
X93803914Y-31361226D01*
X94154548Y-31361532D01*
X94478609Y-31227633D01*
X94726762Y-30979913D01*
X94820821Y-30753392D01*
X97679271Y-30753392D01*
X97888995Y-31260963D01*
X98276994Y-31649640D01*
X98784199Y-31860249D01*
X99333392Y-31860729D01*
X99840963Y-31651005D01*
X100229640Y-31263006D01*
X100440249Y-30755801D01*
X100440251Y-30753392D01*
X107839271Y-30753392D01*
X108048995Y-31260963D01*
X108436994Y-31649640D01*
X108944199Y-31860249D01*
X109493392Y-31860729D01*
X110000963Y-31651005D01*
X110389640Y-31263006D01*
X110600249Y-30755801D01*
X110600729Y-30206608D01*
X110391005Y-29699037D01*
X110003006Y-29310360D01*
X109495801Y-29099751D01*
X108946608Y-29099271D01*
X108439037Y-29308995D01*
X108050360Y-29696994D01*
X107839751Y-30204199D01*
X107839271Y-30753392D01*
X100440251Y-30753392D01*
X100440729Y-30206608D01*
X100231005Y-29699037D01*
X99843006Y-29310360D01*
X99335801Y-29099751D01*
X98786608Y-29099271D01*
X98279037Y-29308995D01*
X97890360Y-29696994D01*
X97679751Y-30204199D01*
X97679271Y-30753392D01*
X94820821Y-30753392D01*
X94861226Y-30656086D01*
X94861532Y-30305452D01*
X94727633Y-29981391D01*
X94479913Y-29733238D01*
X94156086Y-29598774D01*
X93805452Y-29598468D01*
X93481391Y-29732367D01*
X93233238Y-29980087D01*
X93098774Y-30303914D01*
X93098468Y-30654548D01*
X89781227Y-30654548D01*
X89781532Y-30305452D01*
X89647633Y-29981391D01*
X89399913Y-29733238D01*
X89076086Y-29598774D01*
X88725452Y-29598468D01*
X88401391Y-29732367D01*
X88153238Y-29980087D01*
X88018774Y-30303914D01*
X88018468Y-30654548D01*
X80463218Y-30654548D01*
X80137002Y-30589660D01*
X80137002Y-30480630D01*
X80359041Y-30601914D01*
X80865134Y-30362389D01*
X81241041Y-29947423D01*
X81401904Y-29559039D01*
X81360344Y-29483392D01*
X82439271Y-29483392D01*
X82648995Y-29990963D01*
X83036994Y-30379640D01*
X83544199Y-30590249D01*
X84093392Y-30590729D01*
X84600963Y-30381005D01*
X84989640Y-29993006D01*
X85200249Y-29485801D01*
X85200729Y-28936608D01*
X84991005Y-28429037D01*
X84603006Y-28040360D01*
X84095801Y-27829751D01*
X83546608Y-27829271D01*
X83039037Y-28038995D01*
X82650360Y-28426994D01*
X82439751Y-28934199D01*
X82439271Y-29483392D01*
X81360344Y-29483392D01*
X81279915Y-29337000D01*
X80137000Y-29337000D01*
X80137000Y-29357000D01*
X79883000Y-29357000D01*
X79883000Y-29337000D01*
X78740085Y-29337000D01*
X78618096Y-29559039D01*
X73578464Y-29559039D01*
X73578464Y-28860961D01*
X78618096Y-28860961D01*
X78740085Y-29083000D01*
X79883000Y-29083000D01*
X79883000Y-27939371D01*
X80137000Y-27939371D01*
X80137000Y-29083000D01*
X81279915Y-29083000D01*
X81401904Y-28860961D01*
X81241041Y-28472577D01*
X80865134Y-28057611D01*
X80359041Y-27818086D01*
X80137000Y-27939371D01*
X79883000Y-27939371D01*
X79660959Y-27818086D01*
X79154866Y-28057611D01*
X78778959Y-28472577D01*
X78618096Y-28860961D01*
X73578464Y-28860961D01*
X73578464Y-28739956D01*
X74505420Y-27813000D01*
X78105000Y-27813000D01*
X78299403Y-27774331D01*
X78464210Y-27664210D01*
X79099211Y-27029210D01*
X79209331Y-26864403D01*
X79248000Y-26670000D01*
X79248000Y-26341608D01*
X79290590Y-26299018D01*
X79346271Y-26529611D01*
X79829078Y-26697622D01*
X80339428Y-26668083D01*
X80673729Y-26529611D01*
X80729410Y-26299016D01*
X80010000Y-25579605D01*
X79995858Y-25593748D01*
X79816252Y-25414142D01*
X79830395Y-25400000D01*
X80189605Y-25400000D01*
X80909016Y-26119410D01*
X81139611Y-26063729D01*
X81307622Y-25580922D01*
X81278083Y-25070572D01*
X81139611Y-24736271D01*
X80909016Y-24680590D01*
X80189605Y-25400000D01*
X79830395Y-25400000D01*
X79816252Y-25385858D01*
X79995858Y-25206252D01*
X80010000Y-25220395D01*
X80729410Y-24500984D01*
X80673729Y-24270389D01*
X80190922Y-24102378D01*
X79680572Y-24131917D01*
X79346271Y-24270389D01*
X79290590Y-24500982D01*
X79248000Y-24458392D01*
X79248000Y-23370540D01*
X82733036Y-23370540D01*
X82733036Y-24767540D01*
X82759603Y-24908730D01*
X82843046Y-25038405D01*
X82970366Y-25125399D01*
X83121500Y-25156004D01*
X84518500Y-25156004D01*
X84659690Y-25129437D01*
X84789365Y-25045994D01*
X84876359Y-24918674D01*
X84906964Y-24767540D01*
X84906964Y-24404744D01*
X85280313Y-24404744D01*
X85444311Y-24801649D01*
X85747714Y-25105582D01*
X86144332Y-25270273D01*
X86573784Y-25270647D01*
X86970689Y-25106649D01*
X87274622Y-24803246D01*
X87439313Y-24406628D01*
X87439420Y-24282824D01*
X87820313Y-24282824D01*
X87984311Y-24679729D01*
X88287714Y-24983662D01*
X88684332Y-25148353D01*
X89113784Y-25148727D01*
X89510689Y-24984729D01*
X89814622Y-24681326D01*
X89929469Y-24404744D01*
X90360313Y-24404744D01*
X90524311Y-24801649D01*
X90827714Y-25105582D01*
X91224332Y-25270273D01*
X91653784Y-25270647D01*
X92050689Y-25106649D01*
X92354622Y-24803246D01*
X92519313Y-24406628D01*
X92519687Y-23977176D01*
X92355689Y-23580271D01*
X92052286Y-23276338D01*
X91655668Y-23111647D01*
X91226216Y-23111273D01*
X90829311Y-23275271D01*
X90525378Y-23578674D01*
X90360687Y-23975292D01*
X90360313Y-24404744D01*
X89929469Y-24404744D01*
X89979313Y-24284708D01*
X89979687Y-23855256D01*
X89815689Y-23458351D01*
X89512286Y-23154418D01*
X89115668Y-22989727D01*
X88686216Y-22989353D01*
X88289311Y-23153351D01*
X87985378Y-23456754D01*
X87820687Y-23853372D01*
X87820313Y-24282824D01*
X87439420Y-24282824D01*
X87439687Y-23977176D01*
X87275689Y-23580271D01*
X86972286Y-23276338D01*
X86575668Y-23111647D01*
X86146216Y-23111273D01*
X85749311Y-23275271D01*
X85445378Y-23578674D01*
X85280687Y-23975292D01*
X85280313Y-24404744D01*
X84906964Y-24404744D01*
X84906964Y-23370540D01*
X84880397Y-23229350D01*
X84796954Y-23099675D01*
X84669634Y-23012681D01*
X84518500Y-22982076D01*
X83121500Y-22982076D01*
X82980310Y-23008643D01*
X82850635Y-23092086D01*
X82763641Y-23219406D01*
X82733036Y-23370540D01*
X79248000Y-23370540D01*
X79248000Y-23070420D01*
X79585421Y-22733000D01*
X93134580Y-22733000D01*
X93472000Y-23070421D01*
X93472000Y-23110921D01*
X93369311Y-23153351D01*
X93065378Y-23456754D01*
X92900687Y-23853372D01*
X92900313Y-24282824D01*
X93064311Y-24679729D01*
X93367714Y-24983662D01*
X93764332Y-25148353D01*
X94193784Y-25148727D01*
X94250849Y-25125148D01*
X95765417Y-25125148D01*
X95827071Y-25360760D01*
X96327480Y-25536887D01*
X96857199Y-25508108D01*
X97212929Y-25360760D01*
X97274583Y-25125148D01*
X96520000Y-24370565D01*
X95765417Y-25125148D01*
X94250849Y-25125148D01*
X94590689Y-24984729D01*
X94894622Y-24681326D01*
X95059313Y-24284708D01*
X95059562Y-23998440D01*
X95174073Y-23998440D01*
X95202852Y-24528159D01*
X95350200Y-24883889D01*
X95585812Y-24945543D01*
X96340395Y-24190960D01*
X96699605Y-24190960D01*
X97454188Y-24945543D01*
X97689800Y-24883889D01*
X97865927Y-24383480D01*
X97860459Y-24282824D01*
X97980313Y-24282824D01*
X98144311Y-24679729D01*
X98447714Y-24983662D01*
X98844332Y-25148353D01*
X99273784Y-25148727D01*
X99335009Y-25123429D01*
X102510790Y-28299210D01*
X102675597Y-28409331D01*
X102870000Y-28448000D01*
X110279580Y-28448000D01*
X111943036Y-30111457D01*
X111943036Y-31178500D01*
X111969603Y-31319690D01*
X112053046Y-31449365D01*
X112180366Y-31536359D01*
X112331500Y-31566964D01*
X113728500Y-31566964D01*
X113869690Y-31540397D01*
X113999365Y-31456954D01*
X114086359Y-31329634D01*
X114116964Y-31178500D01*
X114116964Y-29781500D01*
X114483036Y-29781500D01*
X114483036Y-31178500D01*
X114509603Y-31319690D01*
X114593046Y-31449365D01*
X114720366Y-31536359D01*
X114871500Y-31566964D01*
X116268500Y-31566964D01*
X116409690Y-31540397D01*
X116539365Y-31456954D01*
X116626359Y-31329634D01*
X116656964Y-31178500D01*
X116656964Y-30480000D01*
X118175863Y-30480000D01*
X118265761Y-30931949D01*
X118521770Y-31315093D01*
X118904914Y-31571102D01*
X119356863Y-31661000D01*
X119403137Y-31661000D01*
X119855086Y-31571102D01*
X120238230Y-31315093D01*
X120494239Y-30931949D01*
X120584137Y-30480000D01*
X125795863Y-30480000D01*
X125885761Y-30931949D01*
X126141770Y-31315093D01*
X126524914Y-31571102D01*
X126976863Y-31661000D01*
X127023137Y-31661000D01*
X127475086Y-31571102D01*
X127858230Y-31315093D01*
X128114239Y-30931949D01*
X128204137Y-30480000D01*
X143511017Y-30480000D01*
X143605757Y-30956288D01*
X143875552Y-31360065D01*
X144279329Y-31629860D01*
X144755617Y-31724600D01*
X144804383Y-31724600D01*
X145280671Y-31629860D01*
X145684448Y-31360065D01*
X145954243Y-30956288D01*
X146048983Y-30480000D01*
X145954243Y-30003712D01*
X145684448Y-29599935D01*
X145280671Y-29330140D01*
X144804383Y-29235400D01*
X144755617Y-29235400D01*
X144279329Y-29330140D01*
X143875552Y-29599935D01*
X143605757Y-30003712D01*
X143511017Y-30480000D01*
X128204137Y-30480000D01*
X128114239Y-30028051D01*
X127858230Y-29644907D01*
X127475086Y-29388898D01*
X127023137Y-29299000D01*
X126976863Y-29299000D01*
X126524914Y-29388898D01*
X126141770Y-29644907D01*
X125885761Y-30028051D01*
X125795863Y-30480000D01*
X120584137Y-30480000D01*
X120494239Y-30028051D01*
X120238230Y-29644907D01*
X119855086Y-29388898D01*
X119403137Y-29299000D01*
X119356863Y-29299000D01*
X118904914Y-29388898D01*
X118521770Y-29644907D01*
X118265761Y-30028051D01*
X118175863Y-30480000D01*
X116656964Y-30480000D01*
X116656964Y-29781500D01*
X116630397Y-29640310D01*
X116546954Y-29510635D01*
X116419634Y-29423641D01*
X116268500Y-29393036D01*
X114871500Y-29393036D01*
X114730310Y-29419603D01*
X114600635Y-29503046D01*
X114513641Y-29630366D01*
X114483036Y-29781500D01*
X114116964Y-29781500D01*
X114090397Y-29640310D01*
X114006954Y-29510635D01*
X113879634Y-29423641D01*
X113728500Y-29393036D01*
X112661457Y-29393036D01*
X111208421Y-27940000D01*
X118175863Y-27940000D01*
X118265761Y-28391949D01*
X118521770Y-28775093D01*
X118904914Y-29031102D01*
X119356863Y-29121000D01*
X119403137Y-29121000D01*
X119855086Y-29031102D01*
X120238230Y-28775093D01*
X120494239Y-28391949D01*
X120584137Y-27940000D01*
X125795863Y-27940000D01*
X125885761Y-28391949D01*
X126141770Y-28775093D01*
X126524914Y-29031102D01*
X126976863Y-29121000D01*
X127023137Y-29121000D01*
X127475086Y-29031102D01*
X127858230Y-28775093D01*
X128114239Y-28391949D01*
X128204137Y-27940000D01*
X128114239Y-27488051D01*
X127858230Y-27104907D01*
X127475086Y-26848898D01*
X127023137Y-26759000D01*
X126976863Y-26759000D01*
X126524914Y-26848898D01*
X126141770Y-27104907D01*
X125885761Y-27488051D01*
X125795863Y-27940000D01*
X120584137Y-27940000D01*
X120494239Y-27488051D01*
X120238230Y-27104907D01*
X119855086Y-26848898D01*
X119403137Y-26759000D01*
X119356863Y-26759000D01*
X118904914Y-26848898D01*
X118521770Y-27104907D01*
X118265761Y-27488051D01*
X118175863Y-27940000D01*
X111208421Y-27940000D01*
X110849210Y-27580790D01*
X110684403Y-27470669D01*
X110490000Y-27432000D01*
X103080420Y-27432000D01*
X100078817Y-24430397D01*
X100089469Y-24404744D01*
X100520313Y-24404744D01*
X100684311Y-24801649D01*
X100987714Y-25105582D01*
X101384332Y-25270273D01*
X101813784Y-25270647D01*
X101872587Y-25246350D01*
X108283255Y-25246350D01*
X108375792Y-25508019D01*
X108967398Y-25726188D01*
X109597461Y-25701352D01*
X110064208Y-25508019D01*
X110156745Y-25246350D01*
X109220000Y-24309605D01*
X108283255Y-25246350D01*
X101872587Y-25246350D01*
X102210689Y-25106649D01*
X102514622Y-24803246D01*
X102679313Y-24406628D01*
X102679687Y-23977176D01*
X102638460Y-23877398D01*
X107623812Y-23877398D01*
X107648648Y-24507461D01*
X107841981Y-24974208D01*
X108103650Y-25066745D01*
X109040395Y-24130000D01*
X109399605Y-24130000D01*
X110336350Y-25066745D01*
X110421536Y-25036620D01*
X110421536Y-25130000D01*
X110448103Y-25271190D01*
X110531546Y-25400865D01*
X110658866Y-25487859D01*
X110810000Y-25518464D01*
X112710000Y-25518464D01*
X112851190Y-25491897D01*
X112980865Y-25408454D01*
X112986641Y-25400000D01*
X118175863Y-25400000D01*
X118265761Y-25851949D01*
X118521770Y-26235093D01*
X118904914Y-26491102D01*
X119356863Y-26581000D01*
X119403137Y-26581000D01*
X119855086Y-26491102D01*
X120238230Y-26235093D01*
X120494239Y-25851949D01*
X120584137Y-25400000D01*
X120494239Y-24948051D01*
X120238230Y-24564907D01*
X119855086Y-24308898D01*
X119403137Y-24219000D01*
X119356863Y-24219000D01*
X118904914Y-24308898D01*
X118521770Y-24564907D01*
X118265761Y-24948051D01*
X118175863Y-25400000D01*
X112986641Y-25400000D01*
X113067859Y-25281134D01*
X113098464Y-25130000D01*
X113098464Y-23130000D01*
X113071897Y-22988810D01*
X112988454Y-22859135D01*
X112861134Y-22772141D01*
X112710000Y-22741536D01*
X110810000Y-22741536D01*
X110668810Y-22768103D01*
X110539135Y-22851546D01*
X110452141Y-22978866D01*
X110421536Y-23130000D01*
X110421536Y-23223380D01*
X110336350Y-23193255D01*
X109399605Y-24130000D01*
X109040395Y-24130000D01*
X108103650Y-23193255D01*
X107841981Y-23285792D01*
X107623812Y-23877398D01*
X102638460Y-23877398D01*
X102515689Y-23580271D01*
X102212286Y-23276338D01*
X101815668Y-23111647D01*
X101386216Y-23111273D01*
X100989311Y-23275271D01*
X100685378Y-23578674D01*
X100520687Y-23975292D01*
X100520313Y-24404744D01*
X100089469Y-24404744D01*
X100139313Y-24284708D01*
X100139687Y-23855256D01*
X99975689Y-23458351D01*
X99672286Y-23154418D01*
X99333281Y-23013650D01*
X108283255Y-23013650D01*
X109220000Y-23950395D01*
X110156745Y-23013650D01*
X110064208Y-22751981D01*
X109472602Y-22533812D01*
X108842539Y-22558648D01*
X108375792Y-22751981D01*
X108283255Y-23013650D01*
X99333281Y-23013650D01*
X99275668Y-22989727D01*
X98846216Y-22989353D01*
X98449311Y-23153351D01*
X98145378Y-23456754D01*
X97980687Y-23853372D01*
X97980313Y-24282824D01*
X97860459Y-24282824D01*
X97837148Y-23853761D01*
X97689800Y-23498031D01*
X97454188Y-23436377D01*
X96699605Y-24190960D01*
X96340395Y-24190960D01*
X95585812Y-23436377D01*
X95350200Y-23498031D01*
X95174073Y-23998440D01*
X95059562Y-23998440D01*
X95059687Y-23855256D01*
X94895689Y-23458351D01*
X94694462Y-23256772D01*
X95765417Y-23256772D01*
X96520000Y-24011355D01*
X97274583Y-23256772D01*
X97212929Y-23021160D01*
X96712520Y-22845033D01*
X96182801Y-22873812D01*
X95827071Y-23021160D01*
X95765417Y-23256772D01*
X94694462Y-23256772D01*
X94592286Y-23154418D01*
X94488000Y-23111114D01*
X94488000Y-22860000D01*
X94449331Y-22665597D01*
X94361275Y-22533812D01*
X94339211Y-22500790D01*
X93898421Y-22060000D01*
X118191536Y-22060000D01*
X118191536Y-23660000D01*
X118218103Y-23801190D01*
X118301546Y-23930865D01*
X118428866Y-24017859D01*
X118580000Y-24048464D01*
X120180000Y-24048464D01*
X120321190Y-24021897D01*
X120450865Y-23938454D01*
X120537859Y-23811134D01*
X120568464Y-23660000D01*
X120568464Y-23209039D01*
X125608096Y-23209039D01*
X125768959Y-23597423D01*
X126144866Y-24012389D01*
X126650959Y-24251914D01*
X126872998Y-24130630D01*
X126872998Y-24239660D01*
X126524914Y-24308898D01*
X126141770Y-24564907D01*
X125885761Y-24948051D01*
X125795863Y-25400000D01*
X125885761Y-25851949D01*
X126141770Y-26235093D01*
X126524914Y-26491102D01*
X126976863Y-26581000D01*
X127023137Y-26581000D01*
X127475086Y-26491102D01*
X127858230Y-26235093D01*
X128114239Y-25851949D01*
X128204137Y-25400000D01*
X128114239Y-24948051D01*
X127858230Y-24564907D01*
X127690659Y-24452939D01*
X130449037Y-24452939D01*
X130696771Y-25052499D01*
X131155088Y-25511617D01*
X131754215Y-25760396D01*
X132402939Y-25760963D01*
X133002499Y-25513229D01*
X133461617Y-25054912D01*
X133710396Y-24455785D01*
X133710398Y-24452939D01*
X138069037Y-24452939D01*
X138316771Y-25052499D01*
X138775088Y-25511617D01*
X139374215Y-25760396D01*
X140022939Y-25760963D01*
X140622499Y-25513229D01*
X140735925Y-25400000D01*
X143511017Y-25400000D01*
X143605757Y-25876288D01*
X143875552Y-26280065D01*
X144279329Y-26549860D01*
X144755617Y-26644600D01*
X144804383Y-26644600D01*
X145280671Y-26549860D01*
X145684448Y-26280065D01*
X145954243Y-25876288D01*
X146048983Y-25400000D01*
X145954243Y-24923712D01*
X145684448Y-24519935D01*
X145280671Y-24250140D01*
X144804383Y-24155400D01*
X144755617Y-24155400D01*
X144279329Y-24250140D01*
X143875552Y-24519935D01*
X143605757Y-24923712D01*
X143511017Y-25400000D01*
X140735925Y-25400000D01*
X141081617Y-25054912D01*
X141330396Y-24455785D01*
X141330963Y-23807061D01*
X141083229Y-23207501D01*
X140624912Y-22748383D01*
X140025785Y-22499604D01*
X139377061Y-22499037D01*
X138777501Y-22746771D01*
X138318383Y-23205088D01*
X138069604Y-23804215D01*
X138069037Y-24452939D01*
X133710398Y-24452939D01*
X133710963Y-23807061D01*
X133463229Y-23207501D01*
X133004912Y-22748383D01*
X132405785Y-22499604D01*
X131757061Y-22499037D01*
X131157501Y-22746771D01*
X130698383Y-23205088D01*
X130449604Y-23804215D01*
X130449037Y-24452939D01*
X127690659Y-24452939D01*
X127475086Y-24308898D01*
X127127002Y-24239660D01*
X127127002Y-24130630D01*
X127349041Y-24251914D01*
X127855134Y-24012389D01*
X128231041Y-23597423D01*
X128391904Y-23209039D01*
X128269915Y-22987000D01*
X127127000Y-22987000D01*
X127127000Y-23007000D01*
X126873000Y-23007000D01*
X126873000Y-22987000D01*
X125730085Y-22987000D01*
X125608096Y-23209039D01*
X120568464Y-23209039D01*
X120568464Y-22510961D01*
X125608096Y-22510961D01*
X125730085Y-22733000D01*
X126873000Y-22733000D01*
X126873000Y-21589371D01*
X127127000Y-21589371D01*
X127127000Y-22733000D01*
X128269915Y-22733000D01*
X128391904Y-22510961D01*
X128231041Y-22122577D01*
X128116741Y-21996400D01*
X143527936Y-21996400D01*
X143527936Y-23723600D01*
X143554503Y-23864790D01*
X143637946Y-23994465D01*
X143765266Y-24081459D01*
X143916400Y-24112064D01*
X145643600Y-24112064D01*
X145784790Y-24085497D01*
X145914465Y-24002054D01*
X146001459Y-23874734D01*
X146032064Y-23723600D01*
X146032064Y-22860000D01*
X146051017Y-22860000D01*
X146145757Y-23336288D01*
X146415552Y-23740065D01*
X146819329Y-24009860D01*
X147295617Y-24104600D01*
X147344383Y-24104600D01*
X147820671Y-24009860D01*
X148224448Y-23740065D01*
X148494243Y-23336288D01*
X148588983Y-22860000D01*
X148494243Y-22383712D01*
X148224448Y-21979935D01*
X147820671Y-21710140D01*
X147344383Y-21615400D01*
X147295617Y-21615400D01*
X146819329Y-21710140D01*
X146415552Y-21979935D01*
X146145757Y-22383712D01*
X146051017Y-22860000D01*
X146032064Y-22860000D01*
X146032064Y-21996400D01*
X146005497Y-21855210D01*
X145922054Y-21725535D01*
X145794734Y-21638541D01*
X145643600Y-21607936D01*
X143916400Y-21607936D01*
X143775210Y-21634503D01*
X143645535Y-21717946D01*
X143558541Y-21845266D01*
X143527936Y-21996400D01*
X128116741Y-21996400D01*
X127855134Y-21707611D01*
X127349041Y-21468086D01*
X127127000Y-21589371D01*
X126873000Y-21589371D01*
X126650959Y-21468086D01*
X126144866Y-21707611D01*
X125768959Y-22122577D01*
X125608096Y-22510961D01*
X120568464Y-22510961D01*
X120568464Y-22060000D01*
X120541897Y-21918810D01*
X120458454Y-21789135D01*
X120331134Y-21702141D01*
X120180000Y-21671536D01*
X118580000Y-21671536D01*
X118438810Y-21698103D01*
X118309135Y-21781546D01*
X118222141Y-21908866D01*
X118191536Y-22060000D01*
X93898421Y-22060000D01*
X93704210Y-21865790D01*
X93539403Y-21755669D01*
X93345000Y-21717000D01*
X79375000Y-21717000D01*
X79180597Y-21755669D01*
X79015790Y-21865789D01*
X78380790Y-22500790D01*
X78270669Y-22665597D01*
X78232000Y-22860000D01*
X78232000Y-24663934D01*
X78094777Y-24526471D01*
X77715978Y-24369180D01*
X77305821Y-24368822D01*
X76926749Y-24525451D01*
X76636471Y-24815223D01*
X76479180Y-25194022D01*
X76478822Y-25604179D01*
X76635451Y-25983251D01*
X76925223Y-26273529D01*
X77304022Y-26430820D01*
X77714179Y-26431178D01*
X78093251Y-26274549D01*
X78232000Y-26136042D01*
X78232000Y-26459579D01*
X77894580Y-26797000D01*
X74749679Y-26797000D01*
X75289823Y-26573817D01*
X76100969Y-25764086D01*
X76540499Y-24705580D01*
X76541499Y-23559448D01*
X76103817Y-22500177D01*
X75294086Y-21689031D01*
X74235580Y-21249501D01*
X73089448Y-21248501D01*
X72030177Y-21686183D01*
X71219031Y-22495914D01*
X70779501Y-23554420D01*
X70778501Y-24700552D01*
X70612000Y-24700552D01*
X70612000Y-21082000D01*
X168148000Y-21082000D01*
X168148000Y-34163000D01*
G36*
X168148000Y-69088000D02*
X137287000Y-69088000D01*
X137287000Y-66610552D01*
X162218501Y-66610552D01*
X162656183Y-67669823D01*
X163465914Y-68480969D01*
X164524420Y-68920499D01*
X165670552Y-68921499D01*
X166729823Y-68483817D01*
X167540969Y-67674086D01*
X167980499Y-66615580D01*
X167981499Y-65469448D01*
X167543817Y-64410177D01*
X166734086Y-63599031D01*
X165675580Y-63159501D01*
X164529448Y-63158501D01*
X163470177Y-63596183D01*
X162659031Y-64405914D01*
X162219501Y-65464420D01*
X162218501Y-66610552D01*
X137287000Y-66610552D01*
X137287000Y-64770000D01*
X141491281Y-64770000D01*
X141596365Y-65298291D01*
X141895617Y-65746154D01*
X142343480Y-66045406D01*
X142871771Y-66150490D01*
X144148229Y-66150490D01*
X144676520Y-66045406D01*
X145124383Y-65746154D01*
X145423635Y-65298291D01*
X145528719Y-64770000D01*
X145423635Y-64241709D01*
X145124383Y-63793846D01*
X144676520Y-63494594D01*
X144148229Y-63389510D01*
X142871771Y-63389510D01*
X142343480Y-63494594D01*
X141895617Y-63793846D01*
X141596365Y-64241709D01*
X141491281Y-64770000D01*
X137287000Y-64770000D01*
X137287000Y-62486826D01*
X137389444Y-62617042D01*
X137947241Y-62930153D01*
X138075046Y-62961099D01*
X138328400Y-62841745D01*
X138328400Y-60899040D01*
X138582400Y-60899040D01*
X138582400Y-62841745D01*
X138835754Y-62961099D01*
X138963559Y-62930153D01*
X139521356Y-62617042D01*
X139916871Y-62114305D01*
X140089890Y-61498480D01*
X140089890Y-60899040D01*
X146930110Y-60899040D01*
X146930110Y-61498480D01*
X147103129Y-62114305D01*
X147498644Y-62617042D01*
X148056441Y-62930153D01*
X148184246Y-62961099D01*
X148437600Y-62841745D01*
X148437600Y-60899040D01*
X148691600Y-60899040D01*
X148691600Y-62841745D01*
X148944954Y-62961099D01*
X149072759Y-62930153D01*
X149630556Y-62617042D01*
X149860000Y-62325397D01*
X150089444Y-62617042D01*
X150647241Y-62930153D01*
X150775046Y-62961099D01*
X151028400Y-62841745D01*
X151028400Y-60899040D01*
X151282400Y-60899040D01*
X151282400Y-62841745D01*
X151535754Y-62961099D01*
X151663559Y-62930153D01*
X152221356Y-62617042D01*
X152616871Y-62114305D01*
X152789890Y-61498480D01*
X152789890Y-60899040D01*
X151282400Y-60899040D01*
X151028400Y-60899040D01*
X148691600Y-60899040D01*
X148437600Y-60899040D01*
X146930110Y-60899040D01*
X140089890Y-60899040D01*
X138582400Y-60899040D01*
X138328400Y-60899040D01*
X138308400Y-60899040D01*
X138308400Y-60645040D01*
X138328400Y-60645040D01*
X138328400Y-58702335D01*
X138582400Y-58702335D01*
X138582400Y-60645040D01*
X140089890Y-60645040D01*
X140089890Y-60045600D01*
X146930110Y-60045600D01*
X146930110Y-60645040D01*
X148437600Y-60645040D01*
X148437600Y-58702335D01*
X148691600Y-58702335D01*
X148691600Y-60645040D01*
X151028400Y-60645040D01*
X151028400Y-58702335D01*
X151282400Y-58702335D01*
X151282400Y-60645040D01*
X152789890Y-60645040D01*
X152789890Y-60045600D01*
X152616871Y-59429775D01*
X152221356Y-58927038D01*
X151663559Y-58613927D01*
X151535754Y-58582981D01*
X151282400Y-58702335D01*
X151028400Y-58702335D01*
X150775046Y-58582981D01*
X150647241Y-58613927D01*
X150089444Y-58927038D01*
X149860000Y-59218683D01*
X149630556Y-58927038D01*
X149072759Y-58613927D01*
X148944954Y-58582981D01*
X148691600Y-58702335D01*
X148437600Y-58702335D01*
X148184246Y-58582981D01*
X148056441Y-58613927D01*
X147498644Y-58927038D01*
X147103129Y-59429775D01*
X146930110Y-60045600D01*
X140089890Y-60045600D01*
X139916871Y-59429775D01*
X139521356Y-58927038D01*
X138963559Y-58613927D01*
X138835754Y-58582981D01*
X138582400Y-58702335D01*
X138328400Y-58702335D01*
X138075046Y-58582981D01*
X137947241Y-58613927D01*
X137389444Y-58927038D01*
X137287000Y-59057254D01*
X137287000Y-53699026D01*
X143325042Y-53699026D01*
X143497312Y-54114947D01*
X143891510Y-54546821D01*
X144420973Y-54794968D01*
X144653000Y-54674469D01*
X144653000Y-53467000D01*
X143446183Y-53467000D01*
X143325042Y-53699026D01*
X137287000Y-53699026D01*
X137287000Y-52197000D01*
X143510000Y-52197000D01*
X143559410Y-52186994D01*
X143601035Y-52158553D01*
X143628315Y-52116159D01*
X143637000Y-52070000D01*
X143637000Y-51727986D01*
X143891510Y-52006821D01*
X144026313Y-52070000D01*
X143891510Y-52133179D01*
X143497312Y-52565053D01*
X143325042Y-52980974D01*
X143446183Y-53213000D01*
X144653000Y-53213000D01*
X144653000Y-50927000D01*
X144633000Y-50927000D01*
X144633000Y-50673000D01*
X144653000Y-50673000D01*
X144653000Y-48387000D01*
X144633000Y-48387000D01*
X144633000Y-48133000D01*
X144653000Y-48133000D01*
X144653000Y-45847000D01*
X144633000Y-45847000D01*
X144633000Y-45593000D01*
X144653000Y-45593000D01*
X144653000Y-43307000D01*
X144633000Y-43307000D01*
X144633000Y-43053000D01*
X144653000Y-43053000D01*
X144653000Y-40767000D01*
X144633000Y-40767000D01*
X144633000Y-40513000D01*
X144653000Y-40513000D01*
X144653000Y-40493000D01*
X144907000Y-40493000D01*
X144907000Y-40513000D01*
X144927000Y-40513000D01*
X144927000Y-40767000D01*
X144907000Y-40767000D01*
X144907000Y-43053000D01*
X144927000Y-43053000D01*
X144927000Y-43307000D01*
X144907000Y-43307000D01*
X144907000Y-45593000D01*
X144927000Y-45593000D01*
X144927000Y-45847000D01*
X144907000Y-45847000D01*
X144907000Y-48133000D01*
X144927000Y-48133000D01*
X144927000Y-48387000D01*
X144907000Y-48387000D01*
X144907000Y-50673000D01*
X144927000Y-50673000D01*
X144927000Y-50927000D01*
X144907000Y-50927000D01*
X144907000Y-53213000D01*
X144927000Y-53213000D01*
X144927000Y-53467000D01*
X144907000Y-53467000D01*
X144907000Y-54674469D01*
X145139027Y-54794968D01*
X145668490Y-54546821D01*
X146062688Y-54114947D01*
X146170841Y-53853828D01*
X146415552Y-54220065D01*
X146819329Y-54489860D01*
X147295617Y-54584600D01*
X147344383Y-54584600D01*
X147820671Y-54489860D01*
X148224448Y-54220065D01*
X148494243Y-53816288D01*
X148588983Y-53340000D01*
X148494243Y-52863712D01*
X148224448Y-52459935D01*
X147820671Y-52190140D01*
X147344383Y-52095400D01*
X147295617Y-52095400D01*
X146819329Y-52190140D01*
X146415552Y-52459935D01*
X146170841Y-52826172D01*
X146062688Y-52565053D01*
X145668490Y-52133179D01*
X145533687Y-52070000D01*
X145668490Y-52006821D01*
X146062688Y-51574947D01*
X146170841Y-51313828D01*
X146415552Y-51680065D01*
X146819329Y-51949860D01*
X147295617Y-52044600D01*
X147344383Y-52044600D01*
X147820671Y-51949860D01*
X148224448Y-51680065D01*
X148494243Y-51276288D01*
X148588983Y-50800000D01*
X148494243Y-50323712D01*
X148224448Y-49919935D01*
X147820671Y-49650140D01*
X147344383Y-49555400D01*
X147295617Y-49555400D01*
X146819329Y-49650140D01*
X146415552Y-49919935D01*
X146170841Y-50286172D01*
X146062688Y-50025053D01*
X145668490Y-49593179D01*
X145533687Y-49530000D01*
X145668490Y-49466821D01*
X146062688Y-49034947D01*
X146170841Y-48773828D01*
X146415552Y-49140065D01*
X146819329Y-49409860D01*
X147295617Y-49504600D01*
X147344383Y-49504600D01*
X147820671Y-49409860D01*
X148224448Y-49140065D01*
X148494243Y-48736288D01*
X148588983Y-48260000D01*
X148494243Y-47783712D01*
X148224448Y-47379935D01*
X147820671Y-47110140D01*
X147344383Y-47015400D01*
X147295617Y-47015400D01*
X146819329Y-47110140D01*
X146415552Y-47379935D01*
X146170841Y-47746172D01*
X146062688Y-47485053D01*
X145668490Y-47053179D01*
X145533687Y-46990000D01*
X145668490Y-46926821D01*
X146062688Y-46494947D01*
X146170841Y-46233828D01*
X146415552Y-46600065D01*
X146819329Y-46869860D01*
X147295617Y-46964600D01*
X147344383Y-46964600D01*
X147762926Y-46881346D01*
X155702000Y-54820421D01*
X155702000Y-63389510D01*
X155571771Y-63389510D01*
X155043480Y-63494594D01*
X154595617Y-63793846D01*
X154296365Y-64241709D01*
X154191281Y-64770000D01*
X154296365Y-65298291D01*
X154595617Y-65746154D01*
X155043480Y-66045406D01*
X155571771Y-66150490D01*
X156848229Y-66150490D01*
X157376520Y-66045406D01*
X157824383Y-65746154D01*
X158123635Y-65298291D01*
X158228719Y-64770000D01*
X158123635Y-64241709D01*
X157824383Y-63793846D01*
X157376520Y-63494594D01*
X156848229Y-63389510D01*
X156718000Y-63389510D01*
X156718000Y-60899040D01*
X159630110Y-60899040D01*
X159630110Y-61498480D01*
X159803129Y-62114305D01*
X160198644Y-62617042D01*
X160756441Y-62930153D01*
X160884246Y-62961099D01*
X161137600Y-62841745D01*
X161137600Y-60899040D01*
X161391600Y-60899040D01*
X161391600Y-62841745D01*
X161644954Y-62961099D01*
X161772759Y-62930153D01*
X162330556Y-62617042D01*
X162726071Y-62114305D01*
X162899090Y-61498480D01*
X162899090Y-60899040D01*
X161391600Y-60899040D01*
X161137600Y-60899040D01*
X159630110Y-60899040D01*
X156718000Y-60899040D01*
X156718000Y-60045600D01*
X159630110Y-60045600D01*
X159630110Y-60645040D01*
X161137600Y-60645040D01*
X161137600Y-58702335D01*
X161391600Y-58702335D01*
X161391600Y-60645040D01*
X162899090Y-60645040D01*
X162899090Y-60045600D01*
X162726071Y-59429775D01*
X162330556Y-58927038D01*
X161772759Y-58613927D01*
X161644954Y-58582981D01*
X161391600Y-58702335D01*
X161137600Y-58702335D01*
X160884246Y-58582981D01*
X160756441Y-58613927D01*
X160198644Y-58927038D01*
X159803129Y-59429775D01*
X159630110Y-60045600D01*
X156718000Y-60045600D01*
X156718000Y-56165750D01*
X163827460Y-56165750D01*
X163827460Y-56704809D01*
X163924133Y-56938198D01*
X164102761Y-57116827D01*
X164336150Y-57213500D01*
X164875210Y-57213500D01*
X165033960Y-57054750D01*
X165033960Y-56007000D01*
X165287960Y-56007000D01*
X165287960Y-57054750D01*
X165446710Y-57213500D01*
X165985770Y-57213500D01*
X166219159Y-57116827D01*
X166397787Y-56938198D01*
X166494460Y-56704809D01*
X166494460Y-56165750D01*
X166335710Y-56007000D01*
X165287960Y-56007000D01*
X165033960Y-56007000D01*
X163986210Y-56007000D01*
X163827460Y-56165750D01*
X156718000Y-56165750D01*
X156718000Y-55055191D01*
X163827460Y-55055191D01*
X163827460Y-55594250D01*
X163986210Y-55753000D01*
X165033960Y-55753000D01*
X165033960Y-54705250D01*
X165287960Y-54705250D01*
X165287960Y-55753000D01*
X166335710Y-55753000D01*
X166494460Y-55594250D01*
X166494460Y-55055191D01*
X166397787Y-54821802D01*
X166219159Y-54643173D01*
X165985770Y-54546500D01*
X165446710Y-54546500D01*
X165287960Y-54705250D01*
X165033960Y-54705250D01*
X164875210Y-54546500D01*
X164336150Y-54546500D01*
X164102761Y-54643173D01*
X163924133Y-54821802D01*
X163827460Y-55055191D01*
X156718000Y-55055191D01*
X156718000Y-54610000D01*
X156679331Y-54415597D01*
X156569211Y-54250790D01*
X155872205Y-53553784D01*
X163959353Y-53553784D01*
X164123351Y-53950689D01*
X164426754Y-54254622D01*
X164823372Y-54419313D01*
X165252824Y-54419687D01*
X165649729Y-54255689D01*
X165953662Y-53952286D01*
X166118353Y-53555668D01*
X166118727Y-53126216D01*
X165954729Y-52729311D01*
X165651326Y-52425378D01*
X165254708Y-52260687D01*
X164825256Y-52260313D01*
X164428351Y-52424311D01*
X164124418Y-52727714D01*
X163959727Y-53124332D01*
X163959353Y-53553784D01*
X155872205Y-53553784D01*
X148546420Y-46228000D01*
X159870540Y-46228000D01*
X164124257Y-50481717D01*
X164081647Y-50584332D01*
X164081273Y-51013784D01*
X164245271Y-51410689D01*
X164548674Y-51714622D01*
X164945292Y-51879313D01*
X165374744Y-51879687D01*
X165771649Y-51715689D01*
X166075582Y-51412286D01*
X166240273Y-51015668D01*
X166240647Y-50586216D01*
X166076649Y-50189311D01*
X165773246Y-49885378D01*
X165376628Y-49720687D01*
X164947176Y-49720313D01*
X164842814Y-49763434D01*
X163553164Y-48473784D01*
X163959353Y-48473784D01*
X164123351Y-48870689D01*
X164426754Y-49174622D01*
X164823372Y-49339313D01*
X165252824Y-49339687D01*
X165649729Y-49175689D01*
X165953662Y-48872286D01*
X166118353Y-48475668D01*
X166118727Y-48046216D01*
X165954729Y-47649311D01*
X165651326Y-47345378D01*
X165254708Y-47180687D01*
X164825256Y-47180313D01*
X164428351Y-47344311D01*
X164124418Y-47647714D01*
X163959727Y-48044332D01*
X163959353Y-48473784D01*
X163553164Y-48473784D01*
X161013164Y-45933784D01*
X164081273Y-45933784D01*
X164245271Y-46330689D01*
X164548674Y-46634622D01*
X164945292Y-46799313D01*
X165374744Y-46799687D01*
X165771649Y-46635689D01*
X166075582Y-46332286D01*
X166240273Y-45935668D01*
X166240647Y-45506216D01*
X166076649Y-45109311D01*
X165773246Y-44805378D01*
X165376628Y-44640687D01*
X164947176Y-44640313D01*
X164550271Y-44804311D01*
X164246338Y-45107714D01*
X164081647Y-45504332D01*
X164081273Y-45933784D01*
X161013164Y-45933784D01*
X160440170Y-45360790D01*
X160275363Y-45250669D01*
X160080960Y-45212000D01*
X148473054Y-45212000D01*
X148224448Y-44839935D01*
X147820671Y-44570140D01*
X147344383Y-44475400D01*
X147295617Y-44475400D01*
X146819329Y-44570140D01*
X146415552Y-44839935D01*
X146170841Y-45206172D01*
X146062688Y-44945053D01*
X145668490Y-44513179D01*
X145533687Y-44450000D01*
X145668490Y-44386821D01*
X146062688Y-43954947D01*
X146170841Y-43693828D01*
X146415552Y-44060065D01*
X146819329Y-44329860D01*
X147295617Y-44424600D01*
X147344383Y-44424600D01*
X147820671Y-44329860D01*
X148224448Y-44060065D01*
X148494243Y-43656288D01*
X148546458Y-43393784D01*
X163959353Y-43393784D01*
X164123351Y-43790689D01*
X164426754Y-44094622D01*
X164823372Y-44259313D01*
X165252824Y-44259687D01*
X165649729Y-44095689D01*
X165953662Y-43792286D01*
X166118353Y-43395668D01*
X166118727Y-42966216D01*
X165954729Y-42569311D01*
X165651326Y-42265378D01*
X165254708Y-42100687D01*
X164825256Y-42100313D01*
X164428351Y-42264311D01*
X164124418Y-42567714D01*
X163959727Y-42964332D01*
X163959353Y-43393784D01*
X148546458Y-43393784D01*
X148588983Y-43180000D01*
X148494243Y-42703712D01*
X148224448Y-42299935D01*
X147820671Y-42030140D01*
X147344383Y-41935400D01*
X147295617Y-41935400D01*
X146819329Y-42030140D01*
X146415552Y-42299935D01*
X146170841Y-42666172D01*
X146062688Y-42405053D01*
X145668490Y-41973179D01*
X145533687Y-41910000D01*
X145668490Y-41846821D01*
X146062688Y-41414947D01*
X146170841Y-41153828D01*
X146415552Y-41520065D01*
X146819329Y-41789860D01*
X147295617Y-41884600D01*
X147344383Y-41884600D01*
X147820671Y-41789860D01*
X148224448Y-41520065D01*
X148494243Y-41116288D01*
X148546458Y-40853784D01*
X164081273Y-40853784D01*
X164245271Y-41250689D01*
X164548674Y-41554622D01*
X164945292Y-41719313D01*
X165374744Y-41719687D01*
X165771649Y-41555689D01*
X166075582Y-41252286D01*
X166240273Y-40855668D01*
X166240647Y-40426216D01*
X166076649Y-40029311D01*
X165773246Y-39725378D01*
X165376628Y-39560687D01*
X164947176Y-39560313D01*
X164550271Y-39724311D01*
X164246338Y-40027714D01*
X164081647Y-40424332D01*
X164081273Y-40853784D01*
X148546458Y-40853784D01*
X148588983Y-40640000D01*
X148494243Y-40163712D01*
X148224448Y-39759935D01*
X147830938Y-39497000D01*
X168148000Y-39497000D01*
X168148000Y-69088000D01*
X168148000Y-69088000D01*
G37*
X168148000Y-69088000D02*
X137287000Y-69088000D01*
X137287000Y-66610552D01*
X162218501Y-66610552D01*
X162656183Y-67669823D01*
X163465914Y-68480969D01*
X164524420Y-68920499D01*
X165670552Y-68921499D01*
X166729823Y-68483817D01*
X167540969Y-67674086D01*
X167980499Y-66615580D01*
X167981499Y-65469448D01*
X167543817Y-64410177D01*
X166734086Y-63599031D01*
X165675580Y-63159501D01*
X164529448Y-63158501D01*
X163470177Y-63596183D01*
X162659031Y-64405914D01*
X162219501Y-65464420D01*
X162218501Y-66610552D01*
X137287000Y-66610552D01*
X137287000Y-64770000D01*
X141491281Y-64770000D01*
X141596365Y-65298291D01*
X141895617Y-65746154D01*
X142343480Y-66045406D01*
X142871771Y-66150490D01*
X144148229Y-66150490D01*
X144676520Y-66045406D01*
X145124383Y-65746154D01*
X145423635Y-65298291D01*
X145528719Y-64770000D01*
X145423635Y-64241709D01*
X145124383Y-63793846D01*
X144676520Y-63494594D01*
X144148229Y-63389510D01*
X142871771Y-63389510D01*
X142343480Y-63494594D01*
X141895617Y-63793846D01*
X141596365Y-64241709D01*
X141491281Y-64770000D01*
X137287000Y-64770000D01*
X137287000Y-62486826D01*
X137389444Y-62617042D01*
X137947241Y-62930153D01*
X138075046Y-62961099D01*
X138328400Y-62841745D01*
X138328400Y-60899040D01*
X138582400Y-60899040D01*
X138582400Y-62841745D01*
X138835754Y-62961099D01*
X138963559Y-62930153D01*
X139521356Y-62617042D01*
X139916871Y-62114305D01*
X140089890Y-61498480D01*
X140089890Y-60899040D01*
X146930110Y-60899040D01*
X146930110Y-61498480D01*
X147103129Y-62114305D01*
X147498644Y-62617042D01*
X148056441Y-62930153D01*
X148184246Y-62961099D01*
X148437600Y-62841745D01*
X148437600Y-60899040D01*
X148691600Y-60899040D01*
X148691600Y-62841745D01*
X148944954Y-62961099D01*
X149072759Y-62930153D01*
X149630556Y-62617042D01*
X149860000Y-62325397D01*
X150089444Y-62617042D01*
X150647241Y-62930153D01*
X150775046Y-62961099D01*
X151028400Y-62841745D01*
X151028400Y-60899040D01*
X151282400Y-60899040D01*
X151282400Y-62841745D01*
X151535754Y-62961099D01*
X151663559Y-62930153D01*
X152221356Y-62617042D01*
X152616871Y-62114305D01*
X152789890Y-61498480D01*
X152789890Y-60899040D01*
X151282400Y-60899040D01*
X151028400Y-60899040D01*
X148691600Y-60899040D01*
X148437600Y-60899040D01*
X146930110Y-60899040D01*
X140089890Y-60899040D01*
X138582400Y-60899040D01*
X138328400Y-60899040D01*
X138308400Y-60899040D01*
X138308400Y-60645040D01*
X138328400Y-60645040D01*
X138328400Y-58702335D01*
X138582400Y-58702335D01*
X138582400Y-60645040D01*
X140089890Y-60645040D01*
X140089890Y-60045600D01*
X146930110Y-60045600D01*
X146930110Y-60645040D01*
X148437600Y-60645040D01*
X148437600Y-58702335D01*
X148691600Y-58702335D01*
X148691600Y-60645040D01*
X151028400Y-60645040D01*
X151028400Y-58702335D01*
X151282400Y-58702335D01*
X151282400Y-60645040D01*
X152789890Y-60645040D01*
X152789890Y-60045600D01*
X152616871Y-59429775D01*
X152221356Y-58927038D01*
X151663559Y-58613927D01*
X151535754Y-58582981D01*
X151282400Y-58702335D01*
X151028400Y-58702335D01*
X150775046Y-58582981D01*
X150647241Y-58613927D01*
X150089444Y-58927038D01*
X149860000Y-59218683D01*
X149630556Y-58927038D01*
X149072759Y-58613927D01*
X148944954Y-58582981D01*
X148691600Y-58702335D01*
X148437600Y-58702335D01*
X148184246Y-58582981D01*
X148056441Y-58613927D01*
X147498644Y-58927038D01*
X147103129Y-59429775D01*
X146930110Y-60045600D01*
X140089890Y-60045600D01*
X139916871Y-59429775D01*
X139521356Y-58927038D01*
X138963559Y-58613927D01*
X138835754Y-58582981D01*
X138582400Y-58702335D01*
X138328400Y-58702335D01*
X138075046Y-58582981D01*
X137947241Y-58613927D01*
X137389444Y-58927038D01*
X137287000Y-59057254D01*
X137287000Y-53699026D01*
X143325042Y-53699026D01*
X143497312Y-54114947D01*
X143891510Y-54546821D01*
X144420973Y-54794968D01*
X144653000Y-54674469D01*
X144653000Y-53467000D01*
X143446183Y-53467000D01*
X143325042Y-53699026D01*
X137287000Y-53699026D01*
X137287000Y-52197000D01*
X143510000Y-52197000D01*
X143559410Y-52186994D01*
X143601035Y-52158553D01*
X143628315Y-52116159D01*
X143637000Y-52070000D01*
X143637000Y-51727986D01*
X143891510Y-52006821D01*
X144026313Y-52070000D01*
X143891510Y-52133179D01*
X143497312Y-52565053D01*
X143325042Y-52980974D01*
X143446183Y-53213000D01*
X144653000Y-53213000D01*
X144653000Y-50927000D01*
X144633000Y-50927000D01*
X144633000Y-50673000D01*
X144653000Y-50673000D01*
X144653000Y-48387000D01*
X144633000Y-48387000D01*
X144633000Y-48133000D01*
X144653000Y-48133000D01*
X144653000Y-45847000D01*
X144633000Y-45847000D01*
X144633000Y-45593000D01*
X144653000Y-45593000D01*
X144653000Y-43307000D01*
X144633000Y-43307000D01*
X144633000Y-43053000D01*
X144653000Y-43053000D01*
X144653000Y-40767000D01*
X144633000Y-40767000D01*
X144633000Y-40513000D01*
X144653000Y-40513000D01*
X144653000Y-40493000D01*
X144907000Y-40493000D01*
X144907000Y-40513000D01*
X144927000Y-40513000D01*
X144927000Y-40767000D01*
X144907000Y-40767000D01*
X144907000Y-43053000D01*
X144927000Y-43053000D01*
X144927000Y-43307000D01*
X144907000Y-43307000D01*
X144907000Y-45593000D01*
X144927000Y-45593000D01*
X144927000Y-45847000D01*
X144907000Y-45847000D01*
X144907000Y-48133000D01*
X144927000Y-48133000D01*
X144927000Y-48387000D01*
X144907000Y-48387000D01*
X144907000Y-50673000D01*
X144927000Y-50673000D01*
X144927000Y-50927000D01*
X144907000Y-50927000D01*
X144907000Y-53213000D01*
X144927000Y-53213000D01*
X144927000Y-53467000D01*
X144907000Y-53467000D01*
X144907000Y-54674469D01*
X145139027Y-54794968D01*
X145668490Y-54546821D01*
X146062688Y-54114947D01*
X146170841Y-53853828D01*
X146415552Y-54220065D01*
X146819329Y-54489860D01*
X147295617Y-54584600D01*
X147344383Y-54584600D01*
X147820671Y-54489860D01*
X148224448Y-54220065D01*
X148494243Y-53816288D01*
X148588983Y-53340000D01*
X148494243Y-52863712D01*
X148224448Y-52459935D01*
X147820671Y-52190140D01*
X147344383Y-52095400D01*
X147295617Y-52095400D01*
X146819329Y-52190140D01*
X146415552Y-52459935D01*
X146170841Y-52826172D01*
X146062688Y-52565053D01*
X145668490Y-52133179D01*
X145533687Y-52070000D01*
X145668490Y-52006821D01*
X146062688Y-51574947D01*
X146170841Y-51313828D01*
X146415552Y-51680065D01*
X146819329Y-51949860D01*
X147295617Y-52044600D01*
X147344383Y-52044600D01*
X147820671Y-51949860D01*
X148224448Y-51680065D01*
X148494243Y-51276288D01*
X148588983Y-50800000D01*
X148494243Y-50323712D01*
X148224448Y-49919935D01*
X147820671Y-49650140D01*
X147344383Y-49555400D01*
X147295617Y-49555400D01*
X146819329Y-49650140D01*
X146415552Y-49919935D01*
X146170841Y-50286172D01*
X146062688Y-50025053D01*
X145668490Y-49593179D01*
X145533687Y-49530000D01*
X145668490Y-49466821D01*
X146062688Y-49034947D01*
X146170841Y-48773828D01*
X146415552Y-49140065D01*
X146819329Y-49409860D01*
X147295617Y-49504600D01*
X147344383Y-49504600D01*
X147820671Y-49409860D01*
X148224448Y-49140065D01*
X148494243Y-48736288D01*
X148588983Y-48260000D01*
X148494243Y-47783712D01*
X148224448Y-47379935D01*
X147820671Y-47110140D01*
X147344383Y-47015400D01*
X147295617Y-47015400D01*
X146819329Y-47110140D01*
X146415552Y-47379935D01*
X146170841Y-47746172D01*
X146062688Y-47485053D01*
X145668490Y-47053179D01*
X145533687Y-46990000D01*
X145668490Y-46926821D01*
X146062688Y-46494947D01*
X146170841Y-46233828D01*
X146415552Y-46600065D01*
X146819329Y-46869860D01*
X147295617Y-46964600D01*
X147344383Y-46964600D01*
X147762926Y-46881346D01*
X155702000Y-54820421D01*
X155702000Y-63389510D01*
X155571771Y-63389510D01*
X155043480Y-63494594D01*
X154595617Y-63793846D01*
X154296365Y-64241709D01*
X154191281Y-64770000D01*
X154296365Y-65298291D01*
X154595617Y-65746154D01*
X155043480Y-66045406D01*
X155571771Y-66150490D01*
X156848229Y-66150490D01*
X157376520Y-66045406D01*
X157824383Y-65746154D01*
X158123635Y-65298291D01*
X158228719Y-64770000D01*
X158123635Y-64241709D01*
X157824383Y-63793846D01*
X157376520Y-63494594D01*
X156848229Y-63389510D01*
X156718000Y-63389510D01*
X156718000Y-60899040D01*
X159630110Y-60899040D01*
X159630110Y-61498480D01*
X159803129Y-62114305D01*
X160198644Y-62617042D01*
X160756441Y-62930153D01*
X160884246Y-62961099D01*
X161137600Y-62841745D01*
X161137600Y-60899040D01*
X161391600Y-60899040D01*
X161391600Y-62841745D01*
X161644954Y-62961099D01*
X161772759Y-62930153D01*
X162330556Y-62617042D01*
X162726071Y-62114305D01*
X162899090Y-61498480D01*
X162899090Y-60899040D01*
X161391600Y-60899040D01*
X161137600Y-60899040D01*
X159630110Y-60899040D01*
X156718000Y-60899040D01*
X156718000Y-60045600D01*
X159630110Y-60045600D01*
X159630110Y-60645040D01*
X161137600Y-60645040D01*
X161137600Y-58702335D01*
X161391600Y-58702335D01*
X161391600Y-60645040D01*
X162899090Y-60645040D01*
X162899090Y-60045600D01*
X162726071Y-59429775D01*
X162330556Y-58927038D01*
X161772759Y-58613927D01*
X161644954Y-58582981D01*
X161391600Y-58702335D01*
X161137600Y-58702335D01*
X160884246Y-58582981D01*
X160756441Y-58613927D01*
X160198644Y-58927038D01*
X159803129Y-59429775D01*
X159630110Y-60045600D01*
X156718000Y-60045600D01*
X156718000Y-56165750D01*
X163827460Y-56165750D01*
X163827460Y-56704809D01*
X163924133Y-56938198D01*
X164102761Y-57116827D01*
X164336150Y-57213500D01*
X164875210Y-57213500D01*
X165033960Y-57054750D01*
X165033960Y-56007000D01*
X165287960Y-56007000D01*
X165287960Y-57054750D01*
X165446710Y-57213500D01*
X165985770Y-57213500D01*
X166219159Y-57116827D01*
X166397787Y-56938198D01*
X166494460Y-56704809D01*
X166494460Y-56165750D01*
X166335710Y-56007000D01*
X165287960Y-56007000D01*
X165033960Y-56007000D01*
X163986210Y-56007000D01*
X163827460Y-56165750D01*
X156718000Y-56165750D01*
X156718000Y-55055191D01*
X163827460Y-55055191D01*
X163827460Y-55594250D01*
X163986210Y-55753000D01*
X165033960Y-55753000D01*
X165033960Y-54705250D01*
X165287960Y-54705250D01*
X165287960Y-55753000D01*
X166335710Y-55753000D01*
X166494460Y-55594250D01*
X166494460Y-55055191D01*
X166397787Y-54821802D01*
X166219159Y-54643173D01*
X165985770Y-54546500D01*
X165446710Y-54546500D01*
X165287960Y-54705250D01*
X165033960Y-54705250D01*
X164875210Y-54546500D01*
X164336150Y-54546500D01*
X164102761Y-54643173D01*
X163924133Y-54821802D01*
X163827460Y-55055191D01*
X156718000Y-55055191D01*
X156718000Y-54610000D01*
X156679331Y-54415597D01*
X156569211Y-54250790D01*
X155872205Y-53553784D01*
X163959353Y-53553784D01*
X164123351Y-53950689D01*
X164426754Y-54254622D01*
X164823372Y-54419313D01*
X165252824Y-54419687D01*
X165649729Y-54255689D01*
X165953662Y-53952286D01*
X166118353Y-53555668D01*
X166118727Y-53126216D01*
X165954729Y-52729311D01*
X165651326Y-52425378D01*
X165254708Y-52260687D01*
X164825256Y-52260313D01*
X164428351Y-52424311D01*
X164124418Y-52727714D01*
X163959727Y-53124332D01*
X163959353Y-53553784D01*
X155872205Y-53553784D01*
X148546420Y-46228000D01*
X159870540Y-46228000D01*
X164124257Y-50481717D01*
X164081647Y-50584332D01*
X164081273Y-51013784D01*
X164245271Y-51410689D01*
X164548674Y-51714622D01*
X164945292Y-51879313D01*
X165374744Y-51879687D01*
X165771649Y-51715689D01*
X166075582Y-51412286D01*
X166240273Y-51015668D01*
X166240647Y-50586216D01*
X166076649Y-50189311D01*
X165773246Y-49885378D01*
X165376628Y-49720687D01*
X164947176Y-49720313D01*
X164842814Y-49763434D01*
X163553164Y-48473784D01*
X163959353Y-48473784D01*
X164123351Y-48870689D01*
X164426754Y-49174622D01*
X164823372Y-49339313D01*
X165252824Y-49339687D01*
X165649729Y-49175689D01*
X165953662Y-48872286D01*
X166118353Y-48475668D01*
X166118727Y-48046216D01*
X165954729Y-47649311D01*
X165651326Y-47345378D01*
X165254708Y-47180687D01*
X164825256Y-47180313D01*
X164428351Y-47344311D01*
X164124418Y-47647714D01*
X163959727Y-48044332D01*
X163959353Y-48473784D01*
X163553164Y-48473784D01*
X161013164Y-45933784D01*
X164081273Y-45933784D01*
X164245271Y-46330689D01*
X164548674Y-46634622D01*
X164945292Y-46799313D01*
X165374744Y-46799687D01*
X165771649Y-46635689D01*
X166075582Y-46332286D01*
X166240273Y-45935668D01*
X166240647Y-45506216D01*
X166076649Y-45109311D01*
X165773246Y-44805378D01*
X165376628Y-44640687D01*
X164947176Y-44640313D01*
X164550271Y-44804311D01*
X164246338Y-45107714D01*
X164081647Y-45504332D01*
X164081273Y-45933784D01*
X161013164Y-45933784D01*
X160440170Y-45360790D01*
X160275363Y-45250669D01*
X160080960Y-45212000D01*
X148473054Y-45212000D01*
X148224448Y-44839935D01*
X147820671Y-44570140D01*
X147344383Y-44475400D01*
X147295617Y-44475400D01*
X146819329Y-44570140D01*
X146415552Y-44839935D01*
X146170841Y-45206172D01*
X146062688Y-44945053D01*
X145668490Y-44513179D01*
X145533687Y-44450000D01*
X145668490Y-44386821D01*
X146062688Y-43954947D01*
X146170841Y-43693828D01*
X146415552Y-44060065D01*
X146819329Y-44329860D01*
X147295617Y-44424600D01*
X147344383Y-44424600D01*
X147820671Y-44329860D01*
X148224448Y-44060065D01*
X148494243Y-43656288D01*
X148546458Y-43393784D01*
X163959353Y-43393784D01*
X164123351Y-43790689D01*
X164426754Y-44094622D01*
X164823372Y-44259313D01*
X165252824Y-44259687D01*
X165649729Y-44095689D01*
X165953662Y-43792286D01*
X166118353Y-43395668D01*
X166118727Y-42966216D01*
X165954729Y-42569311D01*
X165651326Y-42265378D01*
X165254708Y-42100687D01*
X164825256Y-42100313D01*
X164428351Y-42264311D01*
X164124418Y-42567714D01*
X163959727Y-42964332D01*
X163959353Y-43393784D01*
X148546458Y-43393784D01*
X148588983Y-43180000D01*
X148494243Y-42703712D01*
X148224448Y-42299935D01*
X147820671Y-42030140D01*
X147344383Y-41935400D01*
X147295617Y-41935400D01*
X146819329Y-42030140D01*
X146415552Y-42299935D01*
X146170841Y-42666172D01*
X146062688Y-42405053D01*
X145668490Y-41973179D01*
X145533687Y-41910000D01*
X145668490Y-41846821D01*
X146062688Y-41414947D01*
X146170841Y-41153828D01*
X146415552Y-41520065D01*
X146819329Y-41789860D01*
X147295617Y-41884600D01*
X147344383Y-41884600D01*
X147820671Y-41789860D01*
X148224448Y-41520065D01*
X148494243Y-41116288D01*
X148546458Y-40853784D01*
X164081273Y-40853784D01*
X164245271Y-41250689D01*
X164548674Y-41554622D01*
X164945292Y-41719313D01*
X165374744Y-41719687D01*
X165771649Y-41555689D01*
X166075582Y-41252286D01*
X166240273Y-40855668D01*
X166240647Y-40426216D01*
X166076649Y-40029311D01*
X165773246Y-39725378D01*
X165376628Y-39560687D01*
X164947176Y-39560313D01*
X164550271Y-39724311D01*
X164246338Y-40027714D01*
X164081647Y-40424332D01*
X164081273Y-40853784D01*
X148546458Y-40853784D01*
X148588983Y-40640000D01*
X148494243Y-40163712D01*
X148224448Y-39759935D01*
X147830938Y-39497000D01*
X168148000Y-39497000D01*
X168148000Y-69088000D01*
M02*
