G04 #@! TF.FileFunction,Copper,L2,Bot,Signal*
%FSLAX46Y46*%
G04 Gerber Fmt 4.6, Leading zero omitted, Abs format (unit mm)*
G04 Created by KiCad (PCBNEW 4.0.5+dfsg1-4) date Fri Oct 27 15:57:28 2017*
%MOMM*%
%LPD*%
G01*
G04 APERTURE LIST*
%ADD10C,0.100000*%
%ADD11C,1.000760*%
%ADD12R,1.600000X1.600000*%
%ADD13O,1.600000X1.600000*%
%ADD14C,2.300000*%
%ADD15C,2.000000*%
%ADD16R,2.499360X2.499360*%
%ADD17C,2.499360*%
%ADD18C,5.000000*%
%ADD19C,1.699260*%
%ADD20R,1.699260X1.699260*%
%ADD21C,1.300000*%
%ADD22C,1.998980*%
%ADD23R,1.727200X2.032000*%
%ADD24O,1.727200X2.032000*%
%ADD25R,2.032000X2.032000*%
%ADD26O,2.032000X2.032000*%
%ADD27R,1.900000X2.000000*%
%ADD28C,1.900000*%
%ADD29C,1.397000*%
%ADD30R,1.397000X1.397000*%
%ADD31R,1.727200X1.727200*%
%ADD32O,1.727200X1.727200*%
%ADD33O,1.998980X3.197860*%
%ADD34O,3.197860X1.998980*%
%ADD35C,0.254000*%
G04 APERTURE END LIST*
D10*
D11*
X95250000Y-31750000D03*
X93980000Y-33020000D03*
X93980000Y-30480000D03*
D12*
X72390000Y-29210000D03*
D13*
X72390000Y-31750000D03*
X72390000Y-34290000D03*
X72390000Y-36830000D03*
X72390000Y-39370000D03*
X72390000Y-41910000D03*
X72390000Y-44450000D03*
X80010000Y-44450000D03*
X80010000Y-41910000D03*
X80010000Y-39370000D03*
X80010000Y-36830000D03*
X80010000Y-34290000D03*
X80010000Y-31750000D03*
X80010000Y-29210000D03*
D14*
X101800000Y-54650000D03*
D15*
X109300000Y-67150000D03*
D14*
X99300000Y-57150000D03*
X106800000Y-57150000D03*
X114300000Y-57150000D03*
X111800000Y-54650000D03*
D15*
X104300000Y-67150000D03*
D14*
X81480000Y-54650000D03*
D15*
X88980000Y-67150000D03*
D14*
X78980000Y-57150000D03*
X86480000Y-57150000D03*
X93980000Y-57150000D03*
X91480000Y-54650000D03*
D15*
X83980000Y-67150000D03*
D16*
X139700000Y-39370000D03*
D17*
X139700000Y-24130000D03*
X132080000Y-24130000D03*
X132080000Y-39370000D03*
D18*
X73660000Y-66040000D03*
X165100000Y-66040000D03*
X165100000Y-24130000D03*
D19*
X90172540Y-48260520D03*
D20*
X90172540Y-38100520D03*
D14*
X122120000Y-54650000D03*
D15*
X129620000Y-67150000D03*
D14*
X119620000Y-57150000D03*
X127120000Y-57150000D03*
X134620000Y-57150000D03*
X132120000Y-54650000D03*
D15*
X124620000Y-67150000D03*
D11*
X90170000Y-31750000D03*
X88900000Y-33020000D03*
X88900000Y-30480000D03*
D12*
X93980000Y-38100000D03*
D13*
X93980000Y-40640000D03*
X93980000Y-43180000D03*
X101600000Y-43180000D03*
X101600000Y-40640000D03*
X101600000Y-38100000D03*
D21*
X80010000Y-25400000D03*
X77510000Y-25400000D03*
D22*
X76200000Y-48260000D03*
X86360000Y-48260000D03*
X93980000Y-48260000D03*
X104140000Y-48260000D03*
X83820000Y-39370000D03*
X83820000Y-29210000D03*
X109220000Y-44450000D03*
X109220000Y-34290000D03*
X105410000Y-34290000D03*
X105410000Y-44450000D03*
X107950000Y-48260000D03*
X118110000Y-48260000D03*
X132080000Y-48260000D03*
X121920000Y-48260000D03*
X72390000Y-48260000D03*
X72390000Y-58420000D03*
D23*
X83820000Y-62230000D03*
D24*
X86360000Y-62230000D03*
X88900000Y-62230000D03*
D25*
X105410000Y-62230000D03*
D26*
X107950000Y-62230000D03*
D23*
X124460000Y-62230000D03*
D24*
X127000000Y-62230000D03*
X129540000Y-62230000D03*
D12*
X119380000Y-22860000D03*
D13*
X119380000Y-25400000D03*
X119380000Y-27940000D03*
X119380000Y-30480000D03*
X119380000Y-33020000D03*
X119380000Y-35560000D03*
X119380000Y-38100000D03*
X119380000Y-40640000D03*
X127000000Y-40640000D03*
X127000000Y-38100000D03*
X127000000Y-35560000D03*
X127000000Y-33020000D03*
X127000000Y-30480000D03*
X127000000Y-27940000D03*
X127000000Y-25400000D03*
X127000000Y-22860000D03*
D21*
X124460000Y-44450000D03*
X121960000Y-44450000D03*
D18*
X73660000Y-24130000D03*
D27*
X111760000Y-24130000D03*
D28*
X109220000Y-24130000D03*
D22*
X99060000Y-30480000D03*
X109220000Y-30480000D03*
D29*
X91440000Y-24190960D03*
X93980000Y-24069040D03*
X88900000Y-24069040D03*
X96520000Y-24190960D03*
X86360000Y-24190960D03*
X99060000Y-24069040D03*
D30*
X83820000Y-24069040D03*
D29*
X101600000Y-24190960D03*
D31*
X144780000Y-22860000D03*
D32*
X147320000Y-22860000D03*
X144780000Y-25400000D03*
X147320000Y-25400000D03*
X144780000Y-27940000D03*
X147320000Y-27940000D03*
X144780000Y-30480000D03*
X147320000Y-30480000D03*
X144780000Y-33020000D03*
X147320000Y-33020000D03*
X144780000Y-35560000D03*
X147320000Y-35560000D03*
X144780000Y-38100000D03*
X147320000Y-38100000D03*
X144780000Y-40640000D03*
X147320000Y-40640000D03*
X144780000Y-43180000D03*
X147320000Y-43180000D03*
X144780000Y-45720000D03*
X147320000Y-45720000D03*
X144780000Y-48260000D03*
X147320000Y-48260000D03*
X144780000Y-50800000D03*
X147320000Y-50800000D03*
X144780000Y-53340000D03*
X147320000Y-53340000D03*
D30*
X135890000Y-44450000D03*
X138430000Y-44450000D03*
X135890000Y-46990000D03*
X138430000Y-46990000D03*
X135890000Y-49530000D03*
X138430000Y-49530000D03*
D33*
X148564600Y-60772040D03*
D34*
X143510000Y-64770000D03*
D33*
X138455400Y-60772040D03*
X161264600Y-60772040D03*
D34*
X156210000Y-64770000D03*
D33*
X151155400Y-60772040D03*
D29*
X165039040Y-53340000D03*
X165160960Y-50800000D03*
X165039040Y-48260000D03*
X165160960Y-45720000D03*
X165039040Y-43180000D03*
D30*
X165160960Y-55880000D03*
D29*
X165160960Y-40640000D03*
X165160960Y-34290000D03*
X165039040Y-31750000D03*
D30*
X165039040Y-36830000D03*
D29*
X165160960Y-29210000D03*
D30*
X115570000Y-30480000D03*
X113030000Y-30480000D03*
X115570000Y-33020000D03*
X113030000Y-33020000D03*
X115570000Y-35560000D03*
X113030000Y-35560000D03*
D35*
X90172540Y-48260520D02*
X90172540Y-44447460D01*
X90172540Y-44447460D02*
X93980000Y-40640000D01*
X90172540Y-48260520D02*
X96562020Y-54650000D01*
X96562020Y-54650000D02*
X101800000Y-54650000D01*
X105410000Y-62230000D02*
X101800000Y-58620000D01*
X101800000Y-58620000D02*
X101800000Y-54650000D01*
X93980000Y-38100000D02*
X96520000Y-40640000D01*
X96520000Y-45720000D02*
X93980000Y-48260000D01*
X96520000Y-40640000D02*
X96520000Y-45720000D01*
X90172540Y-38100520D02*
X90173060Y-38100000D01*
X90173060Y-38100000D02*
X93980000Y-38100000D01*
X81480000Y-54650000D02*
X76160000Y-54650000D01*
X76160000Y-54650000D02*
X72390000Y-58420000D01*
X81480000Y-54650000D02*
X81480000Y-59890000D01*
X81480000Y-59890000D02*
X83820000Y-62230000D01*
X165039040Y-36830000D02*
X165039040Y-36769040D01*
X165039040Y-36769040D02*
X162560000Y-34290000D01*
X162560000Y-34290000D02*
X146050000Y-34290000D01*
X146050000Y-34290000D02*
X144780000Y-33020000D01*
X144780000Y-35560000D02*
X144780000Y-33020000D01*
X91480000Y-54650000D02*
X91480000Y-53380000D01*
X91480000Y-53380000D02*
X86360000Y-48260000D01*
X91480000Y-54650000D02*
X91480000Y-59650000D01*
X91480000Y-59650000D02*
X88900000Y-62230000D01*
X104140000Y-48260000D02*
X110530000Y-54650000D01*
X110530000Y-54650000D02*
X111800000Y-54650000D01*
X111800000Y-54650000D02*
X111800000Y-58380000D01*
X111800000Y-58380000D02*
X107950000Y-62230000D01*
X122120000Y-54650000D02*
X118110000Y-50640000D01*
X118110000Y-50640000D02*
X118110000Y-48260000D01*
X124460000Y-62230000D02*
X122120000Y-59890000D01*
X122120000Y-59890000D02*
X122120000Y-54650000D01*
X121920000Y-48260000D02*
X128310000Y-54650000D01*
X128310000Y-54650000D02*
X132120000Y-54650000D01*
X129540000Y-62230000D02*
X132120000Y-59650000D01*
X132120000Y-59650000D02*
X132120000Y-54650000D01*
X91440000Y-24190960D02*
X91440000Y-27940000D01*
X91440000Y-27940000D02*
X92710000Y-29210000D01*
X83820000Y-29210000D02*
X92710000Y-29210000D01*
X92710000Y-29210000D02*
X93980000Y-30480000D01*
X80010000Y-31750000D02*
X81280000Y-31750000D01*
X81280000Y-31750000D02*
X83820000Y-29210000D01*
X80010000Y-34290000D02*
X80010000Y-31750000D01*
X72390000Y-31750000D02*
X72390000Y-29210000D01*
X147320000Y-53340000D02*
X146050000Y-52070000D01*
X135890000Y-52070000D02*
X132080000Y-48260000D01*
X146050000Y-52070000D02*
X135890000Y-52070000D01*
X101600000Y-40640000D02*
X105410000Y-36830000D01*
X105410000Y-36830000D02*
X105410000Y-34290000D01*
X95250000Y-31750000D02*
X92710000Y-31750000D01*
X91440000Y-30480000D02*
X88900000Y-30480000D01*
X92710000Y-31750000D02*
X91440000Y-30480000D01*
X109220000Y-34290000D02*
X107315000Y-32385000D01*
X95885000Y-32385000D02*
X95250000Y-31750000D01*
X107315000Y-32385000D02*
X95885000Y-32385000D01*
X80010000Y-39370000D02*
X80010000Y-36830000D01*
X80010000Y-41910000D02*
X80010000Y-39370000D01*
X72390000Y-36830000D02*
X72390000Y-34290000D01*
X72390000Y-39370000D02*
X72390000Y-36830000D01*
X113030000Y-33020000D02*
X113030000Y-30480000D01*
X113030000Y-35560000D02*
X113030000Y-33020000D01*
X111760000Y-24130000D02*
X111760000Y-27940000D01*
X111760000Y-27940000D02*
X109220000Y-30480000D01*
X115570000Y-30480000D02*
X118110000Y-33020000D01*
X118110000Y-33020000D02*
X119380000Y-33020000D01*
X115570000Y-33020000D02*
X118110000Y-35560000D01*
X118110000Y-35560000D02*
X119380000Y-35560000D01*
X115570000Y-35560000D02*
X118110000Y-38100000D01*
X118110000Y-38100000D02*
X119380000Y-38100000D01*
X147320000Y-25400000D02*
X158689040Y-25400000D01*
X158689040Y-25400000D02*
X165039040Y-31750000D01*
X137160000Y-30480000D02*
X137160000Y-43180000D01*
X146050000Y-26670000D02*
X142240000Y-26670000D01*
X142240000Y-26670000D02*
X140970000Y-26670000D01*
X140970000Y-26670000D02*
X137160000Y-30480000D01*
X147320000Y-25400000D02*
X146050000Y-26670000D01*
X137160000Y-43180000D02*
X138430000Y-44450000D01*
X138430000Y-46990000D02*
X138430000Y-44450000D01*
X138430000Y-49530000D02*
X138430000Y-46990000D01*
X147320000Y-30480000D02*
X161350960Y-30480000D01*
X161350960Y-30480000D02*
X165160960Y-34290000D01*
X165160960Y-40640000D02*
X160080960Y-35560000D01*
X160080960Y-35560000D02*
X147320000Y-35560000D01*
X165039040Y-43180000D02*
X162499040Y-40640000D01*
X162499040Y-40640000D02*
X147320000Y-40640000D01*
X147320000Y-43180000D02*
X162620960Y-43180000D01*
X162620960Y-43180000D02*
X165160960Y-45720000D01*
X147320000Y-48260000D02*
X165039040Y-48260000D01*
X165039040Y-53340000D02*
X162499040Y-50800000D01*
X162499040Y-50800000D02*
X147320000Y-50800000D01*
X147320000Y-50800000D02*
X148590000Y-50800000D01*
X143510000Y-60960000D02*
X143510000Y-64770000D01*
X149860000Y-54610000D02*
X143510000Y-60960000D01*
X149860000Y-52070000D02*
X149860000Y-54610000D01*
X148590000Y-50800000D02*
X149860000Y-52070000D01*
X127000000Y-35560000D02*
X132080000Y-30480000D01*
X132080000Y-30480000D02*
X132080000Y-25400000D01*
X132080000Y-24130000D02*
X132080000Y-25400000D01*
X132080000Y-25400000D02*
X127000000Y-30480000D01*
G36*
X168148000Y-34163000D02*
X166240571Y-34163000D01*
X166240647Y-34076216D01*
X166076649Y-33679311D01*
X165773246Y-33375378D01*
X165376628Y-33210687D01*
X164947176Y-33210313D01*
X164842814Y-33253434D01*
X161710170Y-30120790D01*
X161545363Y-30010669D01*
X161350960Y-29972000D01*
X148473054Y-29972000D01*
X148224448Y-29599935D01*
X147820671Y-29330140D01*
X147344383Y-29235400D01*
X147295617Y-29235400D01*
X146819329Y-29330140D01*
X146415552Y-29599935D01*
X146170841Y-29966172D01*
X146062688Y-29705053D01*
X145668490Y-29273179D01*
X145533687Y-29210000D01*
X145668490Y-29146821D01*
X146062688Y-28714947D01*
X146170841Y-28453828D01*
X146415552Y-28820065D01*
X146819329Y-29089860D01*
X147295617Y-29184600D01*
X147344383Y-29184600D01*
X147820671Y-29089860D01*
X148224448Y-28820065D01*
X148494243Y-28416288D01*
X148588983Y-27940000D01*
X148494243Y-27463712D01*
X148224448Y-27059935D01*
X147820671Y-26790140D01*
X147344383Y-26695400D01*
X147295617Y-26695400D01*
X146819329Y-26790140D01*
X146415552Y-27059935D01*
X146170841Y-27426172D01*
X146066677Y-27174683D01*
X146244403Y-27139331D01*
X146409210Y-27029210D01*
X146877074Y-26561346D01*
X147295617Y-26644600D01*
X147344383Y-26644600D01*
X147820671Y-26549860D01*
X148224448Y-26280065D01*
X148473054Y-25908000D01*
X158478620Y-25908000D01*
X164002337Y-31431717D01*
X163959727Y-31534332D01*
X163959353Y-31963784D01*
X164123351Y-32360689D01*
X164426754Y-32664622D01*
X164823372Y-32829313D01*
X165252824Y-32829687D01*
X165649729Y-32665689D01*
X165953662Y-32362286D01*
X166118353Y-31965668D01*
X166118727Y-31536216D01*
X165954729Y-31139311D01*
X165651326Y-30835378D01*
X165254708Y-30670687D01*
X164825256Y-30670313D01*
X164720894Y-30713434D01*
X163431244Y-29423784D01*
X164081273Y-29423784D01*
X164245271Y-29820689D01*
X164548674Y-30124622D01*
X164945292Y-30289313D01*
X165374744Y-30289687D01*
X165771649Y-30125689D01*
X166075582Y-29822286D01*
X166240273Y-29425668D01*
X166240647Y-28996216D01*
X166076649Y-28599311D01*
X165773246Y-28295378D01*
X165376628Y-28130687D01*
X164947176Y-28130313D01*
X164550271Y-28294311D01*
X164246338Y-28597714D01*
X164081647Y-28994332D01*
X164081273Y-29423784D01*
X163431244Y-29423784D01*
X159048250Y-25040790D01*
X158883443Y-24930669D01*
X158689040Y-24892000D01*
X148473054Y-24892000D01*
X148345133Y-24700552D01*
X162218501Y-24700552D01*
X162656183Y-25759823D01*
X163465914Y-26570969D01*
X164524420Y-27010499D01*
X165670552Y-27011499D01*
X166729823Y-26573817D01*
X167540969Y-25764086D01*
X167980499Y-24705580D01*
X167981499Y-23559448D01*
X167543817Y-22500177D01*
X166734086Y-21689031D01*
X165675580Y-21249501D01*
X164529448Y-21248501D01*
X163470177Y-21686183D01*
X162659031Y-22495914D01*
X162219501Y-23554420D01*
X162218501Y-24700552D01*
X148345133Y-24700552D01*
X148224448Y-24519935D01*
X147820671Y-24250140D01*
X147344383Y-24155400D01*
X147295617Y-24155400D01*
X146819329Y-24250140D01*
X146415552Y-24519935D01*
X146170841Y-24886172D01*
X146062688Y-24625053D01*
X145805880Y-24343700D01*
X146003298Y-24261927D01*
X146181927Y-24083299D01*
X146278600Y-23849910D01*
X146278600Y-23535102D01*
X146415552Y-23740065D01*
X146819329Y-24009860D01*
X147295617Y-24104600D01*
X147344383Y-24104600D01*
X147820671Y-24009860D01*
X148224448Y-23740065D01*
X148494243Y-23336288D01*
X148588983Y-22860000D01*
X148494243Y-22383712D01*
X148224448Y-21979935D01*
X147820671Y-21710140D01*
X147344383Y-21615400D01*
X147295617Y-21615400D01*
X146819329Y-21710140D01*
X146415552Y-21979935D01*
X146278600Y-22184898D01*
X146278600Y-21870090D01*
X146181927Y-21636701D01*
X146003298Y-21458073D01*
X145769909Y-21361400D01*
X145065750Y-21361400D01*
X144907000Y-21520150D01*
X144907000Y-22733000D01*
X144927000Y-22733000D01*
X144927000Y-22987000D01*
X144907000Y-22987000D01*
X144907000Y-25273000D01*
X144927000Y-25273000D01*
X144927000Y-25527000D01*
X144907000Y-25527000D01*
X144907000Y-25547000D01*
X144653000Y-25547000D01*
X144653000Y-25527000D01*
X143446183Y-25527000D01*
X143325042Y-25759026D01*
X143491949Y-26162000D01*
X140970000Y-26162000D01*
X140775597Y-26200669D01*
X140610790Y-26310790D01*
X136800790Y-30120790D01*
X136690669Y-30285597D01*
X136652000Y-30480000D01*
X136652000Y-43180000D01*
X136690669Y-43374403D01*
X136697873Y-43385184D01*
X136588500Y-43363036D01*
X135191500Y-43363036D01*
X135050310Y-43389603D01*
X134920635Y-43473046D01*
X134833641Y-43600366D01*
X134803036Y-43751500D01*
X134803036Y-45148500D01*
X134829603Y-45289690D01*
X134913046Y-45419365D01*
X135040366Y-45506359D01*
X135191500Y-45536964D01*
X136588500Y-45536964D01*
X136729690Y-45510397D01*
X136859365Y-45426954D01*
X136946359Y-45299634D01*
X136976964Y-45148500D01*
X136976964Y-43751500D01*
X136968593Y-43707013D01*
X137343036Y-44081456D01*
X137343036Y-45148500D01*
X137369603Y-45289690D01*
X137453046Y-45419365D01*
X137580366Y-45506359D01*
X137731500Y-45536964D01*
X137922000Y-45536964D01*
X137922000Y-45903036D01*
X137731500Y-45903036D01*
X137590310Y-45929603D01*
X137460635Y-46013046D01*
X137373641Y-46140366D01*
X137343036Y-46291500D01*
X137343036Y-47688500D01*
X137369603Y-47829690D01*
X137453046Y-47959365D01*
X137580366Y-48046359D01*
X137731500Y-48076964D01*
X137922000Y-48076964D01*
X137922000Y-48443036D01*
X137731500Y-48443036D01*
X137590310Y-48469603D01*
X137460635Y-48553046D01*
X137373641Y-48680366D01*
X137343036Y-48831500D01*
X137343036Y-50228500D01*
X137369603Y-50369690D01*
X137453046Y-50499365D01*
X137580366Y-50586359D01*
X137731500Y-50616964D01*
X139128500Y-50616964D01*
X139269690Y-50590397D01*
X139399365Y-50506954D01*
X139486359Y-50379634D01*
X139516964Y-50228500D01*
X139516964Y-48831500D01*
X139490397Y-48690310D01*
X139406954Y-48560635D01*
X139279634Y-48473641D01*
X139128500Y-48443036D01*
X138938000Y-48443036D01*
X138938000Y-48076964D01*
X139128500Y-48076964D01*
X139269690Y-48050397D01*
X139399365Y-47966954D01*
X139486359Y-47839634D01*
X139516964Y-47688500D01*
X139516964Y-46291500D01*
X139490397Y-46150310D01*
X139406954Y-46020635D01*
X139279634Y-45933641D01*
X139128500Y-45903036D01*
X138938000Y-45903036D01*
X138938000Y-45536964D01*
X139128500Y-45536964D01*
X139269690Y-45510397D01*
X139399365Y-45426954D01*
X139486359Y-45299634D01*
X139516964Y-45148500D01*
X139516964Y-43751500D01*
X139490397Y-43610310D01*
X139406954Y-43480635D01*
X139279634Y-43393641D01*
X139128500Y-43363036D01*
X138061456Y-43363036D01*
X137668000Y-42969580D01*
X137668000Y-38120320D01*
X138061856Y-38120320D01*
X138061856Y-40619680D01*
X138088423Y-40760870D01*
X138171866Y-40890545D01*
X138299186Y-40977539D01*
X138450320Y-41008144D01*
X140949680Y-41008144D01*
X141090870Y-40981577D01*
X141220545Y-40898134D01*
X141307539Y-40770814D01*
X141338144Y-40619680D01*
X141338144Y-38120320D01*
X141311577Y-37979130D01*
X141228134Y-37849455D01*
X141100814Y-37762461D01*
X140949680Y-37731856D01*
X138450320Y-37731856D01*
X138309130Y-37758423D01*
X138179455Y-37841866D01*
X138092461Y-37969186D01*
X138061856Y-38120320D01*
X137668000Y-38120320D01*
X137668000Y-30839026D01*
X143325042Y-30839026D01*
X143497312Y-31254947D01*
X143891510Y-31686821D01*
X144026313Y-31750000D01*
X143891510Y-31813179D01*
X143497312Y-32245053D01*
X143325042Y-32660974D01*
X143446183Y-32893000D01*
X144653000Y-32893000D01*
X144653000Y-30607000D01*
X143446183Y-30607000D01*
X143325042Y-30839026D01*
X137668000Y-30839026D01*
X137668000Y-30690420D01*
X140059394Y-28299026D01*
X143325042Y-28299026D01*
X143497312Y-28714947D01*
X143891510Y-29146821D01*
X144026313Y-29210000D01*
X143891510Y-29273179D01*
X143497312Y-29705053D01*
X143325042Y-30120974D01*
X143446183Y-30353000D01*
X144653000Y-30353000D01*
X144653000Y-28067000D01*
X143446183Y-28067000D01*
X143325042Y-28299026D01*
X140059394Y-28299026D01*
X141180420Y-27178000D01*
X143491949Y-27178000D01*
X143325042Y-27580974D01*
X143446183Y-27813000D01*
X144653000Y-27813000D01*
X144653000Y-27793000D01*
X144907000Y-27793000D01*
X144907000Y-27813000D01*
X144927000Y-27813000D01*
X144927000Y-28067000D01*
X144907000Y-28067000D01*
X144907000Y-30353000D01*
X144927000Y-30353000D01*
X144927000Y-30607000D01*
X144907000Y-30607000D01*
X144907000Y-32893000D01*
X144927000Y-32893000D01*
X144927000Y-33147000D01*
X144907000Y-33147000D01*
X144907000Y-33167000D01*
X144653000Y-33167000D01*
X144653000Y-33147000D01*
X143446183Y-33147000D01*
X143325042Y-33379026D01*
X143497312Y-33794947D01*
X143833257Y-34163000D01*
X142240000Y-34163000D01*
X142190590Y-34173006D01*
X142148965Y-34201447D01*
X142121685Y-34243841D01*
X142113000Y-34290000D01*
X142113000Y-50673000D01*
X135890000Y-50673000D01*
X135840590Y-50683006D01*
X135798965Y-50711447D01*
X135771685Y-50753841D01*
X135763000Y-50800000D01*
X135763000Y-51224580D01*
X135146213Y-50607793D01*
X135191500Y-50616964D01*
X136588500Y-50616964D01*
X136729690Y-50590397D01*
X136859365Y-50506954D01*
X136946359Y-50379634D01*
X136976964Y-50228500D01*
X136976964Y-48831500D01*
X136950397Y-48690310D01*
X136866954Y-48560635D01*
X136739634Y-48473641D01*
X136588500Y-48443036D01*
X135191500Y-48443036D01*
X135050310Y-48469603D01*
X134920635Y-48553046D01*
X134833641Y-48680366D01*
X134803036Y-48831500D01*
X134803036Y-50228500D01*
X134811407Y-50272987D01*
X133346987Y-48808567D01*
X133460249Y-48535801D01*
X133460729Y-47986608D01*
X133251005Y-47479037D01*
X133048073Y-47275750D01*
X134556500Y-47275750D01*
X134556500Y-47814810D01*
X134653173Y-48048199D01*
X134831802Y-48226827D01*
X135065191Y-48323500D01*
X135604250Y-48323500D01*
X135763000Y-48164750D01*
X135763000Y-47117000D01*
X136017000Y-47117000D01*
X136017000Y-48164750D01*
X136175750Y-48323500D01*
X136714809Y-48323500D01*
X136948198Y-48226827D01*
X137126827Y-48048199D01*
X137223500Y-47814810D01*
X137223500Y-47275750D01*
X137064750Y-47117000D01*
X136017000Y-47117000D01*
X135763000Y-47117000D01*
X134715250Y-47117000D01*
X134556500Y-47275750D01*
X133048073Y-47275750D01*
X132863006Y-47090360D01*
X132355801Y-46879751D01*
X131806608Y-46879271D01*
X131299037Y-47088995D01*
X130910360Y-47476994D01*
X130699751Y-47984199D01*
X130699271Y-48533392D01*
X130908995Y-49040963D01*
X131296994Y-49429640D01*
X131804199Y-49640249D01*
X132353392Y-49640729D01*
X132628597Y-49527017D01*
X135530790Y-52429210D01*
X135695597Y-52539331D01*
X135763000Y-52552738D01*
X135763000Y-56127944D01*
X135488374Y-55852838D01*
X134925871Y-55619266D01*
X134316801Y-55618735D01*
X133753891Y-55851325D01*
X133322838Y-56281626D01*
X133089266Y-56844129D01*
X133088735Y-57453199D01*
X133321325Y-58016109D01*
X133751626Y-58447162D01*
X134314129Y-58680734D01*
X134923199Y-58681265D01*
X135486109Y-58448675D01*
X135763000Y-58172267D01*
X135763000Y-69088000D01*
X70612000Y-69088000D01*
X70612000Y-66610552D01*
X70778501Y-66610552D01*
X71216183Y-67669823D01*
X72025914Y-68480969D01*
X73084420Y-68920499D01*
X74230552Y-68921499D01*
X75289823Y-68483817D01*
X76100969Y-67674086D01*
X76205024Y-67423493D01*
X82598761Y-67423493D01*
X82808563Y-67931251D01*
X83196705Y-68320072D01*
X83704097Y-68530759D01*
X84253493Y-68531239D01*
X84761251Y-68321437D01*
X85150072Y-67933295D01*
X85360759Y-67425903D01*
X85360761Y-67423493D01*
X87598761Y-67423493D01*
X87808563Y-67931251D01*
X88196705Y-68320072D01*
X88704097Y-68530759D01*
X89253493Y-68531239D01*
X89761251Y-68321437D01*
X90150072Y-67933295D01*
X90360759Y-67425903D01*
X90360761Y-67423493D01*
X102918761Y-67423493D01*
X103128563Y-67931251D01*
X103516705Y-68320072D01*
X104024097Y-68530759D01*
X104573493Y-68531239D01*
X105081251Y-68321437D01*
X105470072Y-67933295D01*
X105680759Y-67425903D01*
X105680761Y-67423493D01*
X107918761Y-67423493D01*
X108128563Y-67931251D01*
X108516705Y-68320072D01*
X109024097Y-68530759D01*
X109573493Y-68531239D01*
X110081251Y-68321437D01*
X110470072Y-67933295D01*
X110680759Y-67425903D01*
X110680761Y-67423493D01*
X123238761Y-67423493D01*
X123448563Y-67931251D01*
X123836705Y-68320072D01*
X124344097Y-68530759D01*
X124893493Y-68531239D01*
X125401251Y-68321437D01*
X125790072Y-67933295D01*
X126000759Y-67425903D01*
X126000761Y-67423493D01*
X128238761Y-67423493D01*
X128448563Y-67931251D01*
X128836705Y-68320072D01*
X129344097Y-68530759D01*
X129893493Y-68531239D01*
X130401251Y-68321437D01*
X130790072Y-67933295D01*
X131000759Y-67425903D01*
X131001239Y-66876507D01*
X130791437Y-66368749D01*
X130403295Y-65979928D01*
X129895903Y-65769241D01*
X129346507Y-65768761D01*
X128838749Y-65978563D01*
X128449928Y-66366705D01*
X128239241Y-66874097D01*
X128238761Y-67423493D01*
X126000761Y-67423493D01*
X126001239Y-66876507D01*
X125791437Y-66368749D01*
X125403295Y-65979928D01*
X124895903Y-65769241D01*
X124346507Y-65768761D01*
X123838749Y-65978563D01*
X123449928Y-66366705D01*
X123239241Y-66874097D01*
X123238761Y-67423493D01*
X110680761Y-67423493D01*
X110681239Y-66876507D01*
X110471437Y-66368749D01*
X110083295Y-65979928D01*
X109575903Y-65769241D01*
X109026507Y-65768761D01*
X108518749Y-65978563D01*
X108129928Y-66366705D01*
X107919241Y-66874097D01*
X107918761Y-67423493D01*
X105680761Y-67423493D01*
X105681239Y-66876507D01*
X105471437Y-66368749D01*
X105083295Y-65979928D01*
X104575903Y-65769241D01*
X104026507Y-65768761D01*
X103518749Y-65978563D01*
X103129928Y-66366705D01*
X102919241Y-66874097D01*
X102918761Y-67423493D01*
X90360761Y-67423493D01*
X90361239Y-66876507D01*
X90151437Y-66368749D01*
X89763295Y-65979928D01*
X89255903Y-65769241D01*
X88706507Y-65768761D01*
X88198749Y-65978563D01*
X87809928Y-66366705D01*
X87599241Y-66874097D01*
X87598761Y-67423493D01*
X85360761Y-67423493D01*
X85361239Y-66876507D01*
X85151437Y-66368749D01*
X84763295Y-65979928D01*
X84255903Y-65769241D01*
X83706507Y-65768761D01*
X83198749Y-65978563D01*
X82809928Y-66366705D01*
X82599241Y-66874097D01*
X82598761Y-67423493D01*
X76205024Y-67423493D01*
X76540499Y-66615580D01*
X76541499Y-65469448D01*
X76103817Y-64410177D01*
X75294086Y-63599031D01*
X74235580Y-63159501D01*
X73089448Y-63158501D01*
X72030177Y-63596183D01*
X71219031Y-64405914D01*
X70779501Y-65464420D01*
X70778501Y-66610552D01*
X70612000Y-66610552D01*
X70612000Y-58693392D01*
X71009271Y-58693392D01*
X71218995Y-59200963D01*
X71606994Y-59589640D01*
X72114199Y-59800249D01*
X72663392Y-59800729D01*
X73170963Y-59591005D01*
X73559640Y-59203006D01*
X73770249Y-58695801D01*
X73770729Y-58146608D01*
X73657017Y-57871403D01*
X74075221Y-57453199D01*
X77448735Y-57453199D01*
X77681325Y-58016109D01*
X78111626Y-58447162D01*
X78674129Y-58680734D01*
X79283199Y-58681265D01*
X79846109Y-58448675D01*
X80277162Y-58018374D01*
X80510734Y-57455871D01*
X80511265Y-56846801D01*
X80278675Y-56283891D01*
X79848374Y-55852838D01*
X79285871Y-55619266D01*
X78676801Y-55618735D01*
X78113891Y-55851325D01*
X77682838Y-56281626D01*
X77449266Y-56844129D01*
X77448735Y-57453199D01*
X74075221Y-57453199D01*
X76370420Y-55158000D01*
X80033357Y-55158000D01*
X80181325Y-55516109D01*
X80611626Y-55947162D01*
X80972000Y-56096803D01*
X80972000Y-59890000D01*
X81010669Y-60084403D01*
X81120790Y-60249210D01*
X82567936Y-61696356D01*
X82567936Y-63246000D01*
X82594503Y-63387190D01*
X82677946Y-63516865D01*
X82805266Y-63603859D01*
X82956400Y-63634464D01*
X84683600Y-63634464D01*
X84824790Y-63607897D01*
X84954465Y-63524454D01*
X85041459Y-63397134D01*
X85072064Y-63246000D01*
X85072064Y-63148817D01*
X85457964Y-63580732D01*
X85985209Y-63834709D01*
X86000974Y-63837358D01*
X86233000Y-63716217D01*
X86233000Y-62357000D01*
X86213000Y-62357000D01*
X86213000Y-62103000D01*
X86233000Y-62103000D01*
X86233000Y-60743783D01*
X86000974Y-60622642D01*
X85985209Y-60625291D01*
X85457964Y-60879268D01*
X85072064Y-61311183D01*
X85072064Y-61214000D01*
X85045497Y-61072810D01*
X84962054Y-60943135D01*
X84834734Y-60856141D01*
X84683600Y-60825536D01*
X83133956Y-60825536D01*
X81988000Y-59679580D01*
X81988000Y-58411025D01*
X85398581Y-58411025D01*
X85515601Y-58693446D01*
X86179663Y-58945018D01*
X86889448Y-58923314D01*
X87444399Y-58693446D01*
X87561419Y-58411025D01*
X86480000Y-57329605D01*
X85398581Y-58411025D01*
X81988000Y-58411025D01*
X81988000Y-56849663D01*
X84684982Y-56849663D01*
X84706686Y-57559448D01*
X84936554Y-58114399D01*
X85218975Y-58231419D01*
X86300395Y-57150000D01*
X86659605Y-57150000D01*
X87741025Y-58231419D01*
X88023446Y-58114399D01*
X88275018Y-57450337D01*
X88253314Y-56740552D01*
X88023446Y-56185601D01*
X87741025Y-56068581D01*
X86659605Y-57150000D01*
X86300395Y-57150000D01*
X85218975Y-56068581D01*
X84936554Y-56185601D01*
X84684982Y-56849663D01*
X81988000Y-56849663D01*
X81988000Y-56096643D01*
X82346109Y-55948675D01*
X82405913Y-55888975D01*
X85398581Y-55888975D01*
X86480000Y-56970395D01*
X87561419Y-55888975D01*
X87444399Y-55606554D01*
X86780337Y-55354982D01*
X86070552Y-55376686D01*
X85515601Y-55606554D01*
X85398581Y-55888975D01*
X82405913Y-55888975D01*
X82777162Y-55518374D01*
X83010734Y-54955871D01*
X83011265Y-54346801D01*
X82778675Y-53783891D01*
X82348374Y-53352838D01*
X81785871Y-53119266D01*
X81176801Y-53118735D01*
X80613891Y-53351325D01*
X80182838Y-53781626D01*
X80033197Y-54142000D01*
X76160000Y-54142000D01*
X75965596Y-54180669D01*
X75800790Y-54290790D01*
X72938567Y-57153013D01*
X72665801Y-57039751D01*
X72116608Y-57039271D01*
X71609037Y-57248995D01*
X71220360Y-57636994D01*
X71009751Y-58144199D01*
X71009271Y-58693392D01*
X70612000Y-58693392D01*
X70612000Y-48533392D01*
X71009271Y-48533392D01*
X71218995Y-49040963D01*
X71606994Y-49429640D01*
X72114199Y-49640249D01*
X72663392Y-49640729D01*
X73170963Y-49431005D01*
X73559640Y-49043006D01*
X73770249Y-48535801D01*
X73770251Y-48533392D01*
X74819271Y-48533392D01*
X75028995Y-49040963D01*
X75416994Y-49429640D01*
X75924199Y-49640249D01*
X76473392Y-49640729D01*
X76980963Y-49431005D01*
X77369640Y-49043006D01*
X77580249Y-48535801D01*
X77580251Y-48533392D01*
X84979271Y-48533392D01*
X85188995Y-49040963D01*
X85576994Y-49429640D01*
X86084199Y-49640249D01*
X86633392Y-49640729D01*
X86908597Y-49527017D01*
X90698107Y-53316528D01*
X90613891Y-53351325D01*
X90182838Y-53781626D01*
X89949266Y-54344129D01*
X89948735Y-54953199D01*
X90181325Y-55516109D01*
X90611626Y-55947162D01*
X90972000Y-56096803D01*
X90972000Y-59439580D01*
X89457167Y-60954413D01*
X89376288Y-60900371D01*
X88900000Y-60805631D01*
X88423712Y-60900371D01*
X88019935Y-61170166D01*
X87750140Y-61573943D01*
X87747296Y-61588243D01*
X87651954Y-61315680D01*
X87262036Y-60879268D01*
X86734791Y-60625291D01*
X86719026Y-60622642D01*
X86487000Y-60743783D01*
X86487000Y-62103000D01*
X86507000Y-62103000D01*
X86507000Y-62357000D01*
X86487000Y-62357000D01*
X86487000Y-63716217D01*
X86719026Y-63837358D01*
X86734791Y-63834709D01*
X87262036Y-63580732D01*
X87651954Y-63144320D01*
X87747296Y-62871757D01*
X87750140Y-62886057D01*
X88019935Y-63289834D01*
X88423712Y-63559629D01*
X88900000Y-63654369D01*
X89376288Y-63559629D01*
X89780065Y-63289834D01*
X90049860Y-62886057D01*
X90144600Y-62409769D01*
X90144600Y-62050231D01*
X90087126Y-61761294D01*
X91839210Y-60009210D01*
X91949331Y-59844403D01*
X91988000Y-59650000D01*
X91988000Y-57453199D01*
X92448735Y-57453199D01*
X92681325Y-58016109D01*
X93111626Y-58447162D01*
X93674129Y-58680734D01*
X94283199Y-58681265D01*
X94846109Y-58448675D01*
X95277162Y-58018374D01*
X95510734Y-57455871D01*
X95510736Y-57453199D01*
X97768735Y-57453199D01*
X98001325Y-58016109D01*
X98431626Y-58447162D01*
X98994129Y-58680734D01*
X99603199Y-58681265D01*
X100166109Y-58448675D01*
X100597162Y-58018374D01*
X100830734Y-57455871D01*
X100831265Y-56846801D01*
X100598675Y-56283891D01*
X100168374Y-55852838D01*
X99605871Y-55619266D01*
X98996801Y-55618735D01*
X98433891Y-55851325D01*
X98002838Y-56281626D01*
X97769266Y-56844129D01*
X97768735Y-57453199D01*
X95510736Y-57453199D01*
X95511265Y-56846801D01*
X95278675Y-56283891D01*
X94848374Y-55852838D01*
X94285871Y-55619266D01*
X93676801Y-55618735D01*
X93113891Y-55851325D01*
X92682838Y-56281626D01*
X92449266Y-56844129D01*
X92448735Y-57453199D01*
X91988000Y-57453199D01*
X91988000Y-56096643D01*
X92346109Y-55948675D01*
X92777162Y-55518374D01*
X93010734Y-54955871D01*
X93011265Y-54346801D01*
X92778675Y-53783891D01*
X92348374Y-53352838D01*
X91949666Y-53187280D01*
X91949331Y-53185597D01*
X91949331Y-53185596D01*
X91839210Y-53020789D01*
X87626987Y-48808567D01*
X87740249Y-48535801D01*
X87740276Y-48504233D01*
X88941697Y-48504233D01*
X89128655Y-48956705D01*
X89474534Y-49303189D01*
X89926679Y-49490935D01*
X90416253Y-49491363D01*
X90606397Y-49412797D01*
X96202810Y-55009210D01*
X96367616Y-55119331D01*
X96399870Y-55125746D01*
X96562020Y-55158000D01*
X100353357Y-55158000D01*
X100501325Y-55516109D01*
X100931626Y-55947162D01*
X101292000Y-56096803D01*
X101292000Y-58620000D01*
X101330669Y-58814403D01*
X101440790Y-58979210D01*
X104005536Y-61543956D01*
X104005536Y-63246000D01*
X104032103Y-63387190D01*
X104115546Y-63516865D01*
X104242866Y-63603859D01*
X104394000Y-63634464D01*
X106426000Y-63634464D01*
X106567190Y-63607897D01*
X106696865Y-63524454D01*
X106783859Y-63397134D01*
X106814464Y-63246000D01*
X106814464Y-63024137D01*
X106962172Y-63245197D01*
X107415391Y-63548029D01*
X107950000Y-63654369D01*
X108484609Y-63548029D01*
X108937828Y-63245197D01*
X109240660Y-62791978D01*
X109347000Y-62257369D01*
X109347000Y-62202631D01*
X109240660Y-61668022D01*
X109236550Y-61661870D01*
X112159210Y-58739210D01*
X112269331Y-58574404D01*
X112308000Y-58380000D01*
X112308000Y-57453199D01*
X112768735Y-57453199D01*
X113001325Y-58016109D01*
X113431626Y-58447162D01*
X113994129Y-58680734D01*
X114603199Y-58681265D01*
X115166109Y-58448675D01*
X115597162Y-58018374D01*
X115830734Y-57455871D01*
X115830736Y-57453199D01*
X118088735Y-57453199D01*
X118321325Y-58016109D01*
X118751626Y-58447162D01*
X119314129Y-58680734D01*
X119923199Y-58681265D01*
X120486109Y-58448675D01*
X120917162Y-58018374D01*
X121150734Y-57455871D01*
X121151265Y-56846801D01*
X120918675Y-56283891D01*
X120488374Y-55852838D01*
X119925871Y-55619266D01*
X119316801Y-55618735D01*
X118753891Y-55851325D01*
X118322838Y-56281626D01*
X118089266Y-56844129D01*
X118088735Y-57453199D01*
X115830736Y-57453199D01*
X115831265Y-56846801D01*
X115598675Y-56283891D01*
X115168374Y-55852838D01*
X114605871Y-55619266D01*
X113996801Y-55618735D01*
X113433891Y-55851325D01*
X113002838Y-56281626D01*
X112769266Y-56844129D01*
X112768735Y-57453199D01*
X112308000Y-57453199D01*
X112308000Y-56096643D01*
X112666109Y-55948675D01*
X113097162Y-55518374D01*
X113330734Y-54955871D01*
X113331265Y-54346801D01*
X113098675Y-53783891D01*
X112668374Y-53352838D01*
X112105871Y-53119266D01*
X111496801Y-53118735D01*
X110933891Y-53351325D01*
X110502838Y-53781626D01*
X110466810Y-53868390D01*
X105406987Y-48808567D01*
X105520249Y-48535801D01*
X105520251Y-48533392D01*
X106569271Y-48533392D01*
X106778995Y-49040963D01*
X107166994Y-49429640D01*
X107674199Y-49640249D01*
X108223392Y-49640729D01*
X108730963Y-49431005D01*
X109119640Y-49043006D01*
X109330249Y-48535801D01*
X109330251Y-48533392D01*
X116729271Y-48533392D01*
X116938995Y-49040963D01*
X117326994Y-49429640D01*
X117602000Y-49543832D01*
X117602000Y-50640000D01*
X117640669Y-50834403D01*
X117750790Y-50999210D01*
X120737858Y-53986279D01*
X120589266Y-54344129D01*
X120588735Y-54953199D01*
X120821325Y-55516109D01*
X121251626Y-55947162D01*
X121612000Y-56096803D01*
X121612000Y-59890000D01*
X121650669Y-60084403D01*
X121760790Y-60249210D01*
X123207936Y-61696356D01*
X123207936Y-63246000D01*
X123234503Y-63387190D01*
X123317946Y-63516865D01*
X123445266Y-63603859D01*
X123596400Y-63634464D01*
X125323600Y-63634464D01*
X125464790Y-63607897D01*
X125594465Y-63524454D01*
X125681459Y-63397134D01*
X125712064Y-63246000D01*
X125712064Y-63148817D01*
X126097964Y-63580732D01*
X126625209Y-63834709D01*
X126640974Y-63837358D01*
X126873000Y-63716217D01*
X126873000Y-62357000D01*
X126853000Y-62357000D01*
X126853000Y-62103000D01*
X126873000Y-62103000D01*
X126873000Y-60743783D01*
X126640974Y-60622642D01*
X126625209Y-60625291D01*
X126097964Y-60879268D01*
X125712064Y-61311183D01*
X125712064Y-61214000D01*
X125685497Y-61072810D01*
X125602054Y-60943135D01*
X125474734Y-60856141D01*
X125323600Y-60825536D01*
X123773956Y-60825536D01*
X122628000Y-59679580D01*
X122628000Y-58411025D01*
X126038581Y-58411025D01*
X126155601Y-58693446D01*
X126819663Y-58945018D01*
X127529448Y-58923314D01*
X128084399Y-58693446D01*
X128201419Y-58411025D01*
X127120000Y-57329605D01*
X126038581Y-58411025D01*
X122628000Y-58411025D01*
X122628000Y-56849663D01*
X125324982Y-56849663D01*
X125346686Y-57559448D01*
X125576554Y-58114399D01*
X125858975Y-58231419D01*
X126940395Y-57150000D01*
X127299605Y-57150000D01*
X128381025Y-58231419D01*
X128663446Y-58114399D01*
X128915018Y-57450337D01*
X128893314Y-56740552D01*
X128663446Y-56185601D01*
X128381025Y-56068581D01*
X127299605Y-57150000D01*
X126940395Y-57150000D01*
X125858975Y-56068581D01*
X125576554Y-56185601D01*
X125324982Y-56849663D01*
X122628000Y-56849663D01*
X122628000Y-56096643D01*
X122986109Y-55948675D01*
X123045913Y-55888975D01*
X126038581Y-55888975D01*
X127120000Y-56970395D01*
X128201419Y-55888975D01*
X128084399Y-55606554D01*
X127420337Y-55354982D01*
X126710552Y-55376686D01*
X126155601Y-55606554D01*
X126038581Y-55888975D01*
X123045913Y-55888975D01*
X123417162Y-55518374D01*
X123650734Y-54955871D01*
X123651265Y-54346801D01*
X123418675Y-53783891D01*
X122988374Y-53352838D01*
X122425871Y-53119266D01*
X121816801Y-53118735D01*
X121456167Y-53267746D01*
X118618000Y-50429580D01*
X118618000Y-49543791D01*
X118890963Y-49431005D01*
X119279640Y-49043006D01*
X119490249Y-48535801D01*
X119490251Y-48533392D01*
X120539271Y-48533392D01*
X120748995Y-49040963D01*
X121136994Y-49429640D01*
X121644199Y-49640249D01*
X122193392Y-49640729D01*
X122468597Y-49527017D01*
X127950790Y-55009210D01*
X128115597Y-55119331D01*
X128310000Y-55158000D01*
X130673357Y-55158000D01*
X130821325Y-55516109D01*
X131251626Y-55947162D01*
X131612000Y-56096803D01*
X131612000Y-59439580D01*
X130097167Y-60954413D01*
X130016288Y-60900371D01*
X129540000Y-60805631D01*
X129063712Y-60900371D01*
X128659935Y-61170166D01*
X128390140Y-61573943D01*
X128387296Y-61588243D01*
X128291954Y-61315680D01*
X127902036Y-60879268D01*
X127374791Y-60625291D01*
X127359026Y-60622642D01*
X127127000Y-60743783D01*
X127127000Y-62103000D01*
X127147000Y-62103000D01*
X127147000Y-62357000D01*
X127127000Y-62357000D01*
X127127000Y-63716217D01*
X127359026Y-63837358D01*
X127374791Y-63834709D01*
X127902036Y-63580732D01*
X128291954Y-63144320D01*
X128387296Y-62871757D01*
X128390140Y-62886057D01*
X128659935Y-63289834D01*
X129063712Y-63559629D01*
X129540000Y-63654369D01*
X130016288Y-63559629D01*
X130420065Y-63289834D01*
X130689860Y-62886057D01*
X130784600Y-62409769D01*
X130784600Y-62050231D01*
X130727126Y-61761294D01*
X132479210Y-60009210D01*
X132589331Y-59844403D01*
X132628000Y-59650000D01*
X132628000Y-56096643D01*
X132986109Y-55948675D01*
X133417162Y-55518374D01*
X133650734Y-54955871D01*
X133651265Y-54346801D01*
X133418675Y-53783891D01*
X132988374Y-53352838D01*
X132425871Y-53119266D01*
X131816801Y-53118735D01*
X131253891Y-53351325D01*
X130822838Y-53781626D01*
X130673197Y-54142000D01*
X128520420Y-54142000D01*
X123186987Y-48808567D01*
X123300249Y-48535801D01*
X123300729Y-47986608D01*
X123091005Y-47479037D01*
X122703006Y-47090360D01*
X122195801Y-46879751D01*
X121646608Y-46879271D01*
X121139037Y-47088995D01*
X120750360Y-47476994D01*
X120539751Y-47984199D01*
X120539271Y-48533392D01*
X119490251Y-48533392D01*
X119490729Y-47986608D01*
X119281005Y-47479037D01*
X118893006Y-47090360D01*
X118385801Y-46879751D01*
X117836608Y-46879271D01*
X117329037Y-47088995D01*
X116940360Y-47476994D01*
X116729751Y-47984199D01*
X116729271Y-48533392D01*
X109330251Y-48533392D01*
X109330729Y-47986608D01*
X109121005Y-47479037D01*
X108733006Y-47090360D01*
X108225801Y-46879751D01*
X107676608Y-46879271D01*
X107169037Y-47088995D01*
X106780360Y-47476994D01*
X106569751Y-47984199D01*
X106569271Y-48533392D01*
X105520251Y-48533392D01*
X105520729Y-47986608D01*
X105311005Y-47479037D01*
X104923006Y-47090360D01*
X104415801Y-46879751D01*
X103866608Y-46879271D01*
X103359037Y-47088995D01*
X102970360Y-47476994D01*
X102759751Y-47984199D01*
X102759271Y-48533392D01*
X102968995Y-49040963D01*
X103356994Y-49429640D01*
X103864199Y-49640249D01*
X104413392Y-49640729D01*
X104688597Y-49527017D01*
X110170790Y-55009210D01*
X110335597Y-55119331D01*
X110337539Y-55119717D01*
X110501325Y-55516109D01*
X110931626Y-55947162D01*
X111292000Y-56096803D01*
X111292000Y-58169580D01*
X108523574Y-60938006D01*
X108484609Y-60911971D01*
X107950000Y-60805631D01*
X107415391Y-60911971D01*
X106962172Y-61214803D01*
X106814464Y-61435863D01*
X106814464Y-61214000D01*
X106787897Y-61072810D01*
X106704454Y-60943135D01*
X106577134Y-60856141D01*
X106426000Y-60825536D01*
X104723956Y-60825536D01*
X102308000Y-58409580D01*
X102308000Y-57453199D01*
X105268735Y-57453199D01*
X105501325Y-58016109D01*
X105931626Y-58447162D01*
X106494129Y-58680734D01*
X107103199Y-58681265D01*
X107666109Y-58448675D01*
X108097162Y-58018374D01*
X108330734Y-57455871D01*
X108331265Y-56846801D01*
X108098675Y-56283891D01*
X107668374Y-55852838D01*
X107105871Y-55619266D01*
X106496801Y-55618735D01*
X105933891Y-55851325D01*
X105502838Y-56281626D01*
X105269266Y-56844129D01*
X105268735Y-57453199D01*
X102308000Y-57453199D01*
X102308000Y-56096643D01*
X102666109Y-55948675D01*
X103097162Y-55518374D01*
X103330734Y-54955871D01*
X103331265Y-54346801D01*
X103098675Y-53783891D01*
X102668374Y-53352838D01*
X102105871Y-53119266D01*
X101496801Y-53118735D01*
X100933891Y-53351325D01*
X100502838Y-53781626D01*
X100353197Y-54142000D01*
X96772440Y-54142000D01*
X91324870Y-48694430D01*
X91402955Y-48506381D01*
X91403383Y-48016807D01*
X91216425Y-47564335D01*
X90870546Y-47217851D01*
X90680540Y-47138954D01*
X90680540Y-44657880D01*
X92158420Y-43180000D01*
X92775863Y-43180000D01*
X92865761Y-43631949D01*
X93121770Y-44015093D01*
X93504914Y-44271102D01*
X93956863Y-44361000D01*
X94003137Y-44361000D01*
X94455086Y-44271102D01*
X94838230Y-44015093D01*
X95094239Y-43631949D01*
X95184137Y-43180000D01*
X95094239Y-42728051D01*
X94838230Y-42344907D01*
X94455086Y-42088898D01*
X94003137Y-41999000D01*
X93956863Y-41999000D01*
X93504914Y-42088898D01*
X93121770Y-42344907D01*
X92865761Y-42728051D01*
X92775863Y-43180000D01*
X92158420Y-43180000D01*
X93590329Y-41748092D01*
X93956863Y-41821000D01*
X94003137Y-41821000D01*
X94455086Y-41731102D01*
X94838230Y-41475093D01*
X95094239Y-41091949D01*
X95184137Y-40640000D01*
X95094239Y-40188051D01*
X94838230Y-39804907D01*
X94455086Y-39548898D01*
X94003137Y-39459000D01*
X93956863Y-39459000D01*
X93504914Y-39548898D01*
X93121770Y-39804907D01*
X92865761Y-40188051D01*
X92775863Y-40640000D01*
X92856448Y-41045131D01*
X89813330Y-44088250D01*
X89703209Y-44253057D01*
X89664540Y-44447460D01*
X89664540Y-47138878D01*
X89476355Y-47216635D01*
X89129871Y-47562514D01*
X88942125Y-48014659D01*
X88941697Y-48504233D01*
X87740276Y-48504233D01*
X87740729Y-47986608D01*
X87531005Y-47479037D01*
X87143006Y-47090360D01*
X86635801Y-46879751D01*
X86086608Y-46879271D01*
X85579037Y-47088995D01*
X85190360Y-47476994D01*
X84979751Y-47984199D01*
X84979271Y-48533392D01*
X77580251Y-48533392D01*
X77580729Y-47986608D01*
X77371005Y-47479037D01*
X76983006Y-47090360D01*
X76475801Y-46879751D01*
X75926608Y-46879271D01*
X75419037Y-47088995D01*
X75030360Y-47476994D01*
X74819751Y-47984199D01*
X74819271Y-48533392D01*
X73770251Y-48533392D01*
X73770729Y-47986608D01*
X73561005Y-47479037D01*
X73173006Y-47090360D01*
X72665801Y-46879751D01*
X72116608Y-46879271D01*
X71609037Y-47088995D01*
X71220360Y-47476994D01*
X71009751Y-47984199D01*
X71009271Y-48533392D01*
X70612000Y-48533392D01*
X70612000Y-44799039D01*
X70998096Y-44799039D01*
X71158959Y-45187423D01*
X71534866Y-45602389D01*
X72040959Y-45841914D01*
X72263000Y-45720629D01*
X72263000Y-44577000D01*
X72517000Y-44577000D01*
X72517000Y-45720629D01*
X72739041Y-45841914D01*
X73245134Y-45602389D01*
X73621041Y-45187423D01*
X73781904Y-44799039D01*
X73659915Y-44577000D01*
X72517000Y-44577000D01*
X72263000Y-44577000D01*
X71120085Y-44577000D01*
X70998096Y-44799039D01*
X70612000Y-44799039D01*
X70612000Y-44450000D01*
X78805863Y-44450000D01*
X78895761Y-44901949D01*
X79151770Y-45285093D01*
X79534914Y-45541102D01*
X79986863Y-45631000D01*
X80033137Y-45631000D01*
X80485086Y-45541102D01*
X80868230Y-45285093D01*
X81124239Y-44901949D01*
X81214137Y-44450000D01*
X81124239Y-43998051D01*
X80868230Y-43614907D01*
X80485086Y-43358898D01*
X80033137Y-43269000D01*
X79986863Y-43269000D01*
X79534914Y-43358898D01*
X79151770Y-43614907D01*
X78895761Y-43998051D01*
X78805863Y-44450000D01*
X70612000Y-44450000D01*
X70612000Y-44100961D01*
X70998096Y-44100961D01*
X71120085Y-44323000D01*
X72263000Y-44323000D01*
X72263000Y-44303000D01*
X72517000Y-44303000D01*
X72517000Y-44323000D01*
X73659915Y-44323000D01*
X73781904Y-44100961D01*
X73621041Y-43712577D01*
X73245134Y-43297611D01*
X72739041Y-43058086D01*
X72517002Y-43179370D01*
X72517002Y-43070340D01*
X72865086Y-43001102D01*
X73248230Y-42745093D01*
X73504239Y-42361949D01*
X73594137Y-41910000D01*
X73504239Y-41458051D01*
X73248230Y-41074907D01*
X72865086Y-40818898D01*
X72413137Y-40729000D01*
X72366863Y-40729000D01*
X71914914Y-40818898D01*
X71531770Y-41074907D01*
X71275761Y-41458051D01*
X71185863Y-41910000D01*
X71275761Y-42361949D01*
X71531770Y-42745093D01*
X71914914Y-43001102D01*
X72262998Y-43070340D01*
X72262998Y-43179370D01*
X72040959Y-43058086D01*
X71534866Y-43297611D01*
X71158959Y-43712577D01*
X70998096Y-44100961D01*
X70612000Y-44100961D01*
X70612000Y-34290000D01*
X71185863Y-34290000D01*
X71275761Y-34741949D01*
X71531770Y-35125093D01*
X71882000Y-35359110D01*
X71882000Y-35760890D01*
X71531770Y-35994907D01*
X71275761Y-36378051D01*
X71185863Y-36830000D01*
X71275761Y-37281949D01*
X71531770Y-37665093D01*
X71882000Y-37899110D01*
X71882000Y-38300890D01*
X71531770Y-38534907D01*
X71275761Y-38918051D01*
X71185863Y-39370000D01*
X71275761Y-39821949D01*
X71531770Y-40205093D01*
X71914914Y-40461102D01*
X72366863Y-40551000D01*
X72413137Y-40551000D01*
X72865086Y-40461102D01*
X73248230Y-40205093D01*
X73504239Y-39821949D01*
X73594137Y-39370000D01*
X73504239Y-38918051D01*
X73248230Y-38534907D01*
X72898000Y-38300890D01*
X72898000Y-37899110D01*
X73248230Y-37665093D01*
X73504239Y-37281949D01*
X73594137Y-36830000D01*
X78805863Y-36830000D01*
X78895761Y-37281949D01*
X79151770Y-37665093D01*
X79502000Y-37899110D01*
X79502000Y-38300890D01*
X79151770Y-38534907D01*
X78895761Y-38918051D01*
X78805863Y-39370000D01*
X78895761Y-39821949D01*
X79151770Y-40205093D01*
X79502000Y-40439110D01*
X79502000Y-40840890D01*
X79151770Y-41074907D01*
X78895761Y-41458051D01*
X78805863Y-41910000D01*
X78895761Y-42361949D01*
X79151770Y-42745093D01*
X79534914Y-43001102D01*
X79986863Y-43091000D01*
X80033137Y-43091000D01*
X80485086Y-43001102D01*
X80868230Y-42745093D01*
X81124239Y-42361949D01*
X81214137Y-41910000D01*
X81124239Y-41458051D01*
X80868230Y-41074907D01*
X80518000Y-40840890D01*
X80518000Y-40439110D01*
X80868230Y-40205093D01*
X81124239Y-39821949D01*
X81159756Y-39643392D01*
X82439271Y-39643392D01*
X82648995Y-40150963D01*
X83036994Y-40539640D01*
X83544199Y-40750249D01*
X84093392Y-40750729D01*
X84600963Y-40541005D01*
X84989640Y-40153006D01*
X85200249Y-39645801D01*
X85200729Y-39096608D01*
X84991005Y-38589037D01*
X84603006Y-38200360D01*
X84095801Y-37989751D01*
X83546608Y-37989271D01*
X83039037Y-38198995D01*
X82650360Y-38586994D01*
X82439751Y-39094199D01*
X82439271Y-39643392D01*
X81159756Y-39643392D01*
X81214137Y-39370000D01*
X81124239Y-38918051D01*
X80868230Y-38534907D01*
X80518000Y-38300890D01*
X80518000Y-37899110D01*
X80868230Y-37665093D01*
X81124239Y-37281949D01*
X81130417Y-37250890D01*
X88934446Y-37250890D01*
X88934446Y-38950150D01*
X88961013Y-39091340D01*
X89044456Y-39221015D01*
X89171776Y-39308009D01*
X89322910Y-39338614D01*
X91022170Y-39338614D01*
X91163360Y-39312047D01*
X91293035Y-39228604D01*
X91380029Y-39101284D01*
X91410634Y-38950150D01*
X91410634Y-38608000D01*
X92791536Y-38608000D01*
X92791536Y-38900000D01*
X92818103Y-39041190D01*
X92901546Y-39170865D01*
X93028866Y-39257859D01*
X93180000Y-39288464D01*
X94450044Y-39288464D01*
X96012000Y-40850421D01*
X96012000Y-45509579D01*
X94528567Y-46993013D01*
X94255801Y-46879751D01*
X93706608Y-46879271D01*
X93199037Y-47088995D01*
X92810360Y-47476994D01*
X92599751Y-47984199D01*
X92599271Y-48533392D01*
X92808995Y-49040963D01*
X93196994Y-49429640D01*
X93704199Y-49640249D01*
X94253392Y-49640729D01*
X94760963Y-49431005D01*
X95149640Y-49043006D01*
X95360249Y-48535801D01*
X95360729Y-47986608D01*
X95247017Y-47711404D01*
X96793231Y-46165190D01*
X134556500Y-46165190D01*
X134556500Y-46704250D01*
X134715250Y-46863000D01*
X135763000Y-46863000D01*
X135763000Y-45815250D01*
X136017000Y-45815250D01*
X136017000Y-46863000D01*
X137064750Y-46863000D01*
X137223500Y-46704250D01*
X137223500Y-46165190D01*
X137126827Y-45931801D01*
X136948198Y-45753173D01*
X136714809Y-45656500D01*
X136175750Y-45656500D01*
X136017000Y-45815250D01*
X135763000Y-45815250D01*
X135604250Y-45656500D01*
X135065191Y-45656500D01*
X134831802Y-45753173D01*
X134653173Y-45931801D01*
X134556500Y-46165190D01*
X96793231Y-46165190D01*
X96879210Y-46079211D01*
X96976381Y-45933784D01*
X96989331Y-45914403D01*
X97028000Y-45720000D01*
X97028000Y-44723392D01*
X104029271Y-44723392D01*
X104238995Y-45230963D01*
X104626994Y-45619640D01*
X105134199Y-45830249D01*
X105683392Y-45830729D01*
X106190963Y-45621005D01*
X106579640Y-45233006D01*
X106790249Y-44725801D01*
X106790251Y-44723392D01*
X107839271Y-44723392D01*
X108048995Y-45230963D01*
X108436994Y-45619640D01*
X108944199Y-45830249D01*
X109493392Y-45830729D01*
X110000963Y-45621005D01*
X110273427Y-45349016D01*
X121240590Y-45349016D01*
X121296271Y-45579611D01*
X121779078Y-45747622D01*
X122289428Y-45718083D01*
X122623729Y-45579611D01*
X122679410Y-45349016D01*
X121960000Y-44629605D01*
X121240590Y-45349016D01*
X110273427Y-45349016D01*
X110389640Y-45233006D01*
X110600249Y-44725801D01*
X110600648Y-44269078D01*
X120662378Y-44269078D01*
X120691917Y-44779428D01*
X120830389Y-45113729D01*
X121060984Y-45169410D01*
X121780395Y-44450000D01*
X122139605Y-44450000D01*
X122859016Y-45169410D01*
X123089611Y-45113729D01*
X123249528Y-44654179D01*
X123428822Y-44654179D01*
X123585451Y-45033251D01*
X123875223Y-45323529D01*
X124254022Y-45480820D01*
X124664179Y-45481178D01*
X125043251Y-45324549D01*
X125333529Y-45034777D01*
X125490820Y-44655978D01*
X125491178Y-44245821D01*
X125334549Y-43866749D01*
X125044777Y-43576471D01*
X124665978Y-43419180D01*
X124255821Y-43418822D01*
X123876749Y-43575451D01*
X123586471Y-43865223D01*
X123429180Y-44244022D01*
X123428822Y-44654179D01*
X123249528Y-44654179D01*
X123257622Y-44630922D01*
X123228083Y-44120572D01*
X123089611Y-43786271D01*
X122859016Y-43730590D01*
X122139605Y-44450000D01*
X121780395Y-44450000D01*
X121060984Y-43730590D01*
X120830389Y-43786271D01*
X120662378Y-44269078D01*
X110600648Y-44269078D01*
X110600729Y-44176608D01*
X110391005Y-43669037D01*
X110273158Y-43550984D01*
X121240590Y-43550984D01*
X121960000Y-44270395D01*
X122679410Y-43550984D01*
X122623729Y-43320389D01*
X122140922Y-43152378D01*
X121630572Y-43181917D01*
X121296271Y-43320389D01*
X121240590Y-43550984D01*
X110273158Y-43550984D01*
X110003006Y-43280360D01*
X109495801Y-43069751D01*
X108946608Y-43069271D01*
X108439037Y-43278995D01*
X108050360Y-43666994D01*
X107839751Y-44174199D01*
X107839271Y-44723392D01*
X106790251Y-44723392D01*
X106790729Y-44176608D01*
X106581005Y-43669037D01*
X106193006Y-43280360D01*
X105685801Y-43069751D01*
X105136608Y-43069271D01*
X104629037Y-43278995D01*
X104240360Y-43666994D01*
X104029751Y-44174199D01*
X104029271Y-44723392D01*
X97028000Y-44723392D01*
X97028000Y-43529039D01*
X100208096Y-43529039D01*
X100368959Y-43917423D01*
X100744866Y-44332389D01*
X101250959Y-44571914D01*
X101473000Y-44450629D01*
X101473000Y-43307000D01*
X101727000Y-43307000D01*
X101727000Y-44450629D01*
X101949041Y-44571914D01*
X102455134Y-44332389D01*
X102831041Y-43917423D01*
X102991904Y-43529039D01*
X102869915Y-43307000D01*
X101727000Y-43307000D01*
X101473000Y-43307000D01*
X100330085Y-43307000D01*
X100208096Y-43529039D01*
X97028000Y-43529039D01*
X97028000Y-42830961D01*
X100208096Y-42830961D01*
X100330085Y-43053000D01*
X101473000Y-43053000D01*
X101473000Y-43033000D01*
X101727000Y-43033000D01*
X101727000Y-43053000D01*
X102869915Y-43053000D01*
X102991904Y-42830961D01*
X102831041Y-42442577D01*
X102455134Y-42027611D01*
X101949041Y-41788086D01*
X101727002Y-41909370D01*
X101727002Y-41800340D01*
X102075086Y-41731102D01*
X102458230Y-41475093D01*
X102714239Y-41091949D01*
X102734709Y-40989039D01*
X117988096Y-40989039D01*
X118148959Y-41377423D01*
X118524866Y-41792389D01*
X119030959Y-42031914D01*
X119253000Y-41910629D01*
X119253000Y-40767000D01*
X119507000Y-40767000D01*
X119507000Y-41910629D01*
X119729041Y-42031914D01*
X120235134Y-41792389D01*
X120611041Y-41377423D01*
X120771904Y-40989039D01*
X120649915Y-40767000D01*
X119507000Y-40767000D01*
X119253000Y-40767000D01*
X118110085Y-40767000D01*
X117988096Y-40989039D01*
X102734709Y-40989039D01*
X102804137Y-40640000D01*
X125795863Y-40640000D01*
X125885761Y-41091949D01*
X126141770Y-41475093D01*
X126524914Y-41731102D01*
X126976863Y-41821000D01*
X127023137Y-41821000D01*
X127475086Y-41731102D01*
X127858230Y-41475093D01*
X128114239Y-41091949D01*
X128204137Y-40640000D01*
X128114239Y-40188051D01*
X127858230Y-39804907D01*
X127690659Y-39692939D01*
X130449037Y-39692939D01*
X130696771Y-40292499D01*
X131155088Y-40751617D01*
X131754215Y-41000396D01*
X132402939Y-41000963D01*
X133002499Y-40753229D01*
X133461617Y-40294912D01*
X133710396Y-39695785D01*
X133710963Y-39047061D01*
X133463229Y-38447501D01*
X133004912Y-37988383D01*
X132405785Y-37739604D01*
X131757061Y-37739037D01*
X131157501Y-37986771D01*
X130698383Y-38445088D01*
X130449604Y-39044215D01*
X130449037Y-39692939D01*
X127690659Y-39692939D01*
X127475086Y-39548898D01*
X127023137Y-39459000D01*
X126976863Y-39459000D01*
X126524914Y-39548898D01*
X126141770Y-39804907D01*
X125885761Y-40188051D01*
X125795863Y-40640000D01*
X102804137Y-40640000D01*
X102723552Y-40234868D01*
X105769210Y-37189210D01*
X105879331Y-37024403D01*
X105918000Y-36830000D01*
X105918000Y-35573791D01*
X106190963Y-35461005D01*
X106579640Y-35073006D01*
X106790249Y-34565801D01*
X106790729Y-34016608D01*
X106581005Y-33509037D01*
X106193006Y-33120360D01*
X105685801Y-32909751D01*
X105136608Y-32909271D01*
X104629037Y-33118995D01*
X104240360Y-33506994D01*
X104029751Y-34014199D01*
X104029271Y-34563392D01*
X104238995Y-35070963D01*
X104626994Y-35459640D01*
X104902000Y-35573832D01*
X104902000Y-36619580D01*
X101989672Y-39531908D01*
X101623137Y-39459000D01*
X101576863Y-39459000D01*
X101124914Y-39548898D01*
X100741770Y-39804907D01*
X100485761Y-40188051D01*
X100395863Y-40640000D01*
X100485761Y-41091949D01*
X100741770Y-41475093D01*
X101124914Y-41731102D01*
X101472998Y-41800340D01*
X101472998Y-41909370D01*
X101250959Y-41788086D01*
X100744866Y-42027611D01*
X100368959Y-42442577D01*
X100208096Y-42830961D01*
X97028000Y-42830961D01*
X97028000Y-40640000D01*
X96989331Y-40445597D01*
X96952790Y-40390910D01*
X96879210Y-40280789D01*
X95168464Y-38570044D01*
X95168464Y-38100000D01*
X100395863Y-38100000D01*
X100485761Y-38551949D01*
X100741770Y-38935093D01*
X101124914Y-39191102D01*
X101576863Y-39281000D01*
X101623137Y-39281000D01*
X102075086Y-39191102D01*
X102458230Y-38935093D01*
X102714239Y-38551949D01*
X102804137Y-38100000D01*
X102714239Y-37648051D01*
X102458230Y-37264907D01*
X102075086Y-37008898D01*
X101623137Y-36919000D01*
X101576863Y-36919000D01*
X101124914Y-37008898D01*
X100741770Y-37264907D01*
X100485761Y-37648051D01*
X100395863Y-38100000D01*
X95168464Y-38100000D01*
X95168464Y-37300000D01*
X95141897Y-37158810D01*
X95058454Y-37029135D01*
X94931134Y-36942141D01*
X94780000Y-36911536D01*
X93180000Y-36911536D01*
X93038810Y-36938103D01*
X92909135Y-37021546D01*
X92822141Y-37148866D01*
X92791536Y-37300000D01*
X92791536Y-37592000D01*
X91410634Y-37592000D01*
X91410634Y-37250890D01*
X91384067Y-37109700D01*
X91300624Y-36980025D01*
X91173304Y-36893031D01*
X91022170Y-36862426D01*
X89322910Y-36862426D01*
X89181720Y-36888993D01*
X89052045Y-36972436D01*
X88965051Y-37099756D01*
X88934446Y-37250890D01*
X81130417Y-37250890D01*
X81214137Y-36830000D01*
X81124239Y-36378051D01*
X80868230Y-35994907D01*
X80485086Y-35738898D01*
X80033137Y-35649000D01*
X79986863Y-35649000D01*
X79534914Y-35738898D01*
X79151770Y-35994907D01*
X78895761Y-36378051D01*
X78805863Y-36830000D01*
X73594137Y-36830000D01*
X73504239Y-36378051D01*
X73248230Y-35994907D01*
X72898000Y-35760890D01*
X72898000Y-35359110D01*
X73248230Y-35125093D01*
X73504239Y-34741949D01*
X73594137Y-34290000D01*
X73504239Y-33838051D01*
X73248230Y-33454907D01*
X72865086Y-33198898D01*
X72413137Y-33109000D01*
X72366863Y-33109000D01*
X71914914Y-33198898D01*
X71531770Y-33454907D01*
X71275761Y-33838051D01*
X71185863Y-34290000D01*
X70612000Y-34290000D01*
X70612000Y-31750000D01*
X71185863Y-31750000D01*
X71275761Y-32201949D01*
X71531770Y-32585093D01*
X71914914Y-32841102D01*
X72366863Y-32931000D01*
X72413137Y-32931000D01*
X72865086Y-32841102D01*
X73248230Y-32585093D01*
X73504239Y-32201949D01*
X73594137Y-31750000D01*
X78805863Y-31750000D01*
X78895761Y-32201949D01*
X79151770Y-32585093D01*
X79502000Y-32819110D01*
X79502000Y-33220890D01*
X79151770Y-33454907D01*
X78895761Y-33838051D01*
X78805863Y-34290000D01*
X78895761Y-34741949D01*
X79151770Y-35125093D01*
X79534914Y-35381102D01*
X79986863Y-35471000D01*
X80033137Y-35471000D01*
X80485086Y-35381102D01*
X80868230Y-35125093D01*
X81124239Y-34741949D01*
X81214137Y-34290000D01*
X81124239Y-33838051D01*
X81105751Y-33810381D01*
X88289224Y-33810381D01*
X88326418Y-34025532D01*
X88754880Y-34168491D01*
X89205435Y-34136602D01*
X89473582Y-34025532D01*
X89510776Y-33810381D01*
X93369224Y-33810381D01*
X93406418Y-34025532D01*
X93834880Y-34168491D01*
X94285435Y-34136602D01*
X94553582Y-34025532D01*
X94590776Y-33810381D01*
X93980000Y-33199605D01*
X93369224Y-33810381D01*
X89510776Y-33810381D01*
X88900000Y-33199605D01*
X88289224Y-33810381D01*
X81105751Y-33810381D01*
X80868230Y-33454907D01*
X80518000Y-33220890D01*
X80518000Y-32874880D01*
X87751509Y-32874880D01*
X87783398Y-33325435D01*
X87894468Y-33593582D01*
X88109619Y-33630776D01*
X88720395Y-33020000D01*
X88109619Y-32409224D01*
X87894468Y-32446418D01*
X87751509Y-32874880D01*
X80518000Y-32874880D01*
X80518000Y-32819110D01*
X80868230Y-32585093D01*
X81086787Y-32258000D01*
X81280000Y-32258000D01*
X81474403Y-32219331D01*
X81639210Y-32109210D01*
X83271433Y-30476987D01*
X83544199Y-30590249D01*
X84093392Y-30590729D01*
X84600963Y-30381005D01*
X84989640Y-29993006D01*
X85103832Y-29718000D01*
X88436162Y-29718000D01*
X88401391Y-29732367D01*
X88153238Y-29980087D01*
X88018774Y-30303914D01*
X88018468Y-30654548D01*
X88152367Y-30978609D01*
X88400087Y-31226762D01*
X88723914Y-31361226D01*
X89074548Y-31361532D01*
X89398609Y-31227633D01*
X89638661Y-30988000D01*
X89706162Y-30988000D01*
X89671391Y-31002367D01*
X89423238Y-31250087D01*
X89288774Y-31573914D01*
X89288468Y-31924548D01*
X89301962Y-31957206D01*
X89045120Y-31871509D01*
X88594565Y-31903398D01*
X88326418Y-32014468D01*
X88289224Y-32229619D01*
X88900000Y-32840395D01*
X88914143Y-32826253D01*
X89093748Y-33005858D01*
X89079605Y-33020000D01*
X89690381Y-33630776D01*
X89905532Y-33593582D01*
X90048491Y-33165120D01*
X90016602Y-32714565D01*
X89979624Y-32625292D01*
X89993914Y-32631226D01*
X90344548Y-32631532D01*
X90668609Y-32497633D01*
X90916762Y-32249913D01*
X91051226Y-31926086D01*
X91051532Y-31575452D01*
X90917633Y-31251391D01*
X90669913Y-31003238D01*
X90633216Y-30988000D01*
X91229580Y-30988000D01*
X92350790Y-32109210D01*
X92515596Y-32219331D01*
X92547850Y-32225746D01*
X92710000Y-32258000D01*
X93108392Y-32258000D01*
X93073392Y-32293000D01*
X93189616Y-32409224D01*
X92974468Y-32446418D01*
X92831509Y-32874880D01*
X92863398Y-33325435D01*
X92974468Y-33593582D01*
X93189619Y-33630776D01*
X93800395Y-33020000D01*
X93786253Y-33005858D01*
X93965858Y-32826253D01*
X93980000Y-32840395D01*
X93994143Y-32826253D01*
X94173748Y-33005858D01*
X94159605Y-33020000D01*
X94770381Y-33630776D01*
X94985532Y-33593582D01*
X95128491Y-33165120D01*
X95096602Y-32714565D01*
X95059624Y-32625292D01*
X95073914Y-32631226D01*
X95413101Y-32631522D01*
X95525790Y-32744211D01*
X95690597Y-32854331D01*
X95885000Y-32893000D01*
X107104580Y-32893000D01*
X107953013Y-33741433D01*
X107839751Y-34014199D01*
X107839271Y-34563392D01*
X108048995Y-35070963D01*
X108436994Y-35459640D01*
X108944199Y-35670249D01*
X109493392Y-35670729D01*
X110000963Y-35461005D01*
X110389640Y-35073006D01*
X110600249Y-34565801D01*
X110600729Y-34016608D01*
X110391005Y-33509037D01*
X110003006Y-33120360D01*
X109495801Y-32909751D01*
X108946608Y-32909271D01*
X108671403Y-33022983D01*
X107674210Y-32025790D01*
X107509403Y-31915669D01*
X107315000Y-31877000D01*
X99942075Y-31877000D01*
X100032557Y-31632163D01*
X99060000Y-30659605D01*
X98087443Y-31632163D01*
X98177925Y-31877000D01*
X96131269Y-31877000D01*
X96131532Y-31575452D01*
X95997633Y-31251391D01*
X95749913Y-31003238D01*
X95426086Y-30868774D01*
X95075452Y-30868468D01*
X94751391Y-31002367D01*
X94511339Y-31242000D01*
X94443838Y-31242000D01*
X94478609Y-31227633D01*
X94726762Y-30979913D01*
X94861226Y-30656086D01*
X94861532Y-30305452D01*
X94824399Y-30215582D01*
X97414599Y-30215582D01*
X97438659Y-30865377D01*
X97641035Y-31353958D01*
X97907837Y-31452557D01*
X98880395Y-30480000D01*
X99239605Y-30480000D01*
X100212163Y-31452557D01*
X100478965Y-31353958D01*
X100702067Y-30753392D01*
X107839271Y-30753392D01*
X108048995Y-31260963D01*
X108436994Y-31649640D01*
X108944199Y-31860249D01*
X109493392Y-31860729D01*
X110000963Y-31651005D01*
X110389640Y-31263006D01*
X110600249Y-30755801D01*
X110600729Y-30206608D01*
X110487017Y-29931404D01*
X110636921Y-29781500D01*
X111943036Y-29781500D01*
X111943036Y-31178500D01*
X111969603Y-31319690D01*
X112053046Y-31449365D01*
X112180366Y-31536359D01*
X112331500Y-31566964D01*
X112522000Y-31566964D01*
X112522000Y-31933036D01*
X112331500Y-31933036D01*
X112190310Y-31959603D01*
X112060635Y-32043046D01*
X111973641Y-32170366D01*
X111943036Y-32321500D01*
X111943036Y-33718500D01*
X111969603Y-33859690D01*
X112053046Y-33989365D01*
X112180366Y-34076359D01*
X112331500Y-34106964D01*
X112522000Y-34106964D01*
X112522000Y-34473036D01*
X112331500Y-34473036D01*
X112190310Y-34499603D01*
X112060635Y-34583046D01*
X111973641Y-34710366D01*
X111943036Y-34861500D01*
X111943036Y-36258500D01*
X111969603Y-36399690D01*
X112053046Y-36529365D01*
X112180366Y-36616359D01*
X112331500Y-36646964D01*
X113728500Y-36646964D01*
X113869690Y-36620397D01*
X113999365Y-36536954D01*
X114086359Y-36409634D01*
X114116964Y-36258500D01*
X114116964Y-34861500D01*
X114090397Y-34720310D01*
X114006954Y-34590635D01*
X113879634Y-34503641D01*
X113728500Y-34473036D01*
X113538000Y-34473036D01*
X113538000Y-34106964D01*
X113728500Y-34106964D01*
X113869690Y-34080397D01*
X113999365Y-33996954D01*
X114086359Y-33869634D01*
X114116964Y-33718500D01*
X114116964Y-32321500D01*
X114090397Y-32180310D01*
X114006954Y-32050635D01*
X113879634Y-31963641D01*
X113728500Y-31933036D01*
X113538000Y-31933036D01*
X113538000Y-31566964D01*
X113728500Y-31566964D01*
X113869690Y-31540397D01*
X113999365Y-31456954D01*
X114086359Y-31329634D01*
X114116964Y-31178500D01*
X114116964Y-29781500D01*
X114483036Y-29781500D01*
X114483036Y-31178500D01*
X114509603Y-31319690D01*
X114593046Y-31449365D01*
X114720366Y-31536359D01*
X114871500Y-31566964D01*
X115938544Y-31566964D01*
X116313786Y-31942207D01*
X116268500Y-31933036D01*
X114871500Y-31933036D01*
X114730310Y-31959603D01*
X114600635Y-32043046D01*
X114513641Y-32170366D01*
X114483036Y-32321500D01*
X114483036Y-33718500D01*
X114509603Y-33859690D01*
X114593046Y-33989365D01*
X114720366Y-34076359D01*
X114871500Y-34106964D01*
X115938544Y-34106964D01*
X116313786Y-34482207D01*
X116268500Y-34473036D01*
X114871500Y-34473036D01*
X114730310Y-34499603D01*
X114600635Y-34583046D01*
X114513641Y-34710366D01*
X114483036Y-34861500D01*
X114483036Y-36258500D01*
X114509603Y-36399690D01*
X114593046Y-36529365D01*
X114720366Y-36616359D01*
X114871500Y-36646964D01*
X115938544Y-36646964D01*
X117750789Y-38459210D01*
X117860910Y-38532790D01*
X117915597Y-38569331D01*
X118110000Y-38608000D01*
X118303213Y-38608000D01*
X118521770Y-38935093D01*
X118904914Y-39191102D01*
X119252998Y-39260340D01*
X119252998Y-39369370D01*
X119030959Y-39248086D01*
X118524866Y-39487611D01*
X118148959Y-39902577D01*
X117988096Y-40290961D01*
X118110085Y-40513000D01*
X119253000Y-40513000D01*
X119253000Y-40493000D01*
X119507000Y-40493000D01*
X119507000Y-40513000D01*
X120649915Y-40513000D01*
X120771904Y-40290961D01*
X120611041Y-39902577D01*
X120235134Y-39487611D01*
X119729041Y-39248086D01*
X119507002Y-39369370D01*
X119507002Y-39260340D01*
X119855086Y-39191102D01*
X120238230Y-38935093D01*
X120494239Y-38551949D01*
X120584137Y-38100000D01*
X125795863Y-38100000D01*
X125885761Y-38551949D01*
X126141770Y-38935093D01*
X126524914Y-39191102D01*
X126976863Y-39281000D01*
X127023137Y-39281000D01*
X127475086Y-39191102D01*
X127858230Y-38935093D01*
X128114239Y-38551949D01*
X128204137Y-38100000D01*
X128114239Y-37648051D01*
X127858230Y-37264907D01*
X127475086Y-37008898D01*
X127023137Y-36919000D01*
X126976863Y-36919000D01*
X126524914Y-37008898D01*
X126141770Y-37264907D01*
X125885761Y-37648051D01*
X125795863Y-38100000D01*
X120584137Y-38100000D01*
X120494239Y-37648051D01*
X120238230Y-37264907D01*
X119855086Y-37008898D01*
X119403137Y-36919000D01*
X119356863Y-36919000D01*
X118904914Y-37008898D01*
X118521770Y-37264907D01*
X118310106Y-37581685D01*
X116656964Y-35928544D01*
X116656964Y-34861500D01*
X116648593Y-34817014D01*
X117750789Y-35919210D01*
X117860910Y-35992790D01*
X117915597Y-36029331D01*
X118110000Y-36068000D01*
X118303213Y-36068000D01*
X118521770Y-36395093D01*
X118904914Y-36651102D01*
X119356863Y-36741000D01*
X119403137Y-36741000D01*
X119855086Y-36651102D01*
X120238230Y-36395093D01*
X120494239Y-36011949D01*
X120584137Y-35560000D01*
X120494239Y-35108051D01*
X120238230Y-34724907D01*
X119855086Y-34468898D01*
X119403137Y-34379000D01*
X119356863Y-34379000D01*
X118904914Y-34468898D01*
X118521770Y-34724907D01*
X118310106Y-35041685D01*
X116656964Y-33388544D01*
X116656964Y-32321500D01*
X116648593Y-32277014D01*
X117750789Y-33379210D01*
X117860910Y-33452790D01*
X117915597Y-33489331D01*
X118110000Y-33528000D01*
X118303213Y-33528000D01*
X118521770Y-33855093D01*
X118904914Y-34111102D01*
X119356863Y-34201000D01*
X119403137Y-34201000D01*
X119855086Y-34111102D01*
X120238230Y-33855093D01*
X120494239Y-33471949D01*
X120584137Y-33020000D01*
X120494239Y-32568051D01*
X120238230Y-32184907D01*
X119855086Y-31928898D01*
X119403137Y-31839000D01*
X119356863Y-31839000D01*
X118904914Y-31928898D01*
X118521770Y-32184907D01*
X118310106Y-32501685D01*
X116656964Y-30848544D01*
X116656964Y-30480000D01*
X118175863Y-30480000D01*
X118265761Y-30931949D01*
X118521770Y-31315093D01*
X118904914Y-31571102D01*
X119356863Y-31661000D01*
X119403137Y-31661000D01*
X119855086Y-31571102D01*
X120238230Y-31315093D01*
X120494239Y-30931949D01*
X120584137Y-30480000D01*
X120494239Y-30028051D01*
X120238230Y-29644907D01*
X119855086Y-29388898D01*
X119403137Y-29299000D01*
X119356863Y-29299000D01*
X118904914Y-29388898D01*
X118521770Y-29644907D01*
X118265761Y-30028051D01*
X118175863Y-30480000D01*
X116656964Y-30480000D01*
X116656964Y-29781500D01*
X116630397Y-29640310D01*
X116546954Y-29510635D01*
X116419634Y-29423641D01*
X116268500Y-29393036D01*
X114871500Y-29393036D01*
X114730310Y-29419603D01*
X114600635Y-29503046D01*
X114513641Y-29630366D01*
X114483036Y-29781500D01*
X114116964Y-29781500D01*
X114090397Y-29640310D01*
X114006954Y-29510635D01*
X113879634Y-29423641D01*
X113728500Y-29393036D01*
X112331500Y-29393036D01*
X112190310Y-29419603D01*
X112060635Y-29503046D01*
X111973641Y-29630366D01*
X111943036Y-29781500D01*
X110636921Y-29781500D01*
X112119210Y-28299211D01*
X112229330Y-28134404D01*
X112229331Y-28134403D01*
X112268000Y-27940000D01*
X118175863Y-27940000D01*
X118265761Y-28391949D01*
X118521770Y-28775093D01*
X118904914Y-29031102D01*
X119356863Y-29121000D01*
X119403137Y-29121000D01*
X119855086Y-29031102D01*
X120238230Y-28775093D01*
X120494239Y-28391949D01*
X120514709Y-28289039D01*
X125608096Y-28289039D01*
X125768959Y-28677423D01*
X126144866Y-29092389D01*
X126650959Y-29331914D01*
X126872998Y-29210630D01*
X126872998Y-29319660D01*
X126524914Y-29388898D01*
X126141770Y-29644907D01*
X125885761Y-30028051D01*
X125795863Y-30480000D01*
X125885761Y-30931949D01*
X126141770Y-31315093D01*
X126524914Y-31571102D01*
X126872998Y-31640340D01*
X126872998Y-31749370D01*
X126650959Y-31628086D01*
X126144866Y-31867611D01*
X125768959Y-32282577D01*
X125608096Y-32670961D01*
X125730085Y-32893000D01*
X126873000Y-32893000D01*
X126873000Y-32873000D01*
X127127000Y-32873000D01*
X127127000Y-32893000D01*
X128269915Y-32893000D01*
X128391904Y-32670961D01*
X128231041Y-32282577D01*
X127855134Y-31867611D01*
X127349041Y-31628086D01*
X127127002Y-31749370D01*
X127127002Y-31640340D01*
X127475086Y-31571102D01*
X127858230Y-31315093D01*
X128114239Y-30931949D01*
X128204137Y-30480000D01*
X128123552Y-30074868D01*
X131572000Y-26626420D01*
X131572000Y-30269580D01*
X128334892Y-33506688D01*
X128391904Y-33369039D01*
X128269915Y-33147000D01*
X127127000Y-33147000D01*
X127127000Y-33167000D01*
X126873000Y-33167000D01*
X126873000Y-33147000D01*
X125730085Y-33147000D01*
X125608096Y-33369039D01*
X125768959Y-33757423D01*
X126144866Y-34172389D01*
X126650959Y-34411914D01*
X126872998Y-34290630D01*
X126872998Y-34399660D01*
X126524914Y-34468898D01*
X126141770Y-34724907D01*
X125885761Y-35108051D01*
X125795863Y-35560000D01*
X125885761Y-36011949D01*
X126141770Y-36395093D01*
X126524914Y-36651102D01*
X126976863Y-36741000D01*
X127023137Y-36741000D01*
X127475086Y-36651102D01*
X127858230Y-36395093D01*
X128114239Y-36011949D01*
X128204137Y-35560000D01*
X128123552Y-35154868D01*
X132439210Y-30839210D01*
X132549331Y-30674403D01*
X132588000Y-30480000D01*
X132588000Y-25684497D01*
X133002499Y-25513229D01*
X133052726Y-25463089D01*
X138546517Y-25463089D01*
X138675725Y-25755859D01*
X139375883Y-26024071D01*
X140125384Y-26003928D01*
X140724275Y-25755859D01*
X140853483Y-25463089D01*
X139700000Y-24309605D01*
X138546517Y-25463089D01*
X133052726Y-25463089D01*
X133461617Y-25054912D01*
X133710396Y-24455785D01*
X133710963Y-23807061D01*
X133710477Y-23805883D01*
X137805929Y-23805883D01*
X137826072Y-24555384D01*
X138074141Y-25154275D01*
X138366911Y-25283483D01*
X139520395Y-24130000D01*
X139879605Y-24130000D01*
X141033089Y-25283483D01*
X141325859Y-25154275D01*
X141594071Y-24454117D01*
X141573928Y-23704616D01*
X141342438Y-23145750D01*
X143281400Y-23145750D01*
X143281400Y-23849910D01*
X143378073Y-24083299D01*
X143556702Y-24261927D01*
X143754120Y-24343700D01*
X143497312Y-24625053D01*
X143325042Y-25040974D01*
X143446183Y-25273000D01*
X144653000Y-25273000D01*
X144653000Y-22987000D01*
X143440150Y-22987000D01*
X143281400Y-23145750D01*
X141342438Y-23145750D01*
X141325859Y-23105725D01*
X141033089Y-22976517D01*
X139879605Y-24130000D01*
X139520395Y-24130000D01*
X138366911Y-22976517D01*
X138074141Y-23105725D01*
X137805929Y-23805883D01*
X133710477Y-23805883D01*
X133463229Y-23207501D01*
X133053356Y-22796911D01*
X138546517Y-22796911D01*
X139700000Y-23950395D01*
X140853483Y-22796911D01*
X140724275Y-22504141D01*
X140024117Y-22235929D01*
X139274616Y-22256072D01*
X138675725Y-22504141D01*
X138546517Y-22796911D01*
X133053356Y-22796911D01*
X133004912Y-22748383D01*
X132405785Y-22499604D01*
X131757061Y-22499037D01*
X131157501Y-22746771D01*
X130698383Y-23205088D01*
X130449604Y-23804215D01*
X130449037Y-24452939D01*
X130696771Y-25052499D01*
X131155088Y-25511617D01*
X131222126Y-25539454D01*
X128334892Y-28426688D01*
X128391904Y-28289039D01*
X128269915Y-28067000D01*
X127127000Y-28067000D01*
X127127000Y-28087000D01*
X126873000Y-28087000D01*
X126873000Y-28067000D01*
X125730085Y-28067000D01*
X125608096Y-28289039D01*
X120514709Y-28289039D01*
X120584137Y-27940000D01*
X120514710Y-27590961D01*
X125608096Y-27590961D01*
X125730085Y-27813000D01*
X126873000Y-27813000D01*
X126873000Y-27793000D01*
X127127000Y-27793000D01*
X127127000Y-27813000D01*
X128269915Y-27813000D01*
X128391904Y-27590961D01*
X128231041Y-27202577D01*
X127855134Y-26787611D01*
X127349041Y-26548086D01*
X127127002Y-26669370D01*
X127127002Y-26560340D01*
X127475086Y-26491102D01*
X127858230Y-26235093D01*
X128114239Y-25851949D01*
X128204137Y-25400000D01*
X128114239Y-24948051D01*
X127858230Y-24564907D01*
X127475086Y-24308898D01*
X127023137Y-24219000D01*
X126976863Y-24219000D01*
X126524914Y-24308898D01*
X126141770Y-24564907D01*
X125885761Y-24948051D01*
X125795863Y-25400000D01*
X125885761Y-25851949D01*
X126141770Y-26235093D01*
X126524914Y-26491102D01*
X126872998Y-26560340D01*
X126872998Y-26669370D01*
X126650959Y-26548086D01*
X126144866Y-26787611D01*
X125768959Y-27202577D01*
X125608096Y-27590961D01*
X120514710Y-27590961D01*
X120494239Y-27488051D01*
X120238230Y-27104907D01*
X119855086Y-26848898D01*
X119403137Y-26759000D01*
X119356863Y-26759000D01*
X118904914Y-26848898D01*
X118521770Y-27104907D01*
X118265761Y-27488051D01*
X118175863Y-27940000D01*
X112268000Y-27940000D01*
X112268000Y-25518464D01*
X112710000Y-25518464D01*
X112851190Y-25491897D01*
X112980865Y-25408454D01*
X112986641Y-25400000D01*
X118175863Y-25400000D01*
X118265761Y-25851949D01*
X118521770Y-26235093D01*
X118904914Y-26491102D01*
X119356863Y-26581000D01*
X119403137Y-26581000D01*
X119855086Y-26491102D01*
X120238230Y-26235093D01*
X120494239Y-25851949D01*
X120584137Y-25400000D01*
X120494239Y-24948051D01*
X120238230Y-24564907D01*
X119855086Y-24308898D01*
X119403137Y-24219000D01*
X119356863Y-24219000D01*
X118904914Y-24308898D01*
X118521770Y-24564907D01*
X118265761Y-24948051D01*
X118175863Y-25400000D01*
X112986641Y-25400000D01*
X113067859Y-25281134D01*
X113098464Y-25130000D01*
X113098464Y-23130000D01*
X113071897Y-22988810D01*
X112988454Y-22859135D01*
X112861134Y-22772141D01*
X112710000Y-22741536D01*
X110810000Y-22741536D01*
X110668810Y-22768103D01*
X110539135Y-22851546D01*
X110452141Y-22978866D01*
X110421536Y-23130000D01*
X110421536Y-23552524D01*
X110349025Y-23377034D01*
X109974935Y-23002291D01*
X109485914Y-22799231D01*
X108956409Y-22798769D01*
X108467034Y-23000975D01*
X108092291Y-23375065D01*
X107889231Y-23864086D01*
X107888769Y-24393591D01*
X108090975Y-24882966D01*
X108465065Y-25257709D01*
X108954086Y-25460769D01*
X109483591Y-25461231D01*
X109972966Y-25259025D01*
X110347709Y-24884935D01*
X110421536Y-24707140D01*
X110421536Y-25130000D01*
X110448103Y-25271190D01*
X110531546Y-25400865D01*
X110658866Y-25487859D01*
X110810000Y-25518464D01*
X111252000Y-25518464D01*
X111252000Y-27729579D01*
X109768567Y-29213013D01*
X109495801Y-29099751D01*
X108946608Y-29099271D01*
X108439037Y-29308995D01*
X108050360Y-29696994D01*
X107839751Y-30204199D01*
X107839271Y-30753392D01*
X100702067Y-30753392D01*
X100705401Y-30744418D01*
X100681341Y-30094623D01*
X100478965Y-29606042D01*
X100212163Y-29507443D01*
X99239605Y-30480000D01*
X98880395Y-30480000D01*
X97907837Y-29507443D01*
X97641035Y-29606042D01*
X97414599Y-30215582D01*
X94824399Y-30215582D01*
X94727633Y-29981391D01*
X94479913Y-29733238D01*
X94156086Y-29598774D01*
X93816898Y-29598478D01*
X93546257Y-29327837D01*
X98087443Y-29327837D01*
X99060000Y-30300395D01*
X100032557Y-29327837D01*
X99933958Y-29061035D01*
X99324418Y-28834599D01*
X98674623Y-28858659D01*
X98186042Y-29061035D01*
X98087443Y-29327837D01*
X93546257Y-29327837D01*
X91948000Y-27729580D01*
X91948000Y-25149079D01*
X92050689Y-25106649D01*
X92354622Y-24803246D01*
X92519313Y-24406628D01*
X92519420Y-24282824D01*
X92900313Y-24282824D01*
X93064311Y-24679729D01*
X93367714Y-24983662D01*
X93764332Y-25148353D01*
X94193784Y-25148727D01*
X94590689Y-24984729D01*
X94894622Y-24681326D01*
X95009469Y-24404744D01*
X95440313Y-24404744D01*
X95604311Y-24801649D01*
X95907714Y-25105582D01*
X96304332Y-25270273D01*
X96733784Y-25270647D01*
X97130689Y-25106649D01*
X97434622Y-24803246D01*
X97599313Y-24406628D01*
X97599420Y-24282824D01*
X97980313Y-24282824D01*
X98144311Y-24679729D01*
X98447714Y-24983662D01*
X98844332Y-25148353D01*
X99273784Y-25148727D01*
X99330849Y-25125148D01*
X100845417Y-25125148D01*
X100907071Y-25360760D01*
X101407480Y-25536887D01*
X101937199Y-25508108D01*
X102292929Y-25360760D01*
X102354583Y-25125148D01*
X101600000Y-24370565D01*
X100845417Y-25125148D01*
X99330849Y-25125148D01*
X99670689Y-24984729D01*
X99974622Y-24681326D01*
X100139313Y-24284708D01*
X100139562Y-23998440D01*
X100254073Y-23998440D01*
X100282852Y-24528159D01*
X100430200Y-24883889D01*
X100665812Y-24945543D01*
X101420395Y-24190960D01*
X101779605Y-24190960D01*
X102534188Y-24945543D01*
X102769800Y-24883889D01*
X102945927Y-24383480D01*
X102917148Y-23853761D01*
X102769800Y-23498031D01*
X102534188Y-23436377D01*
X101779605Y-24190960D01*
X101420395Y-24190960D01*
X100665812Y-23436377D01*
X100430200Y-23498031D01*
X100254073Y-23998440D01*
X100139562Y-23998440D01*
X100139687Y-23855256D01*
X99975689Y-23458351D01*
X99774462Y-23256772D01*
X100845417Y-23256772D01*
X101600000Y-24011355D01*
X102354583Y-23256772D01*
X102292929Y-23021160D01*
X101792520Y-22845033D01*
X101262801Y-22873812D01*
X100907071Y-23021160D01*
X100845417Y-23256772D01*
X99774462Y-23256772D01*
X99672286Y-23154418D01*
X99275668Y-22989727D01*
X98846216Y-22989353D01*
X98449311Y-23153351D01*
X98145378Y-23456754D01*
X97980687Y-23853372D01*
X97980313Y-24282824D01*
X97599420Y-24282824D01*
X97599687Y-23977176D01*
X97435689Y-23580271D01*
X97132286Y-23276338D01*
X96735668Y-23111647D01*
X96306216Y-23111273D01*
X95909311Y-23275271D01*
X95605378Y-23578674D01*
X95440687Y-23975292D01*
X95440313Y-24404744D01*
X95009469Y-24404744D01*
X95059313Y-24284708D01*
X95059687Y-23855256D01*
X94895689Y-23458351D01*
X94592286Y-23154418D01*
X94195668Y-22989727D01*
X93766216Y-22989353D01*
X93369311Y-23153351D01*
X93065378Y-23456754D01*
X92900687Y-23853372D01*
X92900313Y-24282824D01*
X92519420Y-24282824D01*
X92519687Y-23977176D01*
X92355689Y-23580271D01*
X92052286Y-23276338D01*
X91655668Y-23111647D01*
X91226216Y-23111273D01*
X90829311Y-23275271D01*
X90525378Y-23578674D01*
X90360687Y-23975292D01*
X90360313Y-24404744D01*
X90524311Y-24801649D01*
X90827714Y-25105582D01*
X90932000Y-25148886D01*
X90932000Y-27940000D01*
X90970669Y-28134403D01*
X91080790Y-28299210D01*
X91483580Y-28702000D01*
X85103791Y-28702000D01*
X84991005Y-28429037D01*
X84603006Y-28040360D01*
X84095801Y-27829751D01*
X83546608Y-27829271D01*
X83039037Y-28038995D01*
X82650360Y-28426994D01*
X82439751Y-28934199D01*
X82439271Y-29483392D01*
X82552983Y-29758596D01*
X81079895Y-31231685D01*
X80868230Y-30914907D01*
X80485086Y-30658898D01*
X80033137Y-30569000D01*
X79986863Y-30569000D01*
X79534914Y-30658898D01*
X79151770Y-30914907D01*
X78895761Y-31298051D01*
X78805863Y-31750000D01*
X73594137Y-31750000D01*
X73504239Y-31298051D01*
X73248230Y-30914907D01*
X72898000Y-30680890D01*
X72898000Y-30398464D01*
X73190000Y-30398464D01*
X73331190Y-30371897D01*
X73460865Y-30288454D01*
X73547859Y-30161134D01*
X73578464Y-30010000D01*
X73578464Y-29210000D01*
X78805863Y-29210000D01*
X78895761Y-29661949D01*
X79151770Y-30045093D01*
X79534914Y-30301102D01*
X79986863Y-30391000D01*
X80033137Y-30391000D01*
X80485086Y-30301102D01*
X80868230Y-30045093D01*
X81124239Y-29661949D01*
X81214137Y-29210000D01*
X81124239Y-28758051D01*
X80868230Y-28374907D01*
X80485086Y-28118898D01*
X80033137Y-28029000D01*
X79986863Y-28029000D01*
X79534914Y-28118898D01*
X79151770Y-28374907D01*
X78895761Y-28758051D01*
X78805863Y-29210000D01*
X73578464Y-29210000D01*
X73578464Y-28410000D01*
X73551897Y-28268810D01*
X73468454Y-28139135D01*
X73341134Y-28052141D01*
X73190000Y-28021536D01*
X71590000Y-28021536D01*
X71448810Y-28048103D01*
X71319135Y-28131546D01*
X71232141Y-28258866D01*
X71201536Y-28410000D01*
X71201536Y-30010000D01*
X71228103Y-30151190D01*
X71311546Y-30280865D01*
X71438866Y-30367859D01*
X71590000Y-30398464D01*
X71882000Y-30398464D01*
X71882000Y-30680890D01*
X71531770Y-30914907D01*
X71275761Y-31298051D01*
X71185863Y-31750000D01*
X70612000Y-31750000D01*
X70612000Y-24700552D01*
X70778501Y-24700552D01*
X71216183Y-25759823D01*
X72025914Y-26570969D01*
X73084420Y-27010499D01*
X74230552Y-27011499D01*
X75289823Y-26573817D01*
X75565104Y-26299016D01*
X76790590Y-26299016D01*
X76846271Y-26529611D01*
X77329078Y-26697622D01*
X77839428Y-26668083D01*
X78173729Y-26529611D01*
X78229410Y-26299016D01*
X77510000Y-25579605D01*
X76790590Y-26299016D01*
X75565104Y-26299016D01*
X76100969Y-25764086D01*
X76226434Y-25461932D01*
X76241917Y-25729428D01*
X76380389Y-26063729D01*
X76610984Y-26119410D01*
X77330395Y-25400000D01*
X77689605Y-25400000D01*
X78409016Y-26119410D01*
X78639611Y-26063729D01*
X78799528Y-25604179D01*
X78978822Y-25604179D01*
X79135451Y-25983251D01*
X79425223Y-26273529D01*
X79804022Y-26430820D01*
X80214179Y-26431178D01*
X80593251Y-26274549D01*
X80883529Y-25984777D01*
X81040820Y-25605978D01*
X81041178Y-25195821D01*
X80884549Y-24816749D01*
X80594777Y-24526471D01*
X80215978Y-24369180D01*
X79805821Y-24368822D01*
X79426749Y-24525451D01*
X79136471Y-24815223D01*
X78979180Y-25194022D01*
X78978822Y-25604179D01*
X78799528Y-25604179D01*
X78807622Y-25580922D01*
X78778083Y-25070572D01*
X78639611Y-24736271D01*
X78409016Y-24680590D01*
X77689605Y-25400000D01*
X77330395Y-25400000D01*
X76610984Y-24680590D01*
X76540506Y-24697608D01*
X76540677Y-24500984D01*
X76790590Y-24500984D01*
X77510000Y-25220395D01*
X78229410Y-24500984D01*
X78173729Y-24270389D01*
X77690922Y-24102378D01*
X77180572Y-24131917D01*
X76846271Y-24270389D01*
X76790590Y-24500984D01*
X76540677Y-24500984D01*
X76541499Y-23559448D01*
X76463444Y-23370540D01*
X82733036Y-23370540D01*
X82733036Y-24767540D01*
X82759603Y-24908730D01*
X82843046Y-25038405D01*
X82970366Y-25125399D01*
X83121500Y-25156004D01*
X84518500Y-25156004D01*
X84659690Y-25129437D01*
X84666355Y-25125148D01*
X85605417Y-25125148D01*
X85667071Y-25360760D01*
X86167480Y-25536887D01*
X86697199Y-25508108D01*
X87052929Y-25360760D01*
X87114583Y-25125148D01*
X86360000Y-24370565D01*
X85605417Y-25125148D01*
X84666355Y-25125148D01*
X84789365Y-25045994D01*
X84876359Y-24918674D01*
X84906964Y-24767540D01*
X84906964Y-23998440D01*
X85014073Y-23998440D01*
X85042852Y-24528159D01*
X85190200Y-24883889D01*
X85425812Y-24945543D01*
X86180395Y-24190960D01*
X86539605Y-24190960D01*
X87294188Y-24945543D01*
X87529800Y-24883889D01*
X87705927Y-24383480D01*
X87700459Y-24282824D01*
X87820313Y-24282824D01*
X87984311Y-24679729D01*
X88287714Y-24983662D01*
X88684332Y-25148353D01*
X89113784Y-25148727D01*
X89510689Y-24984729D01*
X89814622Y-24681326D01*
X89979313Y-24284708D01*
X89979687Y-23855256D01*
X89815689Y-23458351D01*
X89512286Y-23154418D01*
X89115668Y-22989727D01*
X88686216Y-22989353D01*
X88289311Y-23153351D01*
X87985378Y-23456754D01*
X87820687Y-23853372D01*
X87820313Y-24282824D01*
X87700459Y-24282824D01*
X87677148Y-23853761D01*
X87529800Y-23498031D01*
X87294188Y-23436377D01*
X86539605Y-24190960D01*
X86180395Y-24190960D01*
X85425812Y-23436377D01*
X85190200Y-23498031D01*
X85014073Y-23998440D01*
X84906964Y-23998440D01*
X84906964Y-23370540D01*
X84885557Y-23256772D01*
X85605417Y-23256772D01*
X86360000Y-24011355D01*
X87114583Y-23256772D01*
X87052929Y-23021160D01*
X86552520Y-22845033D01*
X86022801Y-22873812D01*
X85667071Y-23021160D01*
X85605417Y-23256772D01*
X84885557Y-23256772D01*
X84880397Y-23229350D01*
X84796954Y-23099675D01*
X84669634Y-23012681D01*
X84518500Y-22982076D01*
X83121500Y-22982076D01*
X82980310Y-23008643D01*
X82850635Y-23092086D01*
X82763641Y-23219406D01*
X82733036Y-23370540D01*
X76463444Y-23370540D01*
X76103817Y-22500177D01*
X75664408Y-22060000D01*
X118191536Y-22060000D01*
X118191536Y-23660000D01*
X118218103Y-23801190D01*
X118301546Y-23930865D01*
X118428866Y-24017859D01*
X118580000Y-24048464D01*
X120180000Y-24048464D01*
X120321190Y-24021897D01*
X120450865Y-23938454D01*
X120537859Y-23811134D01*
X120568464Y-23660000D01*
X120568464Y-22860000D01*
X125795863Y-22860000D01*
X125885761Y-23311949D01*
X126141770Y-23695093D01*
X126524914Y-23951102D01*
X126976863Y-24041000D01*
X127023137Y-24041000D01*
X127475086Y-23951102D01*
X127858230Y-23695093D01*
X128114239Y-23311949D01*
X128204137Y-22860000D01*
X128114239Y-22408051D01*
X127858230Y-22024907D01*
X127626531Y-21870090D01*
X143281400Y-21870090D01*
X143281400Y-22574250D01*
X143440150Y-22733000D01*
X144653000Y-22733000D01*
X144653000Y-21520150D01*
X144494250Y-21361400D01*
X143790091Y-21361400D01*
X143556702Y-21458073D01*
X143378073Y-21636701D01*
X143281400Y-21870090D01*
X127626531Y-21870090D01*
X127475086Y-21768898D01*
X127023137Y-21679000D01*
X126976863Y-21679000D01*
X126524914Y-21768898D01*
X126141770Y-22024907D01*
X125885761Y-22408051D01*
X125795863Y-22860000D01*
X120568464Y-22860000D01*
X120568464Y-22060000D01*
X120541897Y-21918810D01*
X120458454Y-21789135D01*
X120331134Y-21702141D01*
X120180000Y-21671536D01*
X118580000Y-21671536D01*
X118438810Y-21698103D01*
X118309135Y-21781546D01*
X118222141Y-21908866D01*
X118191536Y-22060000D01*
X75664408Y-22060000D01*
X75294086Y-21689031D01*
X74235580Y-21249501D01*
X73089448Y-21248501D01*
X72030177Y-21686183D01*
X71219031Y-22495914D01*
X70779501Y-23554420D01*
X70778501Y-24700552D01*
X70612000Y-24700552D01*
X70612000Y-21082000D01*
X168148000Y-21082000D01*
X168148000Y-34163000D01*
X168148000Y-34163000D01*
G37*
X168148000Y-34163000D02*
X166240571Y-34163000D01*
X166240647Y-34076216D01*
X166076649Y-33679311D01*
X165773246Y-33375378D01*
X165376628Y-33210687D01*
X164947176Y-33210313D01*
X164842814Y-33253434D01*
X161710170Y-30120790D01*
X161545363Y-30010669D01*
X161350960Y-29972000D01*
X148473054Y-29972000D01*
X148224448Y-29599935D01*
X147820671Y-29330140D01*
X147344383Y-29235400D01*
X147295617Y-29235400D01*
X146819329Y-29330140D01*
X146415552Y-29599935D01*
X146170841Y-29966172D01*
X146062688Y-29705053D01*
X145668490Y-29273179D01*
X145533687Y-29210000D01*
X145668490Y-29146821D01*
X146062688Y-28714947D01*
X146170841Y-28453828D01*
X146415552Y-28820065D01*
X146819329Y-29089860D01*
X147295617Y-29184600D01*
X147344383Y-29184600D01*
X147820671Y-29089860D01*
X148224448Y-28820065D01*
X148494243Y-28416288D01*
X148588983Y-27940000D01*
X148494243Y-27463712D01*
X148224448Y-27059935D01*
X147820671Y-26790140D01*
X147344383Y-26695400D01*
X147295617Y-26695400D01*
X146819329Y-26790140D01*
X146415552Y-27059935D01*
X146170841Y-27426172D01*
X146066677Y-27174683D01*
X146244403Y-27139331D01*
X146409210Y-27029210D01*
X146877074Y-26561346D01*
X147295617Y-26644600D01*
X147344383Y-26644600D01*
X147820671Y-26549860D01*
X148224448Y-26280065D01*
X148473054Y-25908000D01*
X158478620Y-25908000D01*
X164002337Y-31431717D01*
X163959727Y-31534332D01*
X163959353Y-31963784D01*
X164123351Y-32360689D01*
X164426754Y-32664622D01*
X164823372Y-32829313D01*
X165252824Y-32829687D01*
X165649729Y-32665689D01*
X165953662Y-32362286D01*
X166118353Y-31965668D01*
X166118727Y-31536216D01*
X165954729Y-31139311D01*
X165651326Y-30835378D01*
X165254708Y-30670687D01*
X164825256Y-30670313D01*
X164720894Y-30713434D01*
X163431244Y-29423784D01*
X164081273Y-29423784D01*
X164245271Y-29820689D01*
X164548674Y-30124622D01*
X164945292Y-30289313D01*
X165374744Y-30289687D01*
X165771649Y-30125689D01*
X166075582Y-29822286D01*
X166240273Y-29425668D01*
X166240647Y-28996216D01*
X166076649Y-28599311D01*
X165773246Y-28295378D01*
X165376628Y-28130687D01*
X164947176Y-28130313D01*
X164550271Y-28294311D01*
X164246338Y-28597714D01*
X164081647Y-28994332D01*
X164081273Y-29423784D01*
X163431244Y-29423784D01*
X159048250Y-25040790D01*
X158883443Y-24930669D01*
X158689040Y-24892000D01*
X148473054Y-24892000D01*
X148345133Y-24700552D01*
X162218501Y-24700552D01*
X162656183Y-25759823D01*
X163465914Y-26570969D01*
X164524420Y-27010499D01*
X165670552Y-27011499D01*
X166729823Y-26573817D01*
X167540969Y-25764086D01*
X167980499Y-24705580D01*
X167981499Y-23559448D01*
X167543817Y-22500177D01*
X166734086Y-21689031D01*
X165675580Y-21249501D01*
X164529448Y-21248501D01*
X163470177Y-21686183D01*
X162659031Y-22495914D01*
X162219501Y-23554420D01*
X162218501Y-24700552D01*
X148345133Y-24700552D01*
X148224448Y-24519935D01*
X147820671Y-24250140D01*
X147344383Y-24155400D01*
X147295617Y-24155400D01*
X146819329Y-24250140D01*
X146415552Y-24519935D01*
X146170841Y-24886172D01*
X146062688Y-24625053D01*
X145805880Y-24343700D01*
X146003298Y-24261927D01*
X146181927Y-24083299D01*
X146278600Y-23849910D01*
X146278600Y-23535102D01*
X146415552Y-23740065D01*
X146819329Y-24009860D01*
X147295617Y-24104600D01*
X147344383Y-24104600D01*
X147820671Y-24009860D01*
X148224448Y-23740065D01*
X148494243Y-23336288D01*
X148588983Y-22860000D01*
X148494243Y-22383712D01*
X148224448Y-21979935D01*
X147820671Y-21710140D01*
X147344383Y-21615400D01*
X147295617Y-21615400D01*
X146819329Y-21710140D01*
X146415552Y-21979935D01*
X146278600Y-22184898D01*
X146278600Y-21870090D01*
X146181927Y-21636701D01*
X146003298Y-21458073D01*
X145769909Y-21361400D01*
X145065750Y-21361400D01*
X144907000Y-21520150D01*
X144907000Y-22733000D01*
X144927000Y-22733000D01*
X144927000Y-22987000D01*
X144907000Y-22987000D01*
X144907000Y-25273000D01*
X144927000Y-25273000D01*
X144927000Y-25527000D01*
X144907000Y-25527000D01*
X144907000Y-25547000D01*
X144653000Y-25547000D01*
X144653000Y-25527000D01*
X143446183Y-25527000D01*
X143325042Y-25759026D01*
X143491949Y-26162000D01*
X140970000Y-26162000D01*
X140775597Y-26200669D01*
X140610790Y-26310790D01*
X136800790Y-30120790D01*
X136690669Y-30285597D01*
X136652000Y-30480000D01*
X136652000Y-43180000D01*
X136690669Y-43374403D01*
X136697873Y-43385184D01*
X136588500Y-43363036D01*
X135191500Y-43363036D01*
X135050310Y-43389603D01*
X134920635Y-43473046D01*
X134833641Y-43600366D01*
X134803036Y-43751500D01*
X134803036Y-45148500D01*
X134829603Y-45289690D01*
X134913046Y-45419365D01*
X135040366Y-45506359D01*
X135191500Y-45536964D01*
X136588500Y-45536964D01*
X136729690Y-45510397D01*
X136859365Y-45426954D01*
X136946359Y-45299634D01*
X136976964Y-45148500D01*
X136976964Y-43751500D01*
X136968593Y-43707013D01*
X137343036Y-44081456D01*
X137343036Y-45148500D01*
X137369603Y-45289690D01*
X137453046Y-45419365D01*
X137580366Y-45506359D01*
X137731500Y-45536964D01*
X137922000Y-45536964D01*
X137922000Y-45903036D01*
X137731500Y-45903036D01*
X137590310Y-45929603D01*
X137460635Y-46013046D01*
X137373641Y-46140366D01*
X137343036Y-46291500D01*
X137343036Y-47688500D01*
X137369603Y-47829690D01*
X137453046Y-47959365D01*
X137580366Y-48046359D01*
X137731500Y-48076964D01*
X137922000Y-48076964D01*
X137922000Y-48443036D01*
X137731500Y-48443036D01*
X137590310Y-48469603D01*
X137460635Y-48553046D01*
X137373641Y-48680366D01*
X137343036Y-48831500D01*
X137343036Y-50228500D01*
X137369603Y-50369690D01*
X137453046Y-50499365D01*
X137580366Y-50586359D01*
X137731500Y-50616964D01*
X139128500Y-50616964D01*
X139269690Y-50590397D01*
X139399365Y-50506954D01*
X139486359Y-50379634D01*
X139516964Y-50228500D01*
X139516964Y-48831500D01*
X139490397Y-48690310D01*
X139406954Y-48560635D01*
X139279634Y-48473641D01*
X139128500Y-48443036D01*
X138938000Y-48443036D01*
X138938000Y-48076964D01*
X139128500Y-48076964D01*
X139269690Y-48050397D01*
X139399365Y-47966954D01*
X139486359Y-47839634D01*
X139516964Y-47688500D01*
X139516964Y-46291500D01*
X139490397Y-46150310D01*
X139406954Y-46020635D01*
X139279634Y-45933641D01*
X139128500Y-45903036D01*
X138938000Y-45903036D01*
X138938000Y-45536964D01*
X139128500Y-45536964D01*
X139269690Y-45510397D01*
X139399365Y-45426954D01*
X139486359Y-45299634D01*
X139516964Y-45148500D01*
X139516964Y-43751500D01*
X139490397Y-43610310D01*
X139406954Y-43480635D01*
X139279634Y-43393641D01*
X139128500Y-43363036D01*
X138061456Y-43363036D01*
X137668000Y-42969580D01*
X137668000Y-38120320D01*
X138061856Y-38120320D01*
X138061856Y-40619680D01*
X138088423Y-40760870D01*
X138171866Y-40890545D01*
X138299186Y-40977539D01*
X138450320Y-41008144D01*
X140949680Y-41008144D01*
X141090870Y-40981577D01*
X141220545Y-40898134D01*
X141307539Y-40770814D01*
X141338144Y-40619680D01*
X141338144Y-38120320D01*
X141311577Y-37979130D01*
X141228134Y-37849455D01*
X141100814Y-37762461D01*
X140949680Y-37731856D01*
X138450320Y-37731856D01*
X138309130Y-37758423D01*
X138179455Y-37841866D01*
X138092461Y-37969186D01*
X138061856Y-38120320D01*
X137668000Y-38120320D01*
X137668000Y-30839026D01*
X143325042Y-30839026D01*
X143497312Y-31254947D01*
X143891510Y-31686821D01*
X144026313Y-31750000D01*
X143891510Y-31813179D01*
X143497312Y-32245053D01*
X143325042Y-32660974D01*
X143446183Y-32893000D01*
X144653000Y-32893000D01*
X144653000Y-30607000D01*
X143446183Y-30607000D01*
X143325042Y-30839026D01*
X137668000Y-30839026D01*
X137668000Y-30690420D01*
X140059394Y-28299026D01*
X143325042Y-28299026D01*
X143497312Y-28714947D01*
X143891510Y-29146821D01*
X144026313Y-29210000D01*
X143891510Y-29273179D01*
X143497312Y-29705053D01*
X143325042Y-30120974D01*
X143446183Y-30353000D01*
X144653000Y-30353000D01*
X144653000Y-28067000D01*
X143446183Y-28067000D01*
X143325042Y-28299026D01*
X140059394Y-28299026D01*
X141180420Y-27178000D01*
X143491949Y-27178000D01*
X143325042Y-27580974D01*
X143446183Y-27813000D01*
X144653000Y-27813000D01*
X144653000Y-27793000D01*
X144907000Y-27793000D01*
X144907000Y-27813000D01*
X144927000Y-27813000D01*
X144927000Y-28067000D01*
X144907000Y-28067000D01*
X144907000Y-30353000D01*
X144927000Y-30353000D01*
X144927000Y-30607000D01*
X144907000Y-30607000D01*
X144907000Y-32893000D01*
X144927000Y-32893000D01*
X144927000Y-33147000D01*
X144907000Y-33147000D01*
X144907000Y-33167000D01*
X144653000Y-33167000D01*
X144653000Y-33147000D01*
X143446183Y-33147000D01*
X143325042Y-33379026D01*
X143497312Y-33794947D01*
X143833257Y-34163000D01*
X142240000Y-34163000D01*
X142190590Y-34173006D01*
X142148965Y-34201447D01*
X142121685Y-34243841D01*
X142113000Y-34290000D01*
X142113000Y-50673000D01*
X135890000Y-50673000D01*
X135840590Y-50683006D01*
X135798965Y-50711447D01*
X135771685Y-50753841D01*
X135763000Y-50800000D01*
X135763000Y-51224580D01*
X135146213Y-50607793D01*
X135191500Y-50616964D01*
X136588500Y-50616964D01*
X136729690Y-50590397D01*
X136859365Y-50506954D01*
X136946359Y-50379634D01*
X136976964Y-50228500D01*
X136976964Y-48831500D01*
X136950397Y-48690310D01*
X136866954Y-48560635D01*
X136739634Y-48473641D01*
X136588500Y-48443036D01*
X135191500Y-48443036D01*
X135050310Y-48469603D01*
X134920635Y-48553046D01*
X134833641Y-48680366D01*
X134803036Y-48831500D01*
X134803036Y-50228500D01*
X134811407Y-50272987D01*
X133346987Y-48808567D01*
X133460249Y-48535801D01*
X133460729Y-47986608D01*
X133251005Y-47479037D01*
X133048073Y-47275750D01*
X134556500Y-47275750D01*
X134556500Y-47814810D01*
X134653173Y-48048199D01*
X134831802Y-48226827D01*
X135065191Y-48323500D01*
X135604250Y-48323500D01*
X135763000Y-48164750D01*
X135763000Y-47117000D01*
X136017000Y-47117000D01*
X136017000Y-48164750D01*
X136175750Y-48323500D01*
X136714809Y-48323500D01*
X136948198Y-48226827D01*
X137126827Y-48048199D01*
X137223500Y-47814810D01*
X137223500Y-47275750D01*
X137064750Y-47117000D01*
X136017000Y-47117000D01*
X135763000Y-47117000D01*
X134715250Y-47117000D01*
X134556500Y-47275750D01*
X133048073Y-47275750D01*
X132863006Y-47090360D01*
X132355801Y-46879751D01*
X131806608Y-46879271D01*
X131299037Y-47088995D01*
X130910360Y-47476994D01*
X130699751Y-47984199D01*
X130699271Y-48533392D01*
X130908995Y-49040963D01*
X131296994Y-49429640D01*
X131804199Y-49640249D01*
X132353392Y-49640729D01*
X132628597Y-49527017D01*
X135530790Y-52429210D01*
X135695597Y-52539331D01*
X135763000Y-52552738D01*
X135763000Y-56127944D01*
X135488374Y-55852838D01*
X134925871Y-55619266D01*
X134316801Y-55618735D01*
X133753891Y-55851325D01*
X133322838Y-56281626D01*
X133089266Y-56844129D01*
X133088735Y-57453199D01*
X133321325Y-58016109D01*
X133751626Y-58447162D01*
X134314129Y-58680734D01*
X134923199Y-58681265D01*
X135486109Y-58448675D01*
X135763000Y-58172267D01*
X135763000Y-69088000D01*
X70612000Y-69088000D01*
X70612000Y-66610552D01*
X70778501Y-66610552D01*
X71216183Y-67669823D01*
X72025914Y-68480969D01*
X73084420Y-68920499D01*
X74230552Y-68921499D01*
X75289823Y-68483817D01*
X76100969Y-67674086D01*
X76205024Y-67423493D01*
X82598761Y-67423493D01*
X82808563Y-67931251D01*
X83196705Y-68320072D01*
X83704097Y-68530759D01*
X84253493Y-68531239D01*
X84761251Y-68321437D01*
X85150072Y-67933295D01*
X85360759Y-67425903D01*
X85360761Y-67423493D01*
X87598761Y-67423493D01*
X87808563Y-67931251D01*
X88196705Y-68320072D01*
X88704097Y-68530759D01*
X89253493Y-68531239D01*
X89761251Y-68321437D01*
X90150072Y-67933295D01*
X90360759Y-67425903D01*
X90360761Y-67423493D01*
X102918761Y-67423493D01*
X103128563Y-67931251D01*
X103516705Y-68320072D01*
X104024097Y-68530759D01*
X104573493Y-68531239D01*
X105081251Y-68321437D01*
X105470072Y-67933295D01*
X105680759Y-67425903D01*
X105680761Y-67423493D01*
X107918761Y-67423493D01*
X108128563Y-67931251D01*
X108516705Y-68320072D01*
X109024097Y-68530759D01*
X109573493Y-68531239D01*
X110081251Y-68321437D01*
X110470072Y-67933295D01*
X110680759Y-67425903D01*
X110680761Y-67423493D01*
X123238761Y-67423493D01*
X123448563Y-67931251D01*
X123836705Y-68320072D01*
X124344097Y-68530759D01*
X124893493Y-68531239D01*
X125401251Y-68321437D01*
X125790072Y-67933295D01*
X126000759Y-67425903D01*
X126000761Y-67423493D01*
X128238761Y-67423493D01*
X128448563Y-67931251D01*
X128836705Y-68320072D01*
X129344097Y-68530759D01*
X129893493Y-68531239D01*
X130401251Y-68321437D01*
X130790072Y-67933295D01*
X131000759Y-67425903D01*
X131001239Y-66876507D01*
X130791437Y-66368749D01*
X130403295Y-65979928D01*
X129895903Y-65769241D01*
X129346507Y-65768761D01*
X128838749Y-65978563D01*
X128449928Y-66366705D01*
X128239241Y-66874097D01*
X128238761Y-67423493D01*
X126000761Y-67423493D01*
X126001239Y-66876507D01*
X125791437Y-66368749D01*
X125403295Y-65979928D01*
X124895903Y-65769241D01*
X124346507Y-65768761D01*
X123838749Y-65978563D01*
X123449928Y-66366705D01*
X123239241Y-66874097D01*
X123238761Y-67423493D01*
X110680761Y-67423493D01*
X110681239Y-66876507D01*
X110471437Y-66368749D01*
X110083295Y-65979928D01*
X109575903Y-65769241D01*
X109026507Y-65768761D01*
X108518749Y-65978563D01*
X108129928Y-66366705D01*
X107919241Y-66874097D01*
X107918761Y-67423493D01*
X105680761Y-67423493D01*
X105681239Y-66876507D01*
X105471437Y-66368749D01*
X105083295Y-65979928D01*
X104575903Y-65769241D01*
X104026507Y-65768761D01*
X103518749Y-65978563D01*
X103129928Y-66366705D01*
X102919241Y-66874097D01*
X102918761Y-67423493D01*
X90360761Y-67423493D01*
X90361239Y-66876507D01*
X90151437Y-66368749D01*
X89763295Y-65979928D01*
X89255903Y-65769241D01*
X88706507Y-65768761D01*
X88198749Y-65978563D01*
X87809928Y-66366705D01*
X87599241Y-66874097D01*
X87598761Y-67423493D01*
X85360761Y-67423493D01*
X85361239Y-66876507D01*
X85151437Y-66368749D01*
X84763295Y-65979928D01*
X84255903Y-65769241D01*
X83706507Y-65768761D01*
X83198749Y-65978563D01*
X82809928Y-66366705D01*
X82599241Y-66874097D01*
X82598761Y-67423493D01*
X76205024Y-67423493D01*
X76540499Y-66615580D01*
X76541499Y-65469448D01*
X76103817Y-64410177D01*
X75294086Y-63599031D01*
X74235580Y-63159501D01*
X73089448Y-63158501D01*
X72030177Y-63596183D01*
X71219031Y-64405914D01*
X70779501Y-65464420D01*
X70778501Y-66610552D01*
X70612000Y-66610552D01*
X70612000Y-58693392D01*
X71009271Y-58693392D01*
X71218995Y-59200963D01*
X71606994Y-59589640D01*
X72114199Y-59800249D01*
X72663392Y-59800729D01*
X73170963Y-59591005D01*
X73559640Y-59203006D01*
X73770249Y-58695801D01*
X73770729Y-58146608D01*
X73657017Y-57871403D01*
X74075221Y-57453199D01*
X77448735Y-57453199D01*
X77681325Y-58016109D01*
X78111626Y-58447162D01*
X78674129Y-58680734D01*
X79283199Y-58681265D01*
X79846109Y-58448675D01*
X80277162Y-58018374D01*
X80510734Y-57455871D01*
X80511265Y-56846801D01*
X80278675Y-56283891D01*
X79848374Y-55852838D01*
X79285871Y-55619266D01*
X78676801Y-55618735D01*
X78113891Y-55851325D01*
X77682838Y-56281626D01*
X77449266Y-56844129D01*
X77448735Y-57453199D01*
X74075221Y-57453199D01*
X76370420Y-55158000D01*
X80033357Y-55158000D01*
X80181325Y-55516109D01*
X80611626Y-55947162D01*
X80972000Y-56096803D01*
X80972000Y-59890000D01*
X81010669Y-60084403D01*
X81120790Y-60249210D01*
X82567936Y-61696356D01*
X82567936Y-63246000D01*
X82594503Y-63387190D01*
X82677946Y-63516865D01*
X82805266Y-63603859D01*
X82956400Y-63634464D01*
X84683600Y-63634464D01*
X84824790Y-63607897D01*
X84954465Y-63524454D01*
X85041459Y-63397134D01*
X85072064Y-63246000D01*
X85072064Y-63148817D01*
X85457964Y-63580732D01*
X85985209Y-63834709D01*
X86000974Y-63837358D01*
X86233000Y-63716217D01*
X86233000Y-62357000D01*
X86213000Y-62357000D01*
X86213000Y-62103000D01*
X86233000Y-62103000D01*
X86233000Y-60743783D01*
X86000974Y-60622642D01*
X85985209Y-60625291D01*
X85457964Y-60879268D01*
X85072064Y-61311183D01*
X85072064Y-61214000D01*
X85045497Y-61072810D01*
X84962054Y-60943135D01*
X84834734Y-60856141D01*
X84683600Y-60825536D01*
X83133956Y-60825536D01*
X81988000Y-59679580D01*
X81988000Y-58411025D01*
X85398581Y-58411025D01*
X85515601Y-58693446D01*
X86179663Y-58945018D01*
X86889448Y-58923314D01*
X87444399Y-58693446D01*
X87561419Y-58411025D01*
X86480000Y-57329605D01*
X85398581Y-58411025D01*
X81988000Y-58411025D01*
X81988000Y-56849663D01*
X84684982Y-56849663D01*
X84706686Y-57559448D01*
X84936554Y-58114399D01*
X85218975Y-58231419D01*
X86300395Y-57150000D01*
X86659605Y-57150000D01*
X87741025Y-58231419D01*
X88023446Y-58114399D01*
X88275018Y-57450337D01*
X88253314Y-56740552D01*
X88023446Y-56185601D01*
X87741025Y-56068581D01*
X86659605Y-57150000D01*
X86300395Y-57150000D01*
X85218975Y-56068581D01*
X84936554Y-56185601D01*
X84684982Y-56849663D01*
X81988000Y-56849663D01*
X81988000Y-56096643D01*
X82346109Y-55948675D01*
X82405913Y-55888975D01*
X85398581Y-55888975D01*
X86480000Y-56970395D01*
X87561419Y-55888975D01*
X87444399Y-55606554D01*
X86780337Y-55354982D01*
X86070552Y-55376686D01*
X85515601Y-55606554D01*
X85398581Y-55888975D01*
X82405913Y-55888975D01*
X82777162Y-55518374D01*
X83010734Y-54955871D01*
X83011265Y-54346801D01*
X82778675Y-53783891D01*
X82348374Y-53352838D01*
X81785871Y-53119266D01*
X81176801Y-53118735D01*
X80613891Y-53351325D01*
X80182838Y-53781626D01*
X80033197Y-54142000D01*
X76160000Y-54142000D01*
X75965596Y-54180669D01*
X75800790Y-54290790D01*
X72938567Y-57153013D01*
X72665801Y-57039751D01*
X72116608Y-57039271D01*
X71609037Y-57248995D01*
X71220360Y-57636994D01*
X71009751Y-58144199D01*
X71009271Y-58693392D01*
X70612000Y-58693392D01*
X70612000Y-48533392D01*
X71009271Y-48533392D01*
X71218995Y-49040963D01*
X71606994Y-49429640D01*
X72114199Y-49640249D01*
X72663392Y-49640729D01*
X73170963Y-49431005D01*
X73559640Y-49043006D01*
X73770249Y-48535801D01*
X73770251Y-48533392D01*
X74819271Y-48533392D01*
X75028995Y-49040963D01*
X75416994Y-49429640D01*
X75924199Y-49640249D01*
X76473392Y-49640729D01*
X76980963Y-49431005D01*
X77369640Y-49043006D01*
X77580249Y-48535801D01*
X77580251Y-48533392D01*
X84979271Y-48533392D01*
X85188995Y-49040963D01*
X85576994Y-49429640D01*
X86084199Y-49640249D01*
X86633392Y-49640729D01*
X86908597Y-49527017D01*
X90698107Y-53316528D01*
X90613891Y-53351325D01*
X90182838Y-53781626D01*
X89949266Y-54344129D01*
X89948735Y-54953199D01*
X90181325Y-55516109D01*
X90611626Y-55947162D01*
X90972000Y-56096803D01*
X90972000Y-59439580D01*
X89457167Y-60954413D01*
X89376288Y-60900371D01*
X88900000Y-60805631D01*
X88423712Y-60900371D01*
X88019935Y-61170166D01*
X87750140Y-61573943D01*
X87747296Y-61588243D01*
X87651954Y-61315680D01*
X87262036Y-60879268D01*
X86734791Y-60625291D01*
X86719026Y-60622642D01*
X86487000Y-60743783D01*
X86487000Y-62103000D01*
X86507000Y-62103000D01*
X86507000Y-62357000D01*
X86487000Y-62357000D01*
X86487000Y-63716217D01*
X86719026Y-63837358D01*
X86734791Y-63834709D01*
X87262036Y-63580732D01*
X87651954Y-63144320D01*
X87747296Y-62871757D01*
X87750140Y-62886057D01*
X88019935Y-63289834D01*
X88423712Y-63559629D01*
X88900000Y-63654369D01*
X89376288Y-63559629D01*
X89780065Y-63289834D01*
X90049860Y-62886057D01*
X90144600Y-62409769D01*
X90144600Y-62050231D01*
X90087126Y-61761294D01*
X91839210Y-60009210D01*
X91949331Y-59844403D01*
X91988000Y-59650000D01*
X91988000Y-57453199D01*
X92448735Y-57453199D01*
X92681325Y-58016109D01*
X93111626Y-58447162D01*
X93674129Y-58680734D01*
X94283199Y-58681265D01*
X94846109Y-58448675D01*
X95277162Y-58018374D01*
X95510734Y-57455871D01*
X95510736Y-57453199D01*
X97768735Y-57453199D01*
X98001325Y-58016109D01*
X98431626Y-58447162D01*
X98994129Y-58680734D01*
X99603199Y-58681265D01*
X100166109Y-58448675D01*
X100597162Y-58018374D01*
X100830734Y-57455871D01*
X100831265Y-56846801D01*
X100598675Y-56283891D01*
X100168374Y-55852838D01*
X99605871Y-55619266D01*
X98996801Y-55618735D01*
X98433891Y-55851325D01*
X98002838Y-56281626D01*
X97769266Y-56844129D01*
X97768735Y-57453199D01*
X95510736Y-57453199D01*
X95511265Y-56846801D01*
X95278675Y-56283891D01*
X94848374Y-55852838D01*
X94285871Y-55619266D01*
X93676801Y-55618735D01*
X93113891Y-55851325D01*
X92682838Y-56281626D01*
X92449266Y-56844129D01*
X92448735Y-57453199D01*
X91988000Y-57453199D01*
X91988000Y-56096643D01*
X92346109Y-55948675D01*
X92777162Y-55518374D01*
X93010734Y-54955871D01*
X93011265Y-54346801D01*
X92778675Y-53783891D01*
X92348374Y-53352838D01*
X91949666Y-53187280D01*
X91949331Y-53185597D01*
X91949331Y-53185596D01*
X91839210Y-53020789D01*
X87626987Y-48808567D01*
X87740249Y-48535801D01*
X87740276Y-48504233D01*
X88941697Y-48504233D01*
X89128655Y-48956705D01*
X89474534Y-49303189D01*
X89926679Y-49490935D01*
X90416253Y-49491363D01*
X90606397Y-49412797D01*
X96202810Y-55009210D01*
X96367616Y-55119331D01*
X96399870Y-55125746D01*
X96562020Y-55158000D01*
X100353357Y-55158000D01*
X100501325Y-55516109D01*
X100931626Y-55947162D01*
X101292000Y-56096803D01*
X101292000Y-58620000D01*
X101330669Y-58814403D01*
X101440790Y-58979210D01*
X104005536Y-61543956D01*
X104005536Y-63246000D01*
X104032103Y-63387190D01*
X104115546Y-63516865D01*
X104242866Y-63603859D01*
X104394000Y-63634464D01*
X106426000Y-63634464D01*
X106567190Y-63607897D01*
X106696865Y-63524454D01*
X106783859Y-63397134D01*
X106814464Y-63246000D01*
X106814464Y-63024137D01*
X106962172Y-63245197D01*
X107415391Y-63548029D01*
X107950000Y-63654369D01*
X108484609Y-63548029D01*
X108937828Y-63245197D01*
X109240660Y-62791978D01*
X109347000Y-62257369D01*
X109347000Y-62202631D01*
X109240660Y-61668022D01*
X109236550Y-61661870D01*
X112159210Y-58739210D01*
X112269331Y-58574404D01*
X112308000Y-58380000D01*
X112308000Y-57453199D01*
X112768735Y-57453199D01*
X113001325Y-58016109D01*
X113431626Y-58447162D01*
X113994129Y-58680734D01*
X114603199Y-58681265D01*
X115166109Y-58448675D01*
X115597162Y-58018374D01*
X115830734Y-57455871D01*
X115830736Y-57453199D01*
X118088735Y-57453199D01*
X118321325Y-58016109D01*
X118751626Y-58447162D01*
X119314129Y-58680734D01*
X119923199Y-58681265D01*
X120486109Y-58448675D01*
X120917162Y-58018374D01*
X121150734Y-57455871D01*
X121151265Y-56846801D01*
X120918675Y-56283891D01*
X120488374Y-55852838D01*
X119925871Y-55619266D01*
X119316801Y-55618735D01*
X118753891Y-55851325D01*
X118322838Y-56281626D01*
X118089266Y-56844129D01*
X118088735Y-57453199D01*
X115830736Y-57453199D01*
X115831265Y-56846801D01*
X115598675Y-56283891D01*
X115168374Y-55852838D01*
X114605871Y-55619266D01*
X113996801Y-55618735D01*
X113433891Y-55851325D01*
X113002838Y-56281626D01*
X112769266Y-56844129D01*
X112768735Y-57453199D01*
X112308000Y-57453199D01*
X112308000Y-56096643D01*
X112666109Y-55948675D01*
X113097162Y-55518374D01*
X113330734Y-54955871D01*
X113331265Y-54346801D01*
X113098675Y-53783891D01*
X112668374Y-53352838D01*
X112105871Y-53119266D01*
X111496801Y-53118735D01*
X110933891Y-53351325D01*
X110502838Y-53781626D01*
X110466810Y-53868390D01*
X105406987Y-48808567D01*
X105520249Y-48535801D01*
X105520251Y-48533392D01*
X106569271Y-48533392D01*
X106778995Y-49040963D01*
X107166994Y-49429640D01*
X107674199Y-49640249D01*
X108223392Y-49640729D01*
X108730963Y-49431005D01*
X109119640Y-49043006D01*
X109330249Y-48535801D01*
X109330251Y-48533392D01*
X116729271Y-48533392D01*
X116938995Y-49040963D01*
X117326994Y-49429640D01*
X117602000Y-49543832D01*
X117602000Y-50640000D01*
X117640669Y-50834403D01*
X117750790Y-50999210D01*
X120737858Y-53986279D01*
X120589266Y-54344129D01*
X120588735Y-54953199D01*
X120821325Y-55516109D01*
X121251626Y-55947162D01*
X121612000Y-56096803D01*
X121612000Y-59890000D01*
X121650669Y-60084403D01*
X121760790Y-60249210D01*
X123207936Y-61696356D01*
X123207936Y-63246000D01*
X123234503Y-63387190D01*
X123317946Y-63516865D01*
X123445266Y-63603859D01*
X123596400Y-63634464D01*
X125323600Y-63634464D01*
X125464790Y-63607897D01*
X125594465Y-63524454D01*
X125681459Y-63397134D01*
X125712064Y-63246000D01*
X125712064Y-63148817D01*
X126097964Y-63580732D01*
X126625209Y-63834709D01*
X126640974Y-63837358D01*
X126873000Y-63716217D01*
X126873000Y-62357000D01*
X126853000Y-62357000D01*
X126853000Y-62103000D01*
X126873000Y-62103000D01*
X126873000Y-60743783D01*
X126640974Y-60622642D01*
X126625209Y-60625291D01*
X126097964Y-60879268D01*
X125712064Y-61311183D01*
X125712064Y-61214000D01*
X125685497Y-61072810D01*
X125602054Y-60943135D01*
X125474734Y-60856141D01*
X125323600Y-60825536D01*
X123773956Y-60825536D01*
X122628000Y-59679580D01*
X122628000Y-58411025D01*
X126038581Y-58411025D01*
X126155601Y-58693446D01*
X126819663Y-58945018D01*
X127529448Y-58923314D01*
X128084399Y-58693446D01*
X128201419Y-58411025D01*
X127120000Y-57329605D01*
X126038581Y-58411025D01*
X122628000Y-58411025D01*
X122628000Y-56849663D01*
X125324982Y-56849663D01*
X125346686Y-57559448D01*
X125576554Y-58114399D01*
X125858975Y-58231419D01*
X126940395Y-57150000D01*
X127299605Y-57150000D01*
X128381025Y-58231419D01*
X128663446Y-58114399D01*
X128915018Y-57450337D01*
X128893314Y-56740552D01*
X128663446Y-56185601D01*
X128381025Y-56068581D01*
X127299605Y-57150000D01*
X126940395Y-57150000D01*
X125858975Y-56068581D01*
X125576554Y-56185601D01*
X125324982Y-56849663D01*
X122628000Y-56849663D01*
X122628000Y-56096643D01*
X122986109Y-55948675D01*
X123045913Y-55888975D01*
X126038581Y-55888975D01*
X127120000Y-56970395D01*
X128201419Y-55888975D01*
X128084399Y-55606554D01*
X127420337Y-55354982D01*
X126710552Y-55376686D01*
X126155601Y-55606554D01*
X126038581Y-55888975D01*
X123045913Y-55888975D01*
X123417162Y-55518374D01*
X123650734Y-54955871D01*
X123651265Y-54346801D01*
X123418675Y-53783891D01*
X122988374Y-53352838D01*
X122425871Y-53119266D01*
X121816801Y-53118735D01*
X121456167Y-53267746D01*
X118618000Y-50429580D01*
X118618000Y-49543791D01*
X118890963Y-49431005D01*
X119279640Y-49043006D01*
X119490249Y-48535801D01*
X119490251Y-48533392D01*
X120539271Y-48533392D01*
X120748995Y-49040963D01*
X121136994Y-49429640D01*
X121644199Y-49640249D01*
X122193392Y-49640729D01*
X122468597Y-49527017D01*
X127950790Y-55009210D01*
X128115597Y-55119331D01*
X128310000Y-55158000D01*
X130673357Y-55158000D01*
X130821325Y-55516109D01*
X131251626Y-55947162D01*
X131612000Y-56096803D01*
X131612000Y-59439580D01*
X130097167Y-60954413D01*
X130016288Y-60900371D01*
X129540000Y-60805631D01*
X129063712Y-60900371D01*
X128659935Y-61170166D01*
X128390140Y-61573943D01*
X128387296Y-61588243D01*
X128291954Y-61315680D01*
X127902036Y-60879268D01*
X127374791Y-60625291D01*
X127359026Y-60622642D01*
X127127000Y-60743783D01*
X127127000Y-62103000D01*
X127147000Y-62103000D01*
X127147000Y-62357000D01*
X127127000Y-62357000D01*
X127127000Y-63716217D01*
X127359026Y-63837358D01*
X127374791Y-63834709D01*
X127902036Y-63580732D01*
X128291954Y-63144320D01*
X128387296Y-62871757D01*
X128390140Y-62886057D01*
X128659935Y-63289834D01*
X129063712Y-63559629D01*
X129540000Y-63654369D01*
X130016288Y-63559629D01*
X130420065Y-63289834D01*
X130689860Y-62886057D01*
X130784600Y-62409769D01*
X130784600Y-62050231D01*
X130727126Y-61761294D01*
X132479210Y-60009210D01*
X132589331Y-59844403D01*
X132628000Y-59650000D01*
X132628000Y-56096643D01*
X132986109Y-55948675D01*
X133417162Y-55518374D01*
X133650734Y-54955871D01*
X133651265Y-54346801D01*
X133418675Y-53783891D01*
X132988374Y-53352838D01*
X132425871Y-53119266D01*
X131816801Y-53118735D01*
X131253891Y-53351325D01*
X130822838Y-53781626D01*
X130673197Y-54142000D01*
X128520420Y-54142000D01*
X123186987Y-48808567D01*
X123300249Y-48535801D01*
X123300729Y-47986608D01*
X123091005Y-47479037D01*
X122703006Y-47090360D01*
X122195801Y-46879751D01*
X121646608Y-46879271D01*
X121139037Y-47088995D01*
X120750360Y-47476994D01*
X120539751Y-47984199D01*
X120539271Y-48533392D01*
X119490251Y-48533392D01*
X119490729Y-47986608D01*
X119281005Y-47479037D01*
X118893006Y-47090360D01*
X118385801Y-46879751D01*
X117836608Y-46879271D01*
X117329037Y-47088995D01*
X116940360Y-47476994D01*
X116729751Y-47984199D01*
X116729271Y-48533392D01*
X109330251Y-48533392D01*
X109330729Y-47986608D01*
X109121005Y-47479037D01*
X108733006Y-47090360D01*
X108225801Y-46879751D01*
X107676608Y-46879271D01*
X107169037Y-47088995D01*
X106780360Y-47476994D01*
X106569751Y-47984199D01*
X106569271Y-48533392D01*
X105520251Y-48533392D01*
X105520729Y-47986608D01*
X105311005Y-47479037D01*
X104923006Y-47090360D01*
X104415801Y-46879751D01*
X103866608Y-46879271D01*
X103359037Y-47088995D01*
X102970360Y-47476994D01*
X102759751Y-47984199D01*
X102759271Y-48533392D01*
X102968995Y-49040963D01*
X103356994Y-49429640D01*
X103864199Y-49640249D01*
X104413392Y-49640729D01*
X104688597Y-49527017D01*
X110170790Y-55009210D01*
X110335597Y-55119331D01*
X110337539Y-55119717D01*
X110501325Y-55516109D01*
X110931626Y-55947162D01*
X111292000Y-56096803D01*
X111292000Y-58169580D01*
X108523574Y-60938006D01*
X108484609Y-60911971D01*
X107950000Y-60805631D01*
X107415391Y-60911971D01*
X106962172Y-61214803D01*
X106814464Y-61435863D01*
X106814464Y-61214000D01*
X106787897Y-61072810D01*
X106704454Y-60943135D01*
X106577134Y-60856141D01*
X106426000Y-60825536D01*
X104723956Y-60825536D01*
X102308000Y-58409580D01*
X102308000Y-57453199D01*
X105268735Y-57453199D01*
X105501325Y-58016109D01*
X105931626Y-58447162D01*
X106494129Y-58680734D01*
X107103199Y-58681265D01*
X107666109Y-58448675D01*
X108097162Y-58018374D01*
X108330734Y-57455871D01*
X108331265Y-56846801D01*
X108098675Y-56283891D01*
X107668374Y-55852838D01*
X107105871Y-55619266D01*
X106496801Y-55618735D01*
X105933891Y-55851325D01*
X105502838Y-56281626D01*
X105269266Y-56844129D01*
X105268735Y-57453199D01*
X102308000Y-57453199D01*
X102308000Y-56096643D01*
X102666109Y-55948675D01*
X103097162Y-55518374D01*
X103330734Y-54955871D01*
X103331265Y-54346801D01*
X103098675Y-53783891D01*
X102668374Y-53352838D01*
X102105871Y-53119266D01*
X101496801Y-53118735D01*
X100933891Y-53351325D01*
X100502838Y-53781626D01*
X100353197Y-54142000D01*
X96772440Y-54142000D01*
X91324870Y-48694430D01*
X91402955Y-48506381D01*
X91403383Y-48016807D01*
X91216425Y-47564335D01*
X90870546Y-47217851D01*
X90680540Y-47138954D01*
X90680540Y-44657880D01*
X92158420Y-43180000D01*
X92775863Y-43180000D01*
X92865761Y-43631949D01*
X93121770Y-44015093D01*
X93504914Y-44271102D01*
X93956863Y-44361000D01*
X94003137Y-44361000D01*
X94455086Y-44271102D01*
X94838230Y-44015093D01*
X95094239Y-43631949D01*
X95184137Y-43180000D01*
X95094239Y-42728051D01*
X94838230Y-42344907D01*
X94455086Y-42088898D01*
X94003137Y-41999000D01*
X93956863Y-41999000D01*
X93504914Y-42088898D01*
X93121770Y-42344907D01*
X92865761Y-42728051D01*
X92775863Y-43180000D01*
X92158420Y-43180000D01*
X93590329Y-41748092D01*
X93956863Y-41821000D01*
X94003137Y-41821000D01*
X94455086Y-41731102D01*
X94838230Y-41475093D01*
X95094239Y-41091949D01*
X95184137Y-40640000D01*
X95094239Y-40188051D01*
X94838230Y-39804907D01*
X94455086Y-39548898D01*
X94003137Y-39459000D01*
X93956863Y-39459000D01*
X93504914Y-39548898D01*
X93121770Y-39804907D01*
X92865761Y-40188051D01*
X92775863Y-40640000D01*
X92856448Y-41045131D01*
X89813330Y-44088250D01*
X89703209Y-44253057D01*
X89664540Y-44447460D01*
X89664540Y-47138878D01*
X89476355Y-47216635D01*
X89129871Y-47562514D01*
X88942125Y-48014659D01*
X88941697Y-48504233D01*
X87740276Y-48504233D01*
X87740729Y-47986608D01*
X87531005Y-47479037D01*
X87143006Y-47090360D01*
X86635801Y-46879751D01*
X86086608Y-46879271D01*
X85579037Y-47088995D01*
X85190360Y-47476994D01*
X84979751Y-47984199D01*
X84979271Y-48533392D01*
X77580251Y-48533392D01*
X77580729Y-47986608D01*
X77371005Y-47479037D01*
X76983006Y-47090360D01*
X76475801Y-46879751D01*
X75926608Y-46879271D01*
X75419037Y-47088995D01*
X75030360Y-47476994D01*
X74819751Y-47984199D01*
X74819271Y-48533392D01*
X73770251Y-48533392D01*
X73770729Y-47986608D01*
X73561005Y-47479037D01*
X73173006Y-47090360D01*
X72665801Y-46879751D01*
X72116608Y-46879271D01*
X71609037Y-47088995D01*
X71220360Y-47476994D01*
X71009751Y-47984199D01*
X71009271Y-48533392D01*
X70612000Y-48533392D01*
X70612000Y-44799039D01*
X70998096Y-44799039D01*
X71158959Y-45187423D01*
X71534866Y-45602389D01*
X72040959Y-45841914D01*
X72263000Y-45720629D01*
X72263000Y-44577000D01*
X72517000Y-44577000D01*
X72517000Y-45720629D01*
X72739041Y-45841914D01*
X73245134Y-45602389D01*
X73621041Y-45187423D01*
X73781904Y-44799039D01*
X73659915Y-44577000D01*
X72517000Y-44577000D01*
X72263000Y-44577000D01*
X71120085Y-44577000D01*
X70998096Y-44799039D01*
X70612000Y-44799039D01*
X70612000Y-44450000D01*
X78805863Y-44450000D01*
X78895761Y-44901949D01*
X79151770Y-45285093D01*
X79534914Y-45541102D01*
X79986863Y-45631000D01*
X80033137Y-45631000D01*
X80485086Y-45541102D01*
X80868230Y-45285093D01*
X81124239Y-44901949D01*
X81214137Y-44450000D01*
X81124239Y-43998051D01*
X80868230Y-43614907D01*
X80485086Y-43358898D01*
X80033137Y-43269000D01*
X79986863Y-43269000D01*
X79534914Y-43358898D01*
X79151770Y-43614907D01*
X78895761Y-43998051D01*
X78805863Y-44450000D01*
X70612000Y-44450000D01*
X70612000Y-44100961D01*
X70998096Y-44100961D01*
X71120085Y-44323000D01*
X72263000Y-44323000D01*
X72263000Y-44303000D01*
X72517000Y-44303000D01*
X72517000Y-44323000D01*
X73659915Y-44323000D01*
X73781904Y-44100961D01*
X73621041Y-43712577D01*
X73245134Y-43297611D01*
X72739041Y-43058086D01*
X72517002Y-43179370D01*
X72517002Y-43070340D01*
X72865086Y-43001102D01*
X73248230Y-42745093D01*
X73504239Y-42361949D01*
X73594137Y-41910000D01*
X73504239Y-41458051D01*
X73248230Y-41074907D01*
X72865086Y-40818898D01*
X72413137Y-40729000D01*
X72366863Y-40729000D01*
X71914914Y-40818898D01*
X71531770Y-41074907D01*
X71275761Y-41458051D01*
X71185863Y-41910000D01*
X71275761Y-42361949D01*
X71531770Y-42745093D01*
X71914914Y-43001102D01*
X72262998Y-43070340D01*
X72262998Y-43179370D01*
X72040959Y-43058086D01*
X71534866Y-43297611D01*
X71158959Y-43712577D01*
X70998096Y-44100961D01*
X70612000Y-44100961D01*
X70612000Y-34290000D01*
X71185863Y-34290000D01*
X71275761Y-34741949D01*
X71531770Y-35125093D01*
X71882000Y-35359110D01*
X71882000Y-35760890D01*
X71531770Y-35994907D01*
X71275761Y-36378051D01*
X71185863Y-36830000D01*
X71275761Y-37281949D01*
X71531770Y-37665093D01*
X71882000Y-37899110D01*
X71882000Y-38300890D01*
X71531770Y-38534907D01*
X71275761Y-38918051D01*
X71185863Y-39370000D01*
X71275761Y-39821949D01*
X71531770Y-40205093D01*
X71914914Y-40461102D01*
X72366863Y-40551000D01*
X72413137Y-40551000D01*
X72865086Y-40461102D01*
X73248230Y-40205093D01*
X73504239Y-39821949D01*
X73594137Y-39370000D01*
X73504239Y-38918051D01*
X73248230Y-38534907D01*
X72898000Y-38300890D01*
X72898000Y-37899110D01*
X73248230Y-37665093D01*
X73504239Y-37281949D01*
X73594137Y-36830000D01*
X78805863Y-36830000D01*
X78895761Y-37281949D01*
X79151770Y-37665093D01*
X79502000Y-37899110D01*
X79502000Y-38300890D01*
X79151770Y-38534907D01*
X78895761Y-38918051D01*
X78805863Y-39370000D01*
X78895761Y-39821949D01*
X79151770Y-40205093D01*
X79502000Y-40439110D01*
X79502000Y-40840890D01*
X79151770Y-41074907D01*
X78895761Y-41458051D01*
X78805863Y-41910000D01*
X78895761Y-42361949D01*
X79151770Y-42745093D01*
X79534914Y-43001102D01*
X79986863Y-43091000D01*
X80033137Y-43091000D01*
X80485086Y-43001102D01*
X80868230Y-42745093D01*
X81124239Y-42361949D01*
X81214137Y-41910000D01*
X81124239Y-41458051D01*
X80868230Y-41074907D01*
X80518000Y-40840890D01*
X80518000Y-40439110D01*
X80868230Y-40205093D01*
X81124239Y-39821949D01*
X81159756Y-39643392D01*
X82439271Y-39643392D01*
X82648995Y-40150963D01*
X83036994Y-40539640D01*
X83544199Y-40750249D01*
X84093392Y-40750729D01*
X84600963Y-40541005D01*
X84989640Y-40153006D01*
X85200249Y-39645801D01*
X85200729Y-39096608D01*
X84991005Y-38589037D01*
X84603006Y-38200360D01*
X84095801Y-37989751D01*
X83546608Y-37989271D01*
X83039037Y-38198995D01*
X82650360Y-38586994D01*
X82439751Y-39094199D01*
X82439271Y-39643392D01*
X81159756Y-39643392D01*
X81214137Y-39370000D01*
X81124239Y-38918051D01*
X80868230Y-38534907D01*
X80518000Y-38300890D01*
X80518000Y-37899110D01*
X80868230Y-37665093D01*
X81124239Y-37281949D01*
X81130417Y-37250890D01*
X88934446Y-37250890D01*
X88934446Y-38950150D01*
X88961013Y-39091340D01*
X89044456Y-39221015D01*
X89171776Y-39308009D01*
X89322910Y-39338614D01*
X91022170Y-39338614D01*
X91163360Y-39312047D01*
X91293035Y-39228604D01*
X91380029Y-39101284D01*
X91410634Y-38950150D01*
X91410634Y-38608000D01*
X92791536Y-38608000D01*
X92791536Y-38900000D01*
X92818103Y-39041190D01*
X92901546Y-39170865D01*
X93028866Y-39257859D01*
X93180000Y-39288464D01*
X94450044Y-39288464D01*
X96012000Y-40850421D01*
X96012000Y-45509579D01*
X94528567Y-46993013D01*
X94255801Y-46879751D01*
X93706608Y-46879271D01*
X93199037Y-47088995D01*
X92810360Y-47476994D01*
X92599751Y-47984199D01*
X92599271Y-48533392D01*
X92808995Y-49040963D01*
X93196994Y-49429640D01*
X93704199Y-49640249D01*
X94253392Y-49640729D01*
X94760963Y-49431005D01*
X95149640Y-49043006D01*
X95360249Y-48535801D01*
X95360729Y-47986608D01*
X95247017Y-47711404D01*
X96793231Y-46165190D01*
X134556500Y-46165190D01*
X134556500Y-46704250D01*
X134715250Y-46863000D01*
X135763000Y-46863000D01*
X135763000Y-45815250D01*
X136017000Y-45815250D01*
X136017000Y-46863000D01*
X137064750Y-46863000D01*
X137223500Y-46704250D01*
X137223500Y-46165190D01*
X137126827Y-45931801D01*
X136948198Y-45753173D01*
X136714809Y-45656500D01*
X136175750Y-45656500D01*
X136017000Y-45815250D01*
X135763000Y-45815250D01*
X135604250Y-45656500D01*
X135065191Y-45656500D01*
X134831802Y-45753173D01*
X134653173Y-45931801D01*
X134556500Y-46165190D01*
X96793231Y-46165190D01*
X96879210Y-46079211D01*
X96976381Y-45933784D01*
X96989331Y-45914403D01*
X97028000Y-45720000D01*
X97028000Y-44723392D01*
X104029271Y-44723392D01*
X104238995Y-45230963D01*
X104626994Y-45619640D01*
X105134199Y-45830249D01*
X105683392Y-45830729D01*
X106190963Y-45621005D01*
X106579640Y-45233006D01*
X106790249Y-44725801D01*
X106790251Y-44723392D01*
X107839271Y-44723392D01*
X108048995Y-45230963D01*
X108436994Y-45619640D01*
X108944199Y-45830249D01*
X109493392Y-45830729D01*
X110000963Y-45621005D01*
X110273427Y-45349016D01*
X121240590Y-45349016D01*
X121296271Y-45579611D01*
X121779078Y-45747622D01*
X122289428Y-45718083D01*
X122623729Y-45579611D01*
X122679410Y-45349016D01*
X121960000Y-44629605D01*
X121240590Y-45349016D01*
X110273427Y-45349016D01*
X110389640Y-45233006D01*
X110600249Y-44725801D01*
X110600648Y-44269078D01*
X120662378Y-44269078D01*
X120691917Y-44779428D01*
X120830389Y-45113729D01*
X121060984Y-45169410D01*
X121780395Y-44450000D01*
X122139605Y-44450000D01*
X122859016Y-45169410D01*
X123089611Y-45113729D01*
X123249528Y-44654179D01*
X123428822Y-44654179D01*
X123585451Y-45033251D01*
X123875223Y-45323529D01*
X124254022Y-45480820D01*
X124664179Y-45481178D01*
X125043251Y-45324549D01*
X125333529Y-45034777D01*
X125490820Y-44655978D01*
X125491178Y-44245821D01*
X125334549Y-43866749D01*
X125044777Y-43576471D01*
X124665978Y-43419180D01*
X124255821Y-43418822D01*
X123876749Y-43575451D01*
X123586471Y-43865223D01*
X123429180Y-44244022D01*
X123428822Y-44654179D01*
X123249528Y-44654179D01*
X123257622Y-44630922D01*
X123228083Y-44120572D01*
X123089611Y-43786271D01*
X122859016Y-43730590D01*
X122139605Y-44450000D01*
X121780395Y-44450000D01*
X121060984Y-43730590D01*
X120830389Y-43786271D01*
X120662378Y-44269078D01*
X110600648Y-44269078D01*
X110600729Y-44176608D01*
X110391005Y-43669037D01*
X110273158Y-43550984D01*
X121240590Y-43550984D01*
X121960000Y-44270395D01*
X122679410Y-43550984D01*
X122623729Y-43320389D01*
X122140922Y-43152378D01*
X121630572Y-43181917D01*
X121296271Y-43320389D01*
X121240590Y-43550984D01*
X110273158Y-43550984D01*
X110003006Y-43280360D01*
X109495801Y-43069751D01*
X108946608Y-43069271D01*
X108439037Y-43278995D01*
X108050360Y-43666994D01*
X107839751Y-44174199D01*
X107839271Y-44723392D01*
X106790251Y-44723392D01*
X106790729Y-44176608D01*
X106581005Y-43669037D01*
X106193006Y-43280360D01*
X105685801Y-43069751D01*
X105136608Y-43069271D01*
X104629037Y-43278995D01*
X104240360Y-43666994D01*
X104029751Y-44174199D01*
X104029271Y-44723392D01*
X97028000Y-44723392D01*
X97028000Y-43529039D01*
X100208096Y-43529039D01*
X100368959Y-43917423D01*
X100744866Y-44332389D01*
X101250959Y-44571914D01*
X101473000Y-44450629D01*
X101473000Y-43307000D01*
X101727000Y-43307000D01*
X101727000Y-44450629D01*
X101949041Y-44571914D01*
X102455134Y-44332389D01*
X102831041Y-43917423D01*
X102991904Y-43529039D01*
X102869915Y-43307000D01*
X101727000Y-43307000D01*
X101473000Y-43307000D01*
X100330085Y-43307000D01*
X100208096Y-43529039D01*
X97028000Y-43529039D01*
X97028000Y-42830961D01*
X100208096Y-42830961D01*
X100330085Y-43053000D01*
X101473000Y-43053000D01*
X101473000Y-43033000D01*
X101727000Y-43033000D01*
X101727000Y-43053000D01*
X102869915Y-43053000D01*
X102991904Y-42830961D01*
X102831041Y-42442577D01*
X102455134Y-42027611D01*
X101949041Y-41788086D01*
X101727002Y-41909370D01*
X101727002Y-41800340D01*
X102075086Y-41731102D01*
X102458230Y-41475093D01*
X102714239Y-41091949D01*
X102734709Y-40989039D01*
X117988096Y-40989039D01*
X118148959Y-41377423D01*
X118524866Y-41792389D01*
X119030959Y-42031914D01*
X119253000Y-41910629D01*
X119253000Y-40767000D01*
X119507000Y-40767000D01*
X119507000Y-41910629D01*
X119729041Y-42031914D01*
X120235134Y-41792389D01*
X120611041Y-41377423D01*
X120771904Y-40989039D01*
X120649915Y-40767000D01*
X119507000Y-40767000D01*
X119253000Y-40767000D01*
X118110085Y-40767000D01*
X117988096Y-40989039D01*
X102734709Y-40989039D01*
X102804137Y-40640000D01*
X125795863Y-40640000D01*
X125885761Y-41091949D01*
X126141770Y-41475093D01*
X126524914Y-41731102D01*
X126976863Y-41821000D01*
X127023137Y-41821000D01*
X127475086Y-41731102D01*
X127858230Y-41475093D01*
X128114239Y-41091949D01*
X128204137Y-40640000D01*
X128114239Y-40188051D01*
X127858230Y-39804907D01*
X127690659Y-39692939D01*
X130449037Y-39692939D01*
X130696771Y-40292499D01*
X131155088Y-40751617D01*
X131754215Y-41000396D01*
X132402939Y-41000963D01*
X133002499Y-40753229D01*
X133461617Y-40294912D01*
X133710396Y-39695785D01*
X133710963Y-39047061D01*
X133463229Y-38447501D01*
X133004912Y-37988383D01*
X132405785Y-37739604D01*
X131757061Y-37739037D01*
X131157501Y-37986771D01*
X130698383Y-38445088D01*
X130449604Y-39044215D01*
X130449037Y-39692939D01*
X127690659Y-39692939D01*
X127475086Y-39548898D01*
X127023137Y-39459000D01*
X126976863Y-39459000D01*
X126524914Y-39548898D01*
X126141770Y-39804907D01*
X125885761Y-40188051D01*
X125795863Y-40640000D01*
X102804137Y-40640000D01*
X102723552Y-40234868D01*
X105769210Y-37189210D01*
X105879331Y-37024403D01*
X105918000Y-36830000D01*
X105918000Y-35573791D01*
X106190963Y-35461005D01*
X106579640Y-35073006D01*
X106790249Y-34565801D01*
X106790729Y-34016608D01*
X106581005Y-33509037D01*
X106193006Y-33120360D01*
X105685801Y-32909751D01*
X105136608Y-32909271D01*
X104629037Y-33118995D01*
X104240360Y-33506994D01*
X104029751Y-34014199D01*
X104029271Y-34563392D01*
X104238995Y-35070963D01*
X104626994Y-35459640D01*
X104902000Y-35573832D01*
X104902000Y-36619580D01*
X101989672Y-39531908D01*
X101623137Y-39459000D01*
X101576863Y-39459000D01*
X101124914Y-39548898D01*
X100741770Y-39804907D01*
X100485761Y-40188051D01*
X100395863Y-40640000D01*
X100485761Y-41091949D01*
X100741770Y-41475093D01*
X101124914Y-41731102D01*
X101472998Y-41800340D01*
X101472998Y-41909370D01*
X101250959Y-41788086D01*
X100744866Y-42027611D01*
X100368959Y-42442577D01*
X100208096Y-42830961D01*
X97028000Y-42830961D01*
X97028000Y-40640000D01*
X96989331Y-40445597D01*
X96952790Y-40390910D01*
X96879210Y-40280789D01*
X95168464Y-38570044D01*
X95168464Y-38100000D01*
X100395863Y-38100000D01*
X100485761Y-38551949D01*
X100741770Y-38935093D01*
X101124914Y-39191102D01*
X101576863Y-39281000D01*
X101623137Y-39281000D01*
X102075086Y-39191102D01*
X102458230Y-38935093D01*
X102714239Y-38551949D01*
X102804137Y-38100000D01*
X102714239Y-37648051D01*
X102458230Y-37264907D01*
X102075086Y-37008898D01*
X101623137Y-36919000D01*
X101576863Y-36919000D01*
X101124914Y-37008898D01*
X100741770Y-37264907D01*
X100485761Y-37648051D01*
X100395863Y-38100000D01*
X95168464Y-38100000D01*
X95168464Y-37300000D01*
X95141897Y-37158810D01*
X95058454Y-37029135D01*
X94931134Y-36942141D01*
X94780000Y-36911536D01*
X93180000Y-36911536D01*
X93038810Y-36938103D01*
X92909135Y-37021546D01*
X92822141Y-37148866D01*
X92791536Y-37300000D01*
X92791536Y-37592000D01*
X91410634Y-37592000D01*
X91410634Y-37250890D01*
X91384067Y-37109700D01*
X91300624Y-36980025D01*
X91173304Y-36893031D01*
X91022170Y-36862426D01*
X89322910Y-36862426D01*
X89181720Y-36888993D01*
X89052045Y-36972436D01*
X88965051Y-37099756D01*
X88934446Y-37250890D01*
X81130417Y-37250890D01*
X81214137Y-36830000D01*
X81124239Y-36378051D01*
X80868230Y-35994907D01*
X80485086Y-35738898D01*
X80033137Y-35649000D01*
X79986863Y-35649000D01*
X79534914Y-35738898D01*
X79151770Y-35994907D01*
X78895761Y-36378051D01*
X78805863Y-36830000D01*
X73594137Y-36830000D01*
X73504239Y-36378051D01*
X73248230Y-35994907D01*
X72898000Y-35760890D01*
X72898000Y-35359110D01*
X73248230Y-35125093D01*
X73504239Y-34741949D01*
X73594137Y-34290000D01*
X73504239Y-33838051D01*
X73248230Y-33454907D01*
X72865086Y-33198898D01*
X72413137Y-33109000D01*
X72366863Y-33109000D01*
X71914914Y-33198898D01*
X71531770Y-33454907D01*
X71275761Y-33838051D01*
X71185863Y-34290000D01*
X70612000Y-34290000D01*
X70612000Y-31750000D01*
X71185863Y-31750000D01*
X71275761Y-32201949D01*
X71531770Y-32585093D01*
X71914914Y-32841102D01*
X72366863Y-32931000D01*
X72413137Y-32931000D01*
X72865086Y-32841102D01*
X73248230Y-32585093D01*
X73504239Y-32201949D01*
X73594137Y-31750000D01*
X78805863Y-31750000D01*
X78895761Y-32201949D01*
X79151770Y-32585093D01*
X79502000Y-32819110D01*
X79502000Y-33220890D01*
X79151770Y-33454907D01*
X78895761Y-33838051D01*
X78805863Y-34290000D01*
X78895761Y-34741949D01*
X79151770Y-35125093D01*
X79534914Y-35381102D01*
X79986863Y-35471000D01*
X80033137Y-35471000D01*
X80485086Y-35381102D01*
X80868230Y-35125093D01*
X81124239Y-34741949D01*
X81214137Y-34290000D01*
X81124239Y-33838051D01*
X81105751Y-33810381D01*
X88289224Y-33810381D01*
X88326418Y-34025532D01*
X88754880Y-34168491D01*
X89205435Y-34136602D01*
X89473582Y-34025532D01*
X89510776Y-33810381D01*
X93369224Y-33810381D01*
X93406418Y-34025532D01*
X93834880Y-34168491D01*
X94285435Y-34136602D01*
X94553582Y-34025532D01*
X94590776Y-33810381D01*
X93980000Y-33199605D01*
X93369224Y-33810381D01*
X89510776Y-33810381D01*
X88900000Y-33199605D01*
X88289224Y-33810381D01*
X81105751Y-33810381D01*
X80868230Y-33454907D01*
X80518000Y-33220890D01*
X80518000Y-32874880D01*
X87751509Y-32874880D01*
X87783398Y-33325435D01*
X87894468Y-33593582D01*
X88109619Y-33630776D01*
X88720395Y-33020000D01*
X88109619Y-32409224D01*
X87894468Y-32446418D01*
X87751509Y-32874880D01*
X80518000Y-32874880D01*
X80518000Y-32819110D01*
X80868230Y-32585093D01*
X81086787Y-32258000D01*
X81280000Y-32258000D01*
X81474403Y-32219331D01*
X81639210Y-32109210D01*
X83271433Y-30476987D01*
X83544199Y-30590249D01*
X84093392Y-30590729D01*
X84600963Y-30381005D01*
X84989640Y-29993006D01*
X85103832Y-29718000D01*
X88436162Y-29718000D01*
X88401391Y-29732367D01*
X88153238Y-29980087D01*
X88018774Y-30303914D01*
X88018468Y-30654548D01*
X88152367Y-30978609D01*
X88400087Y-31226762D01*
X88723914Y-31361226D01*
X89074548Y-31361532D01*
X89398609Y-31227633D01*
X89638661Y-30988000D01*
X89706162Y-30988000D01*
X89671391Y-31002367D01*
X89423238Y-31250087D01*
X89288774Y-31573914D01*
X89288468Y-31924548D01*
X89301962Y-31957206D01*
X89045120Y-31871509D01*
X88594565Y-31903398D01*
X88326418Y-32014468D01*
X88289224Y-32229619D01*
X88900000Y-32840395D01*
X88914143Y-32826253D01*
X89093748Y-33005858D01*
X89079605Y-33020000D01*
X89690381Y-33630776D01*
X89905532Y-33593582D01*
X90048491Y-33165120D01*
X90016602Y-32714565D01*
X89979624Y-32625292D01*
X89993914Y-32631226D01*
X90344548Y-32631532D01*
X90668609Y-32497633D01*
X90916762Y-32249913D01*
X91051226Y-31926086D01*
X91051532Y-31575452D01*
X90917633Y-31251391D01*
X90669913Y-31003238D01*
X90633216Y-30988000D01*
X91229580Y-30988000D01*
X92350790Y-32109210D01*
X92515596Y-32219331D01*
X92547850Y-32225746D01*
X92710000Y-32258000D01*
X93108392Y-32258000D01*
X93073392Y-32293000D01*
X93189616Y-32409224D01*
X92974468Y-32446418D01*
X92831509Y-32874880D01*
X92863398Y-33325435D01*
X92974468Y-33593582D01*
X93189619Y-33630776D01*
X93800395Y-33020000D01*
X93786253Y-33005858D01*
X93965858Y-32826253D01*
X93980000Y-32840395D01*
X93994143Y-32826253D01*
X94173748Y-33005858D01*
X94159605Y-33020000D01*
X94770381Y-33630776D01*
X94985532Y-33593582D01*
X95128491Y-33165120D01*
X95096602Y-32714565D01*
X95059624Y-32625292D01*
X95073914Y-32631226D01*
X95413101Y-32631522D01*
X95525790Y-32744211D01*
X95690597Y-32854331D01*
X95885000Y-32893000D01*
X107104580Y-32893000D01*
X107953013Y-33741433D01*
X107839751Y-34014199D01*
X107839271Y-34563392D01*
X108048995Y-35070963D01*
X108436994Y-35459640D01*
X108944199Y-35670249D01*
X109493392Y-35670729D01*
X110000963Y-35461005D01*
X110389640Y-35073006D01*
X110600249Y-34565801D01*
X110600729Y-34016608D01*
X110391005Y-33509037D01*
X110003006Y-33120360D01*
X109495801Y-32909751D01*
X108946608Y-32909271D01*
X108671403Y-33022983D01*
X107674210Y-32025790D01*
X107509403Y-31915669D01*
X107315000Y-31877000D01*
X99942075Y-31877000D01*
X100032557Y-31632163D01*
X99060000Y-30659605D01*
X98087443Y-31632163D01*
X98177925Y-31877000D01*
X96131269Y-31877000D01*
X96131532Y-31575452D01*
X95997633Y-31251391D01*
X95749913Y-31003238D01*
X95426086Y-30868774D01*
X95075452Y-30868468D01*
X94751391Y-31002367D01*
X94511339Y-31242000D01*
X94443838Y-31242000D01*
X94478609Y-31227633D01*
X94726762Y-30979913D01*
X94861226Y-30656086D01*
X94861532Y-30305452D01*
X94824399Y-30215582D01*
X97414599Y-30215582D01*
X97438659Y-30865377D01*
X97641035Y-31353958D01*
X97907837Y-31452557D01*
X98880395Y-30480000D01*
X99239605Y-30480000D01*
X100212163Y-31452557D01*
X100478965Y-31353958D01*
X100702067Y-30753392D01*
X107839271Y-30753392D01*
X108048995Y-31260963D01*
X108436994Y-31649640D01*
X108944199Y-31860249D01*
X109493392Y-31860729D01*
X110000963Y-31651005D01*
X110389640Y-31263006D01*
X110600249Y-30755801D01*
X110600729Y-30206608D01*
X110487017Y-29931404D01*
X110636921Y-29781500D01*
X111943036Y-29781500D01*
X111943036Y-31178500D01*
X111969603Y-31319690D01*
X112053046Y-31449365D01*
X112180366Y-31536359D01*
X112331500Y-31566964D01*
X112522000Y-31566964D01*
X112522000Y-31933036D01*
X112331500Y-31933036D01*
X112190310Y-31959603D01*
X112060635Y-32043046D01*
X111973641Y-32170366D01*
X111943036Y-32321500D01*
X111943036Y-33718500D01*
X111969603Y-33859690D01*
X112053046Y-33989365D01*
X112180366Y-34076359D01*
X112331500Y-34106964D01*
X112522000Y-34106964D01*
X112522000Y-34473036D01*
X112331500Y-34473036D01*
X112190310Y-34499603D01*
X112060635Y-34583046D01*
X111973641Y-34710366D01*
X111943036Y-34861500D01*
X111943036Y-36258500D01*
X111969603Y-36399690D01*
X112053046Y-36529365D01*
X112180366Y-36616359D01*
X112331500Y-36646964D01*
X113728500Y-36646964D01*
X113869690Y-36620397D01*
X113999365Y-36536954D01*
X114086359Y-36409634D01*
X114116964Y-36258500D01*
X114116964Y-34861500D01*
X114090397Y-34720310D01*
X114006954Y-34590635D01*
X113879634Y-34503641D01*
X113728500Y-34473036D01*
X113538000Y-34473036D01*
X113538000Y-34106964D01*
X113728500Y-34106964D01*
X113869690Y-34080397D01*
X113999365Y-33996954D01*
X114086359Y-33869634D01*
X114116964Y-33718500D01*
X114116964Y-32321500D01*
X114090397Y-32180310D01*
X114006954Y-32050635D01*
X113879634Y-31963641D01*
X113728500Y-31933036D01*
X113538000Y-31933036D01*
X113538000Y-31566964D01*
X113728500Y-31566964D01*
X113869690Y-31540397D01*
X113999365Y-31456954D01*
X114086359Y-31329634D01*
X114116964Y-31178500D01*
X114116964Y-29781500D01*
X114483036Y-29781500D01*
X114483036Y-31178500D01*
X114509603Y-31319690D01*
X114593046Y-31449365D01*
X114720366Y-31536359D01*
X114871500Y-31566964D01*
X115938544Y-31566964D01*
X116313786Y-31942207D01*
X116268500Y-31933036D01*
X114871500Y-31933036D01*
X114730310Y-31959603D01*
X114600635Y-32043046D01*
X114513641Y-32170366D01*
X114483036Y-32321500D01*
X114483036Y-33718500D01*
X114509603Y-33859690D01*
X114593046Y-33989365D01*
X114720366Y-34076359D01*
X114871500Y-34106964D01*
X115938544Y-34106964D01*
X116313786Y-34482207D01*
X116268500Y-34473036D01*
X114871500Y-34473036D01*
X114730310Y-34499603D01*
X114600635Y-34583046D01*
X114513641Y-34710366D01*
X114483036Y-34861500D01*
X114483036Y-36258500D01*
X114509603Y-36399690D01*
X114593046Y-36529365D01*
X114720366Y-36616359D01*
X114871500Y-36646964D01*
X115938544Y-36646964D01*
X117750789Y-38459210D01*
X117860910Y-38532790D01*
X117915597Y-38569331D01*
X118110000Y-38608000D01*
X118303213Y-38608000D01*
X118521770Y-38935093D01*
X118904914Y-39191102D01*
X119252998Y-39260340D01*
X119252998Y-39369370D01*
X119030959Y-39248086D01*
X118524866Y-39487611D01*
X118148959Y-39902577D01*
X117988096Y-40290961D01*
X118110085Y-40513000D01*
X119253000Y-40513000D01*
X119253000Y-40493000D01*
X119507000Y-40493000D01*
X119507000Y-40513000D01*
X120649915Y-40513000D01*
X120771904Y-40290961D01*
X120611041Y-39902577D01*
X120235134Y-39487611D01*
X119729041Y-39248086D01*
X119507002Y-39369370D01*
X119507002Y-39260340D01*
X119855086Y-39191102D01*
X120238230Y-38935093D01*
X120494239Y-38551949D01*
X120584137Y-38100000D01*
X125795863Y-38100000D01*
X125885761Y-38551949D01*
X126141770Y-38935093D01*
X126524914Y-39191102D01*
X126976863Y-39281000D01*
X127023137Y-39281000D01*
X127475086Y-39191102D01*
X127858230Y-38935093D01*
X128114239Y-38551949D01*
X128204137Y-38100000D01*
X128114239Y-37648051D01*
X127858230Y-37264907D01*
X127475086Y-37008898D01*
X127023137Y-36919000D01*
X126976863Y-36919000D01*
X126524914Y-37008898D01*
X126141770Y-37264907D01*
X125885761Y-37648051D01*
X125795863Y-38100000D01*
X120584137Y-38100000D01*
X120494239Y-37648051D01*
X120238230Y-37264907D01*
X119855086Y-37008898D01*
X119403137Y-36919000D01*
X119356863Y-36919000D01*
X118904914Y-37008898D01*
X118521770Y-37264907D01*
X118310106Y-37581685D01*
X116656964Y-35928544D01*
X116656964Y-34861500D01*
X116648593Y-34817014D01*
X117750789Y-35919210D01*
X117860910Y-35992790D01*
X117915597Y-36029331D01*
X118110000Y-36068000D01*
X118303213Y-36068000D01*
X118521770Y-36395093D01*
X118904914Y-36651102D01*
X119356863Y-36741000D01*
X119403137Y-36741000D01*
X119855086Y-36651102D01*
X120238230Y-36395093D01*
X120494239Y-36011949D01*
X120584137Y-35560000D01*
X120494239Y-35108051D01*
X120238230Y-34724907D01*
X119855086Y-34468898D01*
X119403137Y-34379000D01*
X119356863Y-34379000D01*
X118904914Y-34468898D01*
X118521770Y-34724907D01*
X118310106Y-35041685D01*
X116656964Y-33388544D01*
X116656964Y-32321500D01*
X116648593Y-32277014D01*
X117750789Y-33379210D01*
X117860910Y-33452790D01*
X117915597Y-33489331D01*
X118110000Y-33528000D01*
X118303213Y-33528000D01*
X118521770Y-33855093D01*
X118904914Y-34111102D01*
X119356863Y-34201000D01*
X119403137Y-34201000D01*
X119855086Y-34111102D01*
X120238230Y-33855093D01*
X120494239Y-33471949D01*
X120584137Y-33020000D01*
X120494239Y-32568051D01*
X120238230Y-32184907D01*
X119855086Y-31928898D01*
X119403137Y-31839000D01*
X119356863Y-31839000D01*
X118904914Y-31928898D01*
X118521770Y-32184907D01*
X118310106Y-32501685D01*
X116656964Y-30848544D01*
X116656964Y-30480000D01*
X118175863Y-30480000D01*
X118265761Y-30931949D01*
X118521770Y-31315093D01*
X118904914Y-31571102D01*
X119356863Y-31661000D01*
X119403137Y-31661000D01*
X119855086Y-31571102D01*
X120238230Y-31315093D01*
X120494239Y-30931949D01*
X120584137Y-30480000D01*
X120494239Y-30028051D01*
X120238230Y-29644907D01*
X119855086Y-29388898D01*
X119403137Y-29299000D01*
X119356863Y-29299000D01*
X118904914Y-29388898D01*
X118521770Y-29644907D01*
X118265761Y-30028051D01*
X118175863Y-30480000D01*
X116656964Y-30480000D01*
X116656964Y-29781500D01*
X116630397Y-29640310D01*
X116546954Y-29510635D01*
X116419634Y-29423641D01*
X116268500Y-29393036D01*
X114871500Y-29393036D01*
X114730310Y-29419603D01*
X114600635Y-29503046D01*
X114513641Y-29630366D01*
X114483036Y-29781500D01*
X114116964Y-29781500D01*
X114090397Y-29640310D01*
X114006954Y-29510635D01*
X113879634Y-29423641D01*
X113728500Y-29393036D01*
X112331500Y-29393036D01*
X112190310Y-29419603D01*
X112060635Y-29503046D01*
X111973641Y-29630366D01*
X111943036Y-29781500D01*
X110636921Y-29781500D01*
X112119210Y-28299211D01*
X112229330Y-28134404D01*
X112229331Y-28134403D01*
X112268000Y-27940000D01*
X118175863Y-27940000D01*
X118265761Y-28391949D01*
X118521770Y-28775093D01*
X118904914Y-29031102D01*
X119356863Y-29121000D01*
X119403137Y-29121000D01*
X119855086Y-29031102D01*
X120238230Y-28775093D01*
X120494239Y-28391949D01*
X120514709Y-28289039D01*
X125608096Y-28289039D01*
X125768959Y-28677423D01*
X126144866Y-29092389D01*
X126650959Y-29331914D01*
X126872998Y-29210630D01*
X126872998Y-29319660D01*
X126524914Y-29388898D01*
X126141770Y-29644907D01*
X125885761Y-30028051D01*
X125795863Y-30480000D01*
X125885761Y-30931949D01*
X126141770Y-31315093D01*
X126524914Y-31571102D01*
X126872998Y-31640340D01*
X126872998Y-31749370D01*
X126650959Y-31628086D01*
X126144866Y-31867611D01*
X125768959Y-32282577D01*
X125608096Y-32670961D01*
X125730085Y-32893000D01*
X126873000Y-32893000D01*
X126873000Y-32873000D01*
X127127000Y-32873000D01*
X127127000Y-32893000D01*
X128269915Y-32893000D01*
X128391904Y-32670961D01*
X128231041Y-32282577D01*
X127855134Y-31867611D01*
X127349041Y-31628086D01*
X127127002Y-31749370D01*
X127127002Y-31640340D01*
X127475086Y-31571102D01*
X127858230Y-31315093D01*
X128114239Y-30931949D01*
X128204137Y-30480000D01*
X128123552Y-30074868D01*
X131572000Y-26626420D01*
X131572000Y-30269580D01*
X128334892Y-33506688D01*
X128391904Y-33369039D01*
X128269915Y-33147000D01*
X127127000Y-33147000D01*
X127127000Y-33167000D01*
X126873000Y-33167000D01*
X126873000Y-33147000D01*
X125730085Y-33147000D01*
X125608096Y-33369039D01*
X125768959Y-33757423D01*
X126144866Y-34172389D01*
X126650959Y-34411914D01*
X126872998Y-34290630D01*
X126872998Y-34399660D01*
X126524914Y-34468898D01*
X126141770Y-34724907D01*
X125885761Y-35108051D01*
X125795863Y-35560000D01*
X125885761Y-36011949D01*
X126141770Y-36395093D01*
X126524914Y-36651102D01*
X126976863Y-36741000D01*
X127023137Y-36741000D01*
X127475086Y-36651102D01*
X127858230Y-36395093D01*
X128114239Y-36011949D01*
X128204137Y-35560000D01*
X128123552Y-35154868D01*
X132439210Y-30839210D01*
X132549331Y-30674403D01*
X132588000Y-30480000D01*
X132588000Y-25684497D01*
X133002499Y-25513229D01*
X133052726Y-25463089D01*
X138546517Y-25463089D01*
X138675725Y-25755859D01*
X139375883Y-26024071D01*
X140125384Y-26003928D01*
X140724275Y-25755859D01*
X140853483Y-25463089D01*
X139700000Y-24309605D01*
X138546517Y-25463089D01*
X133052726Y-25463089D01*
X133461617Y-25054912D01*
X133710396Y-24455785D01*
X133710963Y-23807061D01*
X133710477Y-23805883D01*
X137805929Y-23805883D01*
X137826072Y-24555384D01*
X138074141Y-25154275D01*
X138366911Y-25283483D01*
X139520395Y-24130000D01*
X139879605Y-24130000D01*
X141033089Y-25283483D01*
X141325859Y-25154275D01*
X141594071Y-24454117D01*
X141573928Y-23704616D01*
X141342438Y-23145750D01*
X143281400Y-23145750D01*
X143281400Y-23849910D01*
X143378073Y-24083299D01*
X143556702Y-24261927D01*
X143754120Y-24343700D01*
X143497312Y-24625053D01*
X143325042Y-25040974D01*
X143446183Y-25273000D01*
X144653000Y-25273000D01*
X144653000Y-22987000D01*
X143440150Y-22987000D01*
X143281400Y-23145750D01*
X141342438Y-23145750D01*
X141325859Y-23105725D01*
X141033089Y-22976517D01*
X139879605Y-24130000D01*
X139520395Y-24130000D01*
X138366911Y-22976517D01*
X138074141Y-23105725D01*
X137805929Y-23805883D01*
X133710477Y-23805883D01*
X133463229Y-23207501D01*
X133053356Y-22796911D01*
X138546517Y-22796911D01*
X139700000Y-23950395D01*
X140853483Y-22796911D01*
X140724275Y-22504141D01*
X140024117Y-22235929D01*
X139274616Y-22256072D01*
X138675725Y-22504141D01*
X138546517Y-22796911D01*
X133053356Y-22796911D01*
X133004912Y-22748383D01*
X132405785Y-22499604D01*
X131757061Y-22499037D01*
X131157501Y-22746771D01*
X130698383Y-23205088D01*
X130449604Y-23804215D01*
X130449037Y-24452939D01*
X130696771Y-25052499D01*
X131155088Y-25511617D01*
X131222126Y-25539454D01*
X128334892Y-28426688D01*
X128391904Y-28289039D01*
X128269915Y-28067000D01*
X127127000Y-28067000D01*
X127127000Y-28087000D01*
X126873000Y-28087000D01*
X126873000Y-28067000D01*
X125730085Y-28067000D01*
X125608096Y-28289039D01*
X120514709Y-28289039D01*
X120584137Y-27940000D01*
X120514710Y-27590961D01*
X125608096Y-27590961D01*
X125730085Y-27813000D01*
X126873000Y-27813000D01*
X126873000Y-27793000D01*
X127127000Y-27793000D01*
X127127000Y-27813000D01*
X128269915Y-27813000D01*
X128391904Y-27590961D01*
X128231041Y-27202577D01*
X127855134Y-26787611D01*
X127349041Y-26548086D01*
X127127002Y-26669370D01*
X127127002Y-26560340D01*
X127475086Y-26491102D01*
X127858230Y-26235093D01*
X128114239Y-25851949D01*
X128204137Y-25400000D01*
X128114239Y-24948051D01*
X127858230Y-24564907D01*
X127475086Y-24308898D01*
X127023137Y-24219000D01*
X126976863Y-24219000D01*
X126524914Y-24308898D01*
X126141770Y-24564907D01*
X125885761Y-24948051D01*
X125795863Y-25400000D01*
X125885761Y-25851949D01*
X126141770Y-26235093D01*
X126524914Y-26491102D01*
X126872998Y-26560340D01*
X126872998Y-26669370D01*
X126650959Y-26548086D01*
X126144866Y-26787611D01*
X125768959Y-27202577D01*
X125608096Y-27590961D01*
X120514710Y-27590961D01*
X120494239Y-27488051D01*
X120238230Y-27104907D01*
X119855086Y-26848898D01*
X119403137Y-26759000D01*
X119356863Y-26759000D01*
X118904914Y-26848898D01*
X118521770Y-27104907D01*
X118265761Y-27488051D01*
X118175863Y-27940000D01*
X112268000Y-27940000D01*
X112268000Y-25518464D01*
X112710000Y-25518464D01*
X112851190Y-25491897D01*
X112980865Y-25408454D01*
X112986641Y-25400000D01*
X118175863Y-25400000D01*
X118265761Y-25851949D01*
X118521770Y-26235093D01*
X118904914Y-26491102D01*
X119356863Y-26581000D01*
X119403137Y-26581000D01*
X119855086Y-26491102D01*
X120238230Y-26235093D01*
X120494239Y-25851949D01*
X120584137Y-25400000D01*
X120494239Y-24948051D01*
X120238230Y-24564907D01*
X119855086Y-24308898D01*
X119403137Y-24219000D01*
X119356863Y-24219000D01*
X118904914Y-24308898D01*
X118521770Y-24564907D01*
X118265761Y-24948051D01*
X118175863Y-25400000D01*
X112986641Y-25400000D01*
X113067859Y-25281134D01*
X113098464Y-25130000D01*
X113098464Y-23130000D01*
X113071897Y-22988810D01*
X112988454Y-22859135D01*
X112861134Y-22772141D01*
X112710000Y-22741536D01*
X110810000Y-22741536D01*
X110668810Y-22768103D01*
X110539135Y-22851546D01*
X110452141Y-22978866D01*
X110421536Y-23130000D01*
X110421536Y-23552524D01*
X110349025Y-23377034D01*
X109974935Y-23002291D01*
X109485914Y-22799231D01*
X108956409Y-22798769D01*
X108467034Y-23000975D01*
X108092291Y-23375065D01*
X107889231Y-23864086D01*
X107888769Y-24393591D01*
X108090975Y-24882966D01*
X108465065Y-25257709D01*
X108954086Y-25460769D01*
X109483591Y-25461231D01*
X109972966Y-25259025D01*
X110347709Y-24884935D01*
X110421536Y-24707140D01*
X110421536Y-25130000D01*
X110448103Y-25271190D01*
X110531546Y-25400865D01*
X110658866Y-25487859D01*
X110810000Y-25518464D01*
X111252000Y-25518464D01*
X111252000Y-27729579D01*
X109768567Y-29213013D01*
X109495801Y-29099751D01*
X108946608Y-29099271D01*
X108439037Y-29308995D01*
X108050360Y-29696994D01*
X107839751Y-30204199D01*
X107839271Y-30753392D01*
X100702067Y-30753392D01*
X100705401Y-30744418D01*
X100681341Y-30094623D01*
X100478965Y-29606042D01*
X100212163Y-29507443D01*
X99239605Y-30480000D01*
X98880395Y-30480000D01*
X97907837Y-29507443D01*
X97641035Y-29606042D01*
X97414599Y-30215582D01*
X94824399Y-30215582D01*
X94727633Y-29981391D01*
X94479913Y-29733238D01*
X94156086Y-29598774D01*
X93816898Y-29598478D01*
X93546257Y-29327837D01*
X98087443Y-29327837D01*
X99060000Y-30300395D01*
X100032557Y-29327837D01*
X99933958Y-29061035D01*
X99324418Y-28834599D01*
X98674623Y-28858659D01*
X98186042Y-29061035D01*
X98087443Y-29327837D01*
X93546257Y-29327837D01*
X91948000Y-27729580D01*
X91948000Y-25149079D01*
X92050689Y-25106649D01*
X92354622Y-24803246D01*
X92519313Y-24406628D01*
X92519420Y-24282824D01*
X92900313Y-24282824D01*
X93064311Y-24679729D01*
X93367714Y-24983662D01*
X93764332Y-25148353D01*
X94193784Y-25148727D01*
X94590689Y-24984729D01*
X94894622Y-24681326D01*
X95009469Y-24404744D01*
X95440313Y-24404744D01*
X95604311Y-24801649D01*
X95907714Y-25105582D01*
X96304332Y-25270273D01*
X96733784Y-25270647D01*
X97130689Y-25106649D01*
X97434622Y-24803246D01*
X97599313Y-24406628D01*
X97599420Y-24282824D01*
X97980313Y-24282824D01*
X98144311Y-24679729D01*
X98447714Y-24983662D01*
X98844332Y-25148353D01*
X99273784Y-25148727D01*
X99330849Y-25125148D01*
X100845417Y-25125148D01*
X100907071Y-25360760D01*
X101407480Y-25536887D01*
X101937199Y-25508108D01*
X102292929Y-25360760D01*
X102354583Y-25125148D01*
X101600000Y-24370565D01*
X100845417Y-25125148D01*
X99330849Y-25125148D01*
X99670689Y-24984729D01*
X99974622Y-24681326D01*
X100139313Y-24284708D01*
X100139562Y-23998440D01*
X100254073Y-23998440D01*
X100282852Y-24528159D01*
X100430200Y-24883889D01*
X100665812Y-24945543D01*
X101420395Y-24190960D01*
X101779605Y-24190960D01*
X102534188Y-24945543D01*
X102769800Y-24883889D01*
X102945927Y-24383480D01*
X102917148Y-23853761D01*
X102769800Y-23498031D01*
X102534188Y-23436377D01*
X101779605Y-24190960D01*
X101420395Y-24190960D01*
X100665812Y-23436377D01*
X100430200Y-23498031D01*
X100254073Y-23998440D01*
X100139562Y-23998440D01*
X100139687Y-23855256D01*
X99975689Y-23458351D01*
X99774462Y-23256772D01*
X100845417Y-23256772D01*
X101600000Y-24011355D01*
X102354583Y-23256772D01*
X102292929Y-23021160D01*
X101792520Y-22845033D01*
X101262801Y-22873812D01*
X100907071Y-23021160D01*
X100845417Y-23256772D01*
X99774462Y-23256772D01*
X99672286Y-23154418D01*
X99275668Y-22989727D01*
X98846216Y-22989353D01*
X98449311Y-23153351D01*
X98145378Y-23456754D01*
X97980687Y-23853372D01*
X97980313Y-24282824D01*
X97599420Y-24282824D01*
X97599687Y-23977176D01*
X97435689Y-23580271D01*
X97132286Y-23276338D01*
X96735668Y-23111647D01*
X96306216Y-23111273D01*
X95909311Y-23275271D01*
X95605378Y-23578674D01*
X95440687Y-23975292D01*
X95440313Y-24404744D01*
X95009469Y-24404744D01*
X95059313Y-24284708D01*
X95059687Y-23855256D01*
X94895689Y-23458351D01*
X94592286Y-23154418D01*
X94195668Y-22989727D01*
X93766216Y-22989353D01*
X93369311Y-23153351D01*
X93065378Y-23456754D01*
X92900687Y-23853372D01*
X92900313Y-24282824D01*
X92519420Y-24282824D01*
X92519687Y-23977176D01*
X92355689Y-23580271D01*
X92052286Y-23276338D01*
X91655668Y-23111647D01*
X91226216Y-23111273D01*
X90829311Y-23275271D01*
X90525378Y-23578674D01*
X90360687Y-23975292D01*
X90360313Y-24404744D01*
X90524311Y-24801649D01*
X90827714Y-25105582D01*
X90932000Y-25148886D01*
X90932000Y-27940000D01*
X90970669Y-28134403D01*
X91080790Y-28299210D01*
X91483580Y-28702000D01*
X85103791Y-28702000D01*
X84991005Y-28429037D01*
X84603006Y-28040360D01*
X84095801Y-27829751D01*
X83546608Y-27829271D01*
X83039037Y-28038995D01*
X82650360Y-28426994D01*
X82439751Y-28934199D01*
X82439271Y-29483392D01*
X82552983Y-29758596D01*
X81079895Y-31231685D01*
X80868230Y-30914907D01*
X80485086Y-30658898D01*
X80033137Y-30569000D01*
X79986863Y-30569000D01*
X79534914Y-30658898D01*
X79151770Y-30914907D01*
X78895761Y-31298051D01*
X78805863Y-31750000D01*
X73594137Y-31750000D01*
X73504239Y-31298051D01*
X73248230Y-30914907D01*
X72898000Y-30680890D01*
X72898000Y-30398464D01*
X73190000Y-30398464D01*
X73331190Y-30371897D01*
X73460865Y-30288454D01*
X73547859Y-30161134D01*
X73578464Y-30010000D01*
X73578464Y-29210000D01*
X78805863Y-29210000D01*
X78895761Y-29661949D01*
X79151770Y-30045093D01*
X79534914Y-30301102D01*
X79986863Y-30391000D01*
X80033137Y-30391000D01*
X80485086Y-30301102D01*
X80868230Y-30045093D01*
X81124239Y-29661949D01*
X81214137Y-29210000D01*
X81124239Y-28758051D01*
X80868230Y-28374907D01*
X80485086Y-28118898D01*
X80033137Y-28029000D01*
X79986863Y-28029000D01*
X79534914Y-28118898D01*
X79151770Y-28374907D01*
X78895761Y-28758051D01*
X78805863Y-29210000D01*
X73578464Y-29210000D01*
X73578464Y-28410000D01*
X73551897Y-28268810D01*
X73468454Y-28139135D01*
X73341134Y-28052141D01*
X73190000Y-28021536D01*
X71590000Y-28021536D01*
X71448810Y-28048103D01*
X71319135Y-28131546D01*
X71232141Y-28258866D01*
X71201536Y-28410000D01*
X71201536Y-30010000D01*
X71228103Y-30151190D01*
X71311546Y-30280865D01*
X71438866Y-30367859D01*
X71590000Y-30398464D01*
X71882000Y-30398464D01*
X71882000Y-30680890D01*
X71531770Y-30914907D01*
X71275761Y-31298051D01*
X71185863Y-31750000D01*
X70612000Y-31750000D01*
X70612000Y-24700552D01*
X70778501Y-24700552D01*
X71216183Y-25759823D01*
X72025914Y-26570969D01*
X73084420Y-27010499D01*
X74230552Y-27011499D01*
X75289823Y-26573817D01*
X75565104Y-26299016D01*
X76790590Y-26299016D01*
X76846271Y-26529611D01*
X77329078Y-26697622D01*
X77839428Y-26668083D01*
X78173729Y-26529611D01*
X78229410Y-26299016D01*
X77510000Y-25579605D01*
X76790590Y-26299016D01*
X75565104Y-26299016D01*
X76100969Y-25764086D01*
X76226434Y-25461932D01*
X76241917Y-25729428D01*
X76380389Y-26063729D01*
X76610984Y-26119410D01*
X77330395Y-25400000D01*
X77689605Y-25400000D01*
X78409016Y-26119410D01*
X78639611Y-26063729D01*
X78799528Y-25604179D01*
X78978822Y-25604179D01*
X79135451Y-25983251D01*
X79425223Y-26273529D01*
X79804022Y-26430820D01*
X80214179Y-26431178D01*
X80593251Y-26274549D01*
X80883529Y-25984777D01*
X81040820Y-25605978D01*
X81041178Y-25195821D01*
X80884549Y-24816749D01*
X80594777Y-24526471D01*
X80215978Y-24369180D01*
X79805821Y-24368822D01*
X79426749Y-24525451D01*
X79136471Y-24815223D01*
X78979180Y-25194022D01*
X78978822Y-25604179D01*
X78799528Y-25604179D01*
X78807622Y-25580922D01*
X78778083Y-25070572D01*
X78639611Y-24736271D01*
X78409016Y-24680590D01*
X77689605Y-25400000D01*
X77330395Y-25400000D01*
X76610984Y-24680590D01*
X76540506Y-24697608D01*
X76540677Y-24500984D01*
X76790590Y-24500984D01*
X77510000Y-25220395D01*
X78229410Y-24500984D01*
X78173729Y-24270389D01*
X77690922Y-24102378D01*
X77180572Y-24131917D01*
X76846271Y-24270389D01*
X76790590Y-24500984D01*
X76540677Y-24500984D01*
X76541499Y-23559448D01*
X76463444Y-23370540D01*
X82733036Y-23370540D01*
X82733036Y-24767540D01*
X82759603Y-24908730D01*
X82843046Y-25038405D01*
X82970366Y-25125399D01*
X83121500Y-25156004D01*
X84518500Y-25156004D01*
X84659690Y-25129437D01*
X84666355Y-25125148D01*
X85605417Y-25125148D01*
X85667071Y-25360760D01*
X86167480Y-25536887D01*
X86697199Y-25508108D01*
X87052929Y-25360760D01*
X87114583Y-25125148D01*
X86360000Y-24370565D01*
X85605417Y-25125148D01*
X84666355Y-25125148D01*
X84789365Y-25045994D01*
X84876359Y-24918674D01*
X84906964Y-24767540D01*
X84906964Y-23998440D01*
X85014073Y-23998440D01*
X85042852Y-24528159D01*
X85190200Y-24883889D01*
X85425812Y-24945543D01*
X86180395Y-24190960D01*
X86539605Y-24190960D01*
X87294188Y-24945543D01*
X87529800Y-24883889D01*
X87705927Y-24383480D01*
X87700459Y-24282824D01*
X87820313Y-24282824D01*
X87984311Y-24679729D01*
X88287714Y-24983662D01*
X88684332Y-25148353D01*
X89113784Y-25148727D01*
X89510689Y-24984729D01*
X89814622Y-24681326D01*
X89979313Y-24284708D01*
X89979687Y-23855256D01*
X89815689Y-23458351D01*
X89512286Y-23154418D01*
X89115668Y-22989727D01*
X88686216Y-22989353D01*
X88289311Y-23153351D01*
X87985378Y-23456754D01*
X87820687Y-23853372D01*
X87820313Y-24282824D01*
X87700459Y-24282824D01*
X87677148Y-23853761D01*
X87529800Y-23498031D01*
X87294188Y-23436377D01*
X86539605Y-24190960D01*
X86180395Y-24190960D01*
X85425812Y-23436377D01*
X85190200Y-23498031D01*
X85014073Y-23998440D01*
X84906964Y-23998440D01*
X84906964Y-23370540D01*
X84885557Y-23256772D01*
X85605417Y-23256772D01*
X86360000Y-24011355D01*
X87114583Y-23256772D01*
X87052929Y-23021160D01*
X86552520Y-22845033D01*
X86022801Y-22873812D01*
X85667071Y-23021160D01*
X85605417Y-23256772D01*
X84885557Y-23256772D01*
X84880397Y-23229350D01*
X84796954Y-23099675D01*
X84669634Y-23012681D01*
X84518500Y-22982076D01*
X83121500Y-22982076D01*
X82980310Y-23008643D01*
X82850635Y-23092086D01*
X82763641Y-23219406D01*
X82733036Y-23370540D01*
X76463444Y-23370540D01*
X76103817Y-22500177D01*
X75664408Y-22060000D01*
X118191536Y-22060000D01*
X118191536Y-23660000D01*
X118218103Y-23801190D01*
X118301546Y-23930865D01*
X118428866Y-24017859D01*
X118580000Y-24048464D01*
X120180000Y-24048464D01*
X120321190Y-24021897D01*
X120450865Y-23938454D01*
X120537859Y-23811134D01*
X120568464Y-23660000D01*
X120568464Y-22860000D01*
X125795863Y-22860000D01*
X125885761Y-23311949D01*
X126141770Y-23695093D01*
X126524914Y-23951102D01*
X126976863Y-24041000D01*
X127023137Y-24041000D01*
X127475086Y-23951102D01*
X127858230Y-23695093D01*
X128114239Y-23311949D01*
X128204137Y-22860000D01*
X128114239Y-22408051D01*
X127858230Y-22024907D01*
X127626531Y-21870090D01*
X143281400Y-21870090D01*
X143281400Y-22574250D01*
X143440150Y-22733000D01*
X144653000Y-22733000D01*
X144653000Y-21520150D01*
X144494250Y-21361400D01*
X143790091Y-21361400D01*
X143556702Y-21458073D01*
X143378073Y-21636701D01*
X143281400Y-21870090D01*
X127626531Y-21870090D01*
X127475086Y-21768898D01*
X127023137Y-21679000D01*
X126976863Y-21679000D01*
X126524914Y-21768898D01*
X126141770Y-22024907D01*
X125885761Y-22408051D01*
X125795863Y-22860000D01*
X120568464Y-22860000D01*
X120568464Y-22060000D01*
X120541897Y-21918810D01*
X120458454Y-21789135D01*
X120331134Y-21702141D01*
X120180000Y-21671536D01*
X118580000Y-21671536D01*
X118438810Y-21698103D01*
X118309135Y-21781546D01*
X118222141Y-21908866D01*
X118191536Y-22060000D01*
X75664408Y-22060000D01*
X75294086Y-21689031D01*
X74235580Y-21249501D01*
X73089448Y-21248501D01*
X72030177Y-21686183D01*
X71219031Y-22495914D01*
X70779501Y-23554420D01*
X70778501Y-24700552D01*
X70612000Y-24700552D01*
X70612000Y-21082000D01*
X168148000Y-21082000D01*
X168148000Y-34163000D01*
G36*
X164124257Y-40321717D02*
X164081647Y-40424332D01*
X164081273Y-40853784D01*
X164245271Y-41250689D01*
X164548674Y-41554622D01*
X164945292Y-41719313D01*
X165374744Y-41719687D01*
X165771649Y-41555689D01*
X166075582Y-41252286D01*
X166240273Y-40855668D01*
X166240647Y-40426216D01*
X166076649Y-40029311D01*
X165773246Y-39725378D01*
X165376628Y-39560687D01*
X164947176Y-39560313D01*
X164842814Y-39603434D01*
X164736380Y-39497000D01*
X168148000Y-39497000D01*
X168148000Y-69088000D01*
X137287000Y-69088000D01*
X137287000Y-66610552D01*
X162218501Y-66610552D01*
X162656183Y-67669823D01*
X163465914Y-68480969D01*
X164524420Y-68920499D01*
X165670552Y-68921499D01*
X166729823Y-68483817D01*
X167540969Y-67674086D01*
X167980499Y-66615580D01*
X167981499Y-65469448D01*
X167543817Y-64410177D01*
X166734086Y-63599031D01*
X165675580Y-63159501D01*
X164529448Y-63158501D01*
X163470177Y-63596183D01*
X162659031Y-64405914D01*
X162219501Y-65464420D01*
X162218501Y-66610552D01*
X137287000Y-66610552D01*
X137287000Y-62486826D01*
X137389444Y-62617042D01*
X137947241Y-62930153D01*
X138075046Y-62961099D01*
X138328400Y-62841745D01*
X138328400Y-60899040D01*
X138582400Y-60899040D01*
X138582400Y-62841745D01*
X138835754Y-62961099D01*
X138963559Y-62930153D01*
X139521356Y-62617042D01*
X139916871Y-62114305D01*
X140089890Y-61498480D01*
X140089890Y-60899040D01*
X138582400Y-60899040D01*
X138328400Y-60899040D01*
X138308400Y-60899040D01*
X138308400Y-60645040D01*
X138328400Y-60645040D01*
X138328400Y-58702335D01*
X138582400Y-58702335D01*
X138582400Y-60645040D01*
X140089890Y-60645040D01*
X140089890Y-60045600D01*
X139916871Y-59429775D01*
X139521356Y-58927038D01*
X138963559Y-58613927D01*
X138835754Y-58582981D01*
X138582400Y-58702335D01*
X138328400Y-58702335D01*
X138075046Y-58582981D01*
X137947241Y-58613927D01*
X137389444Y-58927038D01*
X137287000Y-59057254D01*
X137287000Y-53699026D01*
X143325042Y-53699026D01*
X143497312Y-54114947D01*
X143891510Y-54546821D01*
X144420973Y-54794968D01*
X144653000Y-54674469D01*
X144653000Y-53467000D01*
X143446183Y-53467000D01*
X143325042Y-53699026D01*
X137287000Y-53699026D01*
X137287000Y-52578000D01*
X143491949Y-52578000D01*
X143325042Y-52980974D01*
X143446183Y-53213000D01*
X144653000Y-53213000D01*
X144653000Y-53193000D01*
X144907000Y-53193000D01*
X144907000Y-53213000D01*
X144927000Y-53213000D01*
X144927000Y-53467000D01*
X144907000Y-53467000D01*
X144907000Y-54674469D01*
X145139027Y-54794968D01*
X145668490Y-54546821D01*
X146062688Y-54114947D01*
X146170841Y-53853828D01*
X146415552Y-54220065D01*
X146819329Y-54489860D01*
X147295617Y-54584600D01*
X147344383Y-54584600D01*
X147820671Y-54489860D01*
X148224448Y-54220065D01*
X148494243Y-53816288D01*
X148588983Y-53340000D01*
X148494243Y-52863712D01*
X148224448Y-52459935D01*
X147820671Y-52190140D01*
X147344383Y-52095400D01*
X147295617Y-52095400D01*
X146877074Y-52178654D01*
X146409210Y-51710790D01*
X146244403Y-51600669D01*
X146066677Y-51565317D01*
X146170841Y-51313828D01*
X146415552Y-51680065D01*
X146819329Y-51949860D01*
X147295617Y-52044600D01*
X147344383Y-52044600D01*
X147820671Y-51949860D01*
X148224448Y-51680065D01*
X148435613Y-51364033D01*
X149352000Y-52280420D01*
X149352000Y-54399580D01*
X143150790Y-60600790D01*
X143040669Y-60765597D01*
X143002000Y-60960000D01*
X143002000Y-63389510D01*
X142871771Y-63389510D01*
X142343480Y-63494594D01*
X141895617Y-63793846D01*
X141596365Y-64241709D01*
X141491281Y-64770000D01*
X141596365Y-65298291D01*
X141895617Y-65746154D01*
X142343480Y-66045406D01*
X142871771Y-66150490D01*
X144148229Y-66150490D01*
X144676520Y-66045406D01*
X145124383Y-65746154D01*
X145423635Y-65298291D01*
X145528719Y-64770000D01*
X154191281Y-64770000D01*
X154296365Y-65298291D01*
X154595617Y-65746154D01*
X155043480Y-66045406D01*
X155571771Y-66150490D01*
X156848229Y-66150490D01*
X157376520Y-66045406D01*
X157824383Y-65746154D01*
X158123635Y-65298291D01*
X158228719Y-64770000D01*
X158123635Y-64241709D01*
X157824383Y-63793846D01*
X157376520Y-63494594D01*
X156848229Y-63389510D01*
X155571771Y-63389510D01*
X155043480Y-63494594D01*
X154595617Y-63793846D01*
X154296365Y-64241709D01*
X154191281Y-64770000D01*
X145528719Y-64770000D01*
X145423635Y-64241709D01*
X145124383Y-63793846D01*
X144676520Y-63494594D01*
X144148229Y-63389510D01*
X144018000Y-63389510D01*
X144018000Y-61170420D01*
X144289380Y-60899040D01*
X146930110Y-60899040D01*
X146930110Y-61498480D01*
X147103129Y-62114305D01*
X147498644Y-62617042D01*
X148056441Y-62930153D01*
X148184246Y-62961099D01*
X148437600Y-62841745D01*
X148437600Y-60899040D01*
X148691600Y-60899040D01*
X148691600Y-62841745D01*
X148944954Y-62961099D01*
X149072759Y-62930153D01*
X149630556Y-62617042D01*
X149860000Y-62325397D01*
X150089444Y-62617042D01*
X150647241Y-62930153D01*
X150775046Y-62961099D01*
X151028400Y-62841745D01*
X151028400Y-60899040D01*
X151282400Y-60899040D01*
X151282400Y-62841745D01*
X151535754Y-62961099D01*
X151663559Y-62930153D01*
X152221356Y-62617042D01*
X152616871Y-62114305D01*
X152789890Y-61498480D01*
X152789890Y-60899040D01*
X159630110Y-60899040D01*
X159630110Y-61498480D01*
X159803129Y-62114305D01*
X160198644Y-62617042D01*
X160756441Y-62930153D01*
X160884246Y-62961099D01*
X161137600Y-62841745D01*
X161137600Y-60899040D01*
X161391600Y-60899040D01*
X161391600Y-62841745D01*
X161644954Y-62961099D01*
X161772759Y-62930153D01*
X162330556Y-62617042D01*
X162726071Y-62114305D01*
X162899090Y-61498480D01*
X162899090Y-60899040D01*
X161391600Y-60899040D01*
X161137600Y-60899040D01*
X159630110Y-60899040D01*
X152789890Y-60899040D01*
X151282400Y-60899040D01*
X151028400Y-60899040D01*
X148691600Y-60899040D01*
X148437600Y-60899040D01*
X146930110Y-60899040D01*
X144289380Y-60899040D01*
X145142820Y-60045600D01*
X146930110Y-60045600D01*
X146930110Y-60645040D01*
X148437600Y-60645040D01*
X148437600Y-58702335D01*
X148691600Y-58702335D01*
X148691600Y-60645040D01*
X151028400Y-60645040D01*
X151028400Y-58702335D01*
X151282400Y-58702335D01*
X151282400Y-60645040D01*
X152789890Y-60645040D01*
X152789890Y-60045600D01*
X159630110Y-60045600D01*
X159630110Y-60645040D01*
X161137600Y-60645040D01*
X161137600Y-58702335D01*
X161391600Y-58702335D01*
X161391600Y-60645040D01*
X162899090Y-60645040D01*
X162899090Y-60045600D01*
X162726071Y-59429775D01*
X162330556Y-58927038D01*
X161772759Y-58613927D01*
X161644954Y-58582981D01*
X161391600Y-58702335D01*
X161137600Y-58702335D01*
X160884246Y-58582981D01*
X160756441Y-58613927D01*
X160198644Y-58927038D01*
X159803129Y-59429775D01*
X159630110Y-60045600D01*
X152789890Y-60045600D01*
X152616871Y-59429775D01*
X152221356Y-58927038D01*
X151663559Y-58613927D01*
X151535754Y-58582981D01*
X151282400Y-58702335D01*
X151028400Y-58702335D01*
X150775046Y-58582981D01*
X150647241Y-58613927D01*
X150089444Y-58927038D01*
X149860000Y-59218683D01*
X149630556Y-58927038D01*
X149072759Y-58613927D01*
X148944954Y-58582981D01*
X148691600Y-58702335D01*
X148437600Y-58702335D01*
X148184246Y-58582981D01*
X148056441Y-58613927D01*
X147498644Y-58927038D01*
X147103129Y-59429775D01*
X146930110Y-60045600D01*
X145142820Y-60045600D01*
X149022670Y-56165750D01*
X163827460Y-56165750D01*
X163827460Y-56704809D01*
X163924133Y-56938198D01*
X164102761Y-57116827D01*
X164336150Y-57213500D01*
X164875210Y-57213500D01*
X165033960Y-57054750D01*
X165033960Y-56007000D01*
X165287960Y-56007000D01*
X165287960Y-57054750D01*
X165446710Y-57213500D01*
X165985770Y-57213500D01*
X166219159Y-57116827D01*
X166397787Y-56938198D01*
X166494460Y-56704809D01*
X166494460Y-56165750D01*
X166335710Y-56007000D01*
X165287960Y-56007000D01*
X165033960Y-56007000D01*
X163986210Y-56007000D01*
X163827460Y-56165750D01*
X149022670Y-56165750D01*
X150133229Y-55055191D01*
X163827460Y-55055191D01*
X163827460Y-55594250D01*
X163986210Y-55753000D01*
X165033960Y-55753000D01*
X165033960Y-54705250D01*
X165287960Y-54705250D01*
X165287960Y-55753000D01*
X166335710Y-55753000D01*
X166494460Y-55594250D01*
X166494460Y-55055191D01*
X166397787Y-54821802D01*
X166219159Y-54643173D01*
X165985770Y-54546500D01*
X165446710Y-54546500D01*
X165287960Y-54705250D01*
X165033960Y-54705250D01*
X164875210Y-54546500D01*
X164336150Y-54546500D01*
X164102761Y-54643173D01*
X163924133Y-54821802D01*
X163827460Y-55055191D01*
X150133229Y-55055191D01*
X150219210Y-54969210D01*
X150329331Y-54804404D01*
X150368000Y-54610000D01*
X150368000Y-52070000D01*
X150329331Y-51875597D01*
X150329331Y-51875596D01*
X150219210Y-51710790D01*
X149816420Y-51308000D01*
X162288620Y-51308000D01*
X164002337Y-53021717D01*
X163959727Y-53124332D01*
X163959353Y-53553784D01*
X164123351Y-53950689D01*
X164426754Y-54254622D01*
X164823372Y-54419313D01*
X165252824Y-54419687D01*
X165649729Y-54255689D01*
X165953662Y-53952286D01*
X166118353Y-53555668D01*
X166118727Y-53126216D01*
X165954729Y-52729311D01*
X165651326Y-52425378D01*
X165254708Y-52260687D01*
X164825256Y-52260313D01*
X164720895Y-52303434D01*
X163431245Y-51013784D01*
X164081273Y-51013784D01*
X164245271Y-51410689D01*
X164548674Y-51714622D01*
X164945292Y-51879313D01*
X165374744Y-51879687D01*
X165771649Y-51715689D01*
X166075582Y-51412286D01*
X166240273Y-51015668D01*
X166240647Y-50586216D01*
X166076649Y-50189311D01*
X165773246Y-49885378D01*
X165376628Y-49720687D01*
X164947176Y-49720313D01*
X164550271Y-49884311D01*
X164246338Y-50187714D01*
X164081647Y-50584332D01*
X164081273Y-51013784D01*
X163431245Y-51013784D01*
X162858250Y-50440790D01*
X162693443Y-50330669D01*
X162499040Y-50292000D01*
X148473054Y-50292000D01*
X148224448Y-49919935D01*
X147820671Y-49650140D01*
X147344383Y-49555400D01*
X147295617Y-49555400D01*
X146819329Y-49650140D01*
X146415552Y-49919935D01*
X146170841Y-50286172D01*
X146062688Y-50025053D01*
X145668490Y-49593179D01*
X145533687Y-49530000D01*
X145668490Y-49466821D01*
X146062688Y-49034947D01*
X146170841Y-48773828D01*
X146415552Y-49140065D01*
X146819329Y-49409860D01*
X147295617Y-49504600D01*
X147344383Y-49504600D01*
X147820671Y-49409860D01*
X148224448Y-49140065D01*
X148473054Y-48768000D01*
X164080921Y-48768000D01*
X164123351Y-48870689D01*
X164426754Y-49174622D01*
X164823372Y-49339313D01*
X165252824Y-49339687D01*
X165649729Y-49175689D01*
X165953662Y-48872286D01*
X166118353Y-48475668D01*
X166118727Y-48046216D01*
X165954729Y-47649311D01*
X165651326Y-47345378D01*
X165254708Y-47180687D01*
X164825256Y-47180313D01*
X164428351Y-47344311D01*
X164124418Y-47647714D01*
X164081114Y-47752000D01*
X148473054Y-47752000D01*
X148224448Y-47379935D01*
X147820671Y-47110140D01*
X147344383Y-47015400D01*
X147295617Y-47015400D01*
X146819329Y-47110140D01*
X146415552Y-47379935D01*
X146170841Y-47746172D01*
X146062688Y-47485053D01*
X145668490Y-47053179D01*
X145533687Y-46990000D01*
X145668490Y-46926821D01*
X146062688Y-46494947D01*
X146170841Y-46233828D01*
X146415552Y-46600065D01*
X146819329Y-46869860D01*
X147295617Y-46964600D01*
X147344383Y-46964600D01*
X147820671Y-46869860D01*
X148224448Y-46600065D01*
X148494243Y-46196288D01*
X148588983Y-45720000D01*
X148494243Y-45243712D01*
X148224448Y-44839935D01*
X147820671Y-44570140D01*
X147344383Y-44475400D01*
X147295617Y-44475400D01*
X146819329Y-44570140D01*
X146415552Y-44839935D01*
X146170841Y-45206172D01*
X146062688Y-44945053D01*
X145668490Y-44513179D01*
X145533687Y-44450000D01*
X145668490Y-44386821D01*
X146062688Y-43954947D01*
X146170841Y-43693828D01*
X146415552Y-44060065D01*
X146819329Y-44329860D01*
X147295617Y-44424600D01*
X147344383Y-44424600D01*
X147820671Y-44329860D01*
X148224448Y-44060065D01*
X148473054Y-43688000D01*
X162410540Y-43688000D01*
X164124257Y-45401717D01*
X164081647Y-45504332D01*
X164081273Y-45933784D01*
X164245271Y-46330689D01*
X164548674Y-46634622D01*
X164945292Y-46799313D01*
X165374744Y-46799687D01*
X165771649Y-46635689D01*
X166075582Y-46332286D01*
X166240273Y-45935668D01*
X166240647Y-45506216D01*
X166076649Y-45109311D01*
X165773246Y-44805378D01*
X165376628Y-44640687D01*
X164947176Y-44640313D01*
X164842815Y-44683434D01*
X162980170Y-42820790D01*
X162815363Y-42710669D01*
X162620960Y-42672000D01*
X148473054Y-42672000D01*
X148224448Y-42299935D01*
X147820671Y-42030140D01*
X147344383Y-41935400D01*
X147295617Y-41935400D01*
X146819329Y-42030140D01*
X146415552Y-42299935D01*
X146170841Y-42666172D01*
X146062688Y-42405053D01*
X145668490Y-41973179D01*
X145533687Y-41910000D01*
X145668490Y-41846821D01*
X146062688Y-41414947D01*
X146170841Y-41153828D01*
X146415552Y-41520065D01*
X146819329Y-41789860D01*
X147295617Y-41884600D01*
X147344383Y-41884600D01*
X147820671Y-41789860D01*
X148224448Y-41520065D01*
X148473054Y-41148000D01*
X162288620Y-41148000D01*
X164002337Y-42861717D01*
X163959727Y-42964332D01*
X163959353Y-43393784D01*
X164123351Y-43790689D01*
X164426754Y-44094622D01*
X164823372Y-44259313D01*
X165252824Y-44259687D01*
X165649729Y-44095689D01*
X165953662Y-43792286D01*
X166118353Y-43395668D01*
X166118727Y-42966216D01*
X165954729Y-42569311D01*
X165651326Y-42265378D01*
X165254708Y-42100687D01*
X164825256Y-42100313D01*
X164720895Y-42143434D01*
X162858250Y-40280790D01*
X162693443Y-40170669D01*
X162499040Y-40132000D01*
X148473054Y-40132000D01*
X148224448Y-39759935D01*
X147830938Y-39497000D01*
X163299540Y-39497000D01*
X164124257Y-40321717D01*
X164124257Y-40321717D01*
G37*
X164124257Y-40321717D02*
X164081647Y-40424332D01*
X164081273Y-40853784D01*
X164245271Y-41250689D01*
X164548674Y-41554622D01*
X164945292Y-41719313D01*
X165374744Y-41719687D01*
X165771649Y-41555689D01*
X166075582Y-41252286D01*
X166240273Y-40855668D01*
X166240647Y-40426216D01*
X166076649Y-40029311D01*
X165773246Y-39725378D01*
X165376628Y-39560687D01*
X164947176Y-39560313D01*
X164842814Y-39603434D01*
X164736380Y-39497000D01*
X168148000Y-39497000D01*
X168148000Y-69088000D01*
X137287000Y-69088000D01*
X137287000Y-66610552D01*
X162218501Y-66610552D01*
X162656183Y-67669823D01*
X163465914Y-68480969D01*
X164524420Y-68920499D01*
X165670552Y-68921499D01*
X166729823Y-68483817D01*
X167540969Y-67674086D01*
X167980499Y-66615580D01*
X167981499Y-65469448D01*
X167543817Y-64410177D01*
X166734086Y-63599031D01*
X165675580Y-63159501D01*
X164529448Y-63158501D01*
X163470177Y-63596183D01*
X162659031Y-64405914D01*
X162219501Y-65464420D01*
X162218501Y-66610552D01*
X137287000Y-66610552D01*
X137287000Y-62486826D01*
X137389444Y-62617042D01*
X137947241Y-62930153D01*
X138075046Y-62961099D01*
X138328400Y-62841745D01*
X138328400Y-60899040D01*
X138582400Y-60899040D01*
X138582400Y-62841745D01*
X138835754Y-62961099D01*
X138963559Y-62930153D01*
X139521356Y-62617042D01*
X139916871Y-62114305D01*
X140089890Y-61498480D01*
X140089890Y-60899040D01*
X138582400Y-60899040D01*
X138328400Y-60899040D01*
X138308400Y-60899040D01*
X138308400Y-60645040D01*
X138328400Y-60645040D01*
X138328400Y-58702335D01*
X138582400Y-58702335D01*
X138582400Y-60645040D01*
X140089890Y-60645040D01*
X140089890Y-60045600D01*
X139916871Y-59429775D01*
X139521356Y-58927038D01*
X138963559Y-58613927D01*
X138835754Y-58582981D01*
X138582400Y-58702335D01*
X138328400Y-58702335D01*
X138075046Y-58582981D01*
X137947241Y-58613927D01*
X137389444Y-58927038D01*
X137287000Y-59057254D01*
X137287000Y-53699026D01*
X143325042Y-53699026D01*
X143497312Y-54114947D01*
X143891510Y-54546821D01*
X144420973Y-54794968D01*
X144653000Y-54674469D01*
X144653000Y-53467000D01*
X143446183Y-53467000D01*
X143325042Y-53699026D01*
X137287000Y-53699026D01*
X137287000Y-52578000D01*
X143491949Y-52578000D01*
X143325042Y-52980974D01*
X143446183Y-53213000D01*
X144653000Y-53213000D01*
X144653000Y-53193000D01*
X144907000Y-53193000D01*
X144907000Y-53213000D01*
X144927000Y-53213000D01*
X144927000Y-53467000D01*
X144907000Y-53467000D01*
X144907000Y-54674469D01*
X145139027Y-54794968D01*
X145668490Y-54546821D01*
X146062688Y-54114947D01*
X146170841Y-53853828D01*
X146415552Y-54220065D01*
X146819329Y-54489860D01*
X147295617Y-54584600D01*
X147344383Y-54584600D01*
X147820671Y-54489860D01*
X148224448Y-54220065D01*
X148494243Y-53816288D01*
X148588983Y-53340000D01*
X148494243Y-52863712D01*
X148224448Y-52459935D01*
X147820671Y-52190140D01*
X147344383Y-52095400D01*
X147295617Y-52095400D01*
X146877074Y-52178654D01*
X146409210Y-51710790D01*
X146244403Y-51600669D01*
X146066677Y-51565317D01*
X146170841Y-51313828D01*
X146415552Y-51680065D01*
X146819329Y-51949860D01*
X147295617Y-52044600D01*
X147344383Y-52044600D01*
X147820671Y-51949860D01*
X148224448Y-51680065D01*
X148435613Y-51364033D01*
X149352000Y-52280420D01*
X149352000Y-54399580D01*
X143150790Y-60600790D01*
X143040669Y-60765597D01*
X143002000Y-60960000D01*
X143002000Y-63389510D01*
X142871771Y-63389510D01*
X142343480Y-63494594D01*
X141895617Y-63793846D01*
X141596365Y-64241709D01*
X141491281Y-64770000D01*
X141596365Y-65298291D01*
X141895617Y-65746154D01*
X142343480Y-66045406D01*
X142871771Y-66150490D01*
X144148229Y-66150490D01*
X144676520Y-66045406D01*
X145124383Y-65746154D01*
X145423635Y-65298291D01*
X145528719Y-64770000D01*
X154191281Y-64770000D01*
X154296365Y-65298291D01*
X154595617Y-65746154D01*
X155043480Y-66045406D01*
X155571771Y-66150490D01*
X156848229Y-66150490D01*
X157376520Y-66045406D01*
X157824383Y-65746154D01*
X158123635Y-65298291D01*
X158228719Y-64770000D01*
X158123635Y-64241709D01*
X157824383Y-63793846D01*
X157376520Y-63494594D01*
X156848229Y-63389510D01*
X155571771Y-63389510D01*
X155043480Y-63494594D01*
X154595617Y-63793846D01*
X154296365Y-64241709D01*
X154191281Y-64770000D01*
X145528719Y-64770000D01*
X145423635Y-64241709D01*
X145124383Y-63793846D01*
X144676520Y-63494594D01*
X144148229Y-63389510D01*
X144018000Y-63389510D01*
X144018000Y-61170420D01*
X144289380Y-60899040D01*
X146930110Y-60899040D01*
X146930110Y-61498480D01*
X147103129Y-62114305D01*
X147498644Y-62617042D01*
X148056441Y-62930153D01*
X148184246Y-62961099D01*
X148437600Y-62841745D01*
X148437600Y-60899040D01*
X148691600Y-60899040D01*
X148691600Y-62841745D01*
X148944954Y-62961099D01*
X149072759Y-62930153D01*
X149630556Y-62617042D01*
X149860000Y-62325397D01*
X150089444Y-62617042D01*
X150647241Y-62930153D01*
X150775046Y-62961099D01*
X151028400Y-62841745D01*
X151028400Y-60899040D01*
X151282400Y-60899040D01*
X151282400Y-62841745D01*
X151535754Y-62961099D01*
X151663559Y-62930153D01*
X152221356Y-62617042D01*
X152616871Y-62114305D01*
X152789890Y-61498480D01*
X152789890Y-60899040D01*
X159630110Y-60899040D01*
X159630110Y-61498480D01*
X159803129Y-62114305D01*
X160198644Y-62617042D01*
X160756441Y-62930153D01*
X160884246Y-62961099D01*
X161137600Y-62841745D01*
X161137600Y-60899040D01*
X161391600Y-60899040D01*
X161391600Y-62841745D01*
X161644954Y-62961099D01*
X161772759Y-62930153D01*
X162330556Y-62617042D01*
X162726071Y-62114305D01*
X162899090Y-61498480D01*
X162899090Y-60899040D01*
X161391600Y-60899040D01*
X161137600Y-60899040D01*
X159630110Y-60899040D01*
X152789890Y-60899040D01*
X151282400Y-60899040D01*
X151028400Y-60899040D01*
X148691600Y-60899040D01*
X148437600Y-60899040D01*
X146930110Y-60899040D01*
X144289380Y-60899040D01*
X145142820Y-60045600D01*
X146930110Y-60045600D01*
X146930110Y-60645040D01*
X148437600Y-60645040D01*
X148437600Y-58702335D01*
X148691600Y-58702335D01*
X148691600Y-60645040D01*
X151028400Y-60645040D01*
X151028400Y-58702335D01*
X151282400Y-58702335D01*
X151282400Y-60645040D01*
X152789890Y-60645040D01*
X152789890Y-60045600D01*
X159630110Y-60045600D01*
X159630110Y-60645040D01*
X161137600Y-60645040D01*
X161137600Y-58702335D01*
X161391600Y-58702335D01*
X161391600Y-60645040D01*
X162899090Y-60645040D01*
X162899090Y-60045600D01*
X162726071Y-59429775D01*
X162330556Y-58927038D01*
X161772759Y-58613927D01*
X161644954Y-58582981D01*
X161391600Y-58702335D01*
X161137600Y-58702335D01*
X160884246Y-58582981D01*
X160756441Y-58613927D01*
X160198644Y-58927038D01*
X159803129Y-59429775D01*
X159630110Y-60045600D01*
X152789890Y-60045600D01*
X152616871Y-59429775D01*
X152221356Y-58927038D01*
X151663559Y-58613927D01*
X151535754Y-58582981D01*
X151282400Y-58702335D01*
X151028400Y-58702335D01*
X150775046Y-58582981D01*
X150647241Y-58613927D01*
X150089444Y-58927038D01*
X149860000Y-59218683D01*
X149630556Y-58927038D01*
X149072759Y-58613927D01*
X148944954Y-58582981D01*
X148691600Y-58702335D01*
X148437600Y-58702335D01*
X148184246Y-58582981D01*
X148056441Y-58613927D01*
X147498644Y-58927038D01*
X147103129Y-59429775D01*
X146930110Y-60045600D01*
X145142820Y-60045600D01*
X149022670Y-56165750D01*
X163827460Y-56165750D01*
X163827460Y-56704809D01*
X163924133Y-56938198D01*
X164102761Y-57116827D01*
X164336150Y-57213500D01*
X164875210Y-57213500D01*
X165033960Y-57054750D01*
X165033960Y-56007000D01*
X165287960Y-56007000D01*
X165287960Y-57054750D01*
X165446710Y-57213500D01*
X165985770Y-57213500D01*
X166219159Y-57116827D01*
X166397787Y-56938198D01*
X166494460Y-56704809D01*
X166494460Y-56165750D01*
X166335710Y-56007000D01*
X165287960Y-56007000D01*
X165033960Y-56007000D01*
X163986210Y-56007000D01*
X163827460Y-56165750D01*
X149022670Y-56165750D01*
X150133229Y-55055191D01*
X163827460Y-55055191D01*
X163827460Y-55594250D01*
X163986210Y-55753000D01*
X165033960Y-55753000D01*
X165033960Y-54705250D01*
X165287960Y-54705250D01*
X165287960Y-55753000D01*
X166335710Y-55753000D01*
X166494460Y-55594250D01*
X166494460Y-55055191D01*
X166397787Y-54821802D01*
X166219159Y-54643173D01*
X165985770Y-54546500D01*
X165446710Y-54546500D01*
X165287960Y-54705250D01*
X165033960Y-54705250D01*
X164875210Y-54546500D01*
X164336150Y-54546500D01*
X164102761Y-54643173D01*
X163924133Y-54821802D01*
X163827460Y-55055191D01*
X150133229Y-55055191D01*
X150219210Y-54969210D01*
X150329331Y-54804404D01*
X150368000Y-54610000D01*
X150368000Y-52070000D01*
X150329331Y-51875597D01*
X150329331Y-51875596D01*
X150219210Y-51710790D01*
X149816420Y-51308000D01*
X162288620Y-51308000D01*
X164002337Y-53021717D01*
X163959727Y-53124332D01*
X163959353Y-53553784D01*
X164123351Y-53950689D01*
X164426754Y-54254622D01*
X164823372Y-54419313D01*
X165252824Y-54419687D01*
X165649729Y-54255689D01*
X165953662Y-53952286D01*
X166118353Y-53555668D01*
X166118727Y-53126216D01*
X165954729Y-52729311D01*
X165651326Y-52425378D01*
X165254708Y-52260687D01*
X164825256Y-52260313D01*
X164720895Y-52303434D01*
X163431245Y-51013784D01*
X164081273Y-51013784D01*
X164245271Y-51410689D01*
X164548674Y-51714622D01*
X164945292Y-51879313D01*
X165374744Y-51879687D01*
X165771649Y-51715689D01*
X166075582Y-51412286D01*
X166240273Y-51015668D01*
X166240647Y-50586216D01*
X166076649Y-50189311D01*
X165773246Y-49885378D01*
X165376628Y-49720687D01*
X164947176Y-49720313D01*
X164550271Y-49884311D01*
X164246338Y-50187714D01*
X164081647Y-50584332D01*
X164081273Y-51013784D01*
X163431245Y-51013784D01*
X162858250Y-50440790D01*
X162693443Y-50330669D01*
X162499040Y-50292000D01*
X148473054Y-50292000D01*
X148224448Y-49919935D01*
X147820671Y-49650140D01*
X147344383Y-49555400D01*
X147295617Y-49555400D01*
X146819329Y-49650140D01*
X146415552Y-49919935D01*
X146170841Y-50286172D01*
X146062688Y-50025053D01*
X145668490Y-49593179D01*
X145533687Y-49530000D01*
X145668490Y-49466821D01*
X146062688Y-49034947D01*
X146170841Y-48773828D01*
X146415552Y-49140065D01*
X146819329Y-49409860D01*
X147295617Y-49504600D01*
X147344383Y-49504600D01*
X147820671Y-49409860D01*
X148224448Y-49140065D01*
X148473054Y-48768000D01*
X164080921Y-48768000D01*
X164123351Y-48870689D01*
X164426754Y-49174622D01*
X164823372Y-49339313D01*
X165252824Y-49339687D01*
X165649729Y-49175689D01*
X165953662Y-48872286D01*
X166118353Y-48475668D01*
X166118727Y-48046216D01*
X165954729Y-47649311D01*
X165651326Y-47345378D01*
X165254708Y-47180687D01*
X164825256Y-47180313D01*
X164428351Y-47344311D01*
X164124418Y-47647714D01*
X164081114Y-47752000D01*
X148473054Y-47752000D01*
X148224448Y-47379935D01*
X147820671Y-47110140D01*
X147344383Y-47015400D01*
X147295617Y-47015400D01*
X146819329Y-47110140D01*
X146415552Y-47379935D01*
X146170841Y-47746172D01*
X146062688Y-47485053D01*
X145668490Y-47053179D01*
X145533687Y-46990000D01*
X145668490Y-46926821D01*
X146062688Y-46494947D01*
X146170841Y-46233828D01*
X146415552Y-46600065D01*
X146819329Y-46869860D01*
X147295617Y-46964600D01*
X147344383Y-46964600D01*
X147820671Y-46869860D01*
X148224448Y-46600065D01*
X148494243Y-46196288D01*
X148588983Y-45720000D01*
X148494243Y-45243712D01*
X148224448Y-44839935D01*
X147820671Y-44570140D01*
X147344383Y-44475400D01*
X147295617Y-44475400D01*
X146819329Y-44570140D01*
X146415552Y-44839935D01*
X146170841Y-45206172D01*
X146062688Y-44945053D01*
X145668490Y-44513179D01*
X145533687Y-44450000D01*
X145668490Y-44386821D01*
X146062688Y-43954947D01*
X146170841Y-43693828D01*
X146415552Y-44060065D01*
X146819329Y-44329860D01*
X147295617Y-44424600D01*
X147344383Y-44424600D01*
X147820671Y-44329860D01*
X148224448Y-44060065D01*
X148473054Y-43688000D01*
X162410540Y-43688000D01*
X164124257Y-45401717D01*
X164081647Y-45504332D01*
X164081273Y-45933784D01*
X164245271Y-46330689D01*
X164548674Y-46634622D01*
X164945292Y-46799313D01*
X165374744Y-46799687D01*
X165771649Y-46635689D01*
X166075582Y-46332286D01*
X166240273Y-45935668D01*
X166240647Y-45506216D01*
X166076649Y-45109311D01*
X165773246Y-44805378D01*
X165376628Y-44640687D01*
X164947176Y-44640313D01*
X164842815Y-44683434D01*
X162980170Y-42820790D01*
X162815363Y-42710669D01*
X162620960Y-42672000D01*
X148473054Y-42672000D01*
X148224448Y-42299935D01*
X147820671Y-42030140D01*
X147344383Y-41935400D01*
X147295617Y-41935400D01*
X146819329Y-42030140D01*
X146415552Y-42299935D01*
X146170841Y-42666172D01*
X146062688Y-42405053D01*
X145668490Y-41973179D01*
X145533687Y-41910000D01*
X145668490Y-41846821D01*
X146062688Y-41414947D01*
X146170841Y-41153828D01*
X146415552Y-41520065D01*
X146819329Y-41789860D01*
X147295617Y-41884600D01*
X147344383Y-41884600D01*
X147820671Y-41789860D01*
X148224448Y-41520065D01*
X148473054Y-41148000D01*
X162288620Y-41148000D01*
X164002337Y-42861717D01*
X163959727Y-42964332D01*
X163959353Y-43393784D01*
X164123351Y-43790689D01*
X164426754Y-44094622D01*
X164823372Y-44259313D01*
X165252824Y-44259687D01*
X165649729Y-44095689D01*
X165953662Y-43792286D01*
X166118353Y-43395668D01*
X166118727Y-42966216D01*
X165954729Y-42569311D01*
X165651326Y-42265378D01*
X165254708Y-42100687D01*
X164825256Y-42100313D01*
X164720895Y-42143434D01*
X162858250Y-40280790D01*
X162693443Y-40170669D01*
X162499040Y-40132000D01*
X148473054Y-40132000D01*
X148224448Y-39759935D01*
X147830938Y-39497000D01*
X163299540Y-39497000D01*
X164124257Y-40321717D01*
G36*
X144907000Y-40513000D02*
X144927000Y-40513000D01*
X144927000Y-40767000D01*
X144907000Y-40767000D01*
X144907000Y-43053000D01*
X144927000Y-43053000D01*
X144927000Y-43307000D01*
X144907000Y-43307000D01*
X144907000Y-45593000D01*
X144927000Y-45593000D01*
X144927000Y-45847000D01*
X144907000Y-45847000D01*
X144907000Y-48133000D01*
X144927000Y-48133000D01*
X144927000Y-48387000D01*
X144907000Y-48387000D01*
X144907000Y-50673000D01*
X144927000Y-50673000D01*
X144927000Y-50927000D01*
X144907000Y-50927000D01*
X144907000Y-50947000D01*
X144653000Y-50947000D01*
X144653000Y-50927000D01*
X144633000Y-50927000D01*
X144633000Y-50673000D01*
X144653000Y-50673000D01*
X144653000Y-48387000D01*
X144633000Y-48387000D01*
X144633000Y-48133000D01*
X144653000Y-48133000D01*
X144653000Y-45847000D01*
X144633000Y-45847000D01*
X144633000Y-45593000D01*
X144653000Y-45593000D01*
X144653000Y-43307000D01*
X144633000Y-43307000D01*
X144633000Y-43053000D01*
X144653000Y-43053000D01*
X144653000Y-40767000D01*
X144633000Y-40767000D01*
X144633000Y-40513000D01*
X144653000Y-40513000D01*
X144653000Y-40493000D01*
X144907000Y-40493000D01*
X144907000Y-40513000D01*
X144907000Y-40513000D01*
G37*
X144907000Y-40513000D02*
X144927000Y-40513000D01*
X144927000Y-40767000D01*
X144907000Y-40767000D01*
X144907000Y-43053000D01*
X144927000Y-43053000D01*
X144927000Y-43307000D01*
X144907000Y-43307000D01*
X144907000Y-45593000D01*
X144927000Y-45593000D01*
X144927000Y-45847000D01*
X144907000Y-45847000D01*
X144907000Y-48133000D01*
X144927000Y-48133000D01*
X144927000Y-48387000D01*
X144907000Y-48387000D01*
X144907000Y-50673000D01*
X144927000Y-50673000D01*
X144927000Y-50927000D01*
X144907000Y-50927000D01*
X144907000Y-50947000D01*
X144653000Y-50947000D01*
X144653000Y-50927000D01*
X144633000Y-50927000D01*
X144633000Y-50673000D01*
X144653000Y-50673000D01*
X144653000Y-48387000D01*
X144633000Y-48387000D01*
X144633000Y-48133000D01*
X144653000Y-48133000D01*
X144653000Y-45847000D01*
X144633000Y-45847000D01*
X144633000Y-45593000D01*
X144653000Y-45593000D01*
X144653000Y-43307000D01*
X144633000Y-43307000D01*
X144633000Y-43053000D01*
X144653000Y-43053000D01*
X144653000Y-40767000D01*
X144633000Y-40767000D01*
X144633000Y-40513000D01*
X144653000Y-40513000D01*
X144653000Y-40493000D01*
X144907000Y-40493000D01*
X144907000Y-40513000D01*
M02*
