G04 #@! TF.FileFunction,Soldermask,Top*
%FSLAX46Y46*%
G04 Gerber Fmt 4.6, Leading zero omitted, Abs format (unit mm)*
G04 Created by KiCad (PCBNEW 4.0.5+dfsg1-4) date Mon Aug 20 18:29:01 2018*
%MOMM*%
%LPD*%
G01*
G04 APERTURE LIST*
%ADD10C,0.100000*%
%ADD11C,1.400760*%
%ADD12R,2.000000X2.000000*%
%ADD13O,2.000000X2.000000*%
%ADD14C,2.700000*%
%ADD15C,2.400000*%
%ADD16R,2.899360X2.899360*%
%ADD17C,2.899360*%
%ADD18C,5.400000*%
%ADD19C,2.099260*%
%ADD20R,2.099260X2.099260*%
%ADD21C,1.700000*%
%ADD22C,2.398980*%
%ADD23R,2.127200X2.432000*%
%ADD24O,2.127200X2.432000*%
%ADD25R,2.432000X2.432000*%
%ADD26O,2.432000X2.432000*%
%ADD27R,2.127200X2.127200*%
%ADD28O,2.127200X2.127200*%
%ADD29R,1.797000X1.797000*%
%ADD30C,1.797000*%
%ADD31R,1.700000X1.700000*%
%ADD32R,2.400000X2.400000*%
%ADD33O,2.398980X3.597860*%
%ADD34O,3.597860X2.398980*%
G04 APERTURE END LIST*
D10*
D11*
X95250000Y-31750000D03*
X93980000Y-33020000D03*
X93980000Y-30480000D03*
D12*
X72390000Y-29210000D03*
D13*
X72390000Y-31750000D03*
X72390000Y-34290000D03*
X72390000Y-36830000D03*
X72390000Y-39370000D03*
X72390000Y-41910000D03*
X72390000Y-44450000D03*
X80010000Y-44450000D03*
X80010000Y-41910000D03*
X80010000Y-39370000D03*
X80010000Y-36830000D03*
X80010000Y-34290000D03*
X80010000Y-31750000D03*
X80010000Y-29210000D03*
D14*
X101800000Y-54650000D03*
D15*
X109300000Y-67150000D03*
D14*
X99300000Y-57150000D03*
X106800000Y-57150000D03*
X114300000Y-57150000D03*
X111800000Y-54650000D03*
D15*
X104300000Y-67150000D03*
D14*
X81480000Y-54650000D03*
D15*
X88980000Y-67150000D03*
D14*
X78980000Y-57150000D03*
X86480000Y-57150000D03*
X93980000Y-57150000D03*
X91480000Y-54650000D03*
D15*
X83980000Y-67150000D03*
D16*
X139700000Y-39370000D03*
D17*
X139700000Y-24130000D03*
X132080000Y-24130000D03*
X132080000Y-39370000D03*
D18*
X73660000Y-66040000D03*
X165100000Y-66040000D03*
X165100000Y-24130000D03*
D19*
X90172540Y-48260520D03*
D20*
X90172540Y-38100520D03*
D14*
X122120000Y-54650000D03*
D15*
X129620000Y-67150000D03*
D14*
X119620000Y-57150000D03*
X127120000Y-57150000D03*
X134620000Y-57150000D03*
X132120000Y-54650000D03*
D15*
X124620000Y-67150000D03*
D11*
X90170000Y-31750000D03*
X88900000Y-33020000D03*
X88900000Y-30480000D03*
D12*
X93980000Y-38100000D03*
D13*
X93980000Y-40640000D03*
X93980000Y-43180000D03*
X101600000Y-43180000D03*
X101600000Y-40640000D03*
X101600000Y-38100000D03*
D21*
X80010000Y-25400000D03*
X77510000Y-25400000D03*
D22*
X76200000Y-48260000D03*
X86360000Y-48260000D03*
X93980000Y-48260000D03*
X104140000Y-48260000D03*
X83820000Y-39370000D03*
X83820000Y-29210000D03*
X109220000Y-44450000D03*
X109220000Y-34290000D03*
X105410000Y-34290000D03*
X105410000Y-44450000D03*
X107950000Y-48260000D03*
X118110000Y-48260000D03*
X132080000Y-48260000D03*
X121920000Y-48260000D03*
X72390000Y-48260000D03*
X72390000Y-58420000D03*
D23*
X83820000Y-62230000D03*
D24*
X86360000Y-62230000D03*
X88900000Y-62230000D03*
D25*
X105410000Y-62230000D03*
D26*
X107950000Y-62230000D03*
D23*
X124460000Y-62230000D03*
D24*
X127000000Y-62230000D03*
X129540000Y-62230000D03*
D12*
X119380000Y-22860000D03*
D13*
X119380000Y-25400000D03*
X119380000Y-27940000D03*
X119380000Y-30480000D03*
X119380000Y-33020000D03*
X119380000Y-35560000D03*
X119380000Y-38100000D03*
X119380000Y-40640000D03*
X127000000Y-40640000D03*
X127000000Y-38100000D03*
X127000000Y-35560000D03*
X127000000Y-33020000D03*
X127000000Y-30480000D03*
X127000000Y-27940000D03*
X127000000Y-25400000D03*
X127000000Y-22860000D03*
D18*
X73660000Y-24130000D03*
D22*
X99060000Y-30480000D03*
X109220000Y-30480000D03*
D27*
X144780000Y-22860000D03*
D28*
X147320000Y-22860000D03*
X144780000Y-25400000D03*
X147320000Y-25400000D03*
X144780000Y-27940000D03*
X147320000Y-27940000D03*
X144780000Y-30480000D03*
X147320000Y-30480000D03*
X144780000Y-33020000D03*
X147320000Y-33020000D03*
X144780000Y-35560000D03*
X147320000Y-35560000D03*
X144780000Y-38100000D03*
X147320000Y-38100000D03*
X144780000Y-40640000D03*
X147320000Y-40640000D03*
X144780000Y-43180000D03*
X147320000Y-43180000D03*
X144780000Y-45720000D03*
X147320000Y-45720000D03*
X144780000Y-48260000D03*
X147320000Y-48260000D03*
X144780000Y-50800000D03*
X147320000Y-50800000D03*
X144780000Y-53340000D03*
X147320000Y-53340000D03*
D29*
X135890000Y-44450000D03*
X138430000Y-44450000D03*
X135890000Y-46990000D03*
X138430000Y-46990000D03*
X135890000Y-49530000D03*
X138430000Y-49530000D03*
D30*
X165039040Y-53340000D03*
X165160960Y-50800000D03*
X165039040Y-48260000D03*
X165160960Y-45720000D03*
X165039040Y-43180000D03*
D29*
X165160960Y-55880000D03*
D30*
X165160960Y-40640000D03*
X165160960Y-34290000D03*
X165039040Y-31750000D03*
D29*
X165039040Y-36830000D03*
D30*
X165160960Y-29210000D03*
D31*
X124460000Y-44450000D03*
D21*
X121960000Y-44450000D03*
D22*
X121920000Y-26670000D03*
X121920000Y-36830000D03*
X124460000Y-26670000D03*
X124460000Y-36830000D03*
D32*
X109855000Y-24130000D03*
D15*
X107315000Y-24130000D03*
D33*
X148564600Y-60772040D03*
D34*
X143510000Y-64770000D03*
D33*
X138455400Y-60772040D03*
X161264600Y-60772040D03*
D34*
X156210000Y-64770000D03*
D33*
X151155400Y-60772040D03*
D23*
X83820000Y-24130000D03*
D24*
X86360000Y-24130000D03*
X88900000Y-24130000D03*
X91440000Y-24130000D03*
X93980000Y-24130000D03*
X96520000Y-24130000D03*
X99060000Y-24130000D03*
X101600000Y-24130000D03*
X104140000Y-24130000D03*
D29*
X115570000Y-33020000D03*
X113030000Y-33020000D03*
X115570000Y-35560000D03*
X113030000Y-35560000D03*
X115570000Y-38100000D03*
X113030000Y-38100000D03*
X115570000Y-22860000D03*
D30*
X113030000Y-22860000D03*
D29*
X115570000Y-25400000D03*
D30*
X113030000Y-25400000D03*
M02*
