M48
;DRILL file {KiCad 4.0.5+dfsg1-4} date Mon Aug 20 18:29:13 2018
;FORMAT={-:-/ absolute / inch / decimal}
FMAT,2
INCH,TZ
T1C0.024
T2C0.028
T3C0.031
T4C0.032
T5C0.032
T6C0.039
T7C0.039
T8C0.040
T9C0.051
T10C0.126
%
G90
G05
M72
T1
X3.5Y-1.2
X3.5Y-1.3
X3.55Y-1.25
X3.7Y-1.2
X3.7Y-1.3
X3.75Y-1.25
T2
X3.5501Y-1.5
X3.5501Y-1.9
T3
X2.85Y-1.15
X2.85Y-1.25
X2.85Y-1.35
X2.85Y-1.45
X2.85Y-1.55
X2.85Y-1.65
X2.85Y-1.75
X3.15Y-1.
X3.15Y-1.15
X3.15Y-1.25
X3.15Y-1.35
X3.15Y-1.45
X3.15Y-1.55
X3.15Y-1.65
X3.15Y-1.75
X3.7Y-1.5
X3.7Y-1.6
X3.7Y-1.7
X4.Y-1.5
X4.Y-1.6
X4.Y-1.7
X4.7Y-0.9
X4.7Y-1.
X4.7Y-1.1
X4.7Y-1.2
X4.7Y-1.3
X4.7Y-1.4
X4.7Y-1.5
X4.7Y-1.6
X4.9Y-1.75
X5.Y-0.9
X5.Y-1.
X5.Y-1.1
X5.Y-1.2
X5.Y-1.3
X5.Y-1.4
X5.Y-1.5
X5.Y-1.6
T4
X3.0516Y-1.
X4.8016Y-1.75
T5
X4.45Y-0.9
X4.45Y-1.
X4.45Y-1.3
X4.45Y-1.4
X4.45Y-1.5
X4.55Y-0.9
X4.55Y-1.
X4.55Y-1.3
X4.55Y-1.4
X4.55Y-1.5
X5.35Y-1.75
X5.35Y-1.85
X5.35Y-1.95
X5.45Y-1.75
X5.45Y-1.85
X5.45Y-1.95
X6.4976Y-1.25
X6.4976Y-1.45
X6.4976Y-1.7
X6.4976Y-1.9
X6.4976Y-2.1
X6.5024Y-1.15
X6.5024Y-1.35
X6.5024Y-1.6
X6.5024Y-1.8
X6.5024Y-2.
X6.5024Y-2.2
T7
X2.85Y-1.9
X2.85Y-2.3
X3.Y-1.9
X3.3Y-1.15
X3.3Y-1.55
X3.4Y-1.9
X3.7Y-1.9
X3.9Y-1.2
X4.1Y-1.9
X4.15Y-1.35
X4.15Y-1.75
X4.225Y-0.95
X4.25Y-1.9
X4.3Y-1.2
X4.3Y-1.35
X4.3Y-1.75
X4.325Y-0.95
X4.65Y-1.9
X4.8Y-1.05
X4.8Y-1.45
X4.8Y-1.9
X4.9Y-1.05
X4.9Y-1.45
X5.2Y-0.95
X5.2Y-1.55
X5.2Y-1.9
X5.5Y-0.95
X5.5Y-1.55
T8
X3.3Y-0.95
X3.3Y-2.45
X3.4Y-0.95
X3.4Y-2.45
X3.5Y-0.95
X3.5Y-2.45
X3.6Y-0.95
X3.7Y-0.95
X3.8Y-0.95
X3.9Y-0.95
X4.Y-0.95
X4.1Y-0.95
X4.15Y-2.45
X4.25Y-2.45
X4.9Y-2.45
X5.Y-2.45
X5.1Y-2.45
X5.7Y-0.9
X5.7Y-1.
X5.7Y-1.1
X5.7Y-1.2
X5.7Y-1.3
X5.7Y-1.4
X5.7Y-1.5
X5.7Y-1.6
X5.7Y-1.7
X5.7Y-1.8
X5.7Y-1.9
X5.7Y-2.
X5.7Y-2.1
X5.8Y-0.9
X5.8Y-1.
X5.8Y-1.1
X5.8Y-1.2
X5.8Y-1.3
X5.8Y-1.4
X5.8Y-1.5
X5.8Y-1.6
X5.8Y-1.7
X5.8Y-1.8
X5.8Y-1.9
X5.8Y-2.
X5.8Y-2.1
T9
X3.1094Y-2.25
X3.2079Y-2.1516
X3.3063Y-2.6437
X3.4047Y-2.25
X3.5031Y-2.6437
X3.6016Y-2.1516
X3.7Y-2.25
X3.9094Y-2.25
X4.0079Y-2.1516
X4.1063Y-2.6437
X4.2047Y-2.25
X4.3031Y-2.6437
X4.4016Y-2.1516
X4.5Y-2.25
X4.7094Y-2.25
X4.8079Y-2.1516
X4.9063Y-2.6437
X5.0047Y-2.25
X5.1031Y-2.6437
X5.2016Y-2.1516
X5.3Y-2.25
T10
X2.9Y-0.95
X2.9Y-2.6
X6.5Y-0.95
X6.5Y-2.6
T6
X5.451Y-2.3689G85X5.451Y-2.4162
G05
X5.6263Y-2.55G85X5.6737Y-2.55
G05
X5.849Y-2.3689G85X5.849Y-2.4162
G05
X5.951Y-2.3689G85X5.951Y-2.4162
G05
X6.1263Y-2.55G85X6.1736Y-2.55
G05
X6.349Y-2.3689G85X6.349Y-2.4162
G05
T0
M30
