G04 #@! TF.FileFunction,Legend,Top*
%FSLAX46Y46*%
G04 Gerber Fmt 4.6, Leading zero omitted, Abs format (unit mm)*
G04 Created by KiCad (PCBNEW 4.0.5+dfsg1-4) date Mon Aug 20 18:29:01 2018*
%MOMM*%
%LPD*%
G01*
G04 APERTURE LIST*
%ADD10C,0.100000*%
%ADD11C,0.200000*%
%ADD12C,0.150000*%
%ADD13C,0.180000*%
%ADD14C,0.300000*%
%ADD15C,0.254000*%
%ADD16C,0.010000*%
%ADD17C,0.381000*%
%ADD18C,0.304800*%
G04 APERTURE END LIST*
D10*
D11*
X116840000Y-30480000D02*
X116840000Y-26670000D01*
X111760000Y-30480000D02*
X116840000Y-30480000D01*
X111760000Y-26670000D02*
X111760000Y-30480000D01*
D12*
X113252381Y-28154762D02*
X113395238Y-28202381D01*
X113633334Y-28202381D01*
X113728572Y-28154762D01*
X113776191Y-28107143D01*
X113823810Y-28011905D01*
X113823810Y-27916667D01*
X113776191Y-27821429D01*
X113728572Y-27773810D01*
X113633334Y-27726190D01*
X113442857Y-27678571D01*
X113347619Y-27630952D01*
X113300000Y-27583333D01*
X113252381Y-27488095D01*
X113252381Y-27392857D01*
X113300000Y-27297619D01*
X113347619Y-27250000D01*
X113442857Y-27202381D01*
X113680953Y-27202381D01*
X113823810Y-27250000D01*
X114252381Y-28202381D02*
X114252381Y-27202381D01*
X114919047Y-27202381D02*
X115109524Y-27202381D01*
X115204762Y-27250000D01*
X115300000Y-27345238D01*
X115347619Y-27535714D01*
X115347619Y-27869048D01*
X115300000Y-28059524D01*
X115204762Y-28154762D01*
X115109524Y-28202381D01*
X114919047Y-28202381D01*
X114823809Y-28154762D01*
X114728571Y-28059524D01*
X114680952Y-27869048D01*
X114680952Y-27535714D01*
X114728571Y-27345238D01*
X114823809Y-27250000D01*
X114919047Y-27202381D01*
X112276191Y-29566667D02*
X112752382Y-29566667D01*
X112180953Y-29852381D02*
X112514286Y-28852381D01*
X112847620Y-29852381D01*
X113180953Y-28852381D02*
X113180953Y-29661905D01*
X113228572Y-29757143D01*
X113276191Y-29804762D01*
X113371429Y-29852381D01*
X113561906Y-29852381D01*
X113657144Y-29804762D01*
X113704763Y-29757143D01*
X113752382Y-29661905D01*
X113752382Y-28852381D01*
X114228572Y-29852381D02*
X114228572Y-28852381D01*
X114466667Y-28852381D01*
X114609525Y-28900000D01*
X114704763Y-28995238D01*
X114752382Y-29090476D01*
X114800001Y-29280952D01*
X114800001Y-29423810D01*
X114752382Y-29614286D01*
X114704763Y-29709524D01*
X114609525Y-29804762D01*
X114466667Y-29852381D01*
X114228572Y-29852381D01*
X115228572Y-29852381D02*
X115228572Y-28852381D01*
X115895238Y-28852381D02*
X116085715Y-28852381D01*
X116180953Y-28900000D01*
X116276191Y-28995238D01*
X116323810Y-29185714D01*
X116323810Y-29519048D01*
X116276191Y-29709524D01*
X116180953Y-29804762D01*
X116085715Y-29852381D01*
X115895238Y-29852381D01*
X115800000Y-29804762D01*
X115704762Y-29709524D01*
X115657143Y-29519048D01*
X115657143Y-29185714D01*
X115704762Y-28995238D01*
X115800000Y-28900000D01*
X115895238Y-28852381D01*
D11*
X111760000Y-39370000D02*
X111760000Y-31750000D01*
X116840000Y-39370000D02*
X111760000Y-39370000D01*
X116840000Y-31750000D02*
X116840000Y-39370000D01*
X111760000Y-31750000D02*
X116840000Y-31750000D01*
D12*
X103949524Y-27122381D02*
X103378095Y-27122381D01*
X103663809Y-27122381D02*
X103663809Y-26122381D01*
X103568571Y-26265238D01*
X103473333Y-26360476D01*
X103378095Y-26408095D01*
X104901905Y-27122381D02*
X104330476Y-27122381D01*
X104616190Y-27122381D02*
X104616190Y-26122381D01*
X104520952Y-26265238D01*
X104425714Y-26360476D01*
X104330476Y-26408095D01*
D11*
X114046000Y-38100000D02*
X114554000Y-38100000D01*
X114046000Y-35560000D02*
X114554000Y-35560000D01*
X114046000Y-33020000D02*
X114554000Y-33020000D01*
X113030000Y-36576000D02*
X113030000Y-37084000D01*
X113030000Y-34036000D02*
X113030000Y-34544000D01*
X133350000Y-34925000D02*
X133350000Y-28575000D01*
X138430000Y-34925000D02*
X133350000Y-34925000D01*
X138430000Y-28575000D02*
X138430000Y-34925000D01*
X133350000Y-28575000D02*
X138430000Y-28575000D01*
X139700000Y-43180000D02*
X143510000Y-43180000D01*
X139700000Y-50800000D02*
X143510000Y-50800000D01*
X116840000Y-44450000D02*
X116840000Y-39370000D01*
X111760000Y-44450000D02*
X116840000Y-44450000D01*
X111760000Y-39370000D02*
X111760000Y-44450000D01*
X159417143Y-55380000D02*
X159321905Y-55332381D01*
X159179048Y-55332381D01*
X159036190Y-55380000D01*
X158940952Y-55475238D01*
X158893333Y-55570476D01*
X158845714Y-55760952D01*
X158845714Y-55903810D01*
X158893333Y-56094286D01*
X158940952Y-56189524D01*
X159036190Y-56284762D01*
X159179048Y-56332381D01*
X159274286Y-56332381D01*
X159417143Y-56284762D01*
X159464762Y-56237143D01*
X159464762Y-55903810D01*
X159274286Y-55903810D01*
X159893333Y-56332381D02*
X159893333Y-55332381D01*
X160464762Y-56332381D01*
X160464762Y-55332381D01*
X160940952Y-56332381D02*
X160940952Y-55332381D01*
X161179047Y-55332381D01*
X161321905Y-55380000D01*
X161417143Y-55475238D01*
X161464762Y-55570476D01*
X161512381Y-55760952D01*
X161512381Y-55903810D01*
X161464762Y-56094286D01*
X161417143Y-56189524D01*
X161321905Y-56284762D01*
X161179047Y-56332381D01*
X160940952Y-56332381D01*
X161893333Y-56046667D02*
X162369524Y-56046667D01*
X161798095Y-56332381D02*
X162131428Y-55332381D01*
X162464762Y-56332381D01*
X153131428Y-53506667D02*
X153607619Y-53506667D01*
X153036190Y-53792381D02*
X153369523Y-52792381D01*
X153702857Y-53792381D01*
X154036190Y-52792381D02*
X154036190Y-53601905D01*
X154083809Y-53697143D01*
X154131428Y-53744762D01*
X154226666Y-53792381D01*
X154417143Y-53792381D01*
X154512381Y-53744762D01*
X154560000Y-53697143D01*
X154607619Y-53601905D01*
X154607619Y-52792381D01*
X155083809Y-53792381D02*
X155083809Y-52792381D01*
X155321904Y-52792381D01*
X155464762Y-52840000D01*
X155560000Y-52935238D01*
X155607619Y-53030476D01*
X155655238Y-53220952D01*
X155655238Y-53363810D01*
X155607619Y-53554286D01*
X155560000Y-53649524D01*
X155464762Y-53744762D01*
X155321904Y-53792381D01*
X155083809Y-53792381D01*
X156083809Y-53792381D02*
X156083809Y-52792381D01*
X156750475Y-52792381D02*
X156940952Y-52792381D01*
X157036190Y-52840000D01*
X157131428Y-52935238D01*
X157179047Y-53125714D01*
X157179047Y-53459048D01*
X157131428Y-53649524D01*
X157036190Y-53744762D01*
X156940952Y-53792381D01*
X156750475Y-53792381D01*
X156655237Y-53744762D01*
X156559999Y-53649524D01*
X156512380Y-53459048D01*
X156512380Y-53125714D01*
X156559999Y-52935238D01*
X156655237Y-52840000D01*
X156750475Y-52792381D01*
X158559999Y-52792381D02*
X158750476Y-52792381D01*
X158845714Y-52840000D01*
X158940952Y-52935238D01*
X158988571Y-53125714D01*
X158988571Y-53459048D01*
X158940952Y-53649524D01*
X158845714Y-53744762D01*
X158750476Y-53792381D01*
X158559999Y-53792381D01*
X158464761Y-53744762D01*
X158369523Y-53649524D01*
X158321904Y-53459048D01*
X158321904Y-53125714D01*
X158369523Y-52935238D01*
X158464761Y-52840000D01*
X158559999Y-52792381D01*
X159417142Y-52792381D02*
X159417142Y-53601905D01*
X159464761Y-53697143D01*
X159512380Y-53744762D01*
X159607618Y-53792381D01*
X159798095Y-53792381D01*
X159893333Y-53744762D01*
X159940952Y-53697143D01*
X159988571Y-53601905D01*
X159988571Y-52792381D01*
X160321904Y-52792381D02*
X160893333Y-52792381D01*
X160607618Y-53792381D02*
X160607618Y-52792381D01*
X162464762Y-53792381D02*
X161988571Y-53792381D01*
X161988571Y-52792381D01*
X152940952Y-50966667D02*
X153417143Y-50966667D01*
X152845714Y-51252381D02*
X153179047Y-50252381D01*
X153512381Y-51252381D01*
X153845714Y-50252381D02*
X153845714Y-51061905D01*
X153893333Y-51157143D01*
X153940952Y-51204762D01*
X154036190Y-51252381D01*
X154226667Y-51252381D01*
X154321905Y-51204762D01*
X154369524Y-51157143D01*
X154417143Y-51061905D01*
X154417143Y-50252381D01*
X154893333Y-51252381D02*
X154893333Y-50252381D01*
X155131428Y-50252381D01*
X155274286Y-50300000D01*
X155369524Y-50395238D01*
X155417143Y-50490476D01*
X155464762Y-50680952D01*
X155464762Y-50823810D01*
X155417143Y-51014286D01*
X155369524Y-51109524D01*
X155274286Y-51204762D01*
X155131428Y-51252381D01*
X154893333Y-51252381D01*
X155893333Y-51252381D02*
X155893333Y-50252381D01*
X156559999Y-50252381D02*
X156750476Y-50252381D01*
X156845714Y-50300000D01*
X156940952Y-50395238D01*
X156988571Y-50585714D01*
X156988571Y-50919048D01*
X156940952Y-51109524D01*
X156845714Y-51204762D01*
X156750476Y-51252381D01*
X156559999Y-51252381D01*
X156464761Y-51204762D01*
X156369523Y-51109524D01*
X156321904Y-50919048D01*
X156321904Y-50585714D01*
X156369523Y-50395238D01*
X156464761Y-50300000D01*
X156559999Y-50252381D01*
X158369523Y-50252381D02*
X158560000Y-50252381D01*
X158655238Y-50300000D01*
X158750476Y-50395238D01*
X158798095Y-50585714D01*
X158798095Y-50919048D01*
X158750476Y-51109524D01*
X158655238Y-51204762D01*
X158560000Y-51252381D01*
X158369523Y-51252381D01*
X158274285Y-51204762D01*
X158179047Y-51109524D01*
X158131428Y-50919048D01*
X158131428Y-50585714D01*
X158179047Y-50395238D01*
X158274285Y-50300000D01*
X158369523Y-50252381D01*
X159226666Y-50252381D02*
X159226666Y-51061905D01*
X159274285Y-51157143D01*
X159321904Y-51204762D01*
X159417142Y-51252381D01*
X159607619Y-51252381D01*
X159702857Y-51204762D01*
X159750476Y-51157143D01*
X159798095Y-51061905D01*
X159798095Y-50252381D01*
X160131428Y-50252381D02*
X160702857Y-50252381D01*
X160417142Y-51252381D02*
X160417142Y-50252381D01*
X162369524Y-51252381D02*
X162036190Y-50776190D01*
X161798095Y-51252381D02*
X161798095Y-50252381D01*
X162179048Y-50252381D01*
X162274286Y-50300000D01*
X162321905Y-50347619D01*
X162369524Y-50442857D01*
X162369524Y-50585714D01*
X162321905Y-50680952D01*
X162274286Y-50728571D01*
X162179048Y-50776190D01*
X161798095Y-50776190D01*
X155417142Y-48188571D02*
X155750476Y-48188571D01*
X155893333Y-48712381D02*
X155417142Y-48712381D01*
X155417142Y-47712381D01*
X155893333Y-47712381D01*
X156226666Y-47712381D02*
X156893333Y-48712381D01*
X156893333Y-47712381D02*
X156226666Y-48712381D01*
X157131428Y-47712381D02*
X157702857Y-47712381D01*
X157417142Y-48712381D02*
X157417142Y-47712381D01*
X158798095Y-48331429D02*
X159560000Y-48331429D01*
X160560000Y-48712381D02*
X159988571Y-48712381D01*
X160274285Y-48712381D02*
X160274285Y-47712381D01*
X160179047Y-47855238D01*
X160083809Y-47950476D01*
X159988571Y-47998095D01*
X160940952Y-47807619D02*
X160988571Y-47760000D01*
X161083809Y-47712381D01*
X161321905Y-47712381D01*
X161417143Y-47760000D01*
X161464762Y-47807619D01*
X161512381Y-47902857D01*
X161512381Y-47998095D01*
X161464762Y-48140952D01*
X160893333Y-48712381D01*
X161512381Y-48712381D01*
X161798095Y-47712381D02*
X162131428Y-48712381D01*
X162464762Y-47712381D01*
X155417142Y-45648571D02*
X155750476Y-45648571D01*
X155893333Y-46172381D02*
X155417142Y-46172381D01*
X155417142Y-45172381D01*
X155893333Y-45172381D01*
X156226666Y-45172381D02*
X156893333Y-46172381D01*
X156893333Y-45172381D02*
X156226666Y-46172381D01*
X157131428Y-45172381D02*
X157702857Y-45172381D01*
X157417142Y-46172381D02*
X157417142Y-45172381D01*
X158798095Y-45791429D02*
X159560000Y-45791429D01*
X159179048Y-46172381D02*
X159179048Y-45410476D01*
X160560000Y-46172381D02*
X159988571Y-46172381D01*
X160274285Y-46172381D02*
X160274285Y-45172381D01*
X160179047Y-45315238D01*
X160083809Y-45410476D01*
X159988571Y-45458095D01*
X160940952Y-45267619D02*
X160988571Y-45220000D01*
X161083809Y-45172381D01*
X161321905Y-45172381D01*
X161417143Y-45220000D01*
X161464762Y-45267619D01*
X161512381Y-45362857D01*
X161512381Y-45458095D01*
X161464762Y-45600952D01*
X160893333Y-46172381D01*
X161512381Y-46172381D01*
X161798095Y-45172381D02*
X162131428Y-46172381D01*
X162464762Y-45172381D01*
X154464762Y-43346667D02*
X154940953Y-43346667D01*
X154369524Y-43632381D02*
X154702857Y-42632381D01*
X155036191Y-43632381D01*
X155369524Y-42632381D02*
X155369524Y-43441905D01*
X155417143Y-43537143D01*
X155464762Y-43584762D01*
X155560000Y-43632381D01*
X155750477Y-43632381D01*
X155845715Y-43584762D01*
X155893334Y-43537143D01*
X155940953Y-43441905D01*
X155940953Y-42632381D01*
X156417143Y-43632381D02*
X156417143Y-42632381D01*
X156655238Y-42632381D01*
X156798096Y-42680000D01*
X156893334Y-42775238D01*
X156940953Y-42870476D01*
X156988572Y-43060952D01*
X156988572Y-43203810D01*
X156940953Y-43394286D01*
X156893334Y-43489524D01*
X156798096Y-43584762D01*
X156655238Y-43632381D01*
X156417143Y-43632381D01*
X157417143Y-43632381D02*
X157417143Y-42632381D01*
X158083809Y-42632381D02*
X158274286Y-42632381D01*
X158369524Y-42680000D01*
X158464762Y-42775238D01*
X158512381Y-42965714D01*
X158512381Y-43299048D01*
X158464762Y-43489524D01*
X158369524Y-43584762D01*
X158274286Y-43632381D01*
X158083809Y-43632381D01*
X157988571Y-43584762D01*
X157893333Y-43489524D01*
X157845714Y-43299048D01*
X157845714Y-42965714D01*
X157893333Y-42775238D01*
X157988571Y-42680000D01*
X158083809Y-42632381D01*
X159702857Y-43632381D02*
X159702857Y-42632381D01*
X160179047Y-43632381D02*
X160179047Y-42632381D01*
X160750476Y-43632381D01*
X160750476Y-42632381D01*
X162464762Y-43632381D02*
X161988571Y-43632381D01*
X161988571Y-42632381D01*
X154274286Y-40806667D02*
X154750477Y-40806667D01*
X154179048Y-41092381D02*
X154512381Y-40092381D01*
X154845715Y-41092381D01*
X155179048Y-40092381D02*
X155179048Y-40901905D01*
X155226667Y-40997143D01*
X155274286Y-41044762D01*
X155369524Y-41092381D01*
X155560001Y-41092381D01*
X155655239Y-41044762D01*
X155702858Y-40997143D01*
X155750477Y-40901905D01*
X155750477Y-40092381D01*
X156226667Y-41092381D02*
X156226667Y-40092381D01*
X156464762Y-40092381D01*
X156607620Y-40140000D01*
X156702858Y-40235238D01*
X156750477Y-40330476D01*
X156798096Y-40520952D01*
X156798096Y-40663810D01*
X156750477Y-40854286D01*
X156702858Y-40949524D01*
X156607620Y-41044762D01*
X156464762Y-41092381D01*
X156226667Y-41092381D01*
X157226667Y-41092381D02*
X157226667Y-40092381D01*
X157893333Y-40092381D02*
X158083810Y-40092381D01*
X158179048Y-40140000D01*
X158274286Y-40235238D01*
X158321905Y-40425714D01*
X158321905Y-40759048D01*
X158274286Y-40949524D01*
X158179048Y-41044762D01*
X158083810Y-41092381D01*
X157893333Y-41092381D01*
X157798095Y-41044762D01*
X157702857Y-40949524D01*
X157655238Y-40759048D01*
X157655238Y-40425714D01*
X157702857Y-40235238D01*
X157798095Y-40140000D01*
X157893333Y-40092381D01*
X159512381Y-41092381D02*
X159512381Y-40092381D01*
X159988571Y-41092381D02*
X159988571Y-40092381D01*
X160560000Y-41092381D01*
X160560000Y-40092381D01*
X162369524Y-41092381D02*
X162036190Y-40616190D01*
X161798095Y-41092381D02*
X161798095Y-40092381D01*
X162179048Y-40092381D01*
X162274286Y-40140000D01*
X162321905Y-40187619D01*
X162369524Y-40282857D01*
X162369524Y-40425714D01*
X162321905Y-40520952D01*
X162274286Y-40568571D01*
X162179048Y-40616190D01*
X161798095Y-40616190D01*
X160274286Y-36330000D02*
X160179048Y-36282381D01*
X160036191Y-36282381D01*
X159893333Y-36330000D01*
X159798095Y-36425238D01*
X159750476Y-36520476D01*
X159702857Y-36710952D01*
X159702857Y-36853810D01*
X159750476Y-37044286D01*
X159798095Y-37139524D01*
X159893333Y-37234762D01*
X160036191Y-37282381D01*
X160131429Y-37282381D01*
X160274286Y-37234762D01*
X160321905Y-37187143D01*
X160321905Y-36853810D01*
X160131429Y-36853810D01*
X160750476Y-37282381D02*
X160750476Y-36282381D01*
X161321905Y-37282381D01*
X161321905Y-36282381D01*
X161798095Y-37282381D02*
X161798095Y-36282381D01*
X162036190Y-36282381D01*
X162179048Y-36330000D01*
X162274286Y-36425238D01*
X162321905Y-36520476D01*
X162369524Y-36710952D01*
X162369524Y-36853810D01*
X162321905Y-37044286D01*
X162274286Y-37139524D01*
X162179048Y-37234762D01*
X162036190Y-37282381D01*
X161798095Y-37282381D01*
X152845714Y-33742381D02*
X153417143Y-33742381D01*
X153131428Y-34742381D02*
X153131428Y-33742381D01*
X153607619Y-33742381D02*
X154179048Y-33742381D01*
X153893333Y-34742381D02*
X153893333Y-33742381D01*
X154988572Y-34742381D02*
X154512381Y-34742381D01*
X154512381Y-33742381D01*
X156083810Y-34742381D02*
X156083810Y-33742381D01*
X156417144Y-34456667D01*
X156750477Y-33742381D01*
X156750477Y-34742381D01*
X157226667Y-34742381D02*
X157226667Y-33742381D01*
X157702857Y-34742381D02*
X157702857Y-33742381D01*
X157940952Y-33742381D01*
X158083810Y-33790000D01*
X158179048Y-33885238D01*
X158226667Y-33980476D01*
X158274286Y-34170952D01*
X158274286Y-34313810D01*
X158226667Y-34504286D01*
X158179048Y-34599524D01*
X158083810Y-34694762D01*
X157940952Y-34742381D01*
X157702857Y-34742381D01*
X158702857Y-34742381D02*
X158702857Y-33742381D01*
X160131428Y-33742381D02*
X160321905Y-33742381D01*
X160417143Y-33790000D01*
X160512381Y-33885238D01*
X160560000Y-34075714D01*
X160560000Y-34409048D01*
X160512381Y-34599524D01*
X160417143Y-34694762D01*
X160321905Y-34742381D01*
X160131428Y-34742381D01*
X160036190Y-34694762D01*
X159940952Y-34599524D01*
X159893333Y-34409048D01*
X159893333Y-34075714D01*
X159940952Y-33885238D01*
X160036190Y-33790000D01*
X160131428Y-33742381D01*
X160988571Y-33742381D02*
X160988571Y-34551905D01*
X161036190Y-34647143D01*
X161083809Y-34694762D01*
X161179047Y-34742381D01*
X161369524Y-34742381D01*
X161464762Y-34694762D01*
X161512381Y-34647143D01*
X161560000Y-34551905D01*
X161560000Y-33742381D01*
X161893333Y-33742381D02*
X162464762Y-33742381D01*
X162179047Y-34742381D02*
X162179047Y-33742381D01*
X154179048Y-31202381D02*
X154750477Y-31202381D01*
X154464762Y-32202381D02*
X154464762Y-31202381D01*
X154940953Y-31202381D02*
X155512382Y-31202381D01*
X155226667Y-32202381D02*
X155226667Y-31202381D01*
X156321906Y-32202381D02*
X155845715Y-32202381D01*
X155845715Y-31202381D01*
X157417144Y-32202381D02*
X157417144Y-31202381D01*
X157750478Y-31916667D01*
X158083811Y-31202381D01*
X158083811Y-32202381D01*
X158560001Y-32202381D02*
X158560001Y-31202381D01*
X159036191Y-32202381D02*
X159036191Y-31202381D01*
X159274286Y-31202381D01*
X159417144Y-31250000D01*
X159512382Y-31345238D01*
X159560001Y-31440476D01*
X159607620Y-31630952D01*
X159607620Y-31773810D01*
X159560001Y-31964286D01*
X159512382Y-32059524D01*
X159417144Y-32154762D01*
X159274286Y-32202381D01*
X159036191Y-32202381D01*
X160036191Y-32202381D02*
X160036191Y-31202381D01*
X161274286Y-32202381D02*
X161274286Y-31202381D01*
X161750476Y-32202381D02*
X161750476Y-31202381D01*
X162321905Y-32202381D01*
X162321905Y-31202381D01*
X156369523Y-29138571D02*
X156702857Y-29138571D01*
X156845714Y-29662381D02*
X156369523Y-29662381D01*
X156369523Y-28662381D01*
X156845714Y-28662381D01*
X157179047Y-28662381D02*
X157845714Y-29662381D01*
X157845714Y-28662381D02*
X157179047Y-29662381D01*
X158083809Y-28662381D02*
X158655238Y-28662381D01*
X158369523Y-29662381D02*
X158369523Y-28662381D01*
X159750476Y-29281429D02*
X160512381Y-29281429D01*
X160131429Y-29662381D02*
X160131429Y-28900476D01*
X161464762Y-28662381D02*
X160988571Y-28662381D01*
X160940952Y-29138571D01*
X160988571Y-29090952D01*
X161083809Y-29043333D01*
X161321905Y-29043333D01*
X161417143Y-29090952D01*
X161464762Y-29138571D01*
X161512381Y-29233810D01*
X161512381Y-29471905D01*
X161464762Y-29567143D01*
X161417143Y-29614762D01*
X161321905Y-29662381D01*
X161083809Y-29662381D01*
X160988571Y-29614762D01*
X160940952Y-29567143D01*
X161798095Y-28662381D02*
X162131428Y-29662381D01*
X162464762Y-28662381D01*
D13*
X140763571Y-48982381D02*
X140954048Y-48982381D01*
X141049286Y-49030000D01*
X141144524Y-49125238D01*
X141192143Y-49315714D01*
X141192143Y-49649048D01*
X141144524Y-49839524D01*
X141049286Y-49934762D01*
X140954048Y-49982381D01*
X140763571Y-49982381D01*
X140668333Y-49934762D01*
X140573095Y-49839524D01*
X140525476Y-49649048D01*
X140525476Y-49315714D01*
X140573095Y-49125238D01*
X140668333Y-49030000D01*
X140763571Y-48982381D01*
X141620714Y-48982381D02*
X141620714Y-49791905D01*
X141668333Y-49887143D01*
X141715952Y-49934762D01*
X141811190Y-49982381D01*
X142001667Y-49982381D01*
X142096905Y-49934762D01*
X142144524Y-49887143D01*
X142192143Y-49791905D01*
X142192143Y-48982381D01*
X142525476Y-48982381D02*
X143096905Y-48982381D01*
X142811190Y-49982381D02*
X142811190Y-48982381D01*
X140477857Y-46442381D02*
X141144524Y-47442381D01*
X141144524Y-46442381D02*
X140477857Y-47442381D01*
X140573095Y-44902381D02*
X140573095Y-43902381D01*
X141049285Y-44902381D02*
X141049285Y-43902381D01*
X141620714Y-44902381D01*
X141620714Y-43902381D01*
D11*
X143510000Y-54610000D02*
X167640000Y-54610000D01*
X167640000Y-21590000D02*
X143510000Y-21590000D01*
X167640000Y-54610000D02*
X167640000Y-21590000D01*
X143510000Y-21590000D02*
X143510000Y-54610000D01*
D14*
X77477857Y-66488571D02*
X77763571Y-66488571D01*
X77906429Y-66560000D01*
X78049286Y-66702857D01*
X78120714Y-66988571D01*
X78120714Y-67488571D01*
X78049286Y-67774286D01*
X77906429Y-67917143D01*
X77763571Y-67988571D01*
X77477857Y-67988571D01*
X77335000Y-67917143D01*
X77192143Y-67774286D01*
X77120714Y-67488571D01*
X77120714Y-66988571D01*
X77192143Y-66702857D01*
X77335000Y-66560000D01*
X77477857Y-66488571D01*
X78763572Y-66488571D02*
X78763572Y-67702857D01*
X78835000Y-67845714D01*
X78906429Y-67917143D01*
X79049286Y-67988571D01*
X79335000Y-67988571D01*
X79477858Y-67917143D01*
X79549286Y-67845714D01*
X79620715Y-67702857D01*
X79620715Y-66488571D01*
X80120715Y-66488571D02*
X80977858Y-66488571D01*
X80549287Y-67988571D02*
X80549287Y-66488571D01*
D12*
X88566667Y-26122381D02*
X89233334Y-27122381D01*
X89233334Y-26122381D02*
X88566667Y-27122381D01*
X83486667Y-26122381D02*
X84153334Y-27122381D01*
X84153334Y-26122381D02*
X83486667Y-27122381D01*
X91106667Y-26122381D02*
X91725715Y-26122381D01*
X91392381Y-26503333D01*
X91535239Y-26503333D01*
X91630477Y-26550952D01*
X91678096Y-26598571D01*
X91725715Y-26693810D01*
X91725715Y-26931905D01*
X91678096Y-27027143D01*
X91630477Y-27074762D01*
X91535239Y-27122381D01*
X91249524Y-27122381D01*
X91154286Y-27074762D01*
X91106667Y-27027143D01*
X99345715Y-27122381D02*
X98774286Y-27122381D01*
X99060000Y-27122381D02*
X99060000Y-26122381D01*
X98964762Y-26265238D01*
X98869524Y-26360476D01*
X98774286Y-26408095D01*
X86550477Y-26455714D02*
X86550477Y-27122381D01*
X86312381Y-26074762D02*
X86074286Y-26789048D01*
X86693334Y-26789048D01*
X94218096Y-26122381D02*
X93741905Y-26122381D01*
X93694286Y-26598571D01*
X93741905Y-26550952D01*
X93837143Y-26503333D01*
X94075239Y-26503333D01*
X94170477Y-26550952D01*
X94218096Y-26598571D01*
X94265715Y-26693810D01*
X94265715Y-26931905D01*
X94218096Y-27027143D01*
X94170477Y-27074762D01*
X94075239Y-27122381D01*
X93837143Y-27122381D01*
X93741905Y-27074762D01*
X93694286Y-27027143D01*
X101790477Y-26122381D02*
X101600000Y-26122381D01*
X101504762Y-26170000D01*
X101457143Y-26217619D01*
X101361905Y-26360476D01*
X101314286Y-26550952D01*
X101314286Y-26931905D01*
X101361905Y-27027143D01*
X101409524Y-27074762D01*
X101504762Y-27122381D01*
X101695239Y-27122381D01*
X101790477Y-27074762D01*
X101838096Y-27027143D01*
X101885715Y-26931905D01*
X101885715Y-26693810D01*
X101838096Y-26598571D01*
X101790477Y-26550952D01*
X101695239Y-26503333D01*
X101504762Y-26503333D01*
X101409524Y-26550952D01*
X101361905Y-26598571D01*
X101314286Y-26693810D01*
X96424762Y-26550952D02*
X96329524Y-26503333D01*
X96281905Y-26455714D01*
X96234286Y-26360476D01*
X96234286Y-26312857D01*
X96281905Y-26217619D01*
X96329524Y-26170000D01*
X96424762Y-26122381D01*
X96615239Y-26122381D01*
X96710477Y-26170000D01*
X96758096Y-26217619D01*
X96805715Y-26312857D01*
X96805715Y-26360476D01*
X96758096Y-26455714D01*
X96710477Y-26503333D01*
X96615239Y-26550952D01*
X96424762Y-26550952D01*
X96329524Y-26598571D01*
X96281905Y-26646190D01*
X96234286Y-26741429D01*
X96234286Y-26931905D01*
X96281905Y-27027143D01*
X96329524Y-27074762D01*
X96424762Y-27122381D01*
X96615239Y-27122381D01*
X96710477Y-27074762D01*
X96758096Y-27027143D01*
X96805715Y-26931905D01*
X96805715Y-26741429D01*
X96758096Y-26646190D01*
X96710477Y-26598571D01*
X96615239Y-26550952D01*
X112585476Y-39807619D02*
X112633095Y-39760000D01*
X112728333Y-39712381D01*
X112966429Y-39712381D01*
X113061667Y-39760000D01*
X113109286Y-39807619D01*
X113156905Y-39902857D01*
X113156905Y-39998095D01*
X113109286Y-40140952D01*
X112537857Y-40712381D01*
X113156905Y-40712381D01*
X113585476Y-40712381D02*
X113585476Y-39712381D01*
X113918810Y-40426667D01*
X114252143Y-39712381D01*
X114252143Y-40712381D01*
X114728333Y-40712381D02*
X114728333Y-39712381D01*
X114728333Y-40188571D02*
X115299762Y-40188571D01*
X115299762Y-40712381D02*
X115299762Y-39712381D01*
X115680714Y-40045714D02*
X116204524Y-40045714D01*
X115680714Y-40712381D01*
X116204524Y-40712381D01*
X113061667Y-41695714D02*
X113061667Y-42362381D01*
X112823571Y-41314762D02*
X112585476Y-42029048D01*
X113204524Y-42029048D01*
X113585476Y-42362381D02*
X113585476Y-41362381D01*
X113918810Y-42076667D01*
X114252143Y-41362381D01*
X114252143Y-42362381D01*
X114728333Y-42362381D02*
X114728333Y-41362381D01*
X114728333Y-41838571D02*
X115299762Y-41838571D01*
X115299762Y-42362381D02*
X115299762Y-41362381D01*
X115680714Y-41695714D02*
X116204524Y-41695714D01*
X115680714Y-42362381D01*
X116204524Y-42362381D01*
X112775952Y-43440952D02*
X112680714Y-43393333D01*
X112633095Y-43345714D01*
X112585476Y-43250476D01*
X112585476Y-43202857D01*
X112633095Y-43107619D01*
X112680714Y-43060000D01*
X112775952Y-43012381D01*
X112966429Y-43012381D01*
X113061667Y-43060000D01*
X113109286Y-43107619D01*
X113156905Y-43202857D01*
X113156905Y-43250476D01*
X113109286Y-43345714D01*
X113061667Y-43393333D01*
X112966429Y-43440952D01*
X112775952Y-43440952D01*
X112680714Y-43488571D01*
X112633095Y-43536190D01*
X112585476Y-43631429D01*
X112585476Y-43821905D01*
X112633095Y-43917143D01*
X112680714Y-43964762D01*
X112775952Y-44012381D01*
X112966429Y-44012381D01*
X113061667Y-43964762D01*
X113109286Y-43917143D01*
X113156905Y-43821905D01*
X113156905Y-43631429D01*
X113109286Y-43536190D01*
X113061667Y-43488571D01*
X112966429Y-43440952D01*
X113585476Y-44012381D02*
X113585476Y-43012381D01*
X113918810Y-43726667D01*
X114252143Y-43012381D01*
X114252143Y-44012381D01*
X114728333Y-44012381D02*
X114728333Y-43012381D01*
X114728333Y-43488571D02*
X115299762Y-43488571D01*
X115299762Y-44012381D02*
X115299762Y-43012381D01*
X115680714Y-43345714D02*
X116204524Y-43345714D01*
X115680714Y-44012381D01*
X116204524Y-44012381D01*
X134104286Y-29392619D02*
X134151905Y-29345000D01*
X134247143Y-29297381D01*
X134485239Y-29297381D01*
X134580477Y-29345000D01*
X134628096Y-29392619D01*
X134675715Y-29487857D01*
X134675715Y-29583095D01*
X134628096Y-29725952D01*
X134056667Y-30297381D01*
X134675715Y-30297381D01*
X135104286Y-30297381D02*
X135104286Y-29297381D01*
X135437620Y-30011667D01*
X135770953Y-29297381D01*
X135770953Y-30297381D01*
X136247143Y-30297381D02*
X136247143Y-29297381D01*
X136247143Y-29773571D02*
X136818572Y-29773571D01*
X136818572Y-30297381D02*
X136818572Y-29297381D01*
X137199524Y-29630714D02*
X137723334Y-29630714D01*
X137199524Y-30297381D01*
X137723334Y-30297381D01*
X134294762Y-33535952D02*
X134199524Y-33488333D01*
X134151905Y-33440714D01*
X134104286Y-33345476D01*
X134104286Y-33297857D01*
X134151905Y-33202619D01*
X134199524Y-33155000D01*
X134294762Y-33107381D01*
X134485239Y-33107381D01*
X134580477Y-33155000D01*
X134628096Y-33202619D01*
X134675715Y-33297857D01*
X134675715Y-33345476D01*
X134628096Y-33440714D01*
X134580477Y-33488333D01*
X134485239Y-33535952D01*
X134294762Y-33535952D01*
X134199524Y-33583571D01*
X134151905Y-33631190D01*
X134104286Y-33726429D01*
X134104286Y-33916905D01*
X134151905Y-34012143D01*
X134199524Y-34059762D01*
X134294762Y-34107381D01*
X134485239Y-34107381D01*
X134580477Y-34059762D01*
X134628096Y-34012143D01*
X134675715Y-33916905D01*
X134675715Y-33726429D01*
X134628096Y-33631190D01*
X134580477Y-33583571D01*
X134485239Y-33535952D01*
X135104286Y-34107381D02*
X135104286Y-33107381D01*
X135437620Y-33821667D01*
X135770953Y-33107381D01*
X135770953Y-34107381D01*
X136247143Y-34107381D02*
X136247143Y-33107381D01*
X136247143Y-33583571D02*
X136818572Y-33583571D01*
X136818572Y-34107381D02*
X136818572Y-33107381D01*
X137199524Y-33440714D02*
X137723334Y-33440714D01*
X137199524Y-34107381D01*
X137723334Y-34107381D01*
D13*
X74539047Y-51887381D02*
X74664047Y-50887381D01*
X74908096Y-51601667D01*
X75330714Y-50887381D01*
X75205714Y-51887381D01*
X75681904Y-51887381D02*
X75806904Y-50887381D01*
X76158094Y-51887381D02*
X76283094Y-50887381D01*
X76521189Y-50887381D01*
X76658095Y-50935000D01*
X76741428Y-51030238D01*
X76777143Y-51125476D01*
X76800952Y-51315952D01*
X76783095Y-51458810D01*
X76711666Y-51649286D01*
X76652143Y-51744524D01*
X76545000Y-51839762D01*
X76396189Y-51887381D01*
X76158094Y-51887381D01*
X77158094Y-51887381D02*
X77283094Y-50887381D01*
X78396189Y-51887381D02*
X78521189Y-50887381D01*
X78872379Y-51887381D02*
X78997379Y-50887381D01*
X79443808Y-51887381D01*
X79568808Y-50887381D01*
X79902141Y-50887381D02*
X80473570Y-50887381D01*
X80062855Y-51887381D02*
X80187855Y-50887381D01*
X80747380Y-51363571D02*
X81080714Y-51363571D01*
X81158094Y-51887381D02*
X80681903Y-51887381D01*
X80806903Y-50887381D01*
X81283094Y-50887381D01*
X82158094Y-51887381D02*
X81884284Y-51411190D01*
X81586665Y-51887381D02*
X81711665Y-50887381D01*
X82092618Y-50887381D01*
X82181904Y-50935000D01*
X82223571Y-50982619D01*
X82259285Y-51077857D01*
X82241428Y-51220714D01*
X82181904Y-51315952D01*
X82128333Y-51363571D01*
X82027142Y-51411190D01*
X81646189Y-51411190D01*
X82985476Y-51363571D02*
X82652142Y-51363571D01*
X82586665Y-51887381D02*
X82711665Y-50887381D01*
X83187856Y-50887381D01*
X83431904Y-51601667D02*
X83908095Y-51601667D01*
X83300951Y-51887381D02*
X83759284Y-50887381D01*
X83967618Y-51887381D01*
X84884285Y-51792143D02*
X84830714Y-51839762D01*
X84681904Y-51887381D01*
X84586666Y-51887381D01*
X84449761Y-51839762D01*
X84366428Y-51744524D01*
X84330713Y-51649286D01*
X84306904Y-51458810D01*
X84324761Y-51315952D01*
X84396190Y-51125476D01*
X84455713Y-51030238D01*
X84562856Y-50935000D01*
X84711666Y-50887381D01*
X84806904Y-50887381D01*
X84943809Y-50935000D01*
X84985476Y-50982619D01*
X85366428Y-51363571D02*
X85699762Y-51363571D01*
X85777142Y-51887381D02*
X85300951Y-51887381D01*
X85425951Y-50887381D01*
X85902142Y-50887381D01*
X87717619Y-51601667D02*
X88193810Y-51601667D01*
X87586666Y-51887381D02*
X88044999Y-50887381D01*
X88253333Y-51887381D01*
X88568809Y-50887381D02*
X89140238Y-50887381D01*
X88729523Y-51887381D02*
X88854523Y-50887381D01*
X89336667Y-51601667D02*
X89812858Y-51601667D01*
X89205714Y-51887381D02*
X89664047Y-50887381D01*
X89872381Y-51887381D01*
X90777143Y-51887381D02*
X90503333Y-51411190D01*
X90205714Y-51887381D02*
X90330714Y-50887381D01*
X90711667Y-50887381D01*
X90800953Y-50935000D01*
X90842620Y-50982619D01*
X90878334Y-51077857D01*
X90860477Y-51220714D01*
X90800953Y-51315952D01*
X90747382Y-51363571D01*
X90646191Y-51411190D01*
X90265238Y-51411190D01*
X91205714Y-51887381D02*
X91330714Y-50887381D01*
X92473571Y-50887381D02*
X93015238Y-51887381D01*
X93140238Y-50887381D02*
X92348571Y-51887381D01*
X93872381Y-51887381D02*
X93396190Y-51887381D01*
X93521190Y-50887381D01*
X95050953Y-50839762D02*
X94033095Y-52125476D01*
X95283095Y-50887381D02*
X95824762Y-51887381D01*
X95949762Y-50887381D02*
X95158095Y-51887381D01*
X96271191Y-51363571D02*
X96604525Y-51363571D01*
X96681905Y-51887381D02*
X96205714Y-51887381D01*
X96330714Y-50887381D01*
X96806905Y-50887381D01*
X98634286Y-51887381D02*
X98759286Y-50887381D01*
X98997381Y-50887381D01*
X99134287Y-50935000D01*
X99217620Y-51030238D01*
X99253335Y-51125476D01*
X99277144Y-51315952D01*
X99259287Y-51458810D01*
X99187858Y-51649286D01*
X99128335Y-51744524D01*
X99021192Y-51839762D01*
X98872381Y-51887381D01*
X98634286Y-51887381D01*
X99699763Y-51363571D02*
X100033097Y-51363571D01*
X100110477Y-51887381D02*
X99634286Y-51887381D01*
X99759286Y-50887381D01*
X100235477Y-50887381D01*
X100497382Y-51839762D02*
X100634286Y-51887381D01*
X100872382Y-51887381D01*
X100973573Y-51839762D01*
X101027144Y-51792143D01*
X101086668Y-51696905D01*
X101098573Y-51601667D01*
X101062858Y-51506429D01*
X101021192Y-51458810D01*
X100931906Y-51411190D01*
X100747382Y-51363571D01*
X100658096Y-51315952D01*
X100616429Y-51268333D01*
X100580715Y-51173095D01*
X100592620Y-51077857D01*
X100652144Y-50982619D01*
X100705715Y-50935000D01*
X100806905Y-50887381D01*
X101045001Y-50887381D01*
X101181906Y-50935000D01*
X101491429Y-51887381D02*
X101616429Y-50887381D01*
X102610477Y-50935000D02*
X102521191Y-50887381D01*
X102378334Y-50887381D01*
X102229524Y-50935000D01*
X102122381Y-51030238D01*
X102062858Y-51125476D01*
X101991429Y-51315952D01*
X101973572Y-51458810D01*
X101997381Y-51649286D01*
X102033096Y-51744524D01*
X102116429Y-51839762D01*
X102253334Y-51887381D01*
X102348572Y-51887381D01*
X102497382Y-51839762D01*
X102550953Y-51792143D01*
X102592620Y-51458810D01*
X102402144Y-51458810D01*
X102967619Y-51887381D02*
X103092619Y-50887381D01*
X103539048Y-51887381D01*
X103664048Y-50887381D01*
X105175954Y-51363571D02*
X105312858Y-51411190D01*
X105354525Y-51458810D01*
X105390239Y-51554048D01*
X105372382Y-51696905D01*
X105312858Y-51792143D01*
X105259287Y-51839762D01*
X105158096Y-51887381D01*
X104777143Y-51887381D01*
X104902143Y-50887381D01*
X105235477Y-50887381D01*
X105324763Y-50935000D01*
X105366430Y-50982619D01*
X105402144Y-51077857D01*
X105390239Y-51173095D01*
X105330715Y-51268333D01*
X105277144Y-51315952D01*
X105175954Y-51363571D01*
X104842620Y-51363571D01*
X106027143Y-51411190D02*
X105967619Y-51887381D01*
X105759286Y-50887381D02*
X106027143Y-51411190D01*
X106425953Y-50887381D01*
X107396191Y-51887381D02*
X107521191Y-50887381D01*
X107854524Y-50887381D02*
X108062857Y-51887381D01*
X108521191Y-50887381D01*
X109045000Y-50887381D02*
X109235477Y-50887381D01*
X109324763Y-50935000D01*
X109408096Y-51030238D01*
X109431906Y-51220714D01*
X109390239Y-51554048D01*
X109318811Y-51744524D01*
X109211668Y-51839762D01*
X109110477Y-51887381D01*
X108920000Y-51887381D01*
X108830715Y-51839762D01*
X108747382Y-51744524D01*
X108723572Y-51554048D01*
X108765239Y-51220714D01*
X108836667Y-51030238D01*
X108943810Y-50935000D01*
X109045000Y-50887381D01*
X110521191Y-50887381D02*
X110729524Y-51887381D01*
X111187858Y-50887381D01*
X111384287Y-51601667D02*
X111860478Y-51601667D01*
X111253334Y-51887381D02*
X111711667Y-50887381D01*
X111920001Y-51887381D01*
X112253334Y-51887381D02*
X112378334Y-50887381D01*
X112824763Y-51887381D01*
X112949763Y-50887381D01*
X114062858Y-51887381D02*
X114187858Y-50887381D01*
X114568811Y-50887381D01*
X114658097Y-50935000D01*
X114699764Y-50982619D01*
X114735478Y-51077857D01*
X114717621Y-51220714D01*
X114658097Y-51315952D01*
X114604526Y-51363571D01*
X114503335Y-51411190D01*
X114122382Y-51411190D01*
X115378334Y-50887381D02*
X115568811Y-50887381D01*
X115658097Y-50935000D01*
X115741430Y-51030238D01*
X115765240Y-51220714D01*
X115723573Y-51554048D01*
X115652145Y-51744524D01*
X115545002Y-51839762D01*
X115443811Y-51887381D01*
X115253334Y-51887381D01*
X115164049Y-51839762D01*
X115080716Y-51744524D01*
X115056906Y-51554048D01*
X115098573Y-51220714D01*
X115170001Y-51030238D01*
X115277144Y-50935000D01*
X115378334Y-50887381D01*
X116425953Y-50887381D02*
X116616430Y-50887381D01*
X116705716Y-50935000D01*
X116789049Y-51030238D01*
X116812859Y-51220714D01*
X116771192Y-51554048D01*
X116699764Y-51744524D01*
X116592621Y-51839762D01*
X116491430Y-51887381D01*
X116300953Y-51887381D01*
X116211668Y-51839762D01*
X116128335Y-51744524D01*
X116104525Y-51554048D01*
X116146192Y-51220714D01*
X116217620Y-51030238D01*
X116324763Y-50935000D01*
X116425953Y-50887381D01*
X117729525Y-51887381D02*
X117455715Y-51411190D01*
X117158096Y-51887381D02*
X117283096Y-50887381D01*
X117664049Y-50887381D01*
X117753335Y-50935000D01*
X117795002Y-50982619D01*
X117830716Y-51077857D01*
X117812859Y-51220714D01*
X117753335Y-51315952D01*
X117699764Y-51363571D01*
X117598573Y-51411190D01*
X117217620Y-51411190D01*
X118140239Y-50887381D02*
X118711668Y-50887381D01*
X118300953Y-51887381D02*
X118425953Y-50887381D01*
X118985478Y-51363571D02*
X119318812Y-51363571D01*
X119396192Y-51887381D02*
X118920001Y-51887381D01*
X119045001Y-50887381D01*
X119521192Y-50887381D01*
X119824763Y-51887381D02*
X119949763Y-50887381D01*
X120396192Y-51887381D01*
X120521192Y-50887381D01*
X122920002Y-51887381D02*
X122348573Y-51887381D01*
X122634287Y-51887381D02*
X122759287Y-50887381D01*
X122646192Y-51030238D01*
X122539050Y-51125476D01*
X122437859Y-51173095D01*
X123872383Y-51887381D02*
X123300954Y-51887381D01*
X123586668Y-51887381D02*
X123711668Y-50887381D01*
X123598573Y-51030238D01*
X123491431Y-51125476D01*
X123390240Y-51173095D01*
X125146193Y-50839762D02*
X124128335Y-52125476D01*
X125414050Y-50982619D02*
X125467621Y-50935000D01*
X125568811Y-50887381D01*
X125806907Y-50887381D01*
X125896193Y-50935000D01*
X125937860Y-50982619D01*
X125973574Y-51077857D01*
X125961669Y-51173095D01*
X125896193Y-51315952D01*
X125253335Y-51887381D01*
X125872383Y-51887381D01*
X126616430Y-50887381D02*
X126711669Y-50887381D01*
X126800955Y-50935000D01*
X126842622Y-50982619D01*
X126878336Y-51077857D01*
X126902145Y-51268333D01*
X126872383Y-51506429D01*
X126800955Y-51696905D01*
X126741431Y-51792143D01*
X126687860Y-51839762D01*
X126586669Y-51887381D01*
X126491430Y-51887381D01*
X126402145Y-51839762D01*
X126360478Y-51792143D01*
X126324764Y-51696905D01*
X126300954Y-51506429D01*
X126330716Y-51268333D01*
X126402145Y-51077857D01*
X126461669Y-50982619D01*
X126515240Y-50935000D01*
X126616430Y-50887381D01*
X127777145Y-51887381D02*
X127205716Y-51887381D01*
X127491430Y-51887381D02*
X127616430Y-50887381D01*
X127503335Y-51030238D01*
X127396193Y-51125476D01*
X127295002Y-51173095D01*
X128235478Y-50887381D02*
X128902145Y-50887381D01*
X128348573Y-51887381D01*
X130491431Y-51887381D02*
X130217621Y-51411190D01*
X129920002Y-51887381D02*
X130045002Y-50887381D01*
X130425955Y-50887381D01*
X130515241Y-50935000D01*
X130556908Y-50982619D01*
X130592622Y-51077857D01*
X130574765Y-51220714D01*
X130515241Y-51315952D01*
X130461670Y-51363571D01*
X130360479Y-51411190D01*
X129979526Y-51411190D01*
X130985479Y-51363571D02*
X131318813Y-51363571D01*
X131396193Y-51887381D02*
X130920002Y-51887381D01*
X131045002Y-50887381D01*
X131521193Y-50887381D01*
X131806907Y-50887381D02*
X132015240Y-51887381D01*
X132473574Y-50887381D01*
X134027146Y-51792143D02*
X133973575Y-51839762D01*
X133824765Y-51887381D01*
X133729527Y-51887381D01*
X133592622Y-51839762D01*
X133509289Y-51744524D01*
X133473574Y-51649286D01*
X133449765Y-51458810D01*
X133467622Y-51315952D01*
X133539051Y-51125476D01*
X133598574Y-51030238D01*
X133705717Y-50935000D01*
X133854527Y-50887381D01*
X133949765Y-50887381D01*
X134086670Y-50935000D01*
X134128337Y-50982619D01*
D14*
X117617857Y-66488571D02*
X118475000Y-66488571D01*
X118046429Y-67988571D02*
X118046429Y-66488571D01*
X118975000Y-67988571D02*
X118975000Y-66488571D01*
X118975000Y-67202857D02*
X119832143Y-67202857D01*
X119832143Y-67988571D02*
X119832143Y-66488571D01*
X121403572Y-67988571D02*
X120903572Y-67274286D01*
X120546429Y-67988571D02*
X120546429Y-66488571D01*
X121117857Y-66488571D01*
X121260715Y-66560000D01*
X121332143Y-66631429D01*
X121403572Y-66774286D01*
X121403572Y-66988571D01*
X121332143Y-67131429D01*
X121260715Y-67202857D01*
X121117857Y-67274286D01*
X120546429Y-67274286D01*
X122046429Y-66488571D02*
X122046429Y-67702857D01*
X122117857Y-67845714D01*
X122189286Y-67917143D01*
X122332143Y-67988571D01*
X122617857Y-67988571D01*
X122760715Y-67917143D01*
X122832143Y-67845714D01*
X122903572Y-67702857D01*
X122903572Y-66488571D01*
X97512143Y-67988571D02*
X97512143Y-66488571D01*
X98226429Y-67988571D02*
X98226429Y-66488571D01*
X99083572Y-67988571D01*
X99083572Y-66488571D01*
D12*
X92280000Y-30050000D02*
X92280000Y-33450000D01*
X92282944Y-30052944D02*
G75*
G02X96380000Y-31750000I1697056J-1697056D01*
G01*
X92282944Y-33447056D02*
G75*
G03X96380000Y-31750000I1697056J1697056D01*
G01*
X72525000Y-26915000D02*
X72525000Y-28185000D01*
X79875000Y-26915000D02*
X79875000Y-28185000D01*
X79875000Y-46745000D02*
X79875000Y-45475000D01*
X72525000Y-46745000D02*
X72525000Y-45475000D01*
X72525000Y-26915000D02*
X79875000Y-26915000D01*
X72525000Y-46745000D02*
X79875000Y-46745000D01*
X72525000Y-28185000D02*
X71590000Y-28185000D01*
X112840000Y-53761000D02*
X116800000Y-53761000D01*
X102856000Y-53761000D02*
X110730000Y-53761000D01*
X116800000Y-53761000D02*
X116800000Y-69688000D01*
X96800000Y-69688000D02*
X116800000Y-69688000D01*
X96800000Y-53761000D02*
X96800000Y-69688000D01*
X96800000Y-53761000D02*
X100760500Y-53761000D01*
X92520000Y-53761000D02*
X96480000Y-53761000D01*
X82536000Y-53761000D02*
X90410000Y-53761000D01*
X96480000Y-53761000D02*
X96480000Y-69688000D01*
X76480000Y-69688000D02*
X96480000Y-69688000D01*
X76480000Y-53761000D02*
X76480000Y-69688000D01*
X76480000Y-53761000D02*
X80440500Y-53761000D01*
X141478000Y-41148000D02*
G75*
G03X141478000Y-41148000I-254000J0D01*
G01*
X130489960Y-42148760D02*
X142488920Y-42148760D01*
X142488920Y-22349460D02*
X142488920Y-42148760D01*
X130289300Y-21351240D02*
X141389100Y-21351240D01*
X129291080Y-40850820D02*
X129291080Y-22349460D01*
X130289300Y-21351240D02*
G75*
G03X129291080Y-22349460I0J-998220D01*
G01*
X129291080Y-40954960D02*
G75*
G03X130489960Y-42153840I1198880J0D01*
G01*
X142488920Y-22349460D02*
G75*
G03X141490700Y-21351240I-998220J0D01*
G01*
X75946000Y-66040000D02*
G75*
G03X75946000Y-66040000I-2286000J0D01*
G01*
X167386000Y-66040000D02*
G75*
G03X167386000Y-66040000I-2286000J0D01*
G01*
X167386000Y-24130000D02*
G75*
G03X167386000Y-24130000I-2286000J0D01*
G01*
X90172540Y-45466520D02*
X90172540Y-46863520D01*
X90172540Y-41021520D02*
X90172540Y-39497520D01*
X90934540Y-41402520D02*
X89410540Y-41402520D01*
X90934540Y-41148520D02*
X89410540Y-41148520D01*
X90172540Y-40894520D02*
X89410540Y-40894520D01*
X89410540Y-40894520D02*
X89410540Y-45466520D01*
X89410540Y-45466520D02*
X90934540Y-45466520D01*
X90934540Y-45466520D02*
X90934540Y-40894520D01*
X90934540Y-40894520D02*
X90172540Y-40894520D01*
X133160000Y-53761000D02*
X137120000Y-53761000D01*
X123176000Y-53761000D02*
X131050000Y-53761000D01*
X137120000Y-53761000D02*
X137120000Y-69688000D01*
X117120000Y-69688000D02*
X137120000Y-69688000D01*
X117120000Y-53761000D02*
X117120000Y-69688000D01*
X117120000Y-53761000D02*
X121080500Y-53761000D01*
X87200000Y-30050000D02*
X87200000Y-33450000D01*
X87202944Y-30052944D02*
G75*
G02X91300000Y-31750000I1697056J-1697056D01*
G01*
X87202944Y-33447056D02*
G75*
G03X91300000Y-31750000I1697056J1697056D01*
G01*
X94115000Y-35805000D02*
X94115000Y-37075000D01*
X101465000Y-35805000D02*
X101465000Y-37075000D01*
X101465000Y-45475000D02*
X101465000Y-44205000D01*
X94115000Y-45475000D02*
X94115000Y-44205000D01*
X94115000Y-35805000D02*
X101465000Y-35805000D01*
X94115000Y-45475000D02*
X101465000Y-45475000D01*
X94115000Y-37075000D02*
X93180000Y-37075000D01*
X80260000Y-26650000D02*
X77260000Y-26650000D01*
X77260000Y-24150000D02*
X80260000Y-24150000D01*
X78740000Y-46990000D02*
X83820000Y-46990000D01*
X83820000Y-46990000D02*
X83820000Y-49530000D01*
X83820000Y-49530000D02*
X78740000Y-49530000D01*
X78740000Y-49530000D02*
X78740000Y-46990000D01*
X78740000Y-48260000D02*
X77470000Y-48260000D01*
X83820000Y-48260000D02*
X85090000Y-48260000D01*
X96520000Y-46990000D02*
X101600000Y-46990000D01*
X101600000Y-46990000D02*
X101600000Y-49530000D01*
X101600000Y-49530000D02*
X96520000Y-49530000D01*
X96520000Y-49530000D02*
X96520000Y-46990000D01*
X96520000Y-48260000D02*
X95250000Y-48260000D01*
X101600000Y-48260000D02*
X102870000Y-48260000D01*
X82550000Y-36830000D02*
X82550000Y-31750000D01*
X82550000Y-31750000D02*
X85090000Y-31750000D01*
X85090000Y-31750000D02*
X85090000Y-36830000D01*
X85090000Y-36830000D02*
X82550000Y-36830000D01*
X83820000Y-36830000D02*
X83820000Y-38100000D01*
X83820000Y-31750000D02*
X83820000Y-30480000D01*
X107950000Y-41910000D02*
X107950000Y-36830000D01*
X107950000Y-36830000D02*
X110490000Y-36830000D01*
X110490000Y-36830000D02*
X110490000Y-41910000D01*
X110490000Y-41910000D02*
X107950000Y-41910000D01*
X109220000Y-41910000D02*
X109220000Y-43180000D01*
X109220000Y-36830000D02*
X109220000Y-35560000D01*
X106680000Y-36830000D02*
X106680000Y-41910000D01*
X106680000Y-41910000D02*
X104140000Y-41910000D01*
X104140000Y-41910000D02*
X104140000Y-36830000D01*
X104140000Y-36830000D02*
X106680000Y-36830000D01*
X105410000Y-36830000D02*
X105410000Y-35560000D01*
X105410000Y-41910000D02*
X105410000Y-43180000D01*
X110490000Y-46990000D02*
X115570000Y-46990000D01*
X115570000Y-46990000D02*
X115570000Y-49530000D01*
X115570000Y-49530000D02*
X110490000Y-49530000D01*
X110490000Y-49530000D02*
X110490000Y-46990000D01*
X110490000Y-48260000D02*
X109220000Y-48260000D01*
X115570000Y-48260000D02*
X116840000Y-48260000D01*
X129540000Y-49530000D02*
X124460000Y-49530000D01*
X124460000Y-49530000D02*
X124460000Y-46990000D01*
X124460000Y-46990000D02*
X129540000Y-46990000D01*
X129540000Y-46990000D02*
X129540000Y-49530000D01*
X129540000Y-48260000D02*
X130810000Y-48260000D01*
X124460000Y-48260000D02*
X123190000Y-48260000D01*
X73660000Y-50800000D02*
X73660000Y-55880000D01*
X73660000Y-55880000D02*
X71120000Y-55880000D01*
X71120000Y-55880000D02*
X71120000Y-50800000D01*
X71120000Y-50800000D02*
X73660000Y-50800000D01*
X72390000Y-50800000D02*
X72390000Y-49530000D01*
X72390000Y-55880000D02*
X72390000Y-57150000D01*
X85090000Y-63500000D02*
X90170000Y-63500000D01*
X90170000Y-63500000D02*
X90170000Y-60960000D01*
X90170000Y-60960000D02*
X85090000Y-60960000D01*
X82270000Y-60680000D02*
X83820000Y-60680000D01*
X85090000Y-60960000D02*
X85090000Y-63500000D01*
X83820000Y-63780000D02*
X82270000Y-63780000D01*
X82270000Y-63780000D02*
X82270000Y-60680000D01*
X106680000Y-60960000D02*
X109220000Y-60960000D01*
X103860000Y-60680000D02*
X105410000Y-60680000D01*
X106680000Y-60960000D02*
X106680000Y-63500000D01*
X105410000Y-63780000D02*
X103860000Y-63780000D01*
X103860000Y-63780000D02*
X103860000Y-60680000D01*
X106680000Y-63500000D02*
X109220000Y-63500000D01*
X109220000Y-63500000D02*
X109220000Y-60960000D01*
X125730000Y-63500000D02*
X130810000Y-63500000D01*
X130810000Y-63500000D02*
X130810000Y-60960000D01*
X130810000Y-60960000D02*
X125730000Y-60960000D01*
X122910000Y-60680000D02*
X124460000Y-60680000D01*
X125730000Y-60960000D02*
X125730000Y-63500000D01*
X124460000Y-63780000D02*
X122910000Y-63780000D01*
X122910000Y-63780000D02*
X122910000Y-60680000D01*
X119515000Y-20565000D02*
X119515000Y-21835000D01*
X126865000Y-20565000D02*
X126865000Y-21835000D01*
X126865000Y-42935000D02*
X126865000Y-41665000D01*
X119515000Y-42935000D02*
X119515000Y-41665000D01*
X119515000Y-20565000D02*
X126865000Y-20565000D01*
X119515000Y-42935000D02*
X126865000Y-42935000D01*
X119515000Y-21835000D02*
X118580000Y-21835000D01*
X75946000Y-24130000D02*
G75*
G03X75946000Y-24130000I-2286000J0D01*
G01*
X101600000Y-29210000D02*
X106680000Y-29210000D01*
X106680000Y-29210000D02*
X106680000Y-31750000D01*
X106680000Y-31750000D02*
X101600000Y-31750000D01*
X101600000Y-31750000D02*
X101600000Y-29210000D01*
X101600000Y-30480000D02*
X100330000Y-30480000D01*
X106680000Y-30480000D02*
X107950000Y-30480000D01*
X148590000Y-21590000D02*
X148590000Y-54610000D01*
X143510000Y-24130000D02*
X143510000Y-54610000D01*
X148590000Y-54610000D02*
X143510000Y-54610000D01*
X148590000Y-21590000D02*
X146050000Y-21590000D01*
X144780000Y-21310000D02*
X143230000Y-21310000D01*
X146050000Y-21590000D02*
X146050000Y-24130000D01*
X146050000Y-24130000D02*
X143510000Y-24130000D01*
X143230000Y-21310000D02*
X143230000Y-22860000D01*
D15*
X137160000Y-43250000D02*
X137160000Y-45650000D01*
X139760000Y-45650000D02*
X134560000Y-45650000D01*
X134560000Y-45650000D02*
X134560000Y-43250000D01*
X134560000Y-43250000D02*
X139760000Y-43250000D01*
X139760000Y-43250000D02*
X139760000Y-45650000D01*
X137160000Y-45790000D02*
X137160000Y-48190000D01*
X139760000Y-48190000D02*
X134560000Y-48190000D01*
X134560000Y-48190000D02*
X134560000Y-45790000D01*
X134560000Y-45790000D02*
X139760000Y-45790000D01*
X139760000Y-45790000D02*
X139760000Y-48190000D01*
X137160000Y-48330000D02*
X137160000Y-50730000D01*
X139760000Y-50730000D02*
X134560000Y-50730000D01*
X134560000Y-50730000D02*
X134560000Y-48330000D01*
X134560000Y-48330000D02*
X139760000Y-48330000D01*
X139760000Y-48330000D02*
X139760000Y-50730000D01*
D16*
G36*
X160189333Y-27770666D02*
X152103666Y-27770666D01*
X152103666Y-26359555D01*
X160189333Y-26359555D01*
X160189333Y-27770666D01*
X160189333Y-27770666D01*
G37*
X160189333Y-27770666D02*
X152103666Y-27770666D01*
X152103666Y-26359555D01*
X160189333Y-26359555D01*
X160189333Y-27770666D01*
G36*
X153468916Y-23032515D02*
X154805944Y-23036389D01*
X154862389Y-23073595D01*
X154946542Y-23141590D01*
X155005396Y-23218590D01*
X155020390Y-23248055D01*
X155024611Y-23258685D01*
X155028351Y-23271868D01*
X155031644Y-23289314D01*
X155034526Y-23312733D01*
X155037032Y-23343836D01*
X155039196Y-23384335D01*
X155041053Y-23435938D01*
X155042640Y-23500358D01*
X155043989Y-23579305D01*
X155045138Y-23674489D01*
X155046119Y-23787620D01*
X155046970Y-23920411D01*
X155047724Y-24074570D01*
X155048416Y-24251810D01*
X155049082Y-24453839D01*
X155049756Y-24682370D01*
X155049761Y-24683861D01*
X155053688Y-26063222D01*
X154347333Y-26063222D01*
X154347333Y-23734889D01*
X153952222Y-23734889D01*
X153952222Y-26063222D01*
X153246666Y-26063222D01*
X153246666Y-23734889D01*
X152837444Y-23734889D01*
X152837444Y-26063222D01*
X152131889Y-26063222D01*
X152131889Y-23028642D01*
X153468916Y-23032515D01*
X153468916Y-23032515D01*
G37*
X153468916Y-23032515D02*
X154805944Y-23036389D01*
X154862389Y-23073595D01*
X154946542Y-23141590D01*
X155005396Y-23218590D01*
X155020390Y-23248055D01*
X155024611Y-23258685D01*
X155028351Y-23271868D01*
X155031644Y-23289314D01*
X155034526Y-23312733D01*
X155037032Y-23343836D01*
X155039196Y-23384335D01*
X155041053Y-23435938D01*
X155042640Y-23500358D01*
X155043989Y-23579305D01*
X155045138Y-23674489D01*
X155046119Y-23787620D01*
X155046970Y-23920411D01*
X155047724Y-24074570D01*
X155048416Y-24251810D01*
X155049082Y-24453839D01*
X155049756Y-24682370D01*
X155049761Y-24683861D01*
X155053688Y-26063222D01*
X154347333Y-26063222D01*
X154347333Y-23734889D01*
X153952222Y-23734889D01*
X153952222Y-26063222D01*
X153246666Y-26063222D01*
X153246666Y-23734889D01*
X152837444Y-23734889D01*
X152837444Y-26063222D01*
X152131889Y-26063222D01*
X152131889Y-23028642D01*
X153468916Y-23032515D01*
G36*
X156181778Y-26063222D02*
X155490333Y-26063222D01*
X155490333Y-23015222D01*
X156181778Y-23015222D01*
X156181778Y-26063222D01*
X156181778Y-26063222D01*
G37*
X156181778Y-26063222D02*
X155490333Y-26063222D01*
X155490333Y-23015222D01*
X156181778Y-23015222D01*
X156181778Y-26063222D01*
G36*
X157695194Y-23032454D02*
X157899001Y-23033180D01*
X158076508Y-23033866D01*
X158229640Y-23034567D01*
X158360319Y-23035340D01*
X158470468Y-23036240D01*
X158562011Y-23037326D01*
X158636870Y-23038652D01*
X158696968Y-23040275D01*
X158744230Y-23042251D01*
X158780577Y-23044637D01*
X158807933Y-23047488D01*
X158828221Y-23050862D01*
X158843364Y-23054814D01*
X158855285Y-23059401D01*
X158865907Y-23064679D01*
X158869944Y-23066846D01*
X158951966Y-23126870D01*
X159016302Y-23207866D01*
X159027083Y-23226889D01*
X159031609Y-23236382D01*
X159035585Y-23247977D01*
X159039046Y-23263458D01*
X159042028Y-23284607D01*
X159044567Y-23313208D01*
X159046698Y-23351043D01*
X159048456Y-23399896D01*
X159049877Y-23461549D01*
X159050997Y-23537786D01*
X159051852Y-23630389D01*
X159052476Y-23741143D01*
X159052905Y-23871828D01*
X159053175Y-24024230D01*
X159053322Y-24200130D01*
X159053381Y-24401312D01*
X159053389Y-24546277D01*
X159053368Y-24764825D01*
X159053282Y-24956933D01*
X159053096Y-25124385D01*
X159052774Y-25268963D01*
X159052281Y-25392452D01*
X159051580Y-25496634D01*
X159050636Y-25583291D01*
X159049415Y-25654208D01*
X159047879Y-25711167D01*
X159045994Y-25755951D01*
X159043724Y-25790343D01*
X159041034Y-25816126D01*
X159037888Y-25835083D01*
X159034250Y-25848997D01*
X159030086Y-25859652D01*
X159027083Y-25865666D01*
X158966791Y-25950586D01*
X158888158Y-26015201D01*
X158869944Y-26025709D01*
X158859275Y-26031279D01*
X158848026Y-26036133D01*
X158834266Y-26040325D01*
X158816065Y-26043914D01*
X158791492Y-26046956D01*
X158758616Y-26049508D01*
X158715506Y-26051627D01*
X158660231Y-26053369D01*
X158590860Y-26054791D01*
X158505463Y-26055950D01*
X158402108Y-26056903D01*
X158278864Y-26057707D01*
X158133802Y-26058418D01*
X157964989Y-26059094D01*
X157770494Y-26059790D01*
X157703398Y-26060024D01*
X156593297Y-26063881D01*
X156588510Y-25135746D01*
X156587691Y-24976694D01*
X156586920Y-24826197D01*
X156586208Y-24686593D01*
X156585567Y-24560214D01*
X156585009Y-24449398D01*
X156584545Y-24356478D01*
X156584188Y-24283792D01*
X156583948Y-24233673D01*
X156583838Y-24208457D01*
X156583833Y-24205853D01*
X156597338Y-24204982D01*
X156635257Y-24203457D01*
X156693794Y-24201406D01*
X156769151Y-24198959D01*
X156857532Y-24196244D01*
X156933194Y-24194019D01*
X157282444Y-24183943D01*
X157282444Y-24542773D01*
X157282850Y-24657935D01*
X157283988Y-24779546D01*
X157285733Y-24899754D01*
X157287964Y-25010709D01*
X157290559Y-25104558D01*
X157291716Y-25136690D01*
X157300987Y-25371777D01*
X158354889Y-25371777D01*
X158354889Y-23720777D01*
X156576889Y-23720777D01*
X156576889Y-23028519D01*
X157695194Y-23032454D01*
X157695194Y-23032454D01*
G37*
X157695194Y-23032454D02*
X157899001Y-23033180D01*
X158076508Y-23033866D01*
X158229640Y-23034567D01*
X158360319Y-23035340D01*
X158470468Y-23036240D01*
X158562011Y-23037326D01*
X158636870Y-23038652D01*
X158696968Y-23040275D01*
X158744230Y-23042251D01*
X158780577Y-23044637D01*
X158807933Y-23047488D01*
X158828221Y-23050862D01*
X158843364Y-23054814D01*
X158855285Y-23059401D01*
X158865907Y-23064679D01*
X158869944Y-23066846D01*
X158951966Y-23126870D01*
X159016302Y-23207866D01*
X159027083Y-23226889D01*
X159031609Y-23236382D01*
X159035585Y-23247977D01*
X159039046Y-23263458D01*
X159042028Y-23284607D01*
X159044567Y-23313208D01*
X159046698Y-23351043D01*
X159048456Y-23399896D01*
X159049877Y-23461549D01*
X159050997Y-23537786D01*
X159051852Y-23630389D01*
X159052476Y-23741143D01*
X159052905Y-23871828D01*
X159053175Y-24024230D01*
X159053322Y-24200130D01*
X159053381Y-24401312D01*
X159053389Y-24546277D01*
X159053368Y-24764825D01*
X159053282Y-24956933D01*
X159053096Y-25124385D01*
X159052774Y-25268963D01*
X159052281Y-25392452D01*
X159051580Y-25496634D01*
X159050636Y-25583291D01*
X159049415Y-25654208D01*
X159047879Y-25711167D01*
X159045994Y-25755951D01*
X159043724Y-25790343D01*
X159041034Y-25816126D01*
X159037888Y-25835083D01*
X159034250Y-25848997D01*
X159030086Y-25859652D01*
X159027083Y-25865666D01*
X158966791Y-25950586D01*
X158888158Y-26015201D01*
X158869944Y-26025709D01*
X158859275Y-26031279D01*
X158848026Y-26036133D01*
X158834266Y-26040325D01*
X158816065Y-26043914D01*
X158791492Y-26046956D01*
X158758616Y-26049508D01*
X158715506Y-26051627D01*
X158660231Y-26053369D01*
X158590860Y-26054791D01*
X158505463Y-26055950D01*
X158402108Y-26056903D01*
X158278864Y-26057707D01*
X158133802Y-26058418D01*
X157964989Y-26059094D01*
X157770494Y-26059790D01*
X157703398Y-26060024D01*
X156593297Y-26063881D01*
X156588510Y-25135746D01*
X156587691Y-24976694D01*
X156586920Y-24826197D01*
X156586208Y-24686593D01*
X156585567Y-24560214D01*
X156585009Y-24449398D01*
X156584545Y-24356478D01*
X156584188Y-24283792D01*
X156583948Y-24233673D01*
X156583838Y-24208457D01*
X156583833Y-24205853D01*
X156597338Y-24204982D01*
X156635257Y-24203457D01*
X156693794Y-24201406D01*
X156769151Y-24198959D01*
X156857532Y-24196244D01*
X156933194Y-24194019D01*
X157282444Y-24183943D01*
X157282444Y-24542773D01*
X157282850Y-24657935D01*
X157283988Y-24779546D01*
X157285733Y-24899754D01*
X157287964Y-25010709D01*
X157290559Y-25104558D01*
X157291716Y-25136690D01*
X157300987Y-25371777D01*
X158354889Y-25371777D01*
X158354889Y-23720777D01*
X156576889Y-23720777D01*
X156576889Y-23028519D01*
X157695194Y-23032454D01*
G36*
X160175222Y-26063222D02*
X159483778Y-26063222D01*
X159483778Y-23015222D01*
X160175222Y-23015222D01*
X160175222Y-26063222D01*
X160175222Y-26063222D01*
G37*
X160175222Y-26063222D02*
X159483778Y-26063222D01*
X159483778Y-23015222D01*
X160175222Y-23015222D01*
X160175222Y-26063222D01*
D15*
X163900000Y-54660000D02*
X166300000Y-54660000D01*
X163900000Y-57060000D02*
X166300000Y-57060000D01*
X166300000Y-57060000D02*
X166300000Y-39260000D01*
X166300000Y-39260000D02*
X163900000Y-39260000D01*
X163900000Y-39260000D02*
X163900000Y-57060000D01*
X163900000Y-27820000D02*
X163900000Y-38220000D01*
X166300000Y-38220000D02*
X166300000Y-27820000D01*
X163900000Y-38220000D02*
X166300000Y-38220000D01*
X166300000Y-35620000D02*
X163900000Y-35620000D01*
X163900000Y-27820000D02*
X166300000Y-27820000D01*
D12*
X124710000Y-45700000D02*
X121710000Y-45700000D01*
X121710000Y-43200000D02*
X124710000Y-43200000D01*
X123190000Y-29210000D02*
X123190000Y-34290000D01*
X123190000Y-34290000D02*
X120650000Y-34290000D01*
X120650000Y-34290000D02*
X120650000Y-29210000D01*
X120650000Y-29210000D02*
X123190000Y-29210000D01*
X121920000Y-29210000D02*
X121920000Y-27940000D01*
X121920000Y-34290000D02*
X121920000Y-35560000D01*
X125730000Y-29210000D02*
X125730000Y-34290000D01*
X125730000Y-34290000D02*
X123190000Y-34290000D01*
X123190000Y-34290000D02*
X123190000Y-29210000D01*
X123190000Y-29210000D02*
X125730000Y-29210000D01*
X124460000Y-29210000D02*
X124460000Y-27940000D01*
X124460000Y-34290000D02*
X124460000Y-35560000D01*
X110054000Y-22816000D02*
X110054000Y-23016000D01*
X110054000Y-25410000D02*
X110054000Y-25230000D01*
X106826256Y-25099643D02*
G75*
G03X110054000Y-25416000I1727744J1003643D01*
G01*
X107501994Y-25229068D02*
G75*
G03X109605000Y-25230000I1052006J1133068D01*
G01*
X110041220Y-22789274D02*
G75*
G03X106804000Y-23136000I-1497220J-1306726D01*
G01*
X109567889Y-23016747D02*
G75*
G03X107520000Y-23036000I-1013889J-1079253D01*
G01*
D17*
X140807440Y-58971180D02*
G75*
G03X140807440Y-58971180I-548640J0D01*
G01*
X147314716Y-58971180D02*
G75*
G03X147314716Y-58971180I-553516J0D01*
G01*
X147314489Y-68770500D02*
G75*
G03X147314489Y-68770500I-553289J0D01*
G01*
X140809787Y-68770500D02*
G75*
G03X140809787Y-68770500I-550987J0D01*
G01*
X140807440Y-64770000D02*
G75*
G03X140807440Y-64770000I-548640J0D01*
G01*
X147314716Y-64770000D02*
G75*
G03X147314716Y-64770000I-553516J0D01*
G01*
X148310600Y-59870340D02*
X148910040Y-59870340D01*
X148910040Y-59870340D02*
X148910040Y-61671200D01*
X148910040Y-61671200D02*
X148310600Y-61671200D01*
X138109960Y-59870340D02*
X138709400Y-59870340D01*
X138709400Y-61671200D02*
X138109960Y-61671200D01*
X138109960Y-61671200D02*
X138109960Y-59870340D01*
X138709400Y-57970420D02*
X141709140Y-57970420D01*
X141709140Y-57970420D02*
X141709140Y-58770520D01*
X141709140Y-58770520D02*
X145310860Y-58770520D01*
X145310860Y-58770520D02*
X145310860Y-57970420D01*
X145310860Y-57970420D02*
X148310600Y-57970420D01*
X148310600Y-69771260D02*
X138709400Y-69771260D01*
X138709400Y-69768720D02*
X138709400Y-57967880D01*
X148310600Y-57970420D02*
X148310600Y-69771260D01*
X153507440Y-58971180D02*
G75*
G03X153507440Y-58971180I-548640J0D01*
G01*
X160014716Y-58971180D02*
G75*
G03X160014716Y-58971180I-553516J0D01*
G01*
X160014489Y-68770500D02*
G75*
G03X160014489Y-68770500I-553289J0D01*
G01*
X153509787Y-68770500D02*
G75*
G03X153509787Y-68770500I-550987J0D01*
G01*
X153507440Y-64770000D02*
G75*
G03X153507440Y-64770000I-548640J0D01*
G01*
X160014716Y-64770000D02*
G75*
G03X160014716Y-64770000I-553516J0D01*
G01*
X161010600Y-59870340D02*
X161610040Y-59870340D01*
X161610040Y-59870340D02*
X161610040Y-61671200D01*
X161610040Y-61671200D02*
X161010600Y-61671200D01*
X150809960Y-59870340D02*
X151409400Y-59870340D01*
X151409400Y-61671200D02*
X150809960Y-61671200D01*
X150809960Y-61671200D02*
X150809960Y-59870340D01*
X151409400Y-57970420D02*
X154409140Y-57970420D01*
X154409140Y-57970420D02*
X154409140Y-58770520D01*
X154409140Y-58770520D02*
X158010860Y-58770520D01*
X158010860Y-58770520D02*
X158010860Y-57970420D01*
X158010860Y-57970420D02*
X161010600Y-57970420D01*
X161010600Y-69771260D02*
X151409400Y-69771260D01*
X151409400Y-69768720D02*
X151409400Y-57967880D01*
X161010600Y-57970420D02*
X161010600Y-69771260D01*
D12*
X85090000Y-22860000D02*
X105410000Y-22860000D01*
X105410000Y-22860000D02*
X105410000Y-25400000D01*
X105410000Y-25400000D02*
X85090000Y-25400000D01*
X82270000Y-22580000D02*
X83820000Y-22580000D01*
X85090000Y-22860000D02*
X85090000Y-25400000D01*
X83820000Y-25680000D02*
X82270000Y-25680000D01*
X82270000Y-25680000D02*
X82270000Y-22580000D01*
D15*
X114300000Y-24060000D02*
X114300000Y-21660000D01*
X111700000Y-21660000D02*
X116900000Y-21660000D01*
X116900000Y-21660000D02*
X116900000Y-24060000D01*
X116900000Y-24060000D02*
X111700000Y-24060000D01*
X111700000Y-24060000D02*
X111700000Y-21660000D01*
X114300000Y-26600000D02*
X114300000Y-24200000D01*
X111700000Y-24200000D02*
X116900000Y-24200000D01*
X116900000Y-24200000D02*
X116900000Y-26600000D01*
X116900000Y-26600000D02*
X111700000Y-26600000D01*
X111700000Y-26600000D02*
X111700000Y-24200000D01*
D12*
X93884762Y-35472619D02*
X93789524Y-35425000D01*
X93694286Y-35329762D01*
X93551429Y-35186905D01*
X93456190Y-35139286D01*
X93360952Y-35139286D01*
X93408571Y-35377381D02*
X93313333Y-35329762D01*
X93218095Y-35234524D01*
X93170476Y-35044048D01*
X93170476Y-34710714D01*
X93218095Y-34520238D01*
X93313333Y-34425000D01*
X93408571Y-34377381D01*
X93599048Y-34377381D01*
X93694286Y-34425000D01*
X93789524Y-34520238D01*
X93837143Y-34710714D01*
X93837143Y-35044048D01*
X93789524Y-35234524D01*
X93694286Y-35329762D01*
X93599048Y-35377381D01*
X93408571Y-35377381D01*
X94218095Y-34472619D02*
X94265714Y-34425000D01*
X94360952Y-34377381D01*
X94599048Y-34377381D01*
X94694286Y-34425000D01*
X94741905Y-34472619D01*
X94789524Y-34567857D01*
X94789524Y-34663095D01*
X94741905Y-34805952D01*
X94170476Y-35377381D01*
X94789524Y-35377381D01*
X75438095Y-27392381D02*
X75438095Y-28201905D01*
X75485714Y-28297143D01*
X75533333Y-28344762D01*
X75628571Y-28392381D01*
X75819048Y-28392381D01*
X75914286Y-28344762D01*
X75961905Y-28297143D01*
X76009524Y-28201905D01*
X76009524Y-27392381D01*
X76438095Y-27487619D02*
X76485714Y-27440000D01*
X76580952Y-27392381D01*
X76819048Y-27392381D01*
X76914286Y-27440000D01*
X76961905Y-27487619D01*
X77009524Y-27582857D01*
X77009524Y-27678095D01*
X76961905Y-27820952D01*
X76390476Y-28392381D01*
X77009524Y-28392381D01*
X75080953Y-29662381D02*
X74604762Y-29662381D01*
X74604762Y-28662381D01*
X75366667Y-29614762D02*
X75509524Y-29662381D01*
X75747620Y-29662381D01*
X75842858Y-29614762D01*
X75890477Y-29567143D01*
X75938096Y-29471905D01*
X75938096Y-29376667D01*
X75890477Y-29281429D01*
X75842858Y-29233810D01*
X75747620Y-29186190D01*
X75557143Y-29138571D01*
X75461905Y-29090952D01*
X75414286Y-29043333D01*
X75366667Y-28948095D01*
X75366667Y-28852857D01*
X75414286Y-28757619D01*
X75461905Y-28710000D01*
X75557143Y-28662381D01*
X75795239Y-28662381D01*
X75938096Y-28710000D01*
X76557143Y-28662381D02*
X76652382Y-28662381D01*
X76747620Y-28710000D01*
X76795239Y-28757619D01*
X76842858Y-28852857D01*
X76890477Y-29043333D01*
X76890477Y-29281429D01*
X76842858Y-29471905D01*
X76795239Y-29567143D01*
X76747620Y-29614762D01*
X76652382Y-29662381D01*
X76557143Y-29662381D01*
X76461905Y-29614762D01*
X76414286Y-29567143D01*
X76366667Y-29471905D01*
X76319048Y-29281429D01*
X76319048Y-29043333D01*
X76366667Y-28852857D01*
X76414286Y-28757619D01*
X76461905Y-28710000D01*
X76557143Y-28662381D01*
X77509524Y-28662381D02*
X77604763Y-28662381D01*
X77700001Y-28710000D01*
X77747620Y-28757619D01*
X77795239Y-28852857D01*
X77842858Y-29043333D01*
X77842858Y-29281429D01*
X77795239Y-29471905D01*
X77747620Y-29567143D01*
X77700001Y-29614762D01*
X77604763Y-29662381D01*
X77509524Y-29662381D01*
X77414286Y-29614762D01*
X77366667Y-29567143D01*
X77319048Y-29471905D01*
X77271429Y-29281429D01*
X77271429Y-29043333D01*
X77319048Y-28852857D01*
X77366667Y-28757619D01*
X77414286Y-28710000D01*
X77509524Y-28662381D01*
X105941905Y-67762381D02*
X105941905Y-66762381D01*
X106322858Y-66762381D01*
X106418096Y-66810000D01*
X106465715Y-66857619D01*
X106513334Y-66952857D01*
X106513334Y-67095714D01*
X106465715Y-67190952D01*
X106418096Y-67238571D01*
X106322858Y-67286190D01*
X105941905Y-67286190D01*
X106894286Y-66857619D02*
X106941905Y-66810000D01*
X107037143Y-66762381D01*
X107275239Y-66762381D01*
X107370477Y-66810000D01*
X107418096Y-66857619D01*
X107465715Y-66952857D01*
X107465715Y-67048095D01*
X107418096Y-67190952D01*
X106846667Y-67762381D01*
X107465715Y-67762381D01*
X85621905Y-67762381D02*
X85621905Y-66762381D01*
X86002858Y-66762381D01*
X86098096Y-66810000D01*
X86145715Y-66857619D01*
X86193334Y-66952857D01*
X86193334Y-67095714D01*
X86145715Y-67190952D01*
X86098096Y-67238571D01*
X86002858Y-67286190D01*
X85621905Y-67286190D01*
X87145715Y-67762381D02*
X86574286Y-67762381D01*
X86860000Y-67762381D02*
X86860000Y-66762381D01*
X86764762Y-66905238D01*
X86669524Y-67000476D01*
X86574286Y-67048095D01*
X135080476Y-22312381D02*
X135747143Y-23312381D01*
X135747143Y-22312381D02*
X135080476Y-23312381D01*
X136651905Y-23312381D02*
X136080476Y-23312381D01*
X136366190Y-23312381D02*
X136366190Y-22312381D01*
X136270952Y-22455238D01*
X136175714Y-22550476D01*
X136080476Y-22598095D01*
X134580477Y-31535714D02*
X134580477Y-32202381D01*
X134342381Y-31154762D02*
X134104286Y-31869048D01*
X134723334Y-31869048D01*
X135104286Y-32202381D02*
X135104286Y-31202381D01*
X135437620Y-31916667D01*
X135770953Y-31202381D01*
X135770953Y-32202381D01*
X136247143Y-32202381D02*
X136247143Y-31202381D01*
X136247143Y-31678571D02*
X136818572Y-31678571D01*
X136818572Y-32202381D02*
X136818572Y-31202381D01*
X137199524Y-31535714D02*
X137723334Y-31535714D01*
X137199524Y-32202381D01*
X137723334Y-32202381D01*
X88717381Y-43918095D02*
X87717381Y-43918095D01*
X87717381Y-43680000D01*
X87765000Y-43537142D01*
X87860238Y-43441904D01*
X87955476Y-43394285D01*
X88145952Y-43346666D01*
X88288810Y-43346666D01*
X88479286Y-43394285D01*
X88574524Y-43441904D01*
X88669762Y-43537142D01*
X88717381Y-43680000D01*
X88717381Y-43918095D01*
X88717381Y-42394285D02*
X88717381Y-42965714D01*
X88717381Y-42680000D02*
X87717381Y-42680000D01*
X87860238Y-42775238D01*
X87955476Y-42870476D01*
X88003095Y-42965714D01*
X89998571Y-44170477D02*
X90531905Y-44170477D01*
X89693810Y-44360953D02*
X90265238Y-44551429D01*
X90265238Y-44056191D01*
X90531905Y-43332381D02*
X90531905Y-43789524D01*
X90531905Y-43560953D02*
X89731905Y-43560953D01*
X89846190Y-43637143D01*
X89922381Y-43713334D01*
X89960476Y-43789524D01*
X89998571Y-42646667D02*
X90531905Y-42646667D01*
X89693810Y-42837143D02*
X90265238Y-43027619D01*
X90265238Y-42532381D01*
X90074762Y-42113333D02*
X90036667Y-42189524D01*
X89998571Y-42227619D01*
X89922381Y-42265714D01*
X89884286Y-42265714D01*
X89808095Y-42227619D01*
X89770000Y-42189524D01*
X89731905Y-42113333D01*
X89731905Y-41960952D01*
X89770000Y-41884762D01*
X89808095Y-41846666D01*
X89884286Y-41808571D01*
X89922381Y-41808571D01*
X89998571Y-41846666D01*
X90036667Y-41884762D01*
X90074762Y-41960952D01*
X90074762Y-42113333D01*
X90112857Y-42189524D01*
X90150952Y-42227619D01*
X90227143Y-42265714D01*
X90379524Y-42265714D01*
X90455714Y-42227619D01*
X90493810Y-42189524D01*
X90531905Y-42113333D01*
X90531905Y-41960952D01*
X90493810Y-41884762D01*
X90455714Y-41846666D01*
X90379524Y-41808571D01*
X90227143Y-41808571D01*
X90150952Y-41846666D01*
X90112857Y-41884762D01*
X90074762Y-41960952D01*
X126261905Y-67762381D02*
X126261905Y-66762381D01*
X126642858Y-66762381D01*
X126738096Y-66810000D01*
X126785715Y-66857619D01*
X126833334Y-66952857D01*
X126833334Y-67095714D01*
X126785715Y-67190952D01*
X126738096Y-67238571D01*
X126642858Y-67286190D01*
X126261905Y-67286190D01*
X127166667Y-66762381D02*
X127785715Y-66762381D01*
X127452381Y-67143333D01*
X127595239Y-67143333D01*
X127690477Y-67190952D01*
X127738096Y-67238571D01*
X127785715Y-67333810D01*
X127785715Y-67571905D01*
X127738096Y-67667143D01*
X127690477Y-67714762D01*
X127595239Y-67762381D01*
X127309524Y-67762381D01*
X127214286Y-67714762D01*
X127166667Y-67667143D01*
X88804762Y-35472619D02*
X88709524Y-35425000D01*
X88614286Y-35329762D01*
X88471429Y-35186905D01*
X88376190Y-35139286D01*
X88280952Y-35139286D01*
X88328571Y-35377381D02*
X88233333Y-35329762D01*
X88138095Y-35234524D01*
X88090476Y-35044048D01*
X88090476Y-34710714D01*
X88138095Y-34520238D01*
X88233333Y-34425000D01*
X88328571Y-34377381D01*
X88519048Y-34377381D01*
X88614286Y-34425000D01*
X88709524Y-34520238D01*
X88757143Y-34710714D01*
X88757143Y-35044048D01*
X88709524Y-35234524D01*
X88614286Y-35329762D01*
X88519048Y-35377381D01*
X88328571Y-35377381D01*
X89709524Y-35377381D02*
X89138095Y-35377381D01*
X89423809Y-35377381D02*
X89423809Y-34377381D01*
X89328571Y-34520238D01*
X89233333Y-34615476D01*
X89138095Y-34663095D01*
X89582858Y-28503571D02*
X89725715Y-28551190D01*
X89773334Y-28598810D01*
X89820953Y-28694048D01*
X89820953Y-28836905D01*
X89773334Y-28932143D01*
X89725715Y-28979762D01*
X89630477Y-29027381D01*
X89249524Y-29027381D01*
X89249524Y-28027381D01*
X89582858Y-28027381D01*
X89678096Y-28075000D01*
X89725715Y-28122619D01*
X89773334Y-28217857D01*
X89773334Y-28313095D01*
X89725715Y-28408333D01*
X89678096Y-28455952D01*
X89582858Y-28503571D01*
X89249524Y-28503571D01*
X90820953Y-28932143D02*
X90773334Y-28979762D01*
X90630477Y-29027381D01*
X90535239Y-29027381D01*
X90392381Y-28979762D01*
X90297143Y-28884524D01*
X90249524Y-28789286D01*
X90201905Y-28598810D01*
X90201905Y-28455952D01*
X90249524Y-28265476D01*
X90297143Y-28170238D01*
X90392381Y-28075000D01*
X90535239Y-28027381D01*
X90630477Y-28027381D01*
X90773334Y-28075000D01*
X90820953Y-28122619D01*
X91725715Y-28027381D02*
X91249524Y-28027381D01*
X91201905Y-28503571D01*
X91249524Y-28455952D01*
X91344762Y-28408333D01*
X91582858Y-28408333D01*
X91678096Y-28455952D01*
X91725715Y-28503571D01*
X91773334Y-28598810D01*
X91773334Y-28836905D01*
X91725715Y-28932143D01*
X91678096Y-28979762D01*
X91582858Y-29027381D01*
X91344762Y-29027381D01*
X91249524Y-28979762D01*
X91201905Y-28932143D01*
X92630477Y-28360714D02*
X92630477Y-29027381D01*
X92392381Y-27979762D02*
X92154286Y-28694048D01*
X92773334Y-28694048D01*
X93201905Y-29027381D02*
X93392381Y-29027381D01*
X93487620Y-28979762D01*
X93535239Y-28932143D01*
X93630477Y-28789286D01*
X93678096Y-28598810D01*
X93678096Y-28217857D01*
X93630477Y-28122619D01*
X93582858Y-28075000D01*
X93487620Y-28027381D01*
X93297143Y-28027381D01*
X93201905Y-28075000D01*
X93154286Y-28122619D01*
X93106667Y-28217857D01*
X93106667Y-28455952D01*
X93154286Y-28551190D01*
X93201905Y-28598810D01*
X93297143Y-28646429D01*
X93487620Y-28646429D01*
X93582858Y-28598810D01*
X93630477Y-28551190D01*
X93678096Y-28455952D01*
X97028095Y-36282381D02*
X97028095Y-37091905D01*
X97075714Y-37187143D01*
X97123333Y-37234762D01*
X97218571Y-37282381D01*
X97409048Y-37282381D01*
X97504286Y-37234762D01*
X97551905Y-37187143D01*
X97599524Y-37091905D01*
X97599524Y-36282381D01*
X98599524Y-37282381D02*
X98028095Y-37282381D01*
X98313809Y-37282381D02*
X98313809Y-36282381D01*
X98218571Y-36425238D01*
X98123333Y-36520476D01*
X98028095Y-36568095D01*
X98147143Y-44600476D02*
X98194762Y-44648095D01*
X98242381Y-44790952D01*
X98242381Y-44886190D01*
X98194762Y-45029048D01*
X98099524Y-45124286D01*
X98004286Y-45171905D01*
X97813810Y-45219524D01*
X97670952Y-45219524D01*
X97480476Y-45171905D01*
X97385238Y-45124286D01*
X97290000Y-45029048D01*
X97242381Y-44886190D01*
X97242381Y-44790952D01*
X97290000Y-44648095D01*
X97337619Y-44600476D01*
X98242381Y-44171905D02*
X97242381Y-44171905D01*
X98242381Y-43600476D01*
X97242381Y-43600476D01*
X97766190Y-42933810D02*
X98242381Y-42933810D01*
X97242381Y-43267143D02*
X97766190Y-42933810D01*
X97242381Y-42600476D01*
X98242381Y-41743333D02*
X98242381Y-42314762D01*
X98242381Y-42029048D02*
X97242381Y-42029048D01*
X97385238Y-42124286D01*
X97480476Y-42219524D01*
X97528095Y-42314762D01*
X97242381Y-41410000D02*
X97242381Y-40743333D01*
X98242381Y-41171905D01*
X97861429Y-40362381D02*
X97861429Y-39600476D01*
X97337619Y-39171905D02*
X97290000Y-39124286D01*
X97242381Y-39029048D01*
X97242381Y-38790952D01*
X97290000Y-38695714D01*
X97337619Y-38648095D01*
X97432857Y-38600476D01*
X97528095Y-38600476D01*
X97670952Y-38648095D01*
X98242381Y-39219524D01*
X98242381Y-38600476D01*
X78573334Y-22582143D02*
X78525715Y-22629762D01*
X78382858Y-22677381D01*
X78287620Y-22677381D01*
X78144762Y-22629762D01*
X78049524Y-22534524D01*
X78001905Y-22439286D01*
X77954286Y-22248810D01*
X77954286Y-22105952D01*
X78001905Y-21915476D01*
X78049524Y-21820238D01*
X78144762Y-21725000D01*
X78287620Y-21677381D01*
X78382858Y-21677381D01*
X78525715Y-21725000D01*
X78573334Y-21772619D01*
X79525715Y-22677381D02*
X78954286Y-22677381D01*
X79240000Y-22677381D02*
X79240000Y-21677381D01*
X79144762Y-21820238D01*
X79049524Y-21915476D01*
X78954286Y-21963095D01*
X77620953Y-23947381D02*
X77049524Y-23947381D01*
X77335238Y-23947381D02*
X77335238Y-22947381D01*
X77240000Y-23090238D01*
X77144762Y-23185476D01*
X77049524Y-23233095D01*
X78240000Y-22947381D02*
X78335239Y-22947381D01*
X78430477Y-22995000D01*
X78478096Y-23042619D01*
X78525715Y-23137857D01*
X78573334Y-23328333D01*
X78573334Y-23566429D01*
X78525715Y-23756905D01*
X78478096Y-23852143D01*
X78430477Y-23899762D01*
X78335239Y-23947381D01*
X78240000Y-23947381D01*
X78144762Y-23899762D01*
X78097143Y-23852143D01*
X78049524Y-23756905D01*
X78001905Y-23566429D01*
X78001905Y-23328333D01*
X78049524Y-23137857D01*
X78097143Y-23042619D01*
X78144762Y-22995000D01*
X78240000Y-22947381D01*
X79192381Y-22947381D02*
X79287620Y-22947381D01*
X79382858Y-22995000D01*
X79430477Y-23042619D01*
X79478096Y-23137857D01*
X79525715Y-23328333D01*
X79525715Y-23566429D01*
X79478096Y-23756905D01*
X79430477Y-23852143D01*
X79382858Y-23899762D01*
X79287620Y-23947381D01*
X79192381Y-23947381D01*
X79097143Y-23899762D01*
X79049524Y-23852143D01*
X79001905Y-23756905D01*
X78954286Y-23566429D01*
X78954286Y-23328333D01*
X79001905Y-23137857D01*
X79049524Y-23042619D01*
X79097143Y-22995000D01*
X79192381Y-22947381D01*
X79954286Y-23280714D02*
X79954286Y-23947381D01*
X79954286Y-23375952D02*
X80001905Y-23328333D01*
X80097143Y-23280714D01*
X80240001Y-23280714D01*
X80335239Y-23328333D01*
X80382858Y-23423571D01*
X80382858Y-23947381D01*
X84923334Y-46807381D02*
X84590000Y-46331190D01*
X84351905Y-46807381D02*
X84351905Y-45807381D01*
X84732858Y-45807381D01*
X84828096Y-45855000D01*
X84875715Y-45902619D01*
X84923334Y-45997857D01*
X84923334Y-46140714D01*
X84875715Y-46235952D01*
X84828096Y-46283571D01*
X84732858Y-46331190D01*
X84351905Y-46331190D01*
X85304286Y-45902619D02*
X85351905Y-45855000D01*
X85447143Y-45807381D01*
X85685239Y-45807381D01*
X85780477Y-45855000D01*
X85828096Y-45902619D01*
X85875715Y-45997857D01*
X85875715Y-46093095D01*
X85828096Y-46235952D01*
X85256667Y-46807381D01*
X85875715Y-46807381D01*
X80041905Y-47807619D02*
X80089524Y-47760000D01*
X80184762Y-47712381D01*
X80422858Y-47712381D01*
X80518096Y-47760000D01*
X80565715Y-47807619D01*
X80613334Y-47902857D01*
X80613334Y-47998095D01*
X80565715Y-48140952D01*
X79994286Y-48712381D01*
X80613334Y-48712381D01*
X80994286Y-47807619D02*
X81041905Y-47760000D01*
X81137143Y-47712381D01*
X81375239Y-47712381D01*
X81470477Y-47760000D01*
X81518096Y-47807619D01*
X81565715Y-47902857D01*
X81565715Y-47998095D01*
X81518096Y-48140952D01*
X80946667Y-48712381D01*
X81565715Y-48712381D01*
X82184762Y-47712381D02*
X82280001Y-47712381D01*
X82375239Y-47760000D01*
X82422858Y-47807619D01*
X82470477Y-47902857D01*
X82518096Y-48093333D01*
X82518096Y-48331429D01*
X82470477Y-48521905D01*
X82422858Y-48617143D01*
X82375239Y-48664762D01*
X82280001Y-48712381D01*
X82184762Y-48712381D01*
X82089524Y-48664762D01*
X82041905Y-48617143D01*
X81994286Y-48521905D01*
X81946667Y-48331429D01*
X81946667Y-48093333D01*
X81994286Y-47902857D01*
X82041905Y-47807619D01*
X82089524Y-47760000D01*
X82184762Y-47712381D01*
X102703334Y-46807381D02*
X102370000Y-46331190D01*
X102131905Y-46807381D02*
X102131905Y-45807381D01*
X102512858Y-45807381D01*
X102608096Y-45855000D01*
X102655715Y-45902619D01*
X102703334Y-45997857D01*
X102703334Y-46140714D01*
X102655715Y-46235952D01*
X102608096Y-46283571D01*
X102512858Y-46331190D01*
X102131905Y-46331190D01*
X103036667Y-45807381D02*
X103655715Y-45807381D01*
X103322381Y-46188333D01*
X103465239Y-46188333D01*
X103560477Y-46235952D01*
X103608096Y-46283571D01*
X103655715Y-46378810D01*
X103655715Y-46616905D01*
X103608096Y-46712143D01*
X103560477Y-46759762D01*
X103465239Y-46807381D01*
X103179524Y-46807381D01*
X103084286Y-46759762D01*
X103036667Y-46712143D01*
X97821905Y-47807619D02*
X97869524Y-47760000D01*
X97964762Y-47712381D01*
X98202858Y-47712381D01*
X98298096Y-47760000D01*
X98345715Y-47807619D01*
X98393334Y-47902857D01*
X98393334Y-47998095D01*
X98345715Y-48140952D01*
X97774286Y-48712381D01*
X98393334Y-48712381D01*
X98774286Y-47807619D02*
X98821905Y-47760000D01*
X98917143Y-47712381D01*
X99155239Y-47712381D01*
X99250477Y-47760000D01*
X99298096Y-47807619D01*
X99345715Y-47902857D01*
X99345715Y-47998095D01*
X99298096Y-48140952D01*
X98726667Y-48712381D01*
X99345715Y-48712381D01*
X99964762Y-47712381D02*
X100060001Y-47712381D01*
X100155239Y-47760000D01*
X100202858Y-47807619D01*
X100250477Y-47902857D01*
X100298096Y-48093333D01*
X100298096Y-48331429D01*
X100250477Y-48521905D01*
X100202858Y-48617143D01*
X100155239Y-48664762D01*
X100060001Y-48712381D01*
X99964762Y-48712381D01*
X99869524Y-48664762D01*
X99821905Y-48617143D01*
X99774286Y-48521905D01*
X99726667Y-48331429D01*
X99726667Y-48093333D01*
X99774286Y-47902857D01*
X99821905Y-47807619D01*
X99869524Y-47760000D01*
X99964762Y-47712381D01*
X84272381Y-42076666D02*
X83796190Y-42410000D01*
X84272381Y-42648095D02*
X83272381Y-42648095D01*
X83272381Y-42267142D01*
X83320000Y-42171904D01*
X83367619Y-42124285D01*
X83462857Y-42076666D01*
X83605714Y-42076666D01*
X83700952Y-42124285D01*
X83748571Y-42171904D01*
X83796190Y-42267142D01*
X83796190Y-42648095D01*
X83605714Y-41219523D02*
X84272381Y-41219523D01*
X83224762Y-41457619D02*
X83939048Y-41695714D01*
X83939048Y-41076666D01*
X83272381Y-35075714D02*
X83272381Y-35266191D01*
X83320000Y-35361429D01*
X83367619Y-35409048D01*
X83510476Y-35504286D01*
X83700952Y-35551905D01*
X84081905Y-35551905D01*
X84177143Y-35504286D01*
X84224762Y-35456667D01*
X84272381Y-35361429D01*
X84272381Y-35170952D01*
X84224762Y-35075714D01*
X84177143Y-35028095D01*
X84081905Y-34980476D01*
X83843810Y-34980476D01*
X83748571Y-35028095D01*
X83700952Y-35075714D01*
X83653333Y-35170952D01*
X83653333Y-35361429D01*
X83700952Y-35456667D01*
X83748571Y-35504286D01*
X83843810Y-35551905D01*
X83700952Y-34409048D02*
X83653333Y-34504286D01*
X83605714Y-34551905D01*
X83510476Y-34599524D01*
X83462857Y-34599524D01*
X83367619Y-34551905D01*
X83320000Y-34504286D01*
X83272381Y-34409048D01*
X83272381Y-34218571D01*
X83320000Y-34123333D01*
X83367619Y-34075714D01*
X83462857Y-34028095D01*
X83510476Y-34028095D01*
X83605714Y-34075714D01*
X83653333Y-34123333D01*
X83700952Y-34218571D01*
X83700952Y-34409048D01*
X83748571Y-34504286D01*
X83796190Y-34551905D01*
X83891429Y-34599524D01*
X84081905Y-34599524D01*
X84177143Y-34551905D01*
X84224762Y-34504286D01*
X84272381Y-34409048D01*
X84272381Y-34218571D01*
X84224762Y-34123333D01*
X84177143Y-34075714D01*
X84081905Y-34028095D01*
X83891429Y-34028095D01*
X83796190Y-34075714D01*
X83748571Y-34123333D01*
X83700952Y-34218571D01*
X84272381Y-33599524D02*
X83272381Y-33599524D01*
X84272381Y-33028095D02*
X83700952Y-33456667D01*
X83272381Y-33028095D02*
X83843810Y-33599524D01*
X111577381Y-43346666D02*
X111101190Y-43680000D01*
X111577381Y-43918095D02*
X110577381Y-43918095D01*
X110577381Y-43537142D01*
X110625000Y-43441904D01*
X110672619Y-43394285D01*
X110767857Y-43346666D01*
X110910714Y-43346666D01*
X111005952Y-43394285D01*
X111053571Y-43441904D01*
X111101190Y-43537142D01*
X111101190Y-43918095D01*
X110577381Y-42441904D02*
X110577381Y-42918095D01*
X111053571Y-42965714D01*
X111005952Y-42918095D01*
X110958333Y-42822857D01*
X110958333Y-42584761D01*
X111005952Y-42489523D01*
X111053571Y-42441904D01*
X111148810Y-42394285D01*
X111386905Y-42394285D01*
X111482143Y-42441904D01*
X111529762Y-42489523D01*
X111577381Y-42584761D01*
X111577381Y-42822857D01*
X111529762Y-42918095D01*
X111482143Y-42965714D01*
X108672381Y-40155714D02*
X108672381Y-40346191D01*
X108720000Y-40441429D01*
X108767619Y-40489048D01*
X108910476Y-40584286D01*
X109100952Y-40631905D01*
X109481905Y-40631905D01*
X109577143Y-40584286D01*
X109624762Y-40536667D01*
X109672381Y-40441429D01*
X109672381Y-40250952D01*
X109624762Y-40155714D01*
X109577143Y-40108095D01*
X109481905Y-40060476D01*
X109243810Y-40060476D01*
X109148571Y-40108095D01*
X109100952Y-40155714D01*
X109053333Y-40250952D01*
X109053333Y-40441429D01*
X109100952Y-40536667D01*
X109148571Y-40584286D01*
X109243810Y-40631905D01*
X109672381Y-39631905D02*
X108672381Y-39631905D01*
X109672381Y-39060476D02*
X109100952Y-39489048D01*
X108672381Y-39060476D02*
X109243810Y-39631905D01*
X109100952Y-38489048D02*
X109053333Y-38584286D01*
X109005714Y-38631905D01*
X108910476Y-38679524D01*
X108862857Y-38679524D01*
X108767619Y-38631905D01*
X108720000Y-38584286D01*
X108672381Y-38489048D01*
X108672381Y-38298571D01*
X108720000Y-38203333D01*
X108767619Y-38155714D01*
X108862857Y-38108095D01*
X108910476Y-38108095D01*
X109005714Y-38155714D01*
X109053333Y-38203333D01*
X109100952Y-38298571D01*
X109100952Y-38489048D01*
X109148571Y-38584286D01*
X109196190Y-38631905D01*
X109291429Y-38679524D01*
X109481905Y-38679524D01*
X109577143Y-38631905D01*
X109624762Y-38584286D01*
X109672381Y-38489048D01*
X109672381Y-38298571D01*
X109624762Y-38203333D01*
X109577143Y-38155714D01*
X109481905Y-38108095D01*
X109291429Y-38108095D01*
X109196190Y-38155714D01*
X109148571Y-38203333D01*
X109100952Y-38298571D01*
X107767381Y-43346666D02*
X107291190Y-43680000D01*
X107767381Y-43918095D02*
X106767381Y-43918095D01*
X106767381Y-43537142D01*
X106815000Y-43441904D01*
X106862619Y-43394285D01*
X106957857Y-43346666D01*
X107100714Y-43346666D01*
X107195952Y-43394285D01*
X107243571Y-43441904D01*
X107291190Y-43537142D01*
X107291190Y-43918095D01*
X106767381Y-42489523D02*
X106767381Y-42680000D01*
X106815000Y-42775238D01*
X106862619Y-42822857D01*
X107005476Y-42918095D01*
X107195952Y-42965714D01*
X107576905Y-42965714D01*
X107672143Y-42918095D01*
X107719762Y-42870476D01*
X107767381Y-42775238D01*
X107767381Y-42584761D01*
X107719762Y-42489523D01*
X107672143Y-42441904D01*
X107576905Y-42394285D01*
X107338810Y-42394285D01*
X107243571Y-42441904D01*
X107195952Y-42489523D01*
X107148333Y-42584761D01*
X107148333Y-42775238D01*
X107195952Y-42870476D01*
X107243571Y-42918095D01*
X107338810Y-42965714D01*
X105862381Y-39584285D02*
X105862381Y-40155714D01*
X105862381Y-39870000D02*
X104862381Y-39870000D01*
X105005238Y-39965238D01*
X105100476Y-40060476D01*
X105148095Y-40155714D01*
X105862381Y-39155714D02*
X104862381Y-39155714D01*
X105862381Y-38584285D02*
X105290952Y-39012857D01*
X104862381Y-38584285D02*
X105433810Y-39155714D01*
X116673334Y-46807381D02*
X116340000Y-46331190D01*
X116101905Y-46807381D02*
X116101905Y-45807381D01*
X116482858Y-45807381D01*
X116578096Y-45855000D01*
X116625715Y-45902619D01*
X116673334Y-45997857D01*
X116673334Y-46140714D01*
X116625715Y-46235952D01*
X116578096Y-46283571D01*
X116482858Y-46331190D01*
X116101905Y-46331190D01*
X117006667Y-45807381D02*
X117673334Y-45807381D01*
X117244762Y-46807381D01*
X111791905Y-47807619D02*
X111839524Y-47760000D01*
X111934762Y-47712381D01*
X112172858Y-47712381D01*
X112268096Y-47760000D01*
X112315715Y-47807619D01*
X112363334Y-47902857D01*
X112363334Y-47998095D01*
X112315715Y-48140952D01*
X111744286Y-48712381D01*
X112363334Y-48712381D01*
X112744286Y-47807619D02*
X112791905Y-47760000D01*
X112887143Y-47712381D01*
X113125239Y-47712381D01*
X113220477Y-47760000D01*
X113268096Y-47807619D01*
X113315715Y-47902857D01*
X113315715Y-47998095D01*
X113268096Y-48140952D01*
X112696667Y-48712381D01*
X113315715Y-48712381D01*
X113934762Y-47712381D02*
X114030001Y-47712381D01*
X114125239Y-47760000D01*
X114172858Y-47807619D01*
X114220477Y-47902857D01*
X114268096Y-48093333D01*
X114268096Y-48331429D01*
X114220477Y-48521905D01*
X114172858Y-48617143D01*
X114125239Y-48664762D01*
X114030001Y-48712381D01*
X113934762Y-48712381D01*
X113839524Y-48664762D01*
X113791905Y-48617143D01*
X113744286Y-48521905D01*
X113696667Y-48331429D01*
X113696667Y-48093333D01*
X113744286Y-47902857D01*
X113791905Y-47807619D01*
X113839524Y-47760000D01*
X113934762Y-47712381D01*
X130643334Y-46807381D02*
X130310000Y-46331190D01*
X130071905Y-46807381D02*
X130071905Y-45807381D01*
X130452858Y-45807381D01*
X130548096Y-45855000D01*
X130595715Y-45902619D01*
X130643334Y-45997857D01*
X130643334Y-46140714D01*
X130595715Y-46235952D01*
X130548096Y-46283571D01*
X130452858Y-46331190D01*
X130071905Y-46331190D01*
X131214762Y-46235952D02*
X131119524Y-46188333D01*
X131071905Y-46140714D01*
X131024286Y-46045476D01*
X131024286Y-45997857D01*
X131071905Y-45902619D01*
X131119524Y-45855000D01*
X131214762Y-45807381D01*
X131405239Y-45807381D01*
X131500477Y-45855000D01*
X131548096Y-45902619D01*
X131595715Y-45997857D01*
X131595715Y-46045476D01*
X131548096Y-46140714D01*
X131500477Y-46188333D01*
X131405239Y-46235952D01*
X131214762Y-46235952D01*
X131119524Y-46283571D01*
X131071905Y-46331190D01*
X131024286Y-46426429D01*
X131024286Y-46616905D01*
X131071905Y-46712143D01*
X131119524Y-46759762D01*
X131214762Y-46807381D01*
X131405239Y-46807381D01*
X131500477Y-46759762D01*
X131548096Y-46712143D01*
X131595715Y-46616905D01*
X131595715Y-46426429D01*
X131548096Y-46331190D01*
X131500477Y-46283571D01*
X131405239Y-46235952D01*
X125761905Y-47807619D02*
X125809524Y-47760000D01*
X125904762Y-47712381D01*
X126142858Y-47712381D01*
X126238096Y-47760000D01*
X126285715Y-47807619D01*
X126333334Y-47902857D01*
X126333334Y-47998095D01*
X126285715Y-48140952D01*
X125714286Y-48712381D01*
X126333334Y-48712381D01*
X126714286Y-47807619D02*
X126761905Y-47760000D01*
X126857143Y-47712381D01*
X127095239Y-47712381D01*
X127190477Y-47760000D01*
X127238096Y-47807619D01*
X127285715Y-47902857D01*
X127285715Y-47998095D01*
X127238096Y-48140952D01*
X126666667Y-48712381D01*
X127285715Y-48712381D01*
X127904762Y-47712381D02*
X128000001Y-47712381D01*
X128095239Y-47760000D01*
X128142858Y-47807619D01*
X128190477Y-47902857D01*
X128238096Y-48093333D01*
X128238096Y-48331429D01*
X128190477Y-48521905D01*
X128142858Y-48617143D01*
X128095239Y-48664762D01*
X128000001Y-48712381D01*
X127904762Y-48712381D01*
X127809524Y-48664762D01*
X127761905Y-48617143D01*
X127714286Y-48521905D01*
X127666667Y-48331429D01*
X127666667Y-48093333D01*
X127714286Y-47902857D01*
X127761905Y-47807619D01*
X127809524Y-47760000D01*
X127904762Y-47712381D01*
X74747381Y-57316666D02*
X74271190Y-57650000D01*
X74747381Y-57888095D02*
X73747381Y-57888095D01*
X73747381Y-57507142D01*
X73795000Y-57411904D01*
X73842619Y-57364285D01*
X73937857Y-57316666D01*
X74080714Y-57316666D01*
X74175952Y-57364285D01*
X74223571Y-57411904D01*
X74271190Y-57507142D01*
X74271190Y-57888095D01*
X74747381Y-56364285D02*
X74747381Y-56935714D01*
X74747381Y-56650000D02*
X73747381Y-56650000D01*
X73890238Y-56745238D01*
X73985476Y-56840476D01*
X74033095Y-56935714D01*
X71937619Y-54578095D02*
X71890000Y-54530476D01*
X71842381Y-54435238D01*
X71842381Y-54197142D01*
X71890000Y-54101904D01*
X71937619Y-54054285D01*
X72032857Y-54006666D01*
X72128095Y-54006666D01*
X72270952Y-54054285D01*
X72842381Y-54625714D01*
X72842381Y-54006666D01*
X71937619Y-53625714D02*
X71890000Y-53578095D01*
X71842381Y-53482857D01*
X71842381Y-53244761D01*
X71890000Y-53149523D01*
X71937619Y-53101904D01*
X72032857Y-53054285D01*
X72128095Y-53054285D01*
X72270952Y-53101904D01*
X72842381Y-53673333D01*
X72842381Y-53054285D01*
X71842381Y-52435238D02*
X71842381Y-52339999D01*
X71890000Y-52244761D01*
X71937619Y-52197142D01*
X72032857Y-52149523D01*
X72223333Y-52101904D01*
X72461429Y-52101904D01*
X72651905Y-52149523D01*
X72747143Y-52197142D01*
X72794762Y-52244761D01*
X72842381Y-52339999D01*
X72842381Y-52435238D01*
X72794762Y-52530476D01*
X72747143Y-52578095D01*
X72651905Y-52625714D01*
X72461429Y-52673333D01*
X72223333Y-52673333D01*
X72032857Y-52625714D01*
X71937619Y-52578095D01*
X71890000Y-52530476D01*
X71842381Y-52435238D01*
X81732381Y-62968095D02*
X80732381Y-62968095D01*
X80732381Y-62587142D01*
X80780000Y-62491904D01*
X80827619Y-62444285D01*
X80922857Y-62396666D01*
X81065714Y-62396666D01*
X81160952Y-62444285D01*
X81208571Y-62491904D01*
X81256190Y-62587142D01*
X81256190Y-62968095D01*
X80732381Y-61491904D02*
X80732381Y-61968095D01*
X81208571Y-62015714D01*
X81160952Y-61968095D01*
X81113333Y-61872857D01*
X81113333Y-61634761D01*
X81160952Y-61539523D01*
X81208571Y-61491904D01*
X81303810Y-61444285D01*
X81541905Y-61444285D01*
X81637143Y-61491904D01*
X81684762Y-61539523D01*
X81732381Y-61634761D01*
X81732381Y-61872857D01*
X81684762Y-61968095D01*
X81637143Y-62015714D01*
X103322381Y-62968095D02*
X102322381Y-62968095D01*
X102322381Y-62587142D01*
X102370000Y-62491904D01*
X102417619Y-62444285D01*
X102512857Y-62396666D01*
X102655714Y-62396666D01*
X102750952Y-62444285D01*
X102798571Y-62491904D01*
X102846190Y-62587142D01*
X102846190Y-62968095D01*
X102322381Y-61539523D02*
X102322381Y-61730000D01*
X102370000Y-61825238D01*
X102417619Y-61872857D01*
X102560476Y-61968095D01*
X102750952Y-62015714D01*
X103131905Y-62015714D01*
X103227143Y-61968095D01*
X103274762Y-61920476D01*
X103322381Y-61825238D01*
X103322381Y-61634761D01*
X103274762Y-61539523D01*
X103227143Y-61491904D01*
X103131905Y-61444285D01*
X102893810Y-61444285D01*
X102798571Y-61491904D01*
X102750952Y-61539523D01*
X102703333Y-61634761D01*
X102703333Y-61825238D01*
X102750952Y-61920476D01*
X102798571Y-61968095D01*
X102893810Y-62015714D01*
X122372381Y-62968095D02*
X121372381Y-62968095D01*
X121372381Y-62587142D01*
X121420000Y-62491904D01*
X121467619Y-62444285D01*
X121562857Y-62396666D01*
X121705714Y-62396666D01*
X121800952Y-62444285D01*
X121848571Y-62491904D01*
X121896190Y-62587142D01*
X121896190Y-62968095D01*
X121372381Y-62063333D02*
X121372381Y-61396666D01*
X122372381Y-61825238D01*
X122428095Y-21042381D02*
X122428095Y-21851905D01*
X122475714Y-21947143D01*
X122523333Y-21994762D01*
X122618571Y-22042381D01*
X122809048Y-22042381D01*
X122904286Y-21994762D01*
X122951905Y-21947143D01*
X122999524Y-21851905D01*
X122999524Y-21042381D01*
X123904286Y-21375714D02*
X123904286Y-22042381D01*
X123666190Y-20994762D02*
X123428095Y-21709048D01*
X124047143Y-21709048D01*
X121594762Y-23312381D02*
X121118571Y-23312381D01*
X121118571Y-22312381D01*
X121880476Y-23264762D02*
X122023333Y-23312381D01*
X122261429Y-23312381D01*
X122356667Y-23264762D01*
X122404286Y-23217143D01*
X122451905Y-23121905D01*
X122451905Y-23026667D01*
X122404286Y-22931429D01*
X122356667Y-22883810D01*
X122261429Y-22836190D01*
X122070952Y-22788571D01*
X121975714Y-22740952D01*
X121928095Y-22693333D01*
X121880476Y-22598095D01*
X121880476Y-22502857D01*
X121928095Y-22407619D01*
X121975714Y-22360000D01*
X122070952Y-22312381D01*
X122309048Y-22312381D01*
X122451905Y-22360000D01*
X123356667Y-22312381D02*
X122880476Y-22312381D01*
X122832857Y-22788571D01*
X122880476Y-22740952D01*
X122975714Y-22693333D01*
X123213810Y-22693333D01*
X123309048Y-22740952D01*
X123356667Y-22788571D01*
X123404286Y-22883810D01*
X123404286Y-23121905D01*
X123356667Y-23217143D01*
X123309048Y-23264762D01*
X123213810Y-23312381D01*
X122975714Y-23312381D01*
X122880476Y-23264762D01*
X122832857Y-23217143D01*
X123880476Y-23312381D02*
X124070952Y-23312381D01*
X124166191Y-23264762D01*
X124213810Y-23217143D01*
X124309048Y-23074286D01*
X124356667Y-22883810D01*
X124356667Y-22502857D01*
X124309048Y-22407619D01*
X124261429Y-22360000D01*
X124166191Y-22312381D01*
X123975714Y-22312381D01*
X123880476Y-22360000D01*
X123832857Y-22407619D01*
X123785238Y-22502857D01*
X123785238Y-22740952D01*
X123832857Y-22836190D01*
X123880476Y-22883810D01*
X123975714Y-22931429D01*
X124166191Y-22931429D01*
X124261429Y-22883810D01*
X124309048Y-22836190D01*
X124356667Y-22740952D01*
X124975714Y-22312381D02*
X125070953Y-22312381D01*
X125166191Y-22360000D01*
X125213810Y-22407619D01*
X125261429Y-22502857D01*
X125309048Y-22693333D01*
X125309048Y-22931429D01*
X125261429Y-23121905D01*
X125213810Y-23217143D01*
X125166191Y-23264762D01*
X125070953Y-23312381D01*
X124975714Y-23312381D01*
X124880476Y-23264762D01*
X124832857Y-23217143D01*
X124785238Y-23121905D01*
X124737619Y-22931429D01*
X124737619Y-22693333D01*
X124785238Y-22502857D01*
X124832857Y-22407619D01*
X124880476Y-22360000D01*
X124975714Y-22312381D01*
X107942143Y-29027381D02*
X107608809Y-28551190D01*
X107370714Y-29027381D02*
X107370714Y-28027381D01*
X107751667Y-28027381D01*
X107846905Y-28075000D01*
X107894524Y-28122619D01*
X107942143Y-28217857D01*
X107942143Y-28360714D01*
X107894524Y-28455952D01*
X107846905Y-28503571D01*
X107751667Y-28551190D01*
X107370714Y-28551190D01*
X108894524Y-29027381D02*
X108323095Y-29027381D01*
X108608809Y-29027381D02*
X108608809Y-28027381D01*
X108513571Y-28170238D01*
X108418333Y-28265476D01*
X108323095Y-28313095D01*
X109275476Y-28122619D02*
X109323095Y-28075000D01*
X109418333Y-28027381D01*
X109656429Y-28027381D01*
X109751667Y-28075000D01*
X109799286Y-28122619D01*
X109846905Y-28217857D01*
X109846905Y-28313095D01*
X109799286Y-28455952D01*
X109227857Y-29027381D01*
X109846905Y-29027381D01*
X103925715Y-30932381D02*
X103354286Y-30932381D01*
X103640000Y-30932381D02*
X103640000Y-29932381D01*
X103544762Y-30075238D01*
X103449524Y-30170476D01*
X103354286Y-30218095D01*
X104354286Y-30932381D02*
X104354286Y-29932381D01*
X104925715Y-30932381D02*
X104497143Y-30360952D01*
X104925715Y-29932381D02*
X104354286Y-30503810D01*
X149312381Y-35852859D02*
X150312381Y-35614764D01*
X149598095Y-35424287D01*
X150312381Y-35233811D01*
X149312381Y-34995716D01*
X150312381Y-34186192D02*
X149788571Y-34186192D01*
X149693333Y-34233811D01*
X149645714Y-34329049D01*
X149645714Y-34519526D01*
X149693333Y-34614764D01*
X150264762Y-34186192D02*
X150312381Y-34281430D01*
X150312381Y-34519526D01*
X150264762Y-34614764D01*
X150169524Y-34662383D01*
X150074286Y-34662383D01*
X149979048Y-34614764D01*
X149931429Y-34519526D01*
X149931429Y-34281430D01*
X149883810Y-34186192D01*
X149645714Y-33805240D02*
X150312381Y-33567145D01*
X149645714Y-33329049D01*
X150264762Y-32567144D02*
X150312381Y-32662382D01*
X150312381Y-32852859D01*
X150264762Y-32948097D01*
X150169524Y-32995716D01*
X149788571Y-32995716D01*
X149693333Y-32948097D01*
X149645714Y-32852859D01*
X149645714Y-32662382D01*
X149693333Y-32567144D01*
X149788571Y-32519525D01*
X149883810Y-32519525D01*
X149979048Y-32995716D01*
X149788571Y-30995715D02*
X149836190Y-30852858D01*
X149883810Y-30805239D01*
X149979048Y-30757620D01*
X150121905Y-30757620D01*
X150217143Y-30805239D01*
X150264762Y-30852858D01*
X150312381Y-30948096D01*
X150312381Y-31329049D01*
X149312381Y-31329049D01*
X149312381Y-30995715D01*
X149360000Y-30900477D01*
X149407619Y-30852858D01*
X149502857Y-30805239D01*
X149598095Y-30805239D01*
X149693333Y-30852858D01*
X149740952Y-30900477D01*
X149788571Y-30995715D01*
X149788571Y-31329049D01*
X150312381Y-30186192D02*
X150264762Y-30281430D01*
X150169524Y-30329049D01*
X149312381Y-30329049D01*
X150312381Y-29376667D02*
X149788571Y-29376667D01*
X149693333Y-29424286D01*
X149645714Y-29519524D01*
X149645714Y-29710001D01*
X149693333Y-29805239D01*
X150264762Y-29376667D02*
X150312381Y-29471905D01*
X150312381Y-29710001D01*
X150264762Y-29805239D01*
X150169524Y-29852858D01*
X150074286Y-29852858D01*
X149979048Y-29805239D01*
X149931429Y-29710001D01*
X149931429Y-29471905D01*
X149883810Y-29376667D01*
X150264762Y-28948096D02*
X150312381Y-28852858D01*
X150312381Y-28662382D01*
X150264762Y-28567143D01*
X150169524Y-28519524D01*
X150121905Y-28519524D01*
X150026667Y-28567143D01*
X149979048Y-28662382D01*
X149979048Y-28805239D01*
X149931429Y-28900477D01*
X149836190Y-28948096D01*
X149788571Y-28948096D01*
X149693333Y-28900477D01*
X149645714Y-28805239D01*
X149645714Y-28662382D01*
X149693333Y-28567143D01*
X149645714Y-28233810D02*
X149645714Y-27852858D01*
X149312381Y-28090953D02*
X150169524Y-28090953D01*
X150264762Y-28043334D01*
X150312381Y-27948096D01*
X150312381Y-27852858D01*
X150264762Y-27138571D02*
X150312381Y-27233809D01*
X150312381Y-27424286D01*
X150264762Y-27519524D01*
X150169524Y-27567143D01*
X149788571Y-27567143D01*
X149693333Y-27519524D01*
X149645714Y-27424286D01*
X149645714Y-27233809D01*
X149693333Y-27138571D01*
X149788571Y-27090952D01*
X149883810Y-27090952D01*
X149979048Y-27567143D01*
X150312381Y-26662381D02*
X149645714Y-26662381D01*
X149836190Y-26662381D02*
X149740952Y-26614762D01*
X149693333Y-26567143D01*
X149645714Y-26471905D01*
X149645714Y-26376666D01*
X150312381Y-25281428D02*
X149312381Y-25281428D01*
X149312381Y-24900475D01*
X149360000Y-24805237D01*
X149407619Y-24757618D01*
X149502857Y-24709999D01*
X149645714Y-24709999D01*
X149740952Y-24757618D01*
X149788571Y-24805237D01*
X149836190Y-24900475D01*
X149836190Y-25281428D01*
X150312381Y-24138571D02*
X150264762Y-24233809D01*
X150217143Y-24281428D01*
X150121905Y-24329047D01*
X149836190Y-24329047D01*
X149740952Y-24281428D01*
X149693333Y-24233809D01*
X149645714Y-24138571D01*
X149645714Y-23995713D01*
X149693333Y-23900475D01*
X149740952Y-23852856D01*
X149836190Y-23805237D01*
X150121905Y-23805237D01*
X150217143Y-23852856D01*
X150264762Y-23900475D01*
X150312381Y-23995713D01*
X150312381Y-24138571D01*
X150312381Y-23376666D02*
X149645714Y-23376666D01*
X149836190Y-23376666D02*
X149740952Y-23329047D01*
X149693333Y-23281428D01*
X149645714Y-23186190D01*
X149645714Y-23090951D01*
X149645714Y-22900475D02*
X149645714Y-22519523D01*
X149312381Y-22757618D02*
X150169524Y-22757618D01*
X150264762Y-22709999D01*
X150312381Y-22614761D01*
X150312381Y-22519523D01*
D11*
X164766667Y-57872381D02*
X164766667Y-58586667D01*
X164719047Y-58729524D01*
X164623809Y-58824762D01*
X164480952Y-58872381D01*
X164385714Y-58872381D01*
X165671429Y-58205714D02*
X165671429Y-58872381D01*
X165433333Y-57824762D02*
X165195238Y-58539048D01*
X165814286Y-58539048D01*
X161591667Y-26122381D02*
X161591667Y-26836667D01*
X161544047Y-26979524D01*
X161448809Y-27074762D01*
X161305952Y-27122381D01*
X161210714Y-27122381D01*
X162544048Y-26122381D02*
X162067857Y-26122381D01*
X162020238Y-26598571D01*
X162067857Y-26550952D01*
X162163095Y-26503333D01*
X162401191Y-26503333D01*
X162496429Y-26550952D01*
X162544048Y-26598571D01*
X162591667Y-26693810D01*
X162591667Y-26931905D01*
X162544048Y-27027143D01*
X162496429Y-27074762D01*
X162401191Y-27122381D01*
X162163095Y-27122381D01*
X162067857Y-27074762D01*
X162020238Y-27027143D01*
D12*
X119213334Y-44807143D02*
X119165715Y-44854762D01*
X119022858Y-44902381D01*
X118927620Y-44902381D01*
X118784762Y-44854762D01*
X118689524Y-44759524D01*
X118641905Y-44664286D01*
X118594286Y-44473810D01*
X118594286Y-44330952D01*
X118641905Y-44140476D01*
X118689524Y-44045238D01*
X118784762Y-43950000D01*
X118927620Y-43902381D01*
X119022858Y-43902381D01*
X119165715Y-43950000D01*
X119213334Y-43997619D01*
X119594286Y-43997619D02*
X119641905Y-43950000D01*
X119737143Y-43902381D01*
X119975239Y-43902381D01*
X120070477Y-43950000D01*
X120118096Y-43997619D01*
X120165715Y-44092857D01*
X120165715Y-44188095D01*
X120118096Y-44330952D01*
X119546667Y-44902381D01*
X120165715Y-44902381D01*
X127150953Y-44902381D02*
X126579524Y-44902381D01*
X126865238Y-44902381D02*
X126865238Y-43902381D01*
X126770000Y-44045238D01*
X126674762Y-44140476D01*
X126579524Y-44188095D01*
X127770000Y-43902381D02*
X127865239Y-43902381D01*
X127960477Y-43950000D01*
X128008096Y-43997619D01*
X128055715Y-44092857D01*
X128103334Y-44283333D01*
X128103334Y-44521429D01*
X128055715Y-44711905D01*
X128008096Y-44807143D01*
X127960477Y-44854762D01*
X127865239Y-44902381D01*
X127770000Y-44902381D01*
X127674762Y-44854762D01*
X127627143Y-44807143D01*
X127579524Y-44711905D01*
X127531905Y-44521429D01*
X127531905Y-44283333D01*
X127579524Y-44092857D01*
X127627143Y-43997619D01*
X127674762Y-43950000D01*
X127770000Y-43902381D01*
X128722381Y-43902381D02*
X128817620Y-43902381D01*
X128912858Y-43950000D01*
X128960477Y-43997619D01*
X129008096Y-44092857D01*
X129055715Y-44283333D01*
X129055715Y-44521429D01*
X129008096Y-44711905D01*
X128960477Y-44807143D01*
X128912858Y-44854762D01*
X128817620Y-44902381D01*
X128722381Y-44902381D01*
X128627143Y-44854762D01*
X128579524Y-44807143D01*
X128531905Y-44711905D01*
X128484286Y-44521429D01*
X128484286Y-44283333D01*
X128531905Y-44092857D01*
X128579524Y-43997619D01*
X128627143Y-43950000D01*
X128722381Y-43902381D01*
X129484286Y-44235714D02*
X129484286Y-44902381D01*
X129484286Y-44330952D02*
X129531905Y-44283333D01*
X129627143Y-44235714D01*
X129770001Y-44235714D01*
X129865239Y-44283333D01*
X129912858Y-44378571D01*
X129912858Y-44902381D01*
X122372381Y-39536666D02*
X121896190Y-39870000D01*
X122372381Y-40108095D02*
X121372381Y-40108095D01*
X121372381Y-39727142D01*
X121420000Y-39631904D01*
X121467619Y-39584285D01*
X121562857Y-39536666D01*
X121705714Y-39536666D01*
X121800952Y-39584285D01*
X121848571Y-39631904D01*
X121896190Y-39727142D01*
X121896190Y-40108095D01*
X122372381Y-39060476D02*
X122372381Y-38870000D01*
X122324762Y-38774761D01*
X122277143Y-38727142D01*
X122134286Y-38631904D01*
X121943810Y-38584285D01*
X121562857Y-38584285D01*
X121467619Y-38631904D01*
X121420000Y-38679523D01*
X121372381Y-38774761D01*
X121372381Y-38965238D01*
X121420000Y-39060476D01*
X121467619Y-39108095D01*
X121562857Y-39155714D01*
X121800952Y-39155714D01*
X121896190Y-39108095D01*
X121943810Y-39060476D01*
X121991429Y-38965238D01*
X121991429Y-38774761D01*
X121943810Y-38679523D01*
X121896190Y-38631904D01*
X121800952Y-38584285D01*
X121372381Y-33059524D02*
X121372381Y-32440476D01*
X121753333Y-32773810D01*
X121753333Y-32630952D01*
X121800952Y-32535714D01*
X121848571Y-32488095D01*
X121943810Y-32440476D01*
X122181905Y-32440476D01*
X122277143Y-32488095D01*
X122324762Y-32535714D01*
X122372381Y-32630952D01*
X122372381Y-32916667D01*
X122324762Y-33011905D01*
X122277143Y-33059524D01*
X121372381Y-32107143D02*
X121372381Y-31488095D01*
X121753333Y-31821429D01*
X121753333Y-31678571D01*
X121800952Y-31583333D01*
X121848571Y-31535714D01*
X121943810Y-31488095D01*
X122181905Y-31488095D01*
X122277143Y-31535714D01*
X122324762Y-31583333D01*
X122372381Y-31678571D01*
X122372381Y-31964286D01*
X122324762Y-32059524D01*
X122277143Y-32107143D01*
X122372381Y-31059524D02*
X121372381Y-31059524D01*
X122372381Y-30488095D02*
X121800952Y-30916667D01*
X121372381Y-30488095D02*
X121943810Y-31059524D01*
X124912381Y-40012857D02*
X124436190Y-40346191D01*
X124912381Y-40584286D02*
X123912381Y-40584286D01*
X123912381Y-40203333D01*
X123960000Y-40108095D01*
X124007619Y-40060476D01*
X124102857Y-40012857D01*
X124245714Y-40012857D01*
X124340952Y-40060476D01*
X124388571Y-40108095D01*
X124436190Y-40203333D01*
X124436190Y-40584286D01*
X124912381Y-39060476D02*
X124912381Y-39631905D01*
X124912381Y-39346191D02*
X123912381Y-39346191D01*
X124055238Y-39441429D01*
X124150476Y-39536667D01*
X124198095Y-39631905D01*
X123912381Y-38441429D02*
X123912381Y-38346190D01*
X123960000Y-38250952D01*
X124007619Y-38203333D01*
X124102857Y-38155714D01*
X124293333Y-38108095D01*
X124531429Y-38108095D01*
X124721905Y-38155714D01*
X124817143Y-38203333D01*
X124864762Y-38250952D01*
X124912381Y-38346190D01*
X124912381Y-38441429D01*
X124864762Y-38536667D01*
X124817143Y-38584286D01*
X124721905Y-38631905D01*
X124531429Y-38679524D01*
X124293333Y-38679524D01*
X124102857Y-38631905D01*
X124007619Y-38584286D01*
X123960000Y-38536667D01*
X123912381Y-38441429D01*
X123912381Y-33059524D02*
X123912381Y-32440476D01*
X124293333Y-32773810D01*
X124293333Y-32630952D01*
X124340952Y-32535714D01*
X124388571Y-32488095D01*
X124483810Y-32440476D01*
X124721905Y-32440476D01*
X124817143Y-32488095D01*
X124864762Y-32535714D01*
X124912381Y-32630952D01*
X124912381Y-32916667D01*
X124864762Y-33011905D01*
X124817143Y-33059524D01*
X123912381Y-32107143D02*
X123912381Y-31488095D01*
X124293333Y-31821429D01*
X124293333Y-31678571D01*
X124340952Y-31583333D01*
X124388571Y-31535714D01*
X124483810Y-31488095D01*
X124721905Y-31488095D01*
X124817143Y-31535714D01*
X124864762Y-31583333D01*
X124912381Y-31678571D01*
X124912381Y-31964286D01*
X124864762Y-32059524D01*
X124817143Y-32107143D01*
X124912381Y-31059524D02*
X123912381Y-31059524D01*
X124912381Y-30488095D02*
X124340952Y-30916667D01*
X123912381Y-30488095D02*
X124483810Y-31059524D01*
X107211905Y-27122381D02*
X107211905Y-26122381D01*
X107450000Y-26122381D01*
X107592858Y-26170000D01*
X107688096Y-26265238D01*
X107735715Y-26360476D01*
X107783334Y-26550952D01*
X107783334Y-26693810D01*
X107735715Y-26884286D01*
X107688096Y-26979524D01*
X107592858Y-27074762D01*
X107450000Y-27122381D01*
X107211905Y-27122381D01*
X108164286Y-26217619D02*
X108211905Y-26170000D01*
X108307143Y-26122381D01*
X108545239Y-26122381D01*
X108640477Y-26170000D01*
X108688096Y-26217619D01*
X108735715Y-26312857D01*
X108735715Y-26408095D01*
X108688096Y-26550952D01*
X108116667Y-27122381D01*
X108735715Y-27122381D01*
D18*
X143002000Y-61395429D02*
X143002000Y-62484000D01*
X142929428Y-62701714D01*
X142784285Y-62846857D01*
X142566571Y-62919429D01*
X142421428Y-62919429D01*
X143655143Y-61540571D02*
X143727714Y-61468000D01*
X143872857Y-61395429D01*
X144235714Y-61395429D01*
X144380857Y-61468000D01*
X144453428Y-61540571D01*
X144526000Y-61685714D01*
X144526000Y-61830857D01*
X144453428Y-62048571D01*
X143582571Y-62919429D01*
X144526000Y-62919429D01*
X155702000Y-61395429D02*
X155702000Y-62484000D01*
X155629428Y-62701714D01*
X155484285Y-62846857D01*
X155266571Y-62919429D01*
X155121428Y-62919429D01*
X156282571Y-61395429D02*
X157226000Y-61395429D01*
X156718000Y-61976000D01*
X156935714Y-61976000D01*
X157080857Y-62048571D01*
X157153428Y-62121143D01*
X157226000Y-62266286D01*
X157226000Y-62629143D01*
X157153428Y-62774286D01*
X157080857Y-62846857D01*
X156935714Y-62919429D01*
X156500286Y-62919429D01*
X156355143Y-62846857D01*
X156282571Y-62774286D01*
D12*
X83081905Y-22042381D02*
X83081905Y-21042381D01*
X83462858Y-21042381D01*
X83558096Y-21090000D01*
X83605715Y-21137619D01*
X83653334Y-21232857D01*
X83653334Y-21375714D01*
X83605715Y-21470952D01*
X83558096Y-21518571D01*
X83462858Y-21566190D01*
X83081905Y-21566190D01*
X84510477Y-21375714D02*
X84510477Y-22042381D01*
X84272381Y-20994762D02*
X84034286Y-21709048D01*
X84653334Y-21709048D01*
X95472381Y-21994762D02*
X95615238Y-22042381D01*
X95853334Y-22042381D01*
X95948572Y-21994762D01*
X95996191Y-21947143D01*
X96043810Y-21851905D01*
X96043810Y-21756667D01*
X95996191Y-21661429D01*
X95948572Y-21613810D01*
X95853334Y-21566190D01*
X95662857Y-21518571D01*
X95567619Y-21470952D01*
X95520000Y-21423333D01*
X95472381Y-21328095D01*
X95472381Y-21232857D01*
X95520000Y-21137619D01*
X95567619Y-21090000D01*
X95662857Y-21042381D01*
X95900953Y-21042381D01*
X96043810Y-21090000D01*
X96472381Y-22042381D02*
X96472381Y-21042381D01*
X97139047Y-21042381D02*
X97329524Y-21042381D01*
X97424762Y-21090000D01*
X97520000Y-21185238D01*
X97567619Y-21375714D01*
X97567619Y-21709048D01*
X97520000Y-21899524D01*
X97424762Y-21994762D01*
X97329524Y-22042381D01*
X97139047Y-22042381D01*
X97043809Y-21994762D01*
X96948571Y-21899524D01*
X96900952Y-21709048D01*
X96900952Y-21375714D01*
X96948571Y-21185238D01*
X97043809Y-21090000D01*
X97139047Y-21042381D01*
M02*
